<?xml version="1.0" encoding="utf-8"?>
<!-- Generator: Adobe Illustrator 25.2.3, SVG Export Plug-In . SVG Version: 6.00 Build 0)  -->
<svg version="1.1" id="Layer_1" xmlns="http://www.w3.org/2000/svg" xmlns:xlink="http://www.w3.org/1999/xlink" x="0px" y="0px"
	 viewBox="0 0 80 80" style="enable-background:new 0 0 80 80;" xml:space="preserve">
<style type="text/css">
	.st0{fill:#4A3F3C;}
</style>
<path class="st0" d="M74.7,51.1h-9.4c0-1.5,0-3-0.1-4.6h6.3c0.5,0,0.9-0.4,0.9-0.9s-0.4-0.9-0.9-0.9h-6.3c0-1.5,0-3.1-0.1-4.6H68
	c0.5,0,0.9-0.4,0.9-0.9s-0.4-0.9-0.9-0.9h-3c-0.1-6.7-0.2-12.2-0.4-13.9v-0.5c-0.4-4.3-0.8-8.4-6.4-12.6c-4.7-3.4-7.1-5.7-8.1-7.6
	c-0.2-0.4-0.3-0.7-0.4-1c-0.6-1.4-1.2-2-3.3-2.3c-3.3-0.5-4.5-0.5-5.3-0.2c-0.8,0.4-1.1,1.1-1.2,1.6c-0.1,0.3-0.2,0.6-0.4,0.9
	c-0.6,1.3-2,3.7-4.6,5.8l-0.1,0.1c-3.2,2.4-9,7-9.6,14.4c-0.1,1.4-0.2,3.1-0.3,5.1l0,0c-1.7-1.4-3.8-0.3-4.1-0.2l-0.2,0.2
	c-0.1,0.1-7.8,7.7-9,9c-0.9,0.9-2,1-2.1,1H5.9c-0.8,0-1.5,0.7-1.5,1.5v11.6c0,0.8,0.7,1.5,1.5,1.5h3.9c0.3,0,2.1-0.1,4.2,1
	c2.5,1.3,4.5,2.1,7.2,2.1h3.5c0.1,3,0.1,6.3,0.2,9.2v1c0.1,2.8,0.1,5.2,0.1,6.2c0,2.8,0.8,3.6,1.6,3.8c0.4,0.2,1.6,0.6,3.4,1.1v0.4
	c0,0.2-0.1,1.6,2,2l0.4,0.1c0.9,0.2,1.7,0.3,2.5,0.3c0.2,0,0.3,0,0.5,0c1.1-0.1,1.7-0.6,1.9-1.5c2.3,0.3,4.7,0.4,7,0.3
	c2.9,0,5.7-0.2,8.5-0.5c0.1,1,0.7,1.5,1.9,1.6c0.9,0.1,1.9-0.1,3-0.3l0.4-0.1c2.1-0.4,2-1.8,2-1.9v-0.4c3.3-0.7,3.8-1.2,4.1-1.5
	c1-1,1.2-1.7,1.2-6.7c0-1.5,0-8.2-0.1-16h9.4c0.5,0,0.9-0.4,0.9-0.9C75.6,51.5,75.2,51.1,74.7,51.1z M24.8,36.9h-1.7
	c0.3-0.4,1-1.5,1.7-2.5C24.8,35.3,24.8,36.1,24.8,36.9z M14.9,52c-2.5-1.3-4.7-1.3-5.2-1.2H6.3V40h3.2c0.1,0,2.1-0.1,3.5-1.6
	c1.1-1.1,7.6-7.6,8.8-8.9c0.3-0.1,1.2-0.4,1.8,0.1c0.8,0.7,1,1.3,0.5,2.1c-0.4,0.6-1.4,2.1-2.8,4.1l0.1,0.2
	c-0.1,0.2-0.8,1.2-0.3,2.1c0.2,0.4,0.7,0.9,1.8,0.8h12c0.4,0,0.7,0.1,0.9,0.3s0.3,0.6,0.3,1.1c-0.1,0.8-0.9,0.9-1.1,0.9h-9.6
	c-0.5,0-1,0.4-1,1s0.4,1,1,1H35h5.4c0.4,0,0.7,0.1,0.9,0.3s0.3,0.6,0.3,1.1c-0.1,0.8-0.9,0.9-1.1,0.9h-15c-0.5,0-1,0.4-1,1
	c0,0.5,0.4,1,1,1H37c0.3,0,0.7,0.1,0.9,0.3s0.3,0.6,0.3,1.1c0,0.9-1.4,1-1.5,1H25.3c-0.5,0-1,0.4-1,1c0,0.5,0.4,1,1,1h7.9
	c0.1,0.1,0.2,0.1,0.3,0.2c0,0,0.4,0.1,0.4,1.1c-0.1,0.9-1.2,0.9-1.6,0.9h-11C19.2,53.9,17.6,53.4,14.9,52z M63.1,69
	c0,4.5-0.2,4.7-0.5,5c-0.2,0.1-1.2,0.5-3.8,1l-0.9,0.2l-0.1,1.9h-0.1l-0.4,0.1c-0.8,0.2-1.5,0.3-2.1,0.3c0-0.2,0-0.4,0-0.7l-0.1-1.2
	l-1.2,0.1c-3.1,0.4-6.3,0.6-9.5,0.6c-2.7,0-5.3-0.1-7.9-0.5l-1.3-0.2l-0.1,1.3c0,0.2,0,0.4,0,0.5c-0.5,0-1.3-0.1-2.1-0.3L32.6,77
	c-0.1,0-0.1,0-0.1,0l-0.1-1.9l-0.9-0.2c-2-0.5-3.4-1-3.8-1.2c-0.1-0.2-0.2-0.7-0.2-1.6c0-1.1-0.1-3.4-0.1-6.3v-1
	c-0.1-2.9-0.2-6.1-0.2-9.1h5.2h0.1c1.2,0,3.3-0.6,3.4-2.8c0-0.6,0-1-0.1-1.4h1.1c1.1,0,3.3-0.7,3.4-2.9c0-0.5-0.1-1-0.2-1.4h0.3
	c1,0,2.9-0.6,3.1-2.7c0.1-1.3-0.4-2.1-0.8-2.5c-0.6-0.6-1.4-0.9-2.3-0.9H38c0.1-0.2,0.1-0.5,0.1-0.8c0.1-1.3-0.4-2.1-0.8-2.5
	c-0.6-0.6-1.4-0.9-2.3-0.9h-7.8c0.1-5.4,0.3-10.5,0.5-13.7c0.5-6.4,5.8-10.5,8.7-12.7l0.1-0.1c3-2.3,4.6-5.2,5.3-6.6
	c0.2-0.5,0.4-0.9,0.5-1.2c0-0.1,0-0.1,0.1-0.2c0.4,0,1.4,0,3.9,0.4C47.5,3,47.5,3,47.8,3.7c0.1,0.3,0.3,0.7,0.6,1.2
	c1.2,2.2,3.7,4.6,8.8,8.3c4.8,3.5,5,6.6,5.4,10.9v0.5c0.1,1.6,0.3,7.1,0.4,13.7H51c-0.5,0-0.9,0.4-0.9,0.9s0.4,0.9,0.9,0.9h12
	c0,1.5,0,3,0.1,4.6h-8.7c-0.5,0-0.9,0.4-0.9,0.9s0.4,0.9,0.9,0.9h8.7c0,1.5,0,3.1,0.1,4.6h-5.6c-0.5,0-0.9,0.4-0.9,0.9
	s0.4,0.9,0.9,0.9H63C63.1,60.2,63.1,66.6,63.1,69z"/>
</svg>
