<?xml version="1.0" encoding="utf-8"?>
<!-- Generator: Adobe Illustrator 25.2.3, SVG Export Plug-In . SVG Version: 6.00 Build 0)  -->
<svg version="1.1" id="Layer_1" xmlns="http://www.w3.org/2000/svg" xmlns:xlink="http://www.w3.org/1999/xlink" x="0px" y="0px"
	 viewBox="0 0 80 80" style="enable-background:new 0 0 80 80;" xml:space="preserve">
<style type="text/css">
	.st0{fill:#4A3F3C;}
</style>
<g>
	<path class="st0" d="M58.5,40H40V11.2c0-0.9-0.8-1.7-1.7-1.7s-1.7,0.8-1.7,1.7v30.5c0,0.9,0.8,1.7,1.7,1.7h20.2
		c0.9,0,1.7-0.8,1.7-1.7S59.5,40,58.5,40z"/>
	<path class="st0" d="M40,0C17.9,0,0,17.9,0,40s17.9,40,40,40s40-17.9,40-40S62.1,0,40,0z M40,76.6C19.8,76.6,3.4,60.2,3.4,40
		S19.8,3.4,40,3.4S76.6,19.8,76.6,40S60.2,76.6,40,76.6z"/>
</g>
</svg>
