<?xml version="1.0" encoding="utf-8"?>
<!-- Generator: Adobe Illustrator 25.2.3, SVG Export Plug-In . SVG Version: 6.00 Build 0)  -->
<svg version="1.1" id="Layer_1" xmlns="http://www.w3.org/2000/svg" xmlns:xlink="http://www.w3.org/1999/xlink" x="0px" y="0px"
	 viewBox="0 0 80 80" style="enable-background:new 0 0 80 80;" xml:space="preserve">
<style type="text/css">
	.st0{fill:#4A3F3C;}
</style>
<g>
	<path class="st0" d="M57.2,9.9v10.7L39,39c-0.6,0.6-0.6,1.5,0,2c0.3,0.3,0.6,0.4,1,0.4s0.7-0.1,1-0.4l18.2-18.3l10,0.4
		c0.4,0,0.8-0.2,1-0.4l8.1-8.5c0.4-0.4,0.5-1,0.3-1.5s-0.7-0.9-1.3-0.9H68V1.9c0-0.6-0.3-1.1-0.9-1.3c-0.5-0.2-1.1-0.1-1.6,0.3l-8,8
		C57.4,9.2,57.2,9.5,57.2,9.9z M61.9,20l5.3-5.3H74l-5.4,5.6L61.9,20z M60.1,17.8v-7.3l5.1-5.2v7.3L60.1,17.8z"/>
	<path class="st0" d="M40,30.9c1.2,0,2.3,0.2,3.4,0.7c0.1,0,0.2,0.1,0.2,0.1c0.1,0,0.1,0.1,0.2,0.1l0.2,0.1l2.1-2.1l-0.5-0.3
		c-0.3-0.2-0.7-0.4-1.1-0.6c-1.4-0.6-3-0.9-4.5-0.9c-6.4,0-11.7,5.2-11.7,11.7S33.6,51.4,40,51.4s11.7-5.2,11.7-11.7
		c0-1.6-0.3-3.1-0.9-4.6c-0.1-0.2-0.2-0.4-0.4-0.7c-0.1-0.1-0.1-0.2-0.2-0.3L50,33.8l-2.1,2.1l0.1,0.2c0,0,0,0.1,0.1,0.2
		c0.5,1.1,0.7,2.3,0.7,3.5c0,4.9-4,8.8-8.8,8.8c-4.9,0-8.8-4-8.8-8.8S35.1,30.9,40,30.9z"/>
	<path class="st0" d="M53.8,22.3l2-2L55.5,20c-4.5-3.6-9.9-5.4-15.7-5.4c-14,0-25.4,11.4-25.4,25.4s11.4,25.4,25.4,25.4
		S65.2,54,65.2,40c0-5.7-1.9-11.1-5.4-15.6l-0.2-0.3l-2,2l0.2,0.2c3,4,4.6,8.7,4.6,13.6c0,12.4-10.1,22.6-22.6,22.6
		c-12.4,0-22.6-10.1-22.6-22.6s10.1-22.6,22.6-22.6c5,0,9.7,1.6,13.7,4.7L53.8,22.3z"/>
	<path class="st0" d="M74.7,21.2l-0.2-0.3L72.4,23l0.1,0.2c2.8,5.3,4.2,11,4.2,16.8c0,20.2-16.5,36.7-36.7,36.7S3.3,60.2,3.3,40
		S19.8,3.3,40,3.3c5.9,0,11.5,1.4,16.8,4.1L57,7.5l2-2.1l-0.3-0.2C52.8,2.1,46.6,0.5,40,0.5C18.2,0.5,0.5,18.2,0.5,40
		S18.2,79.5,40,79.5S79.5,61.8,79.5,40C79.5,33.5,77.9,27,74.7,21.2z"/>
</g>
</svg>
