<?xml version="1.0" encoding="utf-8"?>
<!-- Generator: Adobe Illustrator 25.2.3, SVG Export Plug-In . SVG Version: 6.00 Build 0)  -->
<svg version="1.1" id="Layer_1" xmlns="http://www.w3.org/2000/svg" xmlns:xlink="http://www.w3.org/1999/xlink" x="0px" y="0px"
	 viewBox="0 0 80 80" style="enable-background:new 0 0 80 80;" xml:space="preserve">
<style type="text/css">
	.st0{fill:#4A3F3C;}
</style>
<g>
	<path class="st0" d="M31.8,44.9H21.6c-0.9,0-1.6,0.7-1.6,1.8v10c0,0.9,0.7,1.6,1.6,1.6h10.2c0.9,0,1.6-0.7,1.6-1.6v-10
		C33.4,45.5,32.7,44.9,31.8,44.9z M30,55.1h-6.9v-6.7H30V55.1z"/>
	<path class="st0" d="M79.5,34.6L41.2,2.5c-0.7-0.4-1.6-0.4-2.2,0L0.6,34.6c-0.7,0.7-0.9,1.6-0.2,2.5C1.1,37.7,2,38,2.9,37.3L6.6,34
		v42.3c0,0.9,0.7,1.6,1.6,1.6h33.2h16.9h13.4c0.9,0,1.6-0.7,1.6-1.6V34l3.8,3.3c0.2,0.2,0.7,0.4,1.1,0.4s0.9-0.2,1.3-0.7
		C80.2,36.6,80.2,35.5,79.5,34.6z M43.2,74.7V48.4h13.6v26.5H43.2V74.7z M70.1,74.7h-10v-28c0-0.9-0.7-1.6-1.6-1.6H41.6
		c-0.9,0-1.6,0.7-1.6,1.6V75H10V31.3L40.1,5.9l30.1,25.4L70.1,74.7L70.1,74.7z"/>
</g>
</svg>
