<?xml version="1.0" encoding="utf-8"?>
<!-- Generator: Adobe Illustrator 25.2.3, SVG Export Plug-In . SVG Version: 6.00 Build 0)  -->
<svg version="1.1" id="Layer_1" xmlns="http://www.w3.org/2000/svg" xmlns:xlink="http://www.w3.org/1999/xlink" x="0px" y="0px"
	 viewBox="0 0 80 80" style="enable-background:new 0 0 80 80;" xml:space="preserve">
<style type="text/css">
	.st0{fill:#4A3F3C;}
	.st1{font-family:'Pangram-Bold';}
	.st2{font-size:23.8414px;}
</style>
<g>
	<path className="st0" d="M66.1,1.3c0-0.3-0.2-0.6-0.5-0.8S65,0.2,64.7,0.3C44.4,4,38.2,12.9,36.5,19.6c-2.8-3.3-8.1-5-15.5-5
		c-4.6,0-8.2,0.6-8.4,0.7c-0.3,0.1-0.6,0.3-0.8,0.5c-0.2,0.3-0.2,0.6-0.2,1c0.2,0.7,4.6,17.3,15.5,17.3c3,0,6.1-1.3,9.4-3.8
		c0.2,2.2,0.7,5.7,1.9,9.5c1.7,5.5-1,15-1,15.1c-0.2,0.6,0.2,1.3,0.8,1.5c0.1,0,0.2,0,0.3,0c0.5,0,1-0.3,1.2-0.9
		c0.1-0.4,2.9-10.3,1-16.5c-1.1-3.6-1.6-7.1-1.8-9.2c4.2,1.9,8,2.9,11.2,2.9l0,0c4.1,0,7.5-1.5,10.1-4.4C68,19.9,66.2,2.1,66.1,1.3z
		 M14.4,17.4c4.5-0.6,18.7-1.8,21.6,5.8c0,0.1,0,0.2,0,0.3c0,0.3,0,0.5,0,0.8c0,0.2,0,0.3,0,0.4s0,0.2,0,0.3
		c-4.4-2.4-11.3-2.9-11.6-2.9c-0.6-0.1-1.2,0.5-1.3,1.1c0,0.7,0.5,1.2,1.1,1.3c2.4,0.1,8.6,1,11.6,3.2c-3.1,2.5-5.9,3.8-8.5,3.8
		C19.7,31.6,15.6,21.1,14.4,17.4z M58.5,26.7c-2.2,2.4-4.9,3.6-8.3,3.6l0,0c-3.1,0-6.8-1-11-3c1-2,3.6-6.1,7.5-7.6
		c5.8-2.2,11-6.5,11.3-6.7c0.5-0.4,0.6-1.2,0.2-1.7c-0.4-0.5-1.2-0.6-1.7-0.2c-0.1,0-5.1,4.2-10.5,6.2c-3.4,1.3-5.9,4.2-7.5,6.5
		c0-0.3,0-0.5,0-0.8c0.4-5.8,4.2-16,25.4-20.2C64.1,7.1,64.3,20.3,58.5,26.7z"/>
	<text transform="matrix(1 0 0 1 6.069 79.5725)" className="st0 st1 st2">100%</text>
</g>
</svg>
