<?xml version="1.0" encoding="utf-8"?>
<!-- Generator: Adobe Illustrator 25.2.3, SVG Export Plug-In . SVG Version: 6.00 Build 0)  -->
<svg version="1.1" id="Layer_1" xmlns="http://www.w3.org/2000/svg" xmlns:xlink="http://www.w3.org/1999/xlink" x="0px" y="0px"
	 viewBox="0 0 80 80" style="enable-background:new 0 0 80 80;" xml:space="preserve">
<style type="text/css">
	.st0{fill:#4A3F3C;}
</style>
<g>
	<g>
		<path class="st0" d="M56,37.3L52.2,34v-8.3c0-0.4-0.3-0.7-0.7-0.7h-6.8c-0.4,0-0.7,0.3-0.7,0.7v1.2l-3.6-3.1
			c-0.3-0.2-0.6-0.2-0.9,0L24,37.3c-0.3,0.2-0.3,0.7-0.1,1c0.2,0.3,0.7,0.3,1,0.1l1.5-1.3v17.4c0,0.4,0.3,0.7,0.7,0.7H53
			c0.4,0,0.7-0.3,0.7-0.7V37l1.5,1.3c0.1,0.1,0.3,0.2,0.4,0.2c0.2,0,0.4-0.1,0.5-0.2C56.4,38,56.3,37.6,56,37.3z M45.4,26.5h5.4v6.4
			l-5.4-4.7V26.5z M52.3,53.7H27.7V35.9L40,25.3l12.3,10.5V53.7z"/>
		<path class="st0" d="M52.9,55.9H27c-0.8,0-1.4-0.6-1.4-1.4V38.7l-0.3,0.2c-0.6,0.5-1.5,0.4-2-0.1c-0.5-0.6-0.4-1.5,0.1-2L39,23.4
			c0.5-0.5,1.3-0.5,1.9,0l2.4,2.1c0.2-0.6,0.7-1.1,1.4-1.1h6.8c0.8,0,1.4,0.6,1.4,1.4v7.9l3.5,3c0.6,0.5,0.7,1.4,0.2,2
			s-1.4,0.6-2,0.2l-0.3-0.3v15.8C54.4,55.2,53.7,55.9,52.9,55.9z M28.5,53h23V36.2L40,26.3l-11.5,9.9V53z M46.2,27.9l3.9,3.4v-4
			h-3.9V27.9z"/>
	</g>
</g>
<path class="st0" d="M68.6,13.3c0,0-1.7,0.5-4.3,0.5c-5.7,0-14-2.1-21-12.2c-1.4-2.1-5.1-2.1-6.6,0C28.7,13.1,18.5,14,15.6,14
	c-2,0-3.3-0.3-4.2-0.6c-2.5-0.7-5.1,1.2-5.1,3.8V39c0,31.3,31.3,40.5,32.6,40.9c0.3,0.1,0.7,0.1,1,0.1c0.4,0,0.7,0,1.1-0.1
	c1.3-0.4,32.6-9.5,32.6-40.9V17.2C73.7,14.6,71.1,12.6,68.6,13.3z M70.3,38.9c0,28.9-28.9,37.3-30.1,37.7c-0.1,0-0.1,0-0.2,0h-0.1
	c-1.2-0.3-30.2-8.9-30.2-37.7V17.2c0-0.4,0.3-0.6,0.7-0.6l0,0c1.5,0.5,3.3,0.8,5.2,0.8c3.4,0,15-1,23.9-13.8c0.2-0.3,0.8-0.3,1,0
	c7.9,11.3,17.2,13.7,23.7,13.7c3.2,0,5.3-0.6,5.4-0.6c0.3,0,0.6,0.2,0.6,0.6L70.3,38.9L70.3,38.9z"/>
</svg>
