<?xml version="1.0" encoding="utf-8"?>
<!-- Generator: Adobe Illustrator 25.2.3, SVG Export Plug-In . SVG Version: 6.00 Build 0)  -->
<svg version="1.1" id="Layer_1" xmlns="http://www.w3.org/2000/svg" xmlns:xlink="http://www.w3.org/1999/xlink" x="0px" y="0px"
	 viewBox="0 0 80 80" style="enable-background:new 0 0 80 80;" xml:space="preserve">
<style type="text/css">
	.st0{fill:#4A3F3C;}
</style>
<path class="st0" d="M68.6,13.3c0,0-1.7,0.5-4.3,0.5c-5.7,0-14-2.1-21-12.2c-1.4-2.1-5.1-2.1-6.6,0C28.7,13.1,18.5,14,15.6,14
	c-2,0-3.3-0.3-4.2-0.6c-2.5-0.7-5.1,1.2-5.1,3.8V39c0,31.3,31.3,40.5,32.6,40.9c0.3,0.1,0.7,0.1,1,0.1c0.4,0,0.7,0,1.1-0.1
	c1.3-0.4,32.6-9.5,32.6-40.9V17.2C73.7,14.6,71.1,12.6,68.6,13.3z M70.3,38.9c0,28.9-28.9,37.3-30.1,37.7c-0.1,0-0.1,0-0.2,0h-0.1
	c-1.2-0.3-30.2-8.9-30.2-37.7V17.2c0-0.4,0.3-0.6,0.7-0.6l0,0c1.5,0.5,3.3,0.8,5.2,0.8c3.4,0,15-1,23.9-13.8c0.2-0.3,0.8-0.3,1,0
	c7.9,11.3,17.2,13.7,23.7,13.7c3.2,0,5.3-0.6,5.4-0.6c0.3,0,0.6,0.2,0.6,0.6L70.3,38.9L70.3,38.9z"/>
</svg>
