<?xml version="1.0" encoding="utf-8"?>
<!-- Generator: Adobe Illustrator 24.2.3, SVG Export Plug-In . SVG Version: 6.00 Build 0)  -->
<svg version="1.1" xmlns="http://www.w3.org/2000/svg" xmlns:xlink="http://www.w3.org/1999/xlink" x="0px" y="0px"
	 viewBox="0 0 600 600" style="enable-background:new 0 0 600 600;" xml:space="preserve">
<style type="text/css">
	.st0{display:none;}
	.st1{display:inline;fill:none;stroke:#1D1D1B;stroke-miterlimit:10;}
	.st2{display:inline;fill:#1D1D1B;}
	.st3{fill:#DEAB5B;stroke:#DEAB5B;stroke-width:2;stroke-miterlimit:10;}
</style>
<g id="Capa_1" class="st0">
	<circle class="st1" cx="300" cy="300" r="300"/>
	<path class="st2" d="M538.4,294.9l-82-125c-0.5-0.9-1.5-1.4-2.5-1.4H126.3c-1,0-1.9,0.5-2.5,1.3L41.7,294.5l-0.1,0.1l-0.1,0.1
		c-0.1,0.2-0.2,0.3-0.3,0.5c-0.5,1.1-0.3,2.3,0.5,3.2l41.6,47.5c0.8,0.9,1.8,1,2.3,1s1.3-0.1,2-0.7c1.2-1.1,1.4-3,0.3-4.2
		l-27.1-30.9l-10.2-11.6h15.3h134.5h5.2l1.5,5l67.6,230.7l8.9,30.4l-20.9-23.9l-76.4-87.2c-0.8-0.9-1.8-1-2.3-1s-1.3,0.1-2,0.7
		c-1.2,1.1-1.4,3-0.3,4.2l105.8,120.8c0.6,0.7,1.4,1,2.3,1c0.9,0,1.7-0.4,2.3-1l112.6-128.6c0.7-0.8,0.8-1.7,0.7-2.2
		c0-0.5-0.2-1.3-1-2.1c-0.7-0.6-1.5-0.7-2-0.7s-1.5,0.1-2.3,1l-83.2,95L296,565.5l8.9-30.5l67.6-230.7l1.5-5h5.2h134.7h15.4
		l-10.2,11.6l-62.2,71c-0.7,0.8-0.8,1.7-0.7,2.2c0,0.5,0.2,1.3,1,2.1c0.7,0.6,1.5,0.7,2,0.7s1.5-0.1,2.3-1l76.7-87.6
		C539,297.5,539.1,296,538.4,294.9z M189.8,293.6H62.5h-13l7.1-10.9l63.8-96.8l5.9-8.9l5.8,8.9l63.5,96.8l7.1,10.8L189.8,293.6
		L189.8,293.6z M202.3,281.9l-63.4-96.5l-7.1-10.9h13h126.6h13l-7.1,10.8L214,281.8l-5.9,8.9L202.3,281.9z M289.9,177l5.9,8.9
		l63.5,96.8l7.1,10.8h-13h-127h-13l7.1-10.8l63.5-96.8L289.9,177z M365.3,308.5l-68.6,234.4l-6.7,22.9l-6.7-22.9l-68.7-234.4l-2.6-9
		h9.3h137.3h9.3L365.3,308.5z M371.9,291.1l-5.9-8.9l-63.5-96.8l-7-10.9h13h127h13l-7.1,10.8l-63.5,96.8L371.9,291.1z M517.4,293.6
		h-127h-13l7.1-10.8L448,186l5.9-8.9l5.9,8.9l63.5,96.8l7.1,10.8H517.4z"/>
	<path class="st2" d="M191.1,415.5c1.7,0,3-1.3,3-3s-1.3-3-3-3c-29.7,0-53.8-24.1-53.8-53.8c0-1.7-1.3-3-3-3s-3,1.3-3,3
		c0,29.7-24.1,53.8-53.8,53.8c-1.7,0-3,1.3-3,3s1.3,3,3,3c29.7,0,53.8,24.1,53.8,53.8c0,1.7,1.3,3,3,3s3-1.3,3-3
		C137.3,439.6,161.4,415.5,191.1,415.5z M140.3,437.9l-5.9,9.6l-5.9-9.6c-4.9-7.8-11.6-14.5-19.4-19.4l-9.6-5.9l9.6-5.9
		c7.8-4.9,14.5-11.6,19.4-19.4l5.9-9.6l5.9,9.6c4.9,7.8,11.6,14.5,19.4,19.4l9.6,5.9l-9.6,5.9C151.8,423.3,145.1,430,140.3,437.9z"
		/>
	<path class="st2" d="M498.9,165.5c0-20.4,16.6-37,37-37c1.7,0,3-1.3,3-3c0-1.7-1.3-3-3-3c-20.4,0-37-16.6-37-37c0-1.7-1.3-3-3-3
		s-3,1.3-3,3c0,20.4-16.6,37-37,37c-1.7,0-3,1.3-3,3c0,1.7,1.3,3,3,3c20.4,0,37,16.6,37,37c0,1.7,1.3,3,3,3S498.9,167.2,498.9,165.5
		z M490.3,139.8c-2.5-3.3-5.4-6.2-8.6-8.6l-7.5-5.6l7.5-5.6c3.3-2.5,6.2-5.4,8.6-8.6l5.6-7.5l5.6,7.5c2.5,3.3,5.4,6.2,8.6,8.6
		l7.5,5.6l-7.5,5.6c-3.3,2.5-6.2,5.4-8.6,8.6l-5.6,7.5L490.3,139.8z"/>
	<path class="st2" d="M431.7,420.1c0.6-0.6,0.9-1.3,0.9-2.1c0-0.8-0.3-1.6-0.9-2.1c-0.6-0.6-1.3-0.9-2.1-0.9c-0.8,0-1.6,0.3-2.1,0.9
		c-0.6,0.6-0.9,1.3-0.9,2.1c0,0.8,0.3,1.6,0.9,2.1c0.6,0.6,1.3,0.9,2.1,0.9C430.4,420.9,431.2,420.6,431.7,420.1z"/>
</g>
<g id="Capa_2">
	<g>
		<path class="st3" d="M289.9,571.1c-7.1,0-13.5-2.9-17.8-8l-88.4-106c-0.4-0.5-0.4-1.3,0.2-1.8c0.5-0.4,1.3-0.4,1.8,0.2l88.4,106
			c3.7,4.5,9.5,7.1,15.8,7.1c0.1,0,0.1,0,0.2,0c6.4,0,12.1-2.7,15.8-7.2l218.3-269.2c4.6-5.7,4.9-13.1,0.7-19.1l-64-91.5
			c-3.5-5.1-10-8.2-16.7-8.2H134.3c-6.6,0-12.8,2.9-16.4,7.8l-68.6,91.7c-4.5,6-4.3,13.9,0.6,19.7l39,46.8c0.4,0.5,0.4,1.3-0.2,1.8
			c-0.5,0.4-1.3,0.4-1.8-0.2l-39-46.8c-5.6-6.7-5.8-15.9-0.7-22.8l68.6-91.7c4.1-5.5,11-8.8,18.4-8.8h310.1c7.7,0,14.7,3.5,18.8,9.3
			l64,91.5c4.8,6.9,4.5,15.5-0.9,22.1L307.9,562.9c-4.2,5.1-10.7,8.1-17.8,8.2C290.1,571.1,290,571.1,289.9,571.1z"/>
	</g>
	<g>
		<path class="st3" d="M288.4,570C288.4,570,288.4,570,288.4,570c-0.6,0-1-0.4-1.2-0.9L200.5,286l-76.2-110.6
			c-0.4-0.6-0.2-1.4,0.3-1.7s1.4-0.3,1.7,0.3l76.3,110.8c0.1,0.1,0.1,0.2,0.2,0.3l85.7,279.5l92.3-279.6c0.2-0.7,0.9-1,1.6-0.8
			c0.7,0.2,1,0.9,0.8,1.6l-93.5,283.3C289.5,569.7,289,570,288.4,570z"/>
	</g>
	<g>
		<path class="st3" d="M201.6,286.7c-0.3,0-0.5-0.1-0.8-0.3c-0.5-0.4-0.6-1.2-0.2-1.8l87.8-113.3c0.2-0.3,0.6-0.5,1-0.5
			c0.4,0,0.7,0.2,1,0.5l91.5,112l70.6-107.7c0.4-0.6,1.2-0.7,1.7-0.4c0.6,0.4,0.7,1.2,0.4,1.7L383,286.2c-0.2,0.3-0.6,0.5-1,0.6
			c-0.4,0-0.8-0.1-1-0.5l-91.6-112.1l-86.8,112.1C202.3,286.6,202,286.7,201.6,286.7z"/>
	</g>
	<g>
		<path class="st3" d="M528.9,286.7H45.1c-0.7,0-1.3-0.6-1.3-1.3s0.6-1.3,1.3-1.3h483.8c0.7,0,1.3,0.6,1.3,1.3
			S529.6,286.7,528.9,286.7z"/>
	</g>
	<g>
		<path class="st3" d="M130.6,457.4c-0.6,0-1.1-0.4-1.2-0.9c-2.3-8.3-6.1-15.8-11.3-22.5c-11.2-14.3-26-20.3-33.8-22.6
			c-0.6-0.2-1-0.8-0.9-1.4c0.1-0.6,0.7-1.1,1.3-1c3.4,0.3,21.1,1.1,34-13.1c11.9-13,13.1-29.6,12.9-32.3c-0.1-0.7,0.4-1.3,1.1-1.4
			c0.7-0.1,1.3,0.4,1.4,1c0.1,0.5,0.2,1.1,0.2,1.8c0.8,6.1,2.7,20.5,15.2,31.4c9.6,8.3,20,11.4,27,12.6c0.6,0.1,1,0.6,1.1,1.2
			c0,0.6-0.4,1.1-1,1.3c-7.4,1.4-18.3,5-28.1,14.3c-11.6,10.9-15.5,23.9-16.8,30.6C131.7,457,131.2,457.4,130.6,457.4
			C130.6,457.4,130.6,457.4,130.6,457.4z M91.9,411.5c8.3,3.4,19.3,9.7,28.2,21c4.4,5.7,7.9,12,10.3,18.9
			c2.1-7.5,6.6-18.2,16.4-27.5c8.1-7.6,16.8-11.5,23.9-13.6c-6.7-1.8-15-5.2-22.7-12c-9.5-8.3-13.2-18.3-14.8-25.7
			c-1.5,7-5,16.7-12.5,25C111.3,407.9,99.5,410.8,91.9,411.5z"/>
	</g>
	<g>
		<path class="st3" d="M496,169.6c-0.5,0-1-0.4-1.2-0.9c-2.4-8.2-6.3-15.7-11.5-22.3c-11.3-14.3-25.9-20.4-33.6-22.8
			c-0.6-0.2-1-0.8-0.8-1.4c0.1-0.6,0.7-1,1.3-1c3.3,0.4,20.7,1.5,33-12.1c11.3-12.4,12.2-28.7,11.9-31.3c-0.1-0.7,0.4-1.3,1-1.4
			c0.7-0.1,1.3,0.3,1.4,1c0.1,0.5,0.2,1.1,0.3,1.7c0.9,6,3.1,20.2,15.6,31.1c9.6,8.4,19.8,11.6,26.7,12.9c0.6,0.1,1,0.6,1,1.2
			s-0.4,1.1-1,1.2c-7.2,1.2-17.8,4.5-27.2,13.4c-11.1,10.4-14.6,23-15.8,29.6C497.1,169.2,496.7,169.6,496,169.6
			C496.1,169.6,496,169.6,496,169.6z M457.2,123.8c8.2,3.5,19.1,9.9,28,21.2c4.5,5.7,8,12,10.5,18.8c1.9-7.3,6.1-17.7,15.5-26.5
			c7.7-7.3,16.2-11,23.1-12.8c-6.6-1.9-14.8-5.4-22.5-12.2c-9.5-8.3-13.3-18.2-15-25.5c-1.3,6.9-4.5,16.3-11.7,24.2
			C476.1,120.7,464.7,123.3,457.2,123.8z"/>
	</g>
</g>
</svg>
