<?xml version="1.0" encoding="utf-8"?>
<!-- Generator: Adobe Illustrator 24.2.3, SVG Export Plug-In . SVG Version: 6.00 Build 0)  -->
<svg version="1.1" xmlns="http://www.w3.org/2000/svg" xmlns:xlink="http://www.w3.org/1999/xlink" x="0px" y="0px"
	 viewBox="0 0 600 600" style="enable-background:new 0 0 600 600;" xml:space="preserve">
<style type="text/css">
	.st0{display:none;}
	.st1{display:inline;fill:none;stroke:#1D1D1B;stroke-miterlimit:10;}
	.st2{display:inline;fill:#1D1D1B;}
	.st3{fill:#DEAB5B;stroke:#DEAB5B;stroke-width:2;stroke-miterlimit:10;}
</style>
<g id="Capa_1" class="st0">
	<circle class="st1" cx="300" cy="300" r="300"/>
	<path class="st2" d="M82.8,489.5c0,2.2,1.8,3.9,4.1,3.9h415.9c2.3,0,4.1-1.7,4.1-3.9c0-2.2-1.8-3.9-4.1-3.9h-37.6h-4.8l-0.7-4.5
		c-2.2-15.1-9.9-29-21.9-39c-12-10-27.5-15.6-43.4-15.6h-0.3c-6.7,0-13.2,0.9-19.6,2.9l-4.9,1.4l-1.8-4.5
		c-10.5-26.4-35.3-44.6-64.7-47.5l-4.9-0.5v-4.7v-60v-1.3l0.7-1.2c0-0.1,0.1-0.1,0.1-0.3c8.2-29.1,29.1-42,58.1-59.6l2-1.2l3.5-2.1
		l3.1,2.6c4.9,4.2,10.2,7.7,16.1,10.4c9.7,4.5,20.4,7,31.2,7c17.8-0.3,35-6.5,48.5-17.7l0,0l0,0c58-46.5,24.5-153.9,23.1-158.5
		c-0.5-1.7-2-2.7-3.9-2.7h-0.1c-1.8,0-3.4,1.2-3.8,2.9c0,0.3-7.4,22.6-47,29.5c-21.8,3.8-43.4,13.1-59.1,25.3
		c-12.5,9.9-27.8,26.6-28.9,50.8c-0.7,14.2,3.7,28.4,12.1,40.1l3.1,4.4l-4.8,2.9c-22.2,13.6-41.4,25.3-53,44.7l-4.8,7.9l-4.8-7.9
		c-11.4-19.4-30.6-31-53-44.7l-4.8-2.9l3.1-4.4c8.4-11.7,12.7-26,12.1-40.1c-1.1-24.2-16.3-40.9-28.9-50.8
		c-15.7-12.3-37.2-21.6-59.1-25.3c-38.1-6.6-46.2-27.1-47-29.5l0,0l0,0c-0.5-1.7-2-2.7-3.8-2.7l0,0c-1.8,0-3.4,1.2-3.9,2.7
		c-0.4,1.2-9.5,30.1-10.8,64.2c-0.7,19.2,1.2,36.5,5.9,51.3c5.6,18.1,15,32.5,28,43l0,0l0,0c13.5,11.2,30.6,17.5,48.5,17.7
		c10.8,0,21.5-2.5,31-7c5.9-2.7,11.3-6.2,16.1-10.4l3.1-2.6l3.5,2.1l1.9,1.2c28.7,17.5,49.6,30.3,57.9,58.8l0.1,0.6v0.6v62.2v4.7
		l-4.8,0.5c-29,3.2-53.5,21.4-63.8,47.5l-1.8,4.5l-4.9-1.4c-6.4-1.9-12.9-2.9-19.6-2.9h-0.1c-15.9,0-31.4,5.6-43.4,15.6
		c-12,10-19.9,23.9-21.9,39l-0.7,4.5h-4.8H86.7C84.5,485.6,82.8,487.5,82.8,489.5z M482.9,115.3l2.5,19.7c4.5,35.5,3.1,83.1-29,109
		c-11.8,10.3-27.1,15.8-43,15.8c-9.7,0-19.1-2.1-27.8-6.1c-3.5-1.7-6.8-3.6-9.8-5.7l-6.3-4.4l6.5-4c17.3-10.9,33.6-23.4,48.5-37
		c3.5-3.2,7.1-6.8,10.8-10.5l2.2-2.3l3.1,0.8c4.2,1,8.6,1.7,12.9,1.7l0,0l0,0c0.3,0,0.5,0,0.8,0c5,0,9.9-1.3,14.2-3.9
		c0.8-0.6,1.5-1.4,1.6-2.5c0.3-1,0-2.1-0.7-3c-0.8-1-2-1.7-3.4-1.7c-0.8,0-1.6,0.3-2.3,0.6l-0.1,0.1l0,0.1c-2.7,1.6-6,2.3-9.1,2.3
		c-0.4,0-0.7,0-1.1,0l-10.3-0.5l6.4-7.8c10.5-13,19.2-27.1,25.7-42.2L482.9,115.3z M350.1,197.8c1.8-37.9,43.4-62.2,81.3-68.8l0,0
		l0,0c10.8-1.7,21-5.2,30.5-10.5l13.2-7.4l-5.4,13.8c-10.9,27.4-28.5,52.3-51.1,72.2c-2.5,2.3-5.2,4.7-8.2,7.1l-6.1,5.3l-2.6-7.5
		c-2.6-7.4-3.8-15.1-3.8-22.7V179v-0.3c0.1-1-0.3-2.1-1-2.9c-0.7-0.8-1.6-1.3-2.7-1.4c-0.1,0-0.3,0-0.4,0c-2,0-3.7,1.4-4.1,3.4
		c-0.1,11.4,1.9,22.6,6.3,33.3l1.5,3.6l-3.1,2.3c-8.2,6.1-16.7,12.1-26.1,17.9l-4.5,2.9l-3-4.2C353.4,223.1,349.5,210.4,350.1,197.8
		z M213.7,248.1c-3.1,2.2-6.4,4.2-9.8,5.7c-8.7,4-18.2,6.1-27.9,6.1c-15.9,0-31.2-5.6-43-15.8c-32.1-25.8-33.5-73.5-29-109l2.5-19.7
		l7.9,18.3c6.5,15.1,15.2,29.4,25.7,42.2l6.4,7.8l-10.3,0.5c-0.4,0-0.7,0-1.1,0c-3.3,0-6.4-0.8-9.1-2.3l-0.1-0.1l-0.1-0.1
		c-0.7-0.4-1.5-0.6-2.3-0.6c-1.4,0-2.6,0.6-3.4,1.7c-0.7,0.9-0.8,1.9-0.7,3c0.1,1,0.8,1.8,1.6,2.5c4.2,2.6,9.1,3.9,14.2,3.9
		c0.3,0,0.5,0,0.8,0l0,0l0,0c4.4,0,8.7-0.6,12.9-1.7l3.1-0.8l2.2,2.3c3.9,4.2,7.4,7.4,10.8,10.5c15,13.6,31.2,26.1,48.5,37l6.5,4
		L213.7,248.1z M228.4,233.7l-3,4.2l-4.5-2.9c-9.4-5.8-17.8-11.7-26.1-17.9l-3.1-2.3l1.5-3.6c4.4-10.7,6.4-21.8,6.3-33.3
		c-0.3-1.9-2-3.4-4.1-3.4c-0.1,0-0.3,0-0.4,0c-1.1,0.1-2,0.6-2.7,1.4c-0.7,0.8-1,1.8-1,2.9v0.3v0.3c0.1,7.8-1.1,15.5-3.7,22.9
		l-2.6,7.5l-6.1-5.3c-3-2.6-5.7-4.9-8.2-7.1c-22.5-19.9-40.2-44.9-51.1-72.2l-5.4-13.8l13.2,7.4c9.4,5.2,19.7,8.8,30.5,10.5l0,0l0,0
		c37.8,6.6,79.5,31,81.3,68.8C240,210.5,236.1,223.3,228.4,233.7z M138.3,479.5c5-26.1,29-45.2,56.9-45.2c8.8,0,17.7,1.9,25.6,5.7
		c0.5,0.3,1.1,0.4,1.8,0.4c1.6,0,3-0.8,3.7-2.2c0.1-0.3,0.3-0.5,0.3-0.8c3.7-14.7,12.5-27.9,25-37.3c12.3-9.2,27.6-14.2,43.2-14.2
		c5.4,0,10.9,0.6,16.2,1.8c26,5.8,45.9,24.9,52,49.6c0.4,1.8,2,3,3.9,3c0.3,0,0.7,0,1-0.1c0.3-0.1,0.5-0.1,0.8-0.3
		c7.9-3.8,16.7-5.7,25.5-5.7c27.9,0,51.9,19.1,56.9,45.2l1.2,6.1h-6.4H143.6h-6.5L138.3,479.5z"/>
</g>
<g id="Capa_2">
	<g>
		<path class="st3" d="M504.8,489.6H87.9c-0.7,0-1.3-0.6-1.3-1.3s0.6-1.3,1.3-1.3h416.8c0.7,0,1.3,0.6,1.3,1.3
			S505.5,489.6,504.8,489.6z"/>
	</g>
	<g>
		<path class="st3" d="M134,489.1c-0.6,0-1.2-0.5-1.2-1.1c-0.2-1.6-0.2-2.9-0.2-4.4l0-0.8c0-30.2,24.6-54.7,54.7-54.7
			c12.5,0,24.7,4.3,34.4,12.2c7.3-34.5,37.8-59.3,73.3-59.3c35.2,0,65.7,24.6,73.2,58.8c9.6-7.6,21.5-11.7,33.8-11.7
			c30.2,0,54.7,24.6,54.7,54.7c0,0.8,0.1,1.4,0.1,2c0.1,0.9,0.2,1.9,0.1,3.2c-0.1,0.7-0.7,1.2-1.4,1.1c-0.7-0.1-1.2-0.7-1.1-1.4
			c0.1-1,0-1.8-0.1-2.6c-0.1-0.6-0.1-1.4-0.1-2.3c0-28.8-23.4-52.2-52.2-52.2c-12.4,0-24.4,4.4-33.8,12.4c-0.3,0.3-0.8,0.4-1.2,0.2
			c-0.4-0.1-0.7-0.5-0.8-0.9c-6.5-34.1-36.4-58.8-71.1-58.8c-35,0-64.9,25-71.2,59.3c-0.1,0.4-0.4,0.8-0.8,1
			c-0.4,0.1-0.9,0.1-1.2-0.2c-9.5-8.3-21.7-12.9-34.4-12.9c-28.8,0-52.2,23.4-52.2,52.2l0,0.8c0,1.5,0,2.6,0.1,4.1
			c0.1,0.7-0.4,1.3-1.1,1.4C134.1,489.1,134,489.1,134,489.1z"/>
	</g>
	<g>
		<path class="st3" d="M295.2,381.3C295.2,381.3,295.2,381.3,295.2,381.3c-0.7,0-1.3-0.6-1.3-1.3l0.6-75.1
			c-9.6-14.3-20.6-27.6-32.9-39.5c-22.1-21.6-41.2-32.1-59.6-42.3c-12-6.6-23.4-12.9-34.9-21.9l-1.5-1.1
			c-19.4-15.1-37.8-29.4-54.6-80.8c-0.2-0.7,0.1-1.4,0.8-1.6c0.7-0.2,1.4,0.1,1.6,0.8c16.5,50.7,34.6,64.8,53.7,79.6l1.5,1.1
			c11.4,8.8,22.6,15.1,34.6,21.6c18.6,10.2,37.8,20.8,60.2,42.7c12.4,12.1,23.7,25.7,33.4,40.2c0.1,0.2,0.2,0.5,0.2,0.7l-0.6,75.5
			C296.5,380.7,295.9,381.3,295.2,381.3z"/>
	</g>
	<g>
		<path class="st3" d="M295.8,305.8c-0.2,0-0.4,0-0.6-0.1c-0.6-0.3-0.9-1.1-0.5-1.7c6.8-13,15-25.2,24.4-36.3
			c22.5-26.4,45.1-38.2,67-49.7c15-7.9,29.2-15.3,43-27.1c1.7-1.4,3.4-2.8,5-4.2c16.5-13.7,30.8-25.6,42-73.6
			c0.2-0.7,0.8-1.1,1.5-0.9c0.7,0.2,1.1,0.8,0.9,1.5c-11.4,48.9-25.9,61-42.8,75c-1.6,1.4-3.3,2.8-5,4.2c-14,12-28.3,19.5-43.5,27.4
			c-21.7,11.3-44,23.1-66.2,49.1c-9.3,10.9-17.4,22.9-24.1,35.8C296.7,305.5,296.3,305.8,295.8,305.8z"/>
	</g>
	<g>
		<path class="st3" d="M179,262.6c-3.9,0-7.8-0.3-11.8-0.9c-32.3-4.8-58.8-28.9-67.4-61.5c-2.8-10.6-4.6-21.6-5.3-32.5
			c-1.7-25.5,2.5-51.8,12.1-75.9c0.4-0.9,1.2-1.5,2.1-1.5c1,0,1.8,0.4,2.3,1.3c5.9,11.3,13.7,19.9,23.2,25.4
			c9.6,5.6,18,6.5,27.6,7.4c6.1,0.6,12.5,1.2,19.9,3.1c5.8,1.5,11.5,3.6,16.9,6.2c30.5,14.7,47.6,47.5,41.6,79.8
			c-2.5,13.2-8.3,24.6-16.8,32.8C212.5,256.8,196.4,262.6,179,262.6z M102.3,199.6c8.3,31.6,33.9,55.1,65.3,59.7
			c21,3.1,41.3-2.4,54.1-14.8c8.1-7.8,13.7-18.7,16.1-31.4c5.8-31.2-10.7-62.9-40.2-77c-5.3-2.6-10.9-4.6-16.5-6
			c-7.2-1.9-13.5-2.5-19.5-3.1c-9.5-0.9-18.6-1.8-28.7-7.8c-9.8-5.8-17.9-14.6-24-26.2c-9.4,23.7-13.5,49.5-11.8,74.6
			C97.8,178.3,99.5,189.1,102.3,199.6z"/>
	</g>
	<g>
		<path class="st3" d="M409.4,263.6c-17.4,0-33.5-5.8-44.4-16.3c-8.5-8.2-14.4-19.5-16.8-32.8c-6.1-32.3,11-65.1,41.6-79.8
			c5.5-2.6,11.2-4.7,16.9-6.2c7.4-1.9,13.8-2.5,19.9-3.1c9.7-1,18-1.8,27.6-7.4c9.5-5.5,17.3-14.1,23.2-25.4
			c0.4-0.8,1.3-1.3,2.3-1.3c0.9,0,1.8,0.6,2.1,1.5c9.6,24.1,13.8,50.4,12.1,75.9c-0.7,10.9-2.5,21.9-5.3,32.5l0,0
			c-8.6,32.6-35,56.8-67.4,61.5C417.2,263.3,413.3,263.6,409.4,263.6z M479.5,93.8c-6.1,11.6-14.2,20.5-24,26.2
			c-10.1,5.9-19.1,6.8-28.7,7.8c-6,0.6-12.3,1.2-19.5,3.1c-5.6,1.4-11.1,3.5-16.5,6c-29.5,14.2-46,45.9-40.2,77
			c2.4,12.7,8,23.6,16.1,31.4c12.9,12.4,33.1,17.9,54.1,14.8c31.3-4.6,57-28.1,65.3-59.7l0,0c2.8-10.5,4.5-21.3,5.2-32
			C493,143.4,488.9,117.6,479.5,93.8z M487.3,200.8L487.3,200.8L487.3,200.8z"/>
	</g>
	<g>
		<path class="st3" d="M185.2,213.4c-0.3,0-0.7-0.1-0.9-0.4c-0.5-0.5-0.4-1.3,0.1-1.8c15.7-14.3,11.6-28.1,10-33.4
			c-0.4-1.4-0.6-2.1-0.5-2.7c0.2-0.7,0.9-1.1,1.5-0.9c0.6,0.2,1,0.8,0.9,1.4c0,0.2,0.2,0.9,0.4,1.5c1.7,5.6,6.1,20.6-10.7,35.9
			C185.8,213.2,185.5,213.4,185.2,213.4z M196.4,175.7C196.4,175.7,196.4,175.7,196.4,175.7C196.4,175.7,196.4,175.7,196.4,175.7z"
			/>
	</g>
	<g>
		<path class="st3" d="M137.1,191c-7.4,0-13.1-2.6-16.5-7.6c-0.4-0.6-0.2-1.4,0.3-1.7c0.6-0.4,1.4-0.2,1.7,0.3
			c7.8,11.6,27.8,4,28,3.9c0.6-0.3,1.4,0.1,1.6,0.7c0.3,0.6-0.1,1.4-0.7,1.6c-0.2,0.1-5.5,2.1-11.9,2.6C138.9,191,138,191,137.1,191
			z"/>
	</g>
	<g>
		<path class="st3" d="M400.2,213.1c-0.4,0-0.8-0.2-1-0.5c-8.6-11.4-9.2-36.2-9.2-37.3c0-0.7,0.5-1.3,1.2-1.3c0.7,0,1.3,0.5,1.3,1.2
			c0,0.2,0.7,25,8.8,35.8c0.4,0.6,0.3,1.3-0.3,1.8C400.8,213,400.5,213.1,400.2,213.1z"/>
	</g>
	<g>
		<path class="st3" d="M452.3,192.3c-9.1,0-15.1-5.3-15.2-5.4c-0.5-0.5-0.6-1.3-0.1-1.8c0.5-0.5,1.3-0.6,1.8-0.1
			c0.5,0.4,11.4,9.9,26.1,1c0.6-0.4,1.4-0.2,1.7,0.4c0.4,0.6,0.2,1.4-0.4,1.7C461.1,191.2,456.4,192.3,452.3,192.3z"/>
	</g>
</g>
</svg>
