<?xml version="1.0" encoding="utf-8"?>
<!-- Generator: Adobe Illustrator 24.2.3, SVG Export Plug-In . SVG Version: 6.00 Build 0)  -->
<svg version="1.1" xmlns="http://www.w3.org/2000/svg" xmlns:xlink="http://www.w3.org/1999/xlink" x="0px" y="0px"
	 viewBox="0 0 600 600" style="enable-background:new 0 0 600 600;" xml:space="preserve">
<style type="text/css">
	.st0{display:none;}
	.st1{display:inline;fill:none;stroke:#1D1D1B;stroke-miterlimit:10;}
	.st2{display:inline;}
	.st3{fill:#DEAB5B;stroke:#DEAB5B;stroke-miterlimit:10;}
	.st4{fill:none;stroke:#DEAB5B;stroke-width:2.4417;stroke-linecap:round;stroke-linejoin:round;stroke-miterlimit:10;}
</style>
<g id="Capa_1" class="st0">
	<circle class="st1" cx="300" cy="300" r="300"/>
	<g class="st2">
		<g>
			<path d="M446.2,153.2c-2.5-2.5-6.5-2.5-8.9,0L242.7,347.7c-2.5,2.5-2.5,6.5,0,8.9c1.2,1.2,2.9,1.9,4.5,1.9c1.6,0,3.2-0.6,4.5-1.9
				l194.5-194.5C448.6,159.6,448.6,155.6,446.2,153.2z"/>
		</g>
	</g>
	<g class="st2">
		<g>
			<path d="M519.1,136.8c-4.8-29-27.6-51.8-56.6-56.6c-20.5-3.4-42-1.1-64,7c-5.6,2-11,4.4-16.2,7c-0.2,0.1-0.5,0.2-0.7,0.3
				c-34.5,17.6-62.1,47.8-77.1,85.1c-0.4,1.1-0.8,2.1-1.2,3.1c-0.6-4.2-1-8.8-1.3-13.6c-0.1-2-1.1-3.9-2.8-5.1
				c-2.6-1.7-6-1.3-8.1,0.8c-11.6,11.9-21.9,23.9-31.1,35.7c-0.2,0.2-0.4,0.5-0.6,0.8c-47.7,61.8-65.2,121-78.6,166.3
				c-9.8,33.1-17.5,59.2-32.9,74.7c0,0,0,0,0,0L97,493.3c-2.5,2.5-2.5,6.5,0,8.9c1.2,1.2,2.9,1.9,4.5,1.9c1.6,0,3.2-0.6,4.5-1.9
				l50.9-50.9c15.4-15.4,41.6-23.1,74.7-32.9c33.2-9.8,74.4-22,118.1-46.6c2-1.2,3.4-3.3,3.4-5.6c0-3-2.1-5.5-5-6.1
				c-8.6-1.9-16-4.1-22.1-6.2c6.1-0.9,13.1-2.3,21-4.3c46-11.9,86.9-37.7,118.5-74.7c3.6-4.2,7.2-8.6,10.7-13
				c3-3.8,5.9-7.6,8.6-11.3c2-2.8,1.7-6.8-1.1-8.9c-2.8-2.2-6.9-1.6-9,1.3c-2.6,3.6-5.5,7.4-8.4,11.1c-6.4,8-14.6,14.5-23.9,19
				c-45.6,22-84,27.9-84.4,27.9c-3.5,0.5-5.8,3.7-5.3,7.2c0.5,3.1,3.2,5.4,6.2,5.4c0.3,0,0.6,0,0.9-0.1c1.6-0.2,31.3-4.8,70.1-21
				c-25.1,21.4-54.4,36.7-86.3,44.9c-27.7,7.1-43.2,5.3-43.3,5.3c-2.9-0.4-5.7,1.3-6.8,4c-1.1,2.7-0.1,5.8,2.4,7.5
				c0.5,0.4,11.4,7.6,33.5,14.2c-37.3,19-72.6,29.4-101.5,38c-13.9,4.1-26.7,7.9-38.1,12.1l41.6-41.6c2.5-2.5,2.5-6.6-0.1-9.1
				c-2.5-2.4-6.5-2.1-9,0.3l-41.4,41.4c4.2-11.4,7.9-24.2,12.1-38.1c8.1-27.4,17.3-58.5,33.3-92.1c4.5-9.4,9.3-18.5,14.4-27.3
				c-7,22.9-10.6,41.8-10.7,56.3c0,3.3,2.3,6.2,5.5,6.6c3.8,0.5,7.1-2.5,7.1-6.3c0-21,8.6-49.9,16.3-71.5
				c6.9-19.5,17.5-37.5,31.5-52.9c0.1-0.1,0.1-0.2,0.2-0.2c2,15.7,5.1,27.1,5.3,27.7c0.8,2.8,3.4,4.7,6.4,4.6
				c2.9-0.1,5.4-2.3,5.9-5.2c1.5-8.3,4.2-17.3,7.9-26.6c8.7-21.6,21.9-40.6,38.3-55.7c-11.2,18.7-17.1,37.4-17.1,54.5
				c0,3.2,2.3,6.1,5.5,6.5c3.8,0.5,7.1-2.5,7.1-6.3c0-26.8,16.6-52.2,28.2-66.6c6.4-8,14.8-14.2,24.4-17.7c0,0,0.1,0,0.1-0.1
				c19.9-7.3,39.2-9.4,57.5-6.4c23.7,3.9,42.3,22.5,46.2,46.2c4.4,26.7-2.1,55.3-19.5,85.1c-1.9,3.3-0.6,7.5,3.1,9
				c2.9,1.2,6.3-0.1,7.9-2.8C517,197.8,524,166.4,519.1,136.8z"/>
		</g>
	</g>
</g>
<g id="Capa_2">
	<g>
		<path class="st3" d="M239.7,310.9c-0.6,0-1.1-0.4-1.2-1c-3.9-22.7-2.4-46.1,4.5-67.6c12.3-38.8,38.3-62.3,52.8-72.8
			c0.4-0.3,0.9-0.3,1.3-0.1s0.7,0.7,0.6,1.2c-1,7.5-0.6,15,1.1,22.4c1.2,5.4,3.1,10.5,5.7,15.4c2.2-22.4,8.8-41.8,19.8-57.8
			c20.5-29.8,58.7-52.4,63-54.9l0.1-0.1l0,0c0.4-0.2,0.8-0.2,1.2-0.1c0.5,0.2,0.8,0.8,0.7,1.3c-0.1,0.3-0.3,0.6-0.5,0.7l0,0
			c-26.3,21-35.9,47.1-37.6,52.2c-0.3,0.9-0.6,1.8-1,2.7l0,0.1c-5.1,13.4-4.4,24.4-3.9,31.7c0.1,1.7,0.2,3.2,0.2,4.5
			c0,0.7-0.5,1.2-1.2,1.2s-1.2-0.5-1.2-1.2c0-1.2-0.1-2.7-0.2-4.3c-0.5-7.5-1.2-18.8,4.1-32.8l0-0.1c0.3-0.8,0.6-1.7,0.9-2.6
			c1.5-4.4,8.8-24.6,27.8-43.8c-13.9,9.3-36.3,26.3-50.3,46.6c-11.3,16.6-18,36.9-19.7,60.6c0,0.5-0.4,1-0.9,1.1
			c-0.5,0.1-1.1-0.1-1.3-0.6c-3.7-6.1-6.3-12.7-7.9-19.6c-1.5-6.7-2-13.6-1.4-20.4c-14.5,11.1-38.2,33.7-49.6,69.9
			c-6.7,21.2-8.2,44.2-4.4,66.5c0.1,0.7-0.3,1.3-1,1.4C239.9,310.9,239.8,310.9,239.7,310.9z"/>
	</g>
	<g>
		<path class="st3" d="M177.1,422.9c-0.3,0-0.6-0.1-0.8-0.3c-0.3-0.2-0.4-0.6-0.4-0.9c1.7-33.5,8.7-66.4,20.7-97.6
			c11.4-29.5,27-57.2,46.6-82.1c0.4-0.5,1.2-0.6,1.7-0.2c0.5,0.4,0.6,1.2,0.2,1.7c-19.4,24.7-35,52.2-46.2,81.5
			c-11.8,30.6-18.6,62.7-20.5,95.5c25.8-2.4,51-7.3,75-14.6c40.1-12.1,79.6-31.3,89.9-37.1c-6-1.1-17.3-4.1-23.3-6.1
			c-11.2-3.7-21-13.3-21.4-13.8c-0.2-0.2-0.4-0.6-0.4-0.9c0-0.7,0.6-1.2,1.3-1.2c32.2,1.7,61.8-4,87.8-16.8
			c39.4-19.4,70.5-55.2,73-58.9c0.1-0.3,0.3-0.6,0.7-0.8c0.5-0.2,1.1-0.1,1.5,0.3c0.2,0.3,0.3,0.7,0.3,1
			c-0.4,2.1-33.8,40.5-74.4,60.5c-25.5,12.6-54.3,18.4-85.7,17.2c3.5,3.1,10.4,8.4,18,11c7.8,2.6,22.9,6.5,25.8,6.3
			c0.7,0,1.1,0.4,1.3,0.8c0.1,0.3,0.1,0.7,0,1c-1.1,2.3-49.9,26.4-93.7,39.6c-24.6,7.4-50.4,12.4-76.9,14.8
			C177.2,422.9,177.1,422.9,177.1,422.9z M346.6,369.1C346.6,369.1,346.6,369.1,346.6,369.1C346.6,369.1,346.6,369.1,346.6,369.1z"
			/>
	</g>
	<g>
		<path class="st4" d="M461.5,271.3"/>
	</g>
	<g>
		<path class="st3" d="M461.5,272.6c-0.3,0-0.7-0.1-0.9-0.4c-0.4-0.5-0.4-1.3,0.1-1.7c15.2-13.3,33.5-45.5,34.5-48.1
			c0.8-2,1.8-4.2,2.8-6.5c3.3-7.4,7.4-16.6,9.6-27.9c2.9-15,10.8-54.9-13.9-80.7c-16.2-16.9-41.4-23.1-75.1-18.4
			c-10.4,1.5-20.6,4.5-30.4,9.1c-0.6,0.3-1.3,0-1.6-0.6c-0.3-0.6,0-1.3,0.6-1.6c9.9-4.7,20.4-7.8,31.1-9.3
			c34.5-4.8,60.4,1.6,77.2,19.1c25.5,26.7,17.5,67.5,14.5,82.9c-2.3,11.6-6.4,20.9-9.8,28.4c-1,2.3-2,4.5-2.8,6.5
			c-1.1,2.6-19.7,35.5-35.2,49.1C462.1,272.5,461.8,272.6,461.5,272.6z"/>
	</g>
	<g>
		<path class="st3" d="M104,499.5c-0.3,0-0.6-0.1-0.9-0.4c-0.5-0.5-0.5-1.2,0-1.7l337-342c0.5-0.5,1.2-0.5,1.7,0
			c0.5,0.5,0.5,1.2,0,1.7l-337,342C104.6,499.4,104.3,499.5,104,499.5z"/>
	</g>
	<g>
		<path class="st3" d="M382,300.5c-3,0-6.1-0.1-9.2-0.3c-0.7,0-1.2-0.6-1.1-1.3c0-0.7,0.6-1.2,1.3-1.1c52.8,3.7,86.3-26.1,86.6-26.4
			c0.5-0.5,1.3-0.4,1.7,0.1c0.5,0.5,0.4,1.3-0.1,1.7C460.9,273.5,430.5,300.5,382,300.5z"/>
	</g>
</g>
</svg>
