<?xml version="1.0" encoding="utf-8"?>
<!-- Generator: Adobe Illustrator 24.2.3, SVG Export Plug-In . SVG Version: 6.00 Build 0)  -->
<svg version="1.1" xmlns="http://www.w3.org/2000/svg" xmlns:xlink="http://www.w3.org/1999/xlink" x="0px" y="0px"
	 viewBox="0 0 600 600" style="enable-background:new 0 0 600 600;" xml:space="preserve">
<style type="text/css">
	.st0{display:none;}
	.st1{display:inline;fill:none;stroke:#1D1D1B;stroke-miterlimit:10;}
	.st2{display:inline;}
	.st3{fill:#DEAB5B;stroke:#DEAB5B;stroke-width:2;stroke-miterlimit:10;}
</style>
<g id="Capa_1" class="st0">
	<circle class="st1" cx="300" cy="300" r="300"/>
	<g class="st2">
		<path d="M95,478.9c-0.3,1.9,0.3,3.9,1.6,5.3s3.1,2.3,5.1,2.3h388.2c1.9,0,3.8-0.8,5.1-2.3c1.3-1.5,1.8-3.4,1.6-5.3
			c-4.8-25.2-20.9-46.9-43.8-58.6c-21.8-9.8-41-24.7-56-43.4c-6.8-8.5-14.6-16.2-23.3-22.9c-27.2-20.4-48.6-34.8-77.6-34.8
			s-50.5,14.4-77.6,34.8c-8.6,6.7-16.4,14.4-23.3,22.9c-15,18.7-34.2,33.5-56,43.4C116,432,99.8,453.6,95,478.9z M205,385.7
			c6.2-7.8,13.3-14.8,21.1-20.9c25.9-19.4,44.7-32.1,69.6-32.1s43.7,12.7,69.6,32.1c7.8,6.1,14.9,13.1,21.1,20.9
			c16.2,20,36.8,36,60.2,46.6c16.6,8.4,29,23.1,34.6,40.9H110.2c5.6-17.7,18-32.4,34.6-40.8C168.2,421.7,188.9,405.7,205,385.7z"/>
		<path d="M248.9,379.5h13.4c3.7,0,6.7-3,6.7-6.7c0-3.7-3-6.7-6.7-6.7h-13.4c-3.7,0-6.7,3-6.7,6.7
			C242.2,376.5,245.2,379.5,248.9,379.5z"/>
		<path d="M222.1,406.2h13.4c3.7,0,6.7-3,6.7-6.7c0-3.7-3-6.7-6.7-6.7h-13.4c-3.7,0-6.7,3-6.7,6.7
			C215.4,403.2,218.4,406.2,222.1,406.2z"/>
		<path d="M262.3,419.6h-13.4c-3.7,0-6.7,3-6.7,6.7c0,3.7,3,6.7,6.7,6.7h13.4c3.7,0,6.7-3,6.7-6.7C269,422.6,266,419.6,262.3,419.6z
			"/>
		<path d="M195.4,433h13.4c3.7,0,6.7-3,6.7-6.7c0-3.7-3-6.7-6.7-6.7h-13.4c-3.7,0-6.7,3-6.7,6.7C188.7,430,191.7,433,195.4,433z"/>
		<path d="M242.2,446.4h-13.4c-3.7,0-6.7,3-6.7,6.7c0,3.7,3,6.7,6.7,6.7h13.4c3.7,0,6.7-3,6.7-6.7
			C248.9,449.4,245.9,446.4,242.2,446.4z"/>
		<path d="M161.9,459.8h13.4c3.7,0,6.7-3,6.7-6.7c0-3.7-3-6.7-6.7-6.7h-13.4c-3.7,0-6.7,3-6.7,6.7
			C155.2,456.8,158.2,459.8,161.9,459.8z"/>
		<path d="M329.2,379.5h13.4c3.7,0,6.7-3,6.7-6.7c0-3.7-3-6.7-6.7-6.7h-13.4c-3.7,0-6.7,3-6.7,6.7
			C322.5,376.5,325.5,379.5,329.2,379.5z"/>
		<path d="M356,406.2h13.4c3.7,0,6.7-3,6.7-6.7c0-3.7-3-6.7-6.7-6.7H356c-3.7,0-6.7,3-6.7,6.7C349.3,403.2,352.3,406.2,356,406.2z"
			/>
		<path d="M329.2,433h13.4c3.7,0,6.7-3,6.7-6.7c0-3.7-3-6.7-6.7-6.7h-13.4c-3.7,0-6.7,3-6.7,6.7C322.5,430,325.5,433,329.2,433z"/>
		<path d="M382.8,433h13.4c3.7,0,6.7-3,6.7-6.7c0-3.7-3-6.7-6.7-6.7h-13.4c-3.7,0-6.7,3-6.7,6.7C376.1,430,379.1,433,382.8,433z"/>
		<path d="M362.7,446.4h-13.4c-3.7,0-6.7,3-6.7,6.7c0,3.7,3,6.7,6.7,6.7h13.4c3.7,0,6.7-3,6.7-6.7
			C369.4,449.4,366.4,446.4,362.7,446.4z"/>
		<path d="M416.2,459.8h13.4c3.7,0,6.7-3,6.7-6.7c0-3.7-3-6.7-6.7-6.7h-13.4c-3.7,0-6.7,3-6.7,6.7
			C409.5,456.8,412.5,459.8,416.2,459.8z"/>
		<path d="M289.1,359.4h13.4c3.7,0,6.7-3,6.7-6.7c0-3.7-3-6.7-6.7-6.7h-13.4c-3.7,0-6.7,3-6.7,6.7
			C282.4,356.4,285.4,359.4,289.1,359.4z"/>
		<path d="M289.1,406.2h13.4c3.7,0,6.7-3,6.7-6.7c0-3.7-3-6.7-6.7-6.7h-13.4c-3.7,0-6.7,3-6.7,6.7
			C282.4,403.2,285.4,406.2,289.1,406.2z"/>
		<path d="M289.1,459.8h13.4c3.7,0,6.7-3,6.7-6.7c0-3.7-3-6.7-6.7-6.7h-13.4c-3.7,0-6.7,3-6.7,6.7
			C282.4,456.8,285.4,459.8,289.1,459.8z"/>
		<path d="M496.4,103.6c0.5-5.2-1.5-10.3-5.4-13.8c-6-5.4-14.7-6.4-21.7-2.4c-8.5,4.9-20.5,16.1-32.8,40.9
			c-8-11-26.1-23.3-67.2-23.3c-25.4,0-49.8,9.5-68.4,26.8c-0.7,0.5-1.3,1-1.8,1.7c-43.5,40.4-59.8,111.5-63.4,130.2
			c-0.7,3.6,0.2,7.4,2.5,10.3c0.1,0.1,0.1,0.2,0.2,0.3c0.8,1,1.8,1.9,3,2.7c4.4,2.9,10.1,2.8,14.4-0.3
			c18.1-12.9,38.3-22.6,59.7-28.5c0.1,0,0.2,0,0.3-0.1c6.6-1.6,13.4-2.5,20.1-2.5c48.4,0,103.2,0,125.2-22
			c12.6-14.3,16.7-34.1,10.7-52.2c-3.3-12.1-11.4-22.3-22.4-28.4c12.3-9.7,25.2-18.5,38.7-26.5C492.8,113.7,495.9,109,496.4,103.6z
			 M427.6,138.9c-3.9,0.3-8.2,0.9-12.9,1.7c-4.1-7.5-9.8-14.1-16.6-19.4C417,125.3,424.6,133.3,427.6,138.9z M410.6,229
			c-12.2,1.6-24.5,2.5-36.8,2.8c14.3-32.2,5.1-54.7-1.5-64.9c11.6-4.6,23.5-8.3,35.7-11C419.8,178.7,420.7,205.5,410.6,229z
			 M324.4,131.1c8.5-5.2,17.9-8.9,27.8-10.9c19.2-1.6,37.8,7.3,48.7,23.3c-12.4,3-24.6,7-36.4,12C355,142.2,340.5,133.4,324.4,131.1
			z M307.6,144c16.8-2.5,33.7,3.9,44.5,17c-14.2,6.8-27.7,14.8-40.4,24c-7.9-6.8-18-10.6-28.4-10.7C290,163.1,298.2,153,307.6,144z
			 M308.4,236.2c-17.5,5.1-34.2,12.7-49.5,22.6c13.8-20.6,30.5-39.1,49.7-54.8C312.3,214.5,312.2,225.9,308.4,236.2z M275.8,187.6
			c8.8-0.9,17.6,1.1,25.1,5.8c-17.3,14-32.7,30.1-45.9,47.9C260.1,222.7,267.1,204.7,275.8,187.6z M323.1,233.2
			c3.2-12.5,1.9-25.8-3.6-37.5c12.6-9.1,26-17,40.2-23.5c4.7,6.5,16.1,27.2-1,59.9c-7.7,0.1-15.4,0.1-22.8,0.1
			C331.6,232.2,327.4,232.5,323.1,233.2z M459.1,175.2c4.5,13.4,1.7,28.1-7.4,38.9c-7.3,6.2-16.2,10.4-25.7,12.1
			c7.8-23.9,6.3-49.9-4.4-72.8c4.6-0.7,9.2-1.2,13.9-1.5C447.1,154.7,456.2,163.7,459.1,175.2z M481.2,104.9
			c-10,6-18.6,11.7-25.8,16.8c5-9.1,12-16.9,20.7-22.7c0.7-0.4,1.6-0.7,2.5-0.7c1.3,0,2.5,0.5,3.5,1.3c0.8,0.6,1.2,1.6,1.1,2.6
			C483,103.4,482.3,104.4,481.2,104.9z"/>
		<path d="M436.3,372.8c3.7,0,6.7-3,6.7-6.7v-6.7h6.7c3.7,0,6.7-3,6.7-6.7c0-3.7-3-6.7-6.7-6.7H443v-6.7c0-3.7-3-6.7-6.7-6.7
			c-3.7,0-6.7,3-6.7,6.7v6.7h-6.7c-3.7,0-6.7,3-6.7,6.7c0,3.7,3,6.7,6.7,6.7h6.7v6.7C429.6,369.8,432.6,372.8,436.3,372.8z"/>
		<path d="M161.9,305.8c-3.7,0-6.7,3-6.7,6.7v6.7h-6.7c-3.7,0-6.7,3-6.7,6.7c0,3.7,3,6.7,6.7,6.7h6.7v6.7c0,3.7,3,6.7,6.7,6.7
			c3.7,0,6.7-3,6.7-6.7v-6.7h6.7c3.7,0,6.7-3,6.7-6.7c0-3.7-3-6.7-6.7-6.7h-6.7v-6.7C168.6,308.8,165.6,305.8,161.9,305.8z"/>
		<path d="M228.8,125.1c3.7,0,6.7-3,6.7-6.7v-6.7h6.7c3.7,0,6.7-3,6.7-6.7c0-3.7-3-6.7-6.7-6.7h-6.7v-6.7c0-3.7-3-6.7-6.7-6.7
			c-3.7,0-6.7,3-6.7,6.7v6.7h-6.7c-3.7,0-6.7,3-6.7,6.7c0,3.7,3,6.7,6.7,6.7h6.7v6.7C222.1,122.1,225.1,125.1,228.8,125.1z"/>
	</g>
</g>
<g id="Capa_2">
	<g>
		<path class="st3" d="M113.4,482.7c-3.1,0-6-1.6-7.6-4.2c-1.7-2.6-1.9-5.8-0.6-8.7c3.6-7.9,8.2-15.3,13.4-22
			c10.8-13.7,20.9-19.3,32.5-25.8c7.3-4.1,15.7-8.8,25.2-16.1c15.6-12,19.7-18.3,25-26.2c4.8-7.3,10.3-15.7,26.1-30.6
			c11.1-10.5,29.2-19.2,52.3-25.2c11.3-2.9,23-2.6,34,0.9c21.6,6.9,40.4,17.2,55.7,30.6c9.4,8.2,14.1,14.5,18.6,20.5
			c5.3,7.1,10.3,13.7,22.4,23.1c11.8,9,21.3,13.6,29.7,17.6c10.1,4.8,18.8,8.9,28.6,19.2c7.1,7.4,12.9,16.1,17.4,25.9
			c1.9,4.2,1.6,9-0.9,12.9c-2.5,3.9-6.7,6.2-11.3,6.2L113.4,482.7L113.4,482.7C113.4,482.7,113.4,482.7,113.4,482.7z M113.4,481.5
			L113.4,481.5L113.4,481.5z M295.2,324.5c-5,0-10,0.6-15,1.9c-28.6,7.4-43.6,17.5-51.2,24.6c-15.6,14.7-21,22.9-25.8,30.1
			c-5.2,7.8-9.6,14.6-25.5,26.8c-9.7,7.5-18.1,12.2-25.5,16.3c-11.4,6.4-21.3,11.9-31.8,25.2c-5.2,6.5-9.6,13.7-13.1,21.5
			c-0.9,2.1-0.8,4.4,0.5,6.3c1.2,1.9,3.3,3.1,5.6,3.1c0,0,0,0,0,0l360.4-1.8c3.8,0,7.2-1.9,9.3-5.1c2-3.2,2.3-7.2,0.7-10.6
			c-4.4-9.6-10.1-18.1-17-25.3c-9.5-10-18.1-14-27.9-18.7c-8.5-4-18.1-8.6-30.1-17.8c-12.4-9.5-17.5-16.3-22.9-23.5
			c-4.4-5.9-9-12.1-18.2-20.1c-15.1-13.2-33.6-23.3-54.9-30.1C307.1,325.4,301.2,324.5,295.2,324.5z"/>
	</g>
	<g>
		<path class="st3" d="M161.2,345.6c-0.7,0-1.2-0.5-1.2-1.2v-32.9c0-0.7,0.5-1.2,1.2-1.2s1.2,0.5,1.2,1.2v32.9
			C162.4,345.1,161.9,345.6,161.2,345.6z"/>
	</g>
	<g>
		<path class="st3" d="M178.9,327.3h-33.5c-0.7,0-1.2-0.5-1.2-1.2s0.5-1.2,1.2-1.2h33.5c0.7,0,1.2,0.5,1.2,1.2
			S179.6,327.3,178.9,327.3z"/>
	</g>
	<g>
		<path class="st3" d="M436.8,371.5c-0.7,0-1.2-0.5-1.2-1.2v-32.9c0-0.7,0.5-1.2,1.2-1.2s1.2,0.5,1.2,1.2v32.9
			C438,371,437.4,371.5,436.8,371.5z"/>
	</g>
	<g>
		<path class="st3" d="M454.5,353.2H421c-0.7,0-1.2-0.5-1.2-1.2s0.5-1.2,1.2-1.2h33.5c0.7,0,1.2,0.5,1.2,1.2
			S455.1,353.2,454.5,353.2z"/>
	</g>
	<g>
		<path class="st3" d="M226.3,122.5c-0.7,0-1.2-0.5-1.2-1.2V88.4c0-0.7,0.5-1.2,1.2-1.2s1.2,0.5,1.2,1.2v32.9
			C227.5,121.9,227,122.5,226.3,122.5z"/>
	</g>
	<g>
		<path class="st3" d="M244,104.2h-33.5c-0.7,0-1.2-0.5-1.2-1.2s0.5-1.2,1.2-1.2H244c0.7,0,1.2,0.5,1.2,1.2S244.7,104.2,244,104.2z"
			/>
	</g>
	<g>
		<path class="st3" d="M184.6,451.8H158c-0.7,0-1.2-0.5-1.2-1.2s0.5-1.2,1.2-1.2h26.5c0.7,0,1.2,0.5,1.2,1.2
			S185.2,451.8,184.6,451.8z"/>
	</g>
	<g>
		<path class="st3" d="M241.3,451.8h-26.5c-0.7,0-1.2-0.5-1.2-1.2s0.5-1.2,1.2-1.2h26.5c0.7,0,1.2,0.5,1.2,1.2
			S241.9,451.8,241.3,451.8z"/>
	</g>
	<g>
		<path class="st3" d="M298,451.8h-26.5c-0.7,0-1.2-0.5-1.2-1.2s0.5-1.2,1.2-1.2H298c0.7,0,1.2,0.5,1.2,1.2S298.6,451.8,298,451.8z"
			/>
	</g>
	<g>
		<path class="st3" d="M354.7,451.8h-26.5c-0.7,0-1.2-0.5-1.2-1.2s0.5-1.2,1.2-1.2h26.5c0.7,0,1.2,0.5,1.2,1.2
			S355.3,451.8,354.7,451.8z"/>
	</g>
	<g>
		<path class="st3" d="M411.3,451.8h-26.5c-0.7,0-1.2-0.5-1.2-1.2s0.5-1.2,1.2-1.2h26.5c0.7,0,1.2,0.5,1.2,1.2
			S412,451.8,411.3,451.8z"/>
	</g>
	<g>
		<path class="st3" d="M216.2,427.8h-26.5c-0.7,0-1.2-0.5-1.2-1.2s0.5-1.2,1.2-1.2h26.5c0.7,0,1.2,0.5,1.2,1.2
			S216.8,427.8,216.2,427.8z"/>
	</g>
	<g>
		<path class="st3" d="M272.9,427.8h-26.5c-0.7,0-1.2-0.5-1.2-1.2s0.5-1.2,1.2-1.2h26.5c0.7,0,1.2,0.5,1.2,1.2
			S273.5,427.8,272.9,427.8z"/>
	</g>
	<g>
		<path class="st3" d="M329.6,427.8H303c-0.7,0-1.2-0.5-1.2-1.2s0.5-1.2,1.2-1.2h26.5c0.7,0,1.2,0.5,1.2,1.2
			S330.2,427.8,329.6,427.8z"/>
	</g>
	<g>
		<path class="st3" d="M386.3,427.8h-26.5c-0.7,0-1.2-0.5-1.2-1.2s0.5-1.2,1.2-1.2h26.5c0.7,0,1.2,0.5,1.2,1.2
			S386.9,427.8,386.3,427.8z"/>
	</g>
	<g>
		<path class="st3" d="M250.7,401.2h-26.5c-0.7,0-1.2-0.5-1.2-1.2s0.5-1.2,1.2-1.2h26.5c0.7,0,1.2,0.5,1.2,1.2
			S251.4,401.2,250.7,401.2z"/>
	</g>
	<g>
		<path class="st3" d="M307.4,401.2h-26.5c-0.7,0-1.2-0.5-1.2-1.2s0.5-1.2,1.2-1.2h26.5c0.7,0,1.2,0.5,1.2,1.2
			S308.1,401.2,307.4,401.2z"/>
	</g>
	<g>
		<path class="st3" d="M364.1,401.2h-26.5c-0.7,0-1.2-0.5-1.2-1.2s0.5-1.2,1.2-1.2h26.5c0.7,0,1.2,0.5,1.2,1.2
			S364.8,401.2,364.1,401.2z"/>
	</g>
	<g>
		<path class="st3" d="M280.9,372.8h-26.5c-0.7,0-1.2-0.5-1.2-1.2s0.5-1.2,1.2-1.2h26.5c0.7,0,1.2,0.5,1.2,1.2
			S281.6,372.8,280.9,372.8z"/>
	</g>
	<g>
		<path class="st3" d="M337.6,372.8H311c-0.7,0-1.2-0.5-1.2-1.2s0.5-1.2,1.2-1.2h26.5c0.7,0,1.2,0.5,1.2,1.2
			S338.3,372.8,337.6,372.8z"/>
	</g>
	<g>
		<path class="st3" d="M306,351.3h-26.5c-0.7,0-1.2-0.5-1.2-1.2s0.5-1.2,1.2-1.2H306c0.7,0,1.2,0.5,1.2,1.2S306.7,351.3,306,351.3z"
			/>
	</g>
	<g>
		<path class="st3" d="M244.8,269.5c-0.7,0-1.3-0.2-1.9-0.6c-1.1-0.7-1.8-2-1.6-3.3c2.4-23.6,8.6-46.4,18.7-67.8
			c12.2-26,29.3-48.9,50.9-68c1.7-1.4,41-34.2,86.5-19.2c22.9,7.5,36.9,23.8,43.2,32.8c0.1,0.2,0.3,0.3,0.4,0.4v0
			c3.9,1.9,23.6,12.6,27.9,36c0.1,0.6,0.2,1.2,0.3,1.7c3,20-8.2,39.6-27.2,47.7c-15.4,6.5-31.3,11-47.5,13.3
			c-17.7,2.6-30.8,1.9-43.5,1.2c-12.8-0.7-25-1.3-41.2,1.3c-21.4,3.4-42.7,11.4-63.2,23.9C246.1,269.4,245.5,269.5,244.8,269.5z
			 M372.8,109.2c-33.4,0-59.1,21.4-60.4,22.5c-21.3,18.9-38.2,41.5-50.3,67.2c-9.9,21.1-16.1,43.7-18.4,67c-0.1,0.6,0.3,0.9,0.5,1
			c0.4,0.2,0.8,0.2,1.2,0c20.8-12.6,42.4-20.8,64.1-24.2c16.5-2.6,28.7-2,41.7-1.3c12.6,0.7,25.6,1.3,43-1.2
			c15.9-2.3,31.7-6.7,46.9-13.2c18-7.6,28.5-26.1,25.7-45.1c-0.1-0.5-0.2-1.1-0.3-1.6c-4.2-22.3-22.9-32.5-26.6-34.3l0,0
			c-0.5-0.3-1-0.7-1.4-1.2c-6.1-8.8-19.7-24.6-42-31.9C388.4,110.3,380.4,109.2,372.8,109.2z"/>
	</g>
	<g>
		<path class="st3" d="M439.6,145.4c-0.3,0-0.6-0.1-0.8-0.3c-0.4-0.4-0.5-1-0.2-1.5l30.7-51.3c0-0.1,0.1-0.1,0.1-0.2
			c3.4-4.1,8.3-6.5,13.4-6.7c4.2-0.1,8.1,1.4,10.5,4.1c1.5,1.7,2.6,3.9,3,6.4c0.9,5.5-1.6,11.2-6.3,14.5l-49.7,34.8
			C440.1,145.3,439.8,145.4,439.6,145.4z M471.3,93.5l-27.7,46.4l45-31.5c4-2.8,6.1-7.5,5.3-12.1c-0.3-2-1.2-3.8-2.4-5.2
			c-2-2.2-5.2-3.4-8.7-3.3C478.4,87.9,474.2,90,471.3,93.5z"/>
	</g>
	<g>
		<path class="st3" d="M243.4,269.1c-0.2,0-0.4,0-0.5-0.1c-0.6-0.3-0.8-1-0.5-1.6c29.2-58.5,81.3-89.2,119.8-104.7
			c41.7-16.8,77-19.7,77.4-19.8c0.7-0.1,1.3,0.4,1.3,1.1c0.1,0.7-0.4,1.3-1.1,1.3c-0.3,0-35.3,3-76.7,19.6
			c-38.1,15.3-89.6,45.7-118.5,103.5C244.2,268.9,243.8,269.1,243.4,269.1z"/>
	</g>
	<g>
		<path class="st3" d="M315.4,243.8c-0.2,0-0.4,0-0.5-0.1c-0.6-0.3-0.8-1-0.6-1.6c8.3-16.8,6.1-36.8-5.5-49.9
			c-12.8-14.4-31.5-14.3-35.1-14.1c-0.7,0-1.2-0.5-1.3-1.2s0.5-1.2,1.2-1.3c3.8-0.2,23.5-0.3,37,14.9c12.2,13.8,14.6,34.9,5.9,52.5
			C316.3,243.6,315.9,243.8,315.4,243.8z"/>
	</g>
	<g>
		<path class="st3" d="M360.9,243.2c-0.1,0-0.2,0-0.3,0c-0.6-0.2-1-0.8-0.9-1.4c0.1-0.4,0.4-1,1.1-2.5c11.4-24,19.8-57.8-5.2-82.3
			c-15.8-15.4-34.5-20.7-47.4-22.4c-0.7-0.1-1.1-0.7-1-1.4s0.7-1.1,1.4-1c13.3,1.8,32.5,7.3,48.7,23.1c26.1,25.4,17.5,60.3,5.7,85
			c-0.4,0.9-0.9,1.9-1,2.1C361.9,242.8,361.5,243.2,360.9,243.2z"/>
	</g>
	<g>
		<path class="st3" d="M415.3,236.3c-0.2,0-0.3,0-0.5-0.1c-0.6-0.3-0.9-1-0.7-1.6c4.4-10.5,17.3-47.8-1.9-85.6
			c-10.6-20.8-26.5-33.2-38.1-40c-0.6-0.3-0.8-1.1-0.4-1.7c0.3-0.6,1.1-0.8,1.7-0.4c11.8,6.9,28.2,19.7,39,40.9
			c19.7,38.7,6.5,76.8,1.9,87.6C416.2,236,415.8,236.3,415.3,236.3z"/>
	</g>
</g>
</svg>
