<svg width="157" height="213" viewBox="0 0 157 213" fill="none" xmlns="http://www.w3.org/2000/svg">
<line x1="84" y1="111.5" x2="72" y2="111.5" stroke="white"/>
<path d="M0 57H60V111H0V57Z" fill="#E3E3E3"/>
<path d="M97.872 115.12C96.992 115.12 96.236 114.944 95.604 114.592C94.98 114.232 94.5 113.728 94.164 113.08C93.828 112.424 93.66 111.652 93.66 110.764C93.66 109.876 93.828 109.108 94.164 108.46C94.5 107.812 94.98 107.312 95.604 106.96C96.236 106.6 96.992 106.42 97.872 106.42C98.464 106.42 98.996 106.504 99.468 106.672C99.948 106.84 100.36 107.088 100.704 107.416L100.2 108.64C99.824 108.336 99.46 108.12 99.108 107.992C98.764 107.856 98.368 107.788 97.92 107.788C97.064 107.788 96.408 108.048 95.952 108.568C95.504 109.08 95.28 109.812 95.28 110.764C95.28 111.716 95.504 112.452 95.952 112.972C96.408 113.492 97.064 113.752 97.92 113.752C98.368 113.752 98.764 113.688 99.108 113.56C99.46 113.424 99.824 113.2 100.2 112.888L100.704 114.112C100.36 114.432 99.948 114.68 99.468 114.856C98.996 115.032 98.464 115.12 97.872 115.12ZM104.345 115.12C103.721 115.12 103.181 114.992 102.725 114.736C102.269 114.48 101.913 114.116 101.657 113.644C101.409 113.172 101.285 112.612 101.285 111.964C101.285 111.316 101.409 110.76 101.657 110.296C101.913 109.824 102.269 109.46 102.725 109.204C103.181 108.948 103.721 108.82 104.345 108.82C104.969 108.82 105.509 108.948 105.965 109.204C106.429 109.46 106.785 109.824 107.033 110.296C107.289 110.76 107.417 111.316 107.417 111.964C107.417 112.612 107.289 113.172 107.033 113.644C106.785 114.116 106.429 114.48 105.965 114.736C105.509 114.992 104.969 115.12 104.345 115.12ZM104.345 113.968C104.817 113.968 105.193 113.804 105.473 113.476C105.753 113.14 105.893 112.636 105.893 111.964C105.893 111.292 105.753 110.792 105.473 110.464C105.193 110.136 104.817 109.972 104.345 109.972C103.873 109.972 103.497 110.136 103.217 110.464C102.937 110.792 102.797 111.292 102.797 111.964C102.797 112.636 102.937 113.14 103.217 113.476C103.497 113.804 103.873 113.968 104.345 113.968ZM110.871 115.12C110.351 115.12 109.871 115.06 109.431 114.94C108.999 114.812 108.635 114.636 108.339 114.412L108.759 113.404C109.063 113.612 109.399 113.772 109.767 113.884C110.135 113.996 110.507 114.052 110.883 114.052C111.283 114.052 111.579 113.984 111.771 113.848C111.971 113.712 112.071 113.528 112.071 113.296C112.071 113.112 112.007 112.968 111.879 112.864C111.759 112.752 111.563 112.668 111.291 112.612L110.091 112.384C109.579 112.272 109.187 112.08 108.915 111.808C108.651 111.536 108.519 111.18 108.519 110.74C108.519 110.364 108.619 110.032 108.819 109.744C109.027 109.456 109.319 109.232 109.695 109.072C110.079 108.904 110.527 108.82 111.039 108.82C111.487 108.82 111.907 108.88 112.299 109C112.699 109.12 113.035 109.3 113.307 109.54L112.875 110.512C112.627 110.312 112.343 110.156 112.023 110.044C111.703 109.932 111.391 109.876 111.087 109.876C110.671 109.876 110.367 109.952 110.175 110.104C109.983 110.248 109.887 110.436 109.887 110.668C109.887 110.844 109.943 110.992 110.055 111.112C110.175 111.224 110.359 111.308 110.607 111.364L111.807 111.592C112.343 111.696 112.747 111.88 113.019 112.144C113.299 112.4 113.439 112.752 113.439 113.2C113.439 113.6 113.331 113.944 113.115 114.232C112.899 114.52 112.599 114.74 112.215 114.892C111.831 115.044 111.383 115.12 110.871 115.12ZM117.256 115.12C116.536 115.12 115.992 114.932 115.624 114.556C115.256 114.18 115.072 113.616 115.072 112.864V110.068H113.908V108.94H115.072V107.392L116.572 107.008V108.94H118.192V110.068H116.572V112.768C116.572 113.184 116.652 113.476 116.812 113.644C116.972 113.812 117.192 113.896 117.472 113.896C117.624 113.896 117.752 113.884 117.856 113.86C117.968 113.836 118.076 113.804 118.18 113.764V114.952C118.044 115.008 117.892 115.048 117.724 115.072C117.564 115.104 117.408 115.12 117.256 115.12Z" fill="white"/>
<path d="M13.3599 183.736C13.0399 185.928 12.5119 186.792 11.8079 186.792C11.2159 186.792 10.9599 186.328 10.9599 184.952V179.624H13.2959V179.272H9.32788C10.9279 178.632 11.2799 177.224 11.2799 175.864H9.31188C9.31188 177.688 9.35988 179.272 7.15188 179.272H6.89588V179.624H8.62388V184.6C8.62388 186.472 9.26388 187.4 10.9439 187.4C12.3999 187.4 13.2479 186.584 13.6479 183.736H13.3599ZM21.9833 179.272C19.7433 178.856 18.6873 180.12 17.4713 181.608C17.4873 180.904 17.5193 180.232 17.6473 179.272H14.9753C15.1353 180.648 15.1353 181.416 15.1353 182.536V183.736C15.1353 184.856 15.1353 185.624 14.9753 187H17.6473C17.4713 185.624 17.4713 184.856 17.4713 183.736V182.536V182.104C19.0073 180.408 19.5993 180.36 20.4793 180.632C21.5833 180.984 22.1753 180.312 21.9833 179.272ZM31.1885 187C30.9485 185.624 30.9485 184.856 30.9485 183.672V181.464C30.9325 179.576 29.5405 178.952 27.6205 178.952C25.7645 178.952 24.0845 179.64 22.9805 180.376C23.1885 181.528 24.4045 181.704 25.0605 180.856C25.5245 180.264 25.9085 179.304 27.3005 179.304C28.1645 179.304 28.6125 179.816 28.6125 180.824C28.6125 181.848 27.9085 182.168 26.5165 182.424C24.9805 182.696 22.6765 183.192 22.6765 185.176C22.6765 186.744 24.1325 187.32 25.4605 187.32C27.2045 187.32 28.1965 186.52 28.6285 185.368C28.6445 185.928 28.6765 186.376 28.7885 187H31.1885ZM26.6125 186.536C25.7965 186.536 25.2365 185.992 25.2365 184.792C25.2365 183.704 25.8125 183.016 26.9965 182.664C27.7485 182.44 28.3085 182.296 28.6125 181.912V183.88C28.6125 185.384 27.8445 186.536 26.6125 186.536ZM42.4026 187C42.1626 185.496 42.1626 184.856 42.1626 183.736V174.2H39.6186C39.8266 175.784 39.8266 176.408 39.8266 177.528V180.584C38.9786 179.592 37.9066 178.952 36.4826 178.952C34.7066 178.952 32.5946 180.152 32.5946 183.144C32.5946 186.136 34.6426 187.32 36.6266 187.32C38.4186 187.32 39.4106 186.392 39.8266 185.112C39.8426 185.8 39.8746 186.248 40.0026 187H42.4026ZM37.4426 186.712C35.7946 186.712 35.1546 185.112 35.1546 183.144C35.1546 180.68 35.9706 179.48 37.2346 179.48C38.2266 179.48 39.1706 180.2 39.8266 181.064V183.416C39.8266 185.528 38.8346 186.712 37.4426 186.712ZM45.5113 177.576L47.0473 176.216L45.5113 174.856L43.9753 176.216L45.5113 177.576ZM44.1833 179.272C44.3433 180.648 44.3433 181.416 44.3433 182.536V183.736C44.3433 184.856 44.3433 185.624 44.1833 187H46.8553C46.6793 185.624 46.6793 184.856 46.6793 183.736V182.536C46.6793 181.416 46.6793 180.648 46.8553 179.272H44.1833ZM54.4224 183.736C54.1024 185.928 53.5744 186.792 52.8704 186.792C52.2784 186.792 52.0224 186.328 52.0224 184.952V179.624H54.3584V179.272H50.3904C51.9904 178.632 52.3424 177.224 52.3424 175.864H50.3744C50.3744 177.688 50.4224 179.272 48.2144 179.272H47.9584V179.624H49.6864V184.6C49.6864 186.472 50.3264 187.4 52.0064 187.4C53.4624 187.4 54.3104 186.584 54.7104 183.736H54.4224ZM57.5269 177.576L59.0629 176.216L57.5269 174.856L55.9909 176.216L57.5269 177.576ZM56.1989 179.272C56.3589 180.648 56.3589 181.416 56.3589 182.536V183.736C56.3589 184.856 56.3589 185.624 56.1989 187H58.8709C58.6949 185.624 58.6949 184.856 58.6949 183.736V182.536C58.6949 181.416 58.6949 180.648 58.8709 179.272H56.1989ZM65.51 187.32C68.39 187.32 70.566 185.816 70.566 183.144C70.566 180.472 68.39 178.952 65.51 178.952C62.646 178.952 60.454 180.472 60.454 183.144C60.454 185.816 62.646 187.32 65.51 187.32ZM65.51 186.984C63.862 186.984 63.014 185.656 63.014 183.144C63.014 180.616 63.862 179.304 65.51 179.304C67.174 179.304 68.022 180.616 68.022 183.144C68.022 185.656 67.174 186.984 65.51 186.984ZM77.6758 187H80.3478C80.1718 185.416 80.1718 184.792 80.1718 183.672V182.136C80.1718 179.832 79.2118 178.952 77.5798 178.952C75.9318 178.952 74.9238 179.912 74.2998 181C74.3318 180.488 74.3798 179.96 74.4598 179.272H71.7878C71.9478 180.648 71.9478 181.416 71.9478 182.536V183.736C71.9478 184.856 71.9478 185.624 71.7878 187H74.4598C74.2838 185.624 74.2838 184.856 74.2838 183.736V182.536V181.56C74.8598 180.44 75.6598 179.576 76.6678 179.576C77.4838 179.576 77.8358 180.184 77.8358 181.304V183.672C77.8358 184.792 77.8358 185.416 77.6758 187ZM90.2354 187C89.9954 185.624 89.9954 184.856 89.9954 183.672V181.464C89.9794 179.576 88.5874 178.952 86.6674 178.952C84.8114 178.952 83.1314 179.64 82.0274 180.376C82.2354 181.528 83.4514 181.704 84.1074 180.856C84.5714 180.264 84.9554 179.304 86.3474 179.304C87.2114 179.304 87.6594 179.816 87.6594 180.824C87.6594 181.848 86.9554 182.168 85.5634 182.424C84.0274 182.696 81.7234 183.192 81.7234 185.176C81.7234 186.744 83.1794 187.32 84.5074 187.32C86.2514 187.32 87.2434 186.52 87.6754 185.368C87.6914 185.928 87.7234 186.376 87.8354 187H90.2354ZM85.6594 186.536C84.8434 186.536 84.2834 185.992 84.2834 184.792C84.2834 183.704 84.8594 183.016 86.0434 182.664C86.7954 182.44 87.3554 182.296 87.6594 181.912V183.88C87.6594 185.384 86.8914 186.536 85.6594 186.536ZM91.7096 174.2C91.8696 175.64 91.8696 176.504 91.8696 177.624V183.576C91.8696 184.696 91.8696 185.56 91.7096 187H94.3816C94.2056 185.56 94.2056 184.696 94.2056 183.576V177.624C94.2056 176.504 94.2056 175.64 94.3816 174.2H91.7096ZM6.84463 203.144C6.84463 205.88 8.87663 207.32 11.2766 207.32C13.7886 207.32 14.8926 205.752 15.4526 203.912H15.1486C14.6526 205.624 13.5966 206.616 12.1406 206.616C10.1406 206.616 9.40463 204.904 9.40463 202.872C9.40463 200.504 10.0126 199.304 11.5166 199.304C12.7646 199.304 13.0526 200.136 13.1646 200.84C13.3406 201.88 14.4926 202.136 15.0526 201.288C14.7006 200.072 13.5006 198.952 11.4046 198.952C8.87663 198.952 6.84463 200.392 6.84463 203.144ZM21.6663 207.32C24.5463 207.32 26.7223 205.816 26.7223 203.144C26.7223 200.472 24.5463 198.952 21.6663 198.952C18.8023 198.952 16.6103 200.472 16.6103 203.144C16.6103 205.816 18.8023 207.32 21.6663 207.32ZM21.6663 206.984C20.0182 206.984 19.1703 205.656 19.1703 203.144C19.1703 200.616 20.0182 199.304 21.6663 199.304C23.3303 199.304 24.1783 200.616 24.1783 203.144C24.1783 205.656 23.3303 206.984 21.6663 206.984ZM38.008 207H40.68C40.504 205.416 40.504 204.792 40.504 203.672V201.912C40.504 199.832 39.672 198.952 38.312 198.952C36.952 198.952 36.024 200.008 35.416 201C35.192 199.576 34.424 198.952 33.288 198.952C31.928 198.952 31.016 199.992 30.456 200.984C30.488 200.488 30.536 199.96 30.616 199.272H27.944C28.104 200.648 28.104 201.416 28.104 202.536V203.736C28.104 204.856 28.104 205.624 27.944 207H30.616C30.44 205.624 30.44 204.856 30.44 203.736V202.536V201.56C31.016 200.44 31.656 199.656 32.408 199.656C33 199.656 33.144 200.2 33.144 201.176V203.672C33.144 204.792 33.144 205.416 32.968 207H35.656C35.48 205.416 35.48 204.792 35.48 203.672V201.912C35.48 201.752 35.48 201.608 35.464 201.464C36.104 200.392 36.712 199.656 37.448 199.656C38.024 199.656 38.168 200.2 38.168 201.176V203.672C38.168 204.792 38.168 205.416 38.008 207ZM47.9994 198.952C46.2074 198.952 45.2314 199.88 44.8154 201.16C44.8154 200.552 44.8474 199.864 44.9274 199.272H42.3034C42.4634 200.712 42.4634 201.496 42.4634 202.616V207.512C42.4634 208.632 42.4634 209.4 42.3034 210.84H44.9754C44.7994 209.4 44.7994 208.632 44.7994 207.512V205.688C45.6474 206.696 46.7354 207.32 48.1594 207.32C49.9194 207.32 52.0314 206.136 52.0314 203.144C52.0314 200.152 49.9994 198.952 47.9994 198.952ZM47.4074 206.792C46.3994 206.792 45.4554 206.072 44.7994 205.208V202.856C44.7994 200.744 45.7914 199.576 47.1834 199.576C48.8314 199.576 49.4874 201.176 49.4874 203.144C49.4874 205.592 48.6554 206.792 47.4074 206.792ZM61.6104 207C61.3704 205.624 61.3704 204.856 61.3704 203.672V201.464C61.3544 199.576 59.9624 198.952 58.0424 198.952C56.1864 198.952 54.5064 199.64 53.4024 200.376C53.6104 201.528 54.8264 201.704 55.4824 200.856C55.9464 200.264 56.3304 199.304 57.7224 199.304C58.5864 199.304 59.0344 199.816 59.0344 200.824C59.0344 201.848 58.3304 202.168 56.9384 202.424C55.4024 202.696 53.0984 203.192 53.0984 205.176C53.0984 206.744 54.5544 207.32 55.8824 207.32C57.6264 207.32 58.6184 206.52 59.0504 205.368C59.0664 205.928 59.0984 206.376 59.2104 207H61.6104ZM57.0344 206.536C56.2184 206.536 55.6584 205.992 55.6584 204.792C55.6584 203.704 56.2344 203.016 57.4184 202.664C58.1704 202.44 58.7304 202.296 59.0344 201.912V203.88C59.0344 205.384 58.2664 206.536 57.0344 206.536ZM69.0664 207H71.7384C71.5624 205.416 71.5624 204.792 71.5624 203.672V202.136C71.5624 199.832 70.6024 198.952 68.9704 198.952C67.3224 198.952 66.3144 199.912 65.6904 201C65.7224 200.488 65.7704 199.96 65.8504 199.272H63.1784C63.3384 200.648 63.3384 201.416 63.3384 202.536V203.736C63.3384 204.856 63.3384 205.624 63.1784 207H65.8504C65.6744 205.624 65.6744 204.856 65.6744 203.736V202.536V201.56C66.2504 200.44 67.0504 199.576 68.0584 199.576C68.8744 199.576 69.2264 200.184 69.2264 201.304V203.672C69.2264 204.792 69.2264 205.416 69.0664 207ZM74.9956 197.576L76.5316 196.216L74.9956 194.856L73.4596 196.216L74.9956 197.576ZM73.6676 199.272C73.8276 200.648 73.8276 201.416 73.8276 202.536V203.736C73.8276 204.856 73.8276 205.624 73.6676 207H76.3396C76.1636 205.624 76.1636 204.856 76.1636 203.736V202.536C76.1636 201.416 76.1636 200.648 76.3396 199.272H73.6676ZM86.7548 204.008C86.1308 205.88 84.8988 206.712 83.4908 206.712C81.4908 206.712 80.4828 205 80.4828 202.952C80.4828 202.728 80.4828 202.52 80.4988 202.312H86.6748C86.6428 200.52 85.1548 198.952 82.5788 198.952C80.1948 198.952 77.9228 200.44 77.9228 203.144C77.9228 205.832 80.1468 207.32 82.7388 207.32C85.0908 207.32 86.4348 206.056 87.0428 204.008H86.7548ZM82.5468 199.304C83.7148 199.304 84.2108 200.36 84.2108 201.96H80.5308C80.7228 200.184 81.4748 199.304 82.5468 199.304ZM87.9034 204.872C88.3354 206.488 89.8554 207.32 91.8554 207.32C93.9514 207.32 95.2954 206.376 95.2954 204.92C95.2954 203.336 93.9034 202.792 92.2554 202.04C90.7034 201.32 90.1114 200.952 90.1114 200.264C90.1114 199.64 90.6394 199.304 91.4554 199.304C92.5114 199.304 92.8794 199.784 93.1194 200.6C93.4074 201.512 94.3994 201.688 94.9914 200.952C94.3514 199.704 93.0874 198.952 91.4074 198.952C90.0474 198.952 88.3194 199.464 88.3194 200.904C88.3194 202.216 89.6154 202.792 91.0874 203.528C92.9434 204.424 93.4394 204.76 93.4394 205.576C93.4394 206.344 92.9914 206.968 91.9514 206.968C90.6074 206.968 90.1434 206.12 90.0474 205.208C89.8234 204.072 88.3994 203.896 87.9034 204.872Z" fill="white"/>
<path d="M0 111H60V166H0V111Z" fill="#535353"/>
<path d="M0 14H60V57H0V14Z" fill="#CFCFCF"/>
<line x1="84" y1="111.5" x2="72" y2="111.5" stroke="white"/>
<path d="M96.288 54L93.3 45.54H94.908L97.212 52.476H96.732L99.216 45.54H100.368L102.672 52.476H102.228L104.64 45.54H106.152L103.14 54H101.856L99.624 47.496H99.888L97.572 54H96.288ZM107.269 54V45.168H108.769V49.152H108.601C108.785 48.72 109.069 48.392 109.453 48.168C109.837 47.936 110.277 47.82 110.773 47.82C111.493 47.82 112.029 48.024 112.381 48.432C112.733 48.832 112.909 49.444 112.909 50.268V54H111.409V50.34C111.409 49.868 111.317 49.528 111.133 49.32C110.957 49.104 110.673 48.996 110.281 48.996C109.825 48.996 109.457 49.14 109.177 49.428C108.905 49.708 108.769 50.084 108.769 50.556V54H107.269ZM117.236 54.12C116.612 54.12 116.072 53.992 115.616 53.736C115.16 53.48 114.804 53.116 114.548 52.644C114.3 52.172 114.176 51.612 114.176 50.964C114.176 50.316 114.3 49.76 114.548 49.296C114.804 48.824 115.16 48.46 115.616 48.204C116.072 47.948 116.612 47.82 117.236 47.82C117.86 47.82 118.4 47.948 118.856 48.204C119.32 48.46 119.676 48.824 119.924 49.296C120.18 49.76 120.308 50.316 120.308 50.964C120.308 51.612 120.18 52.172 119.924 52.644C119.676 53.116 119.32 53.48 118.856 53.736C118.4 53.992 117.86 54.12 117.236 54.12ZM117.236 52.968C117.708 52.968 118.084 52.804 118.364 52.476C118.644 52.14 118.784 51.636 118.784 50.964C118.784 50.292 118.644 49.792 118.364 49.464C118.084 49.136 117.708 48.972 117.236 48.972C116.764 48.972 116.388 49.136 116.108 49.464C115.828 49.792 115.688 50.292 115.688 50.964C115.688 51.636 115.828 52.14 116.108 52.476C116.388 52.804 116.764 52.968 117.236 52.968ZM121.601 54V45.168H123.101V54H121.601ZM127.658 54.12C126.642 54.12 125.846 53.84 125.27 53.28C124.694 52.72 124.406 51.952 124.406 50.976C124.406 50.344 124.53 49.792 124.778 49.32C125.026 48.848 125.37 48.48 125.81 48.216C126.258 47.952 126.778 47.82 127.37 47.82C127.954 47.82 128.442 47.944 128.834 48.192C129.226 48.44 129.522 48.788 129.722 49.236C129.93 49.684 130.034 50.208 130.034 50.808V51.204H125.618V50.412H128.966L128.762 50.58C128.762 50.02 128.642 49.592 128.402 49.296C128.17 49 127.83 48.852 127.382 48.852C126.886 48.852 126.502 49.028 126.23 49.38C125.966 49.732 125.834 50.224 125.834 50.856V51.012C125.834 51.668 125.994 52.16 126.314 52.488C126.642 52.808 127.102 52.968 127.694 52.968C128.038 52.968 128.358 52.924 128.654 52.836C128.958 52.74 129.246 52.588 129.518 52.38L129.962 53.388C129.674 53.62 129.33 53.8 128.93 53.928C128.53 54.056 128.106 54.12 127.658 54.12ZM133.464 54.12C132.944 54.12 132.464 54.06 132.024 53.94C131.592 53.812 131.228 53.636 130.932 53.412L131.352 52.404C131.656 52.612 131.992 52.772 132.36 52.884C132.728 52.996 133.1 53.052 133.476 53.052C133.876 53.052 134.172 52.984 134.364 52.848C134.564 52.712 134.664 52.528 134.664 52.296C134.664 52.112 134.6 51.968 134.472 51.864C134.352 51.752 134.156 51.668 133.884 51.612L132.684 51.384C132.172 51.272 131.78 51.08 131.508 50.808C131.244 50.536 131.112 50.18 131.112 49.74C131.112 49.364 131.212 49.032 131.412 48.744C131.62 48.456 131.912 48.232 132.288 48.072C132.672 47.904 133.12 47.82 133.632 47.82C134.08 47.82 134.5 47.88 134.892 48C135.292 48.12 135.628 48.3 135.9 48.54L135.468 49.512C135.22 49.312 134.936 49.156 134.616 49.044C134.296 48.932 133.984 48.876 133.68 48.876C133.264 48.876 132.96 48.952 132.768 49.104C132.576 49.248 132.48 49.436 132.48 49.668C132.48 49.844 132.536 49.992 132.648 50.112C132.768 50.224 132.952 50.308 133.2 50.364L134.4 50.592C134.936 50.696 135.34 50.88 135.612 51.144C135.892 51.4 136.032 51.752 136.032 52.2C136.032 52.6 135.924 52.944 135.708 53.232C135.492 53.52 135.192 53.74 134.808 53.892C134.424 54.044 133.976 54.12 133.464 54.12ZM139.656 54.12C139.128 54.12 138.664 53.996 138.264 53.748C137.864 53.492 137.552 53.128 137.328 52.656C137.104 52.184 136.992 51.62 136.992 50.964C136.992 50.308 137.104 49.748 137.328 49.284C137.552 48.812 137.864 48.452 138.264 48.204C138.664 47.948 139.128 47.82 139.656 47.82C140.168 47.82 140.616 47.948 141 48.204C141.392 48.452 141.652 48.788 141.78 49.212H141.648L141.78 47.94H143.22C143.196 48.188 143.172 48.44 143.148 48.696C143.132 48.952 143.124 49.204 143.124 49.452V54H141.636L141.624 52.752H141.768C141.64 53.168 141.38 53.5 140.988 53.748C140.596 53.996 140.152 54.12 139.656 54.12ZM140.076 52.968C140.548 52.968 140.928 52.804 141.216 52.476C141.504 52.14 141.648 51.636 141.648 50.964C141.648 50.292 141.504 49.792 141.216 49.464C140.928 49.136 140.548 48.972 140.076 48.972C139.604 48.972 139.224 49.136 138.936 49.464C138.648 49.792 138.504 50.292 138.504 50.964C138.504 51.636 138.644 52.14 138.924 52.476C139.212 52.804 139.596 52.968 140.076 52.968ZM144.757 54V45.168H146.257V54H144.757ZM150.814 54.12C149.798 54.12 149.002 53.84 148.426 53.28C147.85 52.72 147.562 51.952 147.562 50.976C147.562 50.344 147.686 49.792 147.934 49.32C148.182 48.848 148.526 48.48 148.966 48.216C149.414 47.952 149.934 47.82 150.526 47.82C151.11 47.82 151.598 47.944 151.99 48.192C152.382 48.44 152.678 48.788 152.878 49.236C153.086 49.684 153.19 50.208 153.19 50.808V51.204H148.774V50.412H152.122L151.918 50.58C151.918 50.02 151.798 49.592 151.558 49.296C151.326 49 150.986 48.852 150.538 48.852C150.042 48.852 149.658 49.028 149.386 49.38C149.122 49.732 148.99 50.224 148.99 50.856V51.012C148.99 51.668 149.15 52.16 149.47 52.488C149.798 52.808 150.258 52.968 150.85 52.968C151.194 52.968 151.514 52.924 151.81 52.836C152.114 52.74 152.402 52.588 152.674 52.38L153.118 53.388C152.83 53.62 152.486 53.8 152.086 53.928C151.686 54.056 151.262 54.12 150.814 54.12ZM93.816 69V64.452C93.816 64.204 93.808 63.952 93.792 63.696C93.776 63.44 93.752 63.188 93.72 62.94H95.172L95.292 64.14H95.148C95.316 63.724 95.572 63.4 95.916 63.168C96.268 62.936 96.684 62.82 97.164 62.82C97.644 62.82 98.04 62.936 98.352 63.168C98.672 63.392 98.896 63.744 99.024 64.224H98.832C99 63.792 99.276 63.452 99.66 63.204C100.044 62.948 100.484 62.82 100.98 62.82C101.66 62.82 102.168 63.02 102.504 63.42C102.84 63.82 103.008 64.444 103.008 65.292V69H101.508V65.352C101.508 64.872 101.428 64.528 101.268 64.32C101.108 64.104 100.852 63.996 100.5 63.996C100.084 63.996 99.756 64.144 99.516 64.44C99.276 64.728 99.156 65.12 99.156 65.616V69H97.656V65.352C97.656 64.872 97.576 64.528 97.416 64.32C97.256 64.104 97 63.996 96.648 63.996C96.232 63.996 95.904 64.144 95.664 64.44C95.432 64.728 95.316 65.12 95.316 65.616V69H93.816ZM106.949 69.12C106.421 69.12 105.957 68.996 105.557 68.748C105.157 68.492 104.845 68.128 104.621 67.656C104.397 67.184 104.285 66.62 104.285 65.964C104.285 65.308 104.397 64.748 104.621 64.284C104.845 63.812 105.157 63.452 105.557 63.204C105.957 62.948 106.421 62.82 106.949 62.82C107.461 62.82 107.909 62.948 108.293 63.204C108.685 63.452 108.945 63.788 109.073 64.212H108.941L109.073 62.94H110.513C110.489 63.188 110.465 63.44 110.441 63.696C110.425 63.952 110.417 64.204 110.417 64.452V69H108.929L108.917 67.752H109.061C108.933 68.168 108.673 68.5 108.281 68.748C107.889 68.996 107.445 69.12 106.949 69.12ZM107.369 67.968C107.841 67.968 108.221 67.804 108.509 67.476C108.797 67.14 108.941 66.636 108.941 65.964C108.941 65.292 108.797 64.792 108.509 64.464C108.221 64.136 107.841 63.972 107.369 63.972C106.897 63.972 106.517 64.136 106.229 64.464C105.941 64.792 105.797 65.292 105.797 65.964C105.797 66.636 105.937 67.14 106.217 67.476C106.505 67.804 106.889 67.968 107.369 67.968ZM112.038 69V64.488C112.038 64.232 112.03 63.972 112.014 63.708C112.006 63.444 111.986 63.188 111.954 62.94H113.406L113.574 64.596H113.334C113.414 64.196 113.546 63.864 113.73 63.6C113.922 63.336 114.154 63.14 114.426 63.012C114.698 62.884 114.994 62.82 115.314 62.82C115.458 62.82 115.574 62.828 115.662 62.844C115.75 62.852 115.838 62.872 115.926 62.904L115.914 64.224C115.762 64.16 115.63 64.12 115.518 64.104C115.414 64.088 115.282 64.08 115.122 64.08C114.778 64.08 114.486 64.152 114.246 64.296C114.014 64.44 113.838 64.64 113.718 64.896C113.606 65.152 113.55 65.444 113.55 65.772V69H112.038ZM116.761 69V60.168H118.261V65.52H118.285L120.745 62.94H122.557L119.497 66.144L119.509 65.544L122.773 69H120.913L118.285 66.288H118.261V69H116.761ZM125.566 69.12C124.822 69.12 124.266 68.916 123.898 68.508C123.53 68.1 123.346 67.476 123.346 66.636V62.94H124.846V66.624C124.846 67.072 124.938 67.404 125.122 67.62C125.306 67.828 125.586 67.932 125.962 67.932C126.386 67.932 126.73 67.788 126.994 67.5C127.266 67.212 127.402 66.832 127.402 66.36V62.94H128.902V69H127.438V67.764H127.606C127.43 68.196 127.162 68.532 126.802 68.772C126.45 69.004 126.038 69.12 125.566 69.12ZM130.531 71.592V64.452C130.531 64.204 130.523 63.952 130.507 63.696C130.491 63.44 130.467 63.188 130.435 62.94H131.887L132.019 64.212H131.887C132.007 63.788 132.259 63.452 132.643 63.204C133.035 62.948 133.487 62.82 133.999 62.82C134.535 62.82 135.003 62.948 135.403 63.204C135.803 63.452 136.115 63.812 136.339 64.284C136.563 64.748 136.675 65.308 136.675 65.964C136.675 66.62 136.563 67.184 136.339 67.656C136.115 68.128 135.803 68.492 135.403 68.748C135.003 68.996 134.535 69.12 133.999 69.12C133.495 69.12 133.051 68.996 132.667 68.748C132.283 68.5 132.027 68.168 131.899 67.752H132.031V71.592H130.531ZM133.579 67.968C134.059 67.968 134.443 67.804 134.731 67.476C135.019 67.14 135.163 66.636 135.163 65.964C135.163 65.292 135.019 64.792 134.731 64.464C134.443 64.136 134.059 63.972 133.579 63.972C133.107 63.972 132.727 64.136 132.439 64.464C132.151 64.792 132.007 65.292 132.007 65.964C132.007 66.636 132.151 67.14 132.439 67.476C132.727 67.804 133.107 67.968 133.579 67.968Z" fill="white"/>
<line x1="84" y1="57.5" x2="72" y2="57.5" stroke="white"/>
<path d="M96.288 12L93.3 3.54H94.908L97.212 10.476H96.732L99.216 3.54H100.368L102.672 10.476H102.228L104.64 3.54H106.152L103.14 12H101.856L99.624 5.496H99.888L97.572 12H96.288ZM107.269 12V3.168H108.769V7.152H108.601C108.785 6.72 109.069 6.392 109.453 6.168C109.837 5.936 110.277 5.82 110.773 5.82C111.493 5.82 112.029 6.024 112.381 6.432C112.733 6.832 112.909 7.444 112.909 8.268V12H111.409V8.34C111.409 7.868 111.317 7.528 111.133 7.32C110.957 7.104 110.673 6.996 110.281 6.996C109.825 6.996 109.457 7.14 109.177 7.428C108.905 7.708 108.769 8.084 108.769 8.556V12H107.269ZM116.84 12.12C116.312 12.12 115.848 11.996 115.448 11.748C115.048 11.492 114.736 11.128 114.512 10.656C114.288 10.184 114.176 9.62 114.176 8.964C114.176 8.308 114.288 7.748 114.512 7.284C114.736 6.812 115.048 6.452 115.448 6.204C115.848 5.948 116.312 5.82 116.84 5.82C117.352 5.82 117.8 5.948 118.184 6.204C118.576 6.452 118.836 6.788 118.964 7.212H118.832L118.964 5.94H120.404C120.38 6.188 120.356 6.44 120.332 6.696C120.316 6.952 120.308 7.204 120.308 7.452V12H118.82L118.808 10.752H118.952C118.824 11.168 118.564 11.5 118.172 11.748C117.78 11.996 117.336 12.12 116.84 12.12ZM117.26 10.968C117.732 10.968 118.112 10.804 118.4 10.476C118.688 10.14 118.832 9.636 118.832 8.964C118.832 8.292 118.688 7.792 118.4 7.464C118.112 7.136 117.732 6.972 117.26 6.972C116.788 6.972 116.408 7.136 116.12 7.464C115.832 7.792 115.688 8.292 115.688 8.964C115.688 9.636 115.828 10.14 116.108 10.476C116.396 10.804 116.78 10.968 117.26 10.968ZM124.533 12.12C123.813 12.12 123.269 11.932 122.901 11.556C122.533 11.18 122.349 10.616 122.349 9.864V7.068H121.185V5.94H122.349V4.392L123.849 4.008V5.94H125.469V7.068H123.849V9.768C123.849 10.184 123.929 10.476 124.089 10.644C124.249 10.812 124.469 10.896 124.749 10.896C124.901 10.896 125.029 10.884 125.133 10.86C125.245 10.836 125.353 10.804 125.457 10.764V11.952C125.321 12.008 125.169 12.048 125.001 12.072C124.841 12.104 124.685 12.12 124.533 12.12ZM129.661 14.724L129.313 13.536C129.689 13.456 130.005 13.364 130.261 13.26C130.517 13.156 130.729 13.02 130.897 12.852C131.065 12.684 131.205 12.468 131.317 12.204L131.617 11.496L131.581 12.084L128.941 5.94H130.537L132.433 10.668H132.085L133.993 5.94H135.505L132.745 12.336C132.561 12.768 132.361 13.124 132.145 13.404C131.929 13.692 131.697 13.92 131.449 14.088C131.201 14.264 130.929 14.4 130.633 14.496C130.337 14.592 130.013 14.668 129.661 14.724ZM138.915 12.12C138.291 12.12 137.751 11.992 137.295 11.736C136.839 11.48 136.483 11.116 136.227 10.644C135.979 10.172 135.855 9.612 135.855 8.964C135.855 8.316 135.979 7.76 136.227 7.296C136.483 6.824 136.839 6.46 137.295 6.204C137.751 5.948 138.291 5.82 138.915 5.82C139.539 5.82 140.079 5.948 140.535 6.204C140.999 6.46 141.355 6.824 141.603 7.296C141.859 7.76 141.987 8.316 141.987 8.964C141.987 9.612 141.859 10.172 141.603 10.644C141.355 11.116 140.999 11.48 140.535 11.736C140.079 11.992 139.539 12.12 138.915 12.12ZM138.915 10.968C139.387 10.968 139.763 10.804 140.043 10.476C140.323 10.14 140.463 9.636 140.463 8.964C140.463 8.292 140.323 7.792 140.043 7.464C139.763 7.136 139.387 6.972 138.915 6.972C138.443 6.972 138.067 7.136 137.787 7.464C137.507 7.792 137.367 8.292 137.367 8.964C137.367 9.636 137.507 10.14 137.787 10.476C138.067 10.804 138.443 10.968 138.915 10.968ZM145.465 12.12C144.721 12.12 144.165 11.916 143.797 11.508C143.429 11.1 143.245 10.476 143.245 9.636V5.94H144.745V9.624C144.745 10.072 144.837 10.404 145.021 10.62C145.205 10.828 145.485 10.932 145.861 10.932C146.285 10.932 146.629 10.788 146.893 10.5C147.165 10.212 147.301 9.832 147.301 9.36V5.94H148.801V12H147.337V10.764H147.505C147.329 11.196 147.061 11.532 146.701 11.772C146.349 12.004 145.937 12.12 145.465 12.12ZM93.816 29.592V22.452C93.816 22.204 93.808 21.952 93.792 21.696C93.776 21.44 93.752 21.188 93.72 20.94H95.172L95.304 22.212H95.172C95.292 21.788 95.544 21.452 95.928 21.204C96.32 20.948 96.772 20.82 97.284 20.82C97.82 20.82 98.288 20.948 98.688 21.204C99.088 21.452 99.4 21.812 99.624 22.284C99.848 22.748 99.96 23.308 99.96 23.964C99.96 24.62 99.848 25.184 99.624 25.656C99.4 26.128 99.088 26.492 98.688 26.748C98.288 26.996 97.82 27.12 97.284 27.12C96.78 27.12 96.336 26.996 95.952 26.748C95.568 26.5 95.312 26.168 95.184 25.752H95.316V29.592H93.816ZM96.864 25.968C97.344 25.968 97.728 25.804 98.016 25.476C98.304 25.14 98.448 24.636 98.448 23.964C98.448 23.292 98.304 22.792 98.016 22.464C97.728 22.136 97.344 21.972 96.864 21.972C96.392 21.972 96.012 22.136 95.724 22.464C95.436 22.792 95.292 23.292 95.292 23.964C95.292 24.636 95.436 25.14 95.724 25.476C96.012 25.804 96.392 25.968 96.864 25.968ZM103.597 27.12C103.069 27.12 102.605 26.996 102.205 26.748C101.805 26.492 101.493 26.128 101.269 25.656C101.045 25.184 100.933 24.62 100.933 23.964C100.933 23.308 101.045 22.748 101.269 22.284C101.493 21.812 101.805 21.452 102.205 21.204C102.605 20.948 103.069 20.82 103.597 20.82C104.109 20.82 104.557 20.948 104.941 21.204C105.333 21.452 105.593 21.788 105.721 22.212H105.589L105.721 20.94H107.161C107.137 21.188 107.113 21.44 107.089 21.696C107.073 21.952 107.065 22.204 107.065 22.452V27H105.577L105.565 25.752H105.709C105.581 26.168 105.321 26.5 104.929 26.748C104.537 26.996 104.093 27.12 103.597 27.12ZM104.017 25.968C104.489 25.968 104.869 25.804 105.157 25.476C105.445 25.14 105.589 24.636 105.589 23.964C105.589 23.292 105.445 22.792 105.157 22.464C104.869 22.136 104.489 21.972 104.017 21.972C103.545 21.972 103.165 22.136 102.877 22.464C102.589 22.792 102.445 23.292 102.445 23.964C102.445 24.636 102.585 25.14 102.865 25.476C103.153 25.804 103.537 25.968 104.017 25.968ZM108.52 29.724L108.172 28.536C108.548 28.456 108.864 28.364 109.12 28.26C109.376 28.156 109.588 28.02 109.756 27.852C109.924 27.684 110.064 27.468 110.176 27.204L110.476 26.496L110.44 27.084L107.8 20.94H109.396L111.292 25.668H110.944L112.852 20.94H114.364L111.604 27.336C111.42 27.768 111.22 28.124 111.004 28.404C110.788 28.692 110.556 28.92 110.308 29.088C110.06 29.264 109.788 29.4 109.492 29.496C109.196 29.592 108.872 29.668 108.52 29.724Z" fill="white"/>
<line x1="84" y1="15.5" x2="72" y2="15.5" stroke="white"/>
</svg>
