<svg width="388" height="278" viewBox="0 0 388 278" fill="none" xmlns="http://www.w3.org/2000/svg">
<path d="M213 92H388V201H213V92Z" fill="#555555"/>
<path d="M213 12H388V92H213V12Z" fill="#CECECE"/>
<path d="M90.0663 97.16C88.893 97.16 87.885 96.9253 87.0423 96.456C86.2103 95.976 85.5703 95.304 85.1223 94.44C84.6743 93.5653 84.4503 92.536 84.4503 91.352C84.4503 90.168 84.6743 89.144 85.1223 88.28C85.5703 87.416 86.2103 86.7493 87.0423 86.28C87.885 85.8 88.893 85.56 90.0663 85.56C90.8556 85.56 91.565 85.672 92.1943 85.896C92.8343 86.12 93.3836 86.4507 93.8423 86.888L93.1703 88.52C92.669 88.1147 92.1836 87.8267 91.7143 87.656C91.2556 87.4747 90.7276 87.384 90.1303 87.384C88.989 87.384 88.1143 87.7307 87.5063 88.424C86.909 89.1067 86.6103 90.0827 86.6103 91.352C86.6103 92.6213 86.909 93.6027 87.5063 94.296C88.1143 94.9893 88.989 95.336 90.1303 95.336C90.7276 95.336 91.2556 95.2507 91.7143 95.08C92.1836 94.8987 92.669 94.6 93.1703 94.184L93.8423 95.816C93.3836 96.2427 92.8343 96.5733 92.1943 96.808C91.565 97.0427 90.8556 97.16 90.0663 97.16ZM98.6969 97.16C97.8649 97.16 97.1449 96.9893 96.5369 96.648C95.9289 96.3067 95.4543 95.8213 95.1129 95.192C94.7823 94.5627 94.6169 93.816 94.6169 92.952C94.6169 92.088 94.7823 91.3467 95.1129 90.728C95.4543 90.0987 95.9289 89.6133 96.5369 89.272C97.1449 88.9307 97.8649 88.76 98.6969 88.76C99.5289 88.76 100.249 88.9307 100.857 89.272C101.476 89.6133 101.95 90.0987 102.281 90.728C102.622 91.3467 102.793 92.088 102.793 92.952C102.793 93.816 102.622 94.5627 102.281 95.192C101.95 95.8213 101.476 96.3067 100.857 96.648C100.249 96.9893 99.5289 97.16 98.6969 97.16ZM98.6969 95.624C99.3263 95.624 99.8276 95.4053 100.201 94.968C100.574 94.52 100.761 93.848 100.761 92.952C100.761 92.056 100.574 91.3893 100.201 90.952C99.8276 90.5147 99.3263 90.296 98.6969 90.296C98.0676 90.296 97.5663 90.5147 97.1929 90.952C96.8196 91.3893 96.6329 92.056 96.6329 92.952C96.6329 93.848 96.8196 94.52 97.1929 94.968C97.5663 95.4053 98.0676 95.624 98.6969 95.624ZM107.398 97.16C106.704 97.16 106.064 97.08 105.478 96.92C104.902 96.7493 104.416 96.5147 104.022 96.216L104.582 94.872C104.987 95.1493 105.435 95.3627 105.926 95.512C106.416 95.6613 106.912 95.736 107.414 95.736C107.947 95.736 108.342 95.6453 108.598 95.464C108.864 95.2827 108.998 95.0373 108.998 94.728C108.998 94.4827 108.912 94.2907 108.742 94.152C108.582 94.0027 108.32 93.8907 107.958 93.816L106.358 93.512C105.675 93.3627 105.152 93.1067 104.79 92.744C104.438 92.3813 104.262 91.9067 104.262 91.32C104.262 90.8187 104.395 90.376 104.662 89.992C104.939 89.608 105.328 89.3093 105.83 89.096C106.342 88.872 106.939 88.76 107.622 88.76C108.219 88.76 108.779 88.84 109.302 89C109.835 89.16 110.283 89.4 110.646 89.72L110.07 91.016C109.739 90.7493 109.36 90.5413 108.934 90.392C108.507 90.2427 108.091 90.168 107.686 90.168C107.131 90.168 106.726 90.2693 106.47 90.472C106.214 90.664 106.086 90.9147 106.086 91.224C106.086 91.4587 106.16 91.656 106.31 91.816C106.47 91.9653 106.715 92.0773 107.046 92.152L108.646 92.456C109.36 92.5947 109.899 92.84 110.262 93.192C110.635 93.5333 110.822 94.0027 110.822 94.6C110.822 95.1333 110.678 95.592 110.39 95.976C110.102 96.36 109.702 96.6533 109.19 96.856C108.678 97.0587 108.08 97.16 107.398 97.16ZM115.911 97.16C114.951 97.16 114.226 96.9093 113.735 96.408C113.245 95.9067 112.999 95.1547 112.999 94.152V90.424H111.447V88.92H112.999V86.856L114.999 86.344V88.92H117.159V90.424H114.999V94.024C114.999 94.5787 115.106 94.968 115.319 95.192C115.533 95.416 115.826 95.528 116.199 95.528C116.402 95.528 116.573 95.512 116.711 95.48C116.861 95.448 117.005 95.4053 117.143 95.352V96.936C116.962 97.0107 116.759 97.064 116.535 97.096C116.322 97.1387 116.114 97.16 115.911 97.16Z" fill="white"/>
<path d="M11.7199 16L7.73594 4.72H9.87994L12.9519 13.968H12.3119L15.6239 4.72H17.1599L20.2319 13.968H19.6399L22.8559 4.72H24.8719L20.8559 16H19.1439L16.1679 7.328H16.5199L13.4319 16H11.7199ZM26.3614 16V4.224H28.3614V9.536H28.1374C28.3828 8.96 28.7614 8.52267 29.2734 8.224C29.7854 7.91467 30.3721 7.76 31.0334 7.76C31.9934 7.76 32.7081 8.032 33.1774 8.576C33.6468 9.10933 33.8814 9.92533 33.8814 11.024V16H31.8814V11.12C31.8814 10.4907 31.7588 10.0373 31.5134 9.76C31.2788 9.472 30.9001 9.328 30.3774 9.328C29.7694 9.328 29.2788 9.52 28.9054 9.904C28.5428 10.2773 28.3614 10.7787 28.3614 11.408V16H26.3614ZM39.1221 16.16C38.4181 16.16 37.7994 15.9947 37.2661 15.664C36.7327 15.3227 36.3167 14.8373 36.0181 14.208C35.7194 13.5787 35.5701 12.8267 35.5701 11.952C35.5701 11.0773 35.7194 10.3307 36.0181 9.712C36.3167 9.08267 36.7327 8.60267 37.2661 8.272C37.7994 7.93067 38.4181 7.76 39.1221 7.76C39.8047 7.76 40.4021 7.93067 40.9141 8.272C41.4367 8.60267 41.7834 9.05067 41.9541 9.616H41.7781L41.9541 7.92H43.8741C43.8421 8.25067 43.8101 8.58667 43.7781 8.928C43.7567 9.26933 43.7461 9.60533 43.7461 9.936V16H41.7621L41.7461 14.336H41.9381C41.7674 14.8907 41.4207 15.3333 40.8981 15.664C40.3754 15.9947 39.7834 16.16 39.1221 16.16ZM39.6821 14.624C40.3114 14.624 40.8181 14.4053 41.2021 13.968C41.5861 13.52 41.7781 12.848 41.7781 11.952C41.7781 11.056 41.5861 10.3893 41.2021 9.952C40.8181 9.51467 40.3114 9.296 39.6821 9.296C39.0527 9.296 38.5461 9.51467 38.1621 9.952C37.7781 10.3893 37.5861 11.056 37.5861 11.952C37.5861 12.848 37.7727 13.52 38.1461 13.968C38.5301 14.4053 39.0421 14.624 39.6821 14.624ZM49.3799 16.16C48.4199 16.16 47.6946 15.9093 47.2039 15.408C46.7133 14.9067 46.4679 14.1547 46.4679 13.152V9.424H44.9159V7.92H46.4679V5.856L48.4679 5.344V7.92H50.6279V9.424H48.4679V13.024C48.4679 13.5787 48.5746 13.968 48.7879 14.192C49.0013 14.416 49.2946 14.528 49.6679 14.528C49.8706 14.528 50.0413 14.512 50.1799 14.48C50.3293 14.448 50.4733 14.4053 50.6119 14.352V15.936C50.4306 16.0107 50.2279 16.064 50.0039 16.096C49.7906 16.1387 49.5826 16.16 49.3799 16.16ZM56.2171 19.632L55.7531 18.048C56.2544 17.9413 56.6757 17.8187 57.0171 17.68C57.3584 17.5413 57.6411 17.36 57.8651 17.136C58.0891 16.912 58.2757 16.624 58.4251 16.272L58.8251 15.328L58.7771 16.112L55.2571 7.92H57.3851L59.9131 14.224H59.4491L61.9931 7.92H64.0091L60.3291 16.448C60.0837 17.024 59.8171 17.4987 59.5291 17.872C59.2411 18.256 58.9317 18.56 58.6011 18.784C58.2704 19.0187 57.9077 19.2 57.5131 19.328C57.1184 19.456 56.6864 19.5573 56.2171 19.632ZM68.5563 16.16C67.7243 16.16 67.0043 15.9893 66.3963 15.648C65.7883 15.3067 65.3136 14.8213 64.9723 14.192C64.6416 13.5627 64.4763 12.816 64.4763 11.952C64.4763 11.088 64.6416 10.3467 64.9723 9.728C65.3136 9.09867 65.7883 8.61333 66.3963 8.272C67.0043 7.93067 67.7243 7.76 68.5563 7.76C69.3883 7.76 70.1083 7.93067 70.7163 8.272C71.335 8.61333 71.8096 9.09867 72.1403 9.728C72.4816 10.3467 72.6523 11.088 72.6523 11.952C72.6523 12.816 72.4816 13.5627 72.1403 14.192C71.8096 14.8213 71.335 15.3067 70.7163 15.648C70.1083 15.9893 69.3883 16.16 68.5563 16.16ZM68.5563 14.624C69.1856 14.624 69.687 14.4053 70.0603 13.968C70.4336 13.52 70.6203 12.848 70.6203 11.952C70.6203 11.056 70.4336 10.3893 70.0603 9.952C69.687 9.51467 69.1856 9.296 68.5563 9.296C67.927 9.296 67.4256 9.51467 67.0523 9.952C66.679 10.3893 66.4923 11.056 66.4923 11.952C66.4923 12.848 66.679 13.52 67.0523 13.968C67.4256 14.4053 67.927 14.624 68.5563 14.624ZM77.2891 16.16C76.2971 16.16 75.5557 15.888 75.0651 15.344C74.5744 14.8 74.3291 13.968 74.3291 12.848V7.92H76.3291V12.832C76.3291 13.4293 76.4517 13.872 76.6971 14.16C76.9424 14.4373 77.3157 14.576 77.8171 14.576C78.3824 14.576 78.8411 14.384 79.1931 14C79.5557 13.616 79.7371 13.1093 79.7371 12.48V7.92H81.7371V16H79.7851V14.352H80.0091C79.7744 14.928 79.4171 15.376 78.9371 15.696C78.4677 16.0053 77.9184 16.16 77.2891 16.16ZM88.2989 19.456V9.936C88.2989 9.60533 88.2883 9.26933 88.2669 8.928C88.2456 8.58667 88.2136 8.25067 88.1709 7.92H90.1069L90.2829 9.616H90.1069C90.2669 9.05067 90.6029 8.60267 91.1149 8.272C91.6376 7.93067 92.2403 7.76 92.9229 7.76C93.6376 7.76 94.2616 7.93067 94.7949 8.272C95.3283 8.60267 95.7443 9.08267 96.0429 9.712C96.3416 10.3307 96.4909 11.0773 96.4909 11.952C96.4909 12.8267 96.3416 13.5787 96.0429 14.208C95.7443 14.8373 95.3283 15.3227 94.7949 15.664C94.2616 15.9947 93.6376 16.16 92.9229 16.16C92.2509 16.16 91.6589 15.9947 91.1469 15.664C90.6349 15.3333 90.2936 14.8907 90.1229 14.336H90.2989V19.456H88.2989ZM92.3629 14.624C93.0029 14.624 93.5149 14.4053 93.8989 13.968C94.2829 13.52 94.4749 12.848 94.4749 11.952C94.4749 11.056 94.2829 10.3893 93.8989 9.952C93.5149 9.51467 93.0029 9.296 92.3629 9.296C91.7336 9.296 91.2269 9.51467 90.8429 9.952C90.4589 10.3893 90.2669 11.056 90.2669 11.952C90.2669 12.848 90.4589 13.52 90.8429 13.968C91.2269 14.4053 91.7336 14.624 92.3629 14.624ZM101.341 16.16C100.637 16.16 100.018 15.9947 99.4848 15.664C98.9515 15.3227 98.5355 14.8373 98.2368 14.208C97.9381 13.5787 97.7888 12.8267 97.7888 11.952C97.7888 11.0773 97.9381 10.3307 98.2368 9.712C98.5355 9.08267 98.9515 8.60267 99.4848 8.272C100.018 7.93067 100.637 7.76 101.341 7.76C102.023 7.76 102.621 7.93067 103.133 8.272C103.655 8.60267 104.002 9.05067 104.173 9.616H103.997L104.173 7.92H106.093C106.061 8.25067 106.029 8.58667 105.997 8.928C105.975 9.26933 105.965 9.60533 105.965 9.936V16H103.981L103.965 14.336H104.157C103.986 14.8907 103.639 15.3333 103.117 15.664C102.594 15.9947 102.002 16.16 101.341 16.16ZM101.901 14.624C102.53 14.624 103.037 14.4053 103.421 13.968C103.805 13.52 103.997 12.848 103.997 11.952C103.997 11.056 103.805 10.3893 103.421 9.952C103.037 9.51467 102.53 9.296 101.901 9.296C101.271 9.296 100.765 9.51467 100.381 9.952C99.9968 10.3893 99.8048 11.056 99.8048 11.952C99.8048 12.848 99.9915 13.52 100.365 13.968C100.749 14.4053 101.261 14.624 101.901 14.624ZM107.905 19.632L107.441 18.048C107.942 17.9413 108.363 17.8187 108.705 17.68C109.046 17.5413 109.329 17.36 109.553 17.136C109.777 16.912 109.963 16.624 110.113 16.272L110.513 15.328L110.465 16.112L106.945 7.92H109.073L111.601 14.224H111.137L113.681 7.92H115.697L112.017 16.448C111.771 17.024 111.505 17.4987 111.217 17.872C110.929 18.256 110.619 18.56 110.289 18.784C109.958 19.0187 109.595 19.2 109.201 19.328C108.806 19.456 108.374 19.5573 107.905 19.632Z" fill="white"/>
<path d="M277.474 235.5C277.754 236.24 278.854 236.76 278.274 238.06L275.934 243.4L272.734 236.1C272.434 235.4 272.274 234.96 272.174 234.34H268.494C268.934 234.98 269.214 235.42 269.514 236.16L272.914 244H276.434C276.374 243.46 276.514 243.12 276.814 242.48L279.034 237.46C279.534 236.3 279.474 235.24 279.154 234.34C278.134 234.24 277.174 234.6 277.474 235.5ZM286.772 244.4C290.372 244.4 293.092 242.52 293.092 239.18C293.092 235.84 290.372 233.94 286.772 233.94C283.192 233.94 280.452 235.84 280.452 239.18C280.452 242.52 283.192 244.4 286.772 244.4ZM286.772 243.98C284.712 243.98 283.652 242.32 283.652 239.18C283.652 236.02 284.712 234.38 286.772 234.38C288.852 234.38 289.912 236.02 289.912 239.18C289.912 242.32 288.852 243.98 286.772 243.98ZM294.951 228C295.151 229.8 295.151 230.88 295.151 232.28V239.72C295.151 241.12 295.151 242.2 294.951 244H298.291C298.071 242.2 298.071 241.12 298.071 239.72V232.28C298.071 230.88 298.071 229.8 298.291 228H294.951ZM310.667 244C310.367 242.28 310.367 241.32 310.367 239.84V237.08C310.347 234.72 308.607 233.94 306.207 233.94C303.887 233.94 301.787 234.8 300.407 235.72C300.667 237.16 302.187 237.38 303.007 236.32C303.587 235.58 304.067 234.38 305.807 234.38C306.887 234.38 307.447 235.02 307.447 236.28C307.447 237.56 306.567 237.96 304.827 238.28C302.907 238.62 300.027 239.24 300.027 241.72C300.027 243.68 301.847 244.4 303.507 244.4C305.687 244.4 306.927 243.4 307.467 241.96C307.487 242.66 307.527 243.22 307.667 244H310.667ZM304.947 243.42C303.927 243.42 303.227 242.74 303.227 241.24C303.227 239.88 303.947 239.02 305.427 238.58C306.367 238.3 307.067 238.12 307.447 237.64V240.1C307.447 241.98 306.487 243.42 304.947 243.42ZM319.987 244H323.327C323.107 242.02 323.107 241.24 323.107 239.84V237.92C323.107 235.04 321.907 233.94 319.867 233.94C317.807 233.94 316.547 235.14 315.767 236.5C315.807 235.86 315.867 235.2 315.967 234.34H312.627C312.827 236.06 312.827 237.02 312.827 238.42V239.92C312.827 241.32 312.827 242.28 312.627 244H315.967C315.747 242.28 315.747 241.32 315.747 239.92V238.42V237.2C316.467 235.8 317.467 234.72 318.727 234.72C319.747 234.72 320.187 235.48 320.187 236.88V239.84C320.187 241.24 320.187 242.02 319.987 244ZM332.131 239.92C331.731 242.66 331.071 243.74 330.191 243.74C329.451 243.74 329.131 243.16 329.131 241.44V234.78H332.051V234.34H327.091C329.091 233.54 329.531 231.78 329.531 230.08H327.071C327.071 232.36 327.131 234.34 324.371 234.34H324.051V234.78H326.211V241C326.211 243.34 327.011 244.5 329.111 244.5C330.931 244.5 331.991 243.48 332.491 239.92H332.131Z" fill="white"/>
<line x1="191" y1="92.5" x2="145" y2="92.5" stroke="white"/>
<line x1="188" y1="12.5" x2="142" y2="12.5" stroke="white"/>
</svg>
