<svg width="153" height="142" viewBox="0 0 153 142" fill="none" xmlns="http://www.w3.org/2000/svg">
<path d="M82 57H142V112H82V57Z" fill="#555555"/>
<path d="M82 14H142V57H82V14Z" fill="#CECECE"/>
<path d="M5.872 61.12C4.992 61.12 4.236 60.944 3.604 60.592C2.98 60.232 2.5 59.728 2.164 59.08C1.828 58.424 1.66 57.652 1.66 56.764C1.66 55.876 1.828 55.108 2.164 54.46C2.5 53.812 2.98 53.312 3.604 52.96C4.236 52.6 4.992 52.42 5.872 52.42C6.464 52.42 6.996 52.504 7.468 52.672C7.948 52.84 8.36 53.088 8.704 53.416L8.2 54.64C7.824 54.336 7.46 54.12 7.108 53.992C6.764 53.856 6.368 53.788 5.92 53.788C5.064 53.788 4.408 54.048 3.952 54.568C3.504 55.08 3.28 55.812 3.28 56.764C3.28 57.716 3.504 58.452 3.952 58.972C4.408 59.492 5.064 59.752 5.92 59.752C6.368 59.752 6.764 59.688 7.108 59.56C7.46 59.424 7.824 59.2 8.2 58.888L8.704 60.112C8.36 60.432 7.948 60.68 7.468 60.856C6.996 61.032 6.464 61.12 5.872 61.12ZM12.345 61.12C11.721 61.12 11.181 60.992 10.725 60.736C10.269 60.48 9.91297 60.116 9.65697 59.644C9.40897 59.172 9.28497 58.612 9.28497 57.964C9.28497 57.316 9.40897 56.76 9.65697 56.296C9.91297 55.824 10.269 55.46 10.725 55.204C11.181 54.948 11.721 54.82 12.345 54.82C12.969 54.82 13.509 54.948 13.965 55.204C14.429 55.46 14.785 55.824 15.033 56.296C15.289 56.76 15.417 57.316 15.417 57.964C15.417 58.612 15.289 59.172 15.033 59.644C14.785 60.116 14.429 60.48 13.965 60.736C13.509 60.992 12.969 61.12 12.345 61.12ZM12.345 59.968C12.817 59.968 13.193 59.804 13.473 59.476C13.753 59.14 13.893 58.636 13.893 57.964C13.893 57.292 13.753 56.792 13.473 56.464C13.193 56.136 12.817 55.972 12.345 55.972C11.873 55.972 11.497 56.136 11.217 56.464C10.937 56.792 10.797 57.292 10.797 57.964C10.797 58.636 10.937 59.14 11.217 59.476C11.497 59.804 11.873 59.968 12.345 59.968ZM18.8705 61.12C18.3505 61.12 17.8705 61.06 17.4305 60.94C16.9985 60.812 16.6345 60.636 16.3385 60.412L16.7585 59.404C17.0625 59.612 17.3985 59.772 17.7665 59.884C18.1345 59.996 18.5065 60.052 18.8825 60.052C19.2825 60.052 19.5785 59.984 19.7705 59.848C19.9705 59.712 20.0705 59.528 20.0705 59.296C20.0705 59.112 20.0065 58.968 19.8785 58.864C19.7585 58.752 19.5625 58.668 19.2905 58.612L18.0905 58.384C17.5785 58.272 17.1865 58.08 16.9145 57.808C16.6505 57.536 16.5185 57.18 16.5185 56.74C16.5185 56.364 16.6185 56.032 16.8185 55.744C17.0265 55.456 17.3185 55.232 17.6945 55.072C18.0785 54.904 18.5265 54.82 19.0385 54.82C19.4865 54.82 19.9065 54.88 20.2985 55C20.6985 55.12 21.0345 55.3 21.3065 55.54L20.8745 56.512C20.6265 56.312 20.3425 56.156 20.0225 56.044C19.7025 55.932 19.3905 55.876 19.0865 55.876C18.6705 55.876 18.3665 55.952 18.1745 56.104C17.9825 56.248 17.8865 56.436 17.8865 56.668C17.8865 56.844 17.9425 56.992 18.0545 57.112C18.1745 57.224 18.3585 57.308 18.6065 57.364L19.8065 57.592C20.3425 57.696 20.7465 57.88 21.0185 58.144C21.2985 58.4 21.4385 58.752 21.4385 59.2C21.4385 59.6 21.3305 59.944 21.1145 60.232C20.8985 60.52 20.5985 60.74 20.2145 60.892C19.8305 61.044 19.3825 61.12 18.8705 61.12ZM25.2557 61.12C24.5357 61.12 23.9917 60.932 23.6237 60.556C23.2557 60.18 23.0717 59.616 23.0717 58.864V56.068H21.9077V54.94H23.0717V53.392L24.5717 53.008V54.94H26.1917V56.068H24.5717V58.768C24.5717 59.184 24.6517 59.476 24.8117 59.644C24.9717 59.812 25.1917 59.896 25.4717 59.896C25.6237 59.896 25.7517 59.884 25.8557 59.86C25.9677 59.836 26.0757 59.804 26.1797 59.764V60.952C26.0437 61.008 25.8917 61.048 25.7237 61.072C25.5637 61.104 25.4077 61.12 25.2557 61.12Z" fill="white"/>
<path d="M4.288 12L1.3 3.54H2.908L5.212 10.476H4.732L7.216 3.54H8.368L10.672 10.476H10.228L12.64 3.54H14.152L11.14 12H9.856L7.624 5.496H7.888L5.572 12H4.288ZM15.2691 12V3.168H16.7691V7.152H16.6011C16.7851 6.72 17.0691 6.392 17.4531 6.168C17.8371 5.936 18.2771 5.82 18.7731 5.82C19.4931 5.82 20.0291 6.024 20.3811 6.432C20.7331 6.832 20.9091 7.444 20.9091 8.268V12H19.4091V8.34C19.4091 7.868 19.3171 7.528 19.1331 7.32C18.9571 7.104 18.6731 6.996 18.2811 6.996C17.8251 6.996 17.4571 7.14 17.1771 7.428C16.9051 7.708 16.7691 8.084 16.7691 8.556V12H15.2691ZM24.8396 12.12C24.3116 12.12 23.8476 11.996 23.4476 11.748C23.0476 11.492 22.7356 11.128 22.5116 10.656C22.2876 10.184 22.1756 9.62 22.1756 8.964C22.1756 8.308 22.2876 7.748 22.5116 7.284C22.7356 6.812 23.0476 6.452 23.4476 6.204C23.8476 5.948 24.3116 5.82 24.8396 5.82C25.3516 5.82 25.7996 5.948 26.1836 6.204C26.5756 6.452 26.8356 6.788 26.9636 7.212H26.8316L26.9636 5.94H28.4036C28.3796 6.188 28.3556 6.44 28.3316 6.696C28.3156 6.952 28.3076 7.204 28.3076 7.452V12H26.8196L26.8076 10.752H26.9516C26.8236 11.168 26.5636 11.5 26.1716 11.748C25.7796 11.996 25.3356 12.12 24.8396 12.12ZM25.2596 10.968C25.7316 10.968 26.1116 10.804 26.3996 10.476C26.6876 10.14 26.8316 9.636 26.8316 8.964C26.8316 8.292 26.6876 7.792 26.3996 7.464C26.1116 7.136 25.7316 6.972 25.2596 6.972C24.7876 6.972 24.4076 7.136 24.1196 7.464C23.8316 7.792 23.6876 8.292 23.6876 8.964C23.6876 9.636 23.8276 10.14 24.1076 10.476C24.3956 10.804 24.7796 10.968 25.2596 10.968ZM32.533 12.12C31.813 12.12 31.269 11.932 30.901 11.556C30.533 11.18 30.349 10.616 30.349 9.864V7.068H29.185V5.94H30.349V4.392L31.849 4.008V5.94H33.469V7.068H31.849V9.768C31.849 10.184 31.929 10.476 32.089 10.644C32.249 10.812 32.469 10.896 32.749 10.896C32.901 10.896 33.029 10.884 33.133 10.86C33.245 10.836 33.353 10.804 33.457 10.764V11.952C33.321 12.008 33.169 12.048 33.001 12.072C32.841 12.104 32.685 12.12 32.533 12.12ZM1.696 29.724L1.348 28.536C1.724 28.456 2.04 28.364 2.296 28.26C2.552 28.156 2.764 28.02 2.932 27.852C3.1 27.684 3.24 27.468 3.352 27.204L3.652 26.496L3.616 27.084L0.976 20.94H2.572L4.468 25.668H4.12L6.028 20.94H7.54L4.78 27.336C4.596 27.768 4.396 28.124 4.18 28.404C3.964 28.692 3.732 28.92 3.484 29.088C3.236 29.264 2.964 29.4 2.668 29.496C2.372 29.592 2.048 29.668 1.696 29.724ZM10.9504 27.12C10.3264 27.12 9.78644 26.992 9.33044 26.736C8.87444 26.48 8.51844 26.116 8.26244 25.644C8.01444 25.172 7.89044 24.612 7.89044 23.964C7.89044 23.316 8.01444 22.76 8.26244 22.296C8.51844 21.824 8.87444 21.46 9.33044 21.204C9.78644 20.948 10.3264 20.82 10.9504 20.82C11.5744 20.82 12.1144 20.948 12.5704 21.204C13.0344 21.46 13.3904 21.824 13.6384 22.296C13.8944 22.76 14.0224 23.316 14.0224 23.964C14.0224 24.612 13.8944 25.172 13.6384 25.644C13.3904 26.116 13.0344 26.48 12.5704 26.736C12.1144 26.992 11.5744 27.12 10.9504 27.12ZM10.9504 25.968C11.4224 25.968 11.7984 25.804 12.0784 25.476C12.3584 25.14 12.4984 24.636 12.4984 23.964C12.4984 23.292 12.3584 22.792 12.0784 22.464C11.7984 22.136 11.4224 21.972 10.9504 21.972C10.4784 21.972 10.1024 22.136 9.82244 22.464C9.54244 22.792 9.40244 23.292 9.40244 23.964C9.40244 24.636 9.54244 25.14 9.82244 25.476C10.1024 25.804 10.4784 25.968 10.9504 25.968ZM17.5 27.12C16.756 27.12 16.2 26.916 15.832 26.508C15.464 26.1 15.28 25.476 15.28 24.636V20.94H16.78V24.624C16.78 25.072 16.872 25.404 17.056 25.62C17.24 25.828 17.52 25.932 17.896 25.932C18.32 25.932 18.664 25.788 18.928 25.5C19.2 25.212 19.336 24.832 19.336 24.36V20.94H20.836V27H19.372V25.764H19.54C19.364 26.196 19.096 26.532 18.736 26.772C18.384 27.004 17.972 27.12 17.5 27.12ZM25.7574 29.592V22.452C25.7574 22.204 25.7494 21.952 25.7334 21.696C25.7174 21.44 25.6934 21.188 25.6614 20.94H27.1134L27.2454 22.212H27.1134C27.2334 21.788 27.4854 21.452 27.8694 21.204C28.2614 20.948 28.7134 20.82 29.2254 20.82C29.7614 20.82 30.2294 20.948 30.6294 21.204C31.0294 21.452 31.3414 21.812 31.5654 22.284C31.7894 22.748 31.9014 23.308 31.9014 23.964C31.9014 24.62 31.7894 25.184 31.5654 25.656C31.3414 26.128 31.0294 26.492 30.6294 26.748C30.2294 26.996 29.7614 27.12 29.2254 27.12C28.7214 27.12 28.2774 26.996 27.8934 26.748C27.5094 26.5 27.2534 26.168 27.1254 25.752H27.2574V29.592H25.7574ZM28.8054 25.968C29.2854 25.968 29.6694 25.804 29.9574 25.476C30.2454 25.14 30.3894 24.636 30.3894 23.964C30.3894 23.292 30.2454 22.792 29.9574 22.464C29.6694 22.136 29.2854 21.972 28.8054 21.972C28.3334 21.972 27.9534 22.136 27.6654 22.464C27.3774 22.792 27.2334 23.292 27.2334 23.964C27.2334 24.636 27.3774 25.14 27.6654 25.476C27.9534 25.804 28.3334 25.968 28.8054 25.968ZM35.5388 27.12C35.0108 27.12 34.5468 26.996 34.1468 26.748C33.7468 26.492 33.4348 26.128 33.2108 25.656C32.9868 25.184 32.8748 24.62 32.8748 23.964C32.8748 23.308 32.9868 22.748 33.2108 22.284C33.4348 21.812 33.7468 21.452 34.1468 21.204C34.5468 20.948 35.0108 20.82 35.5388 20.82C36.0508 20.82 36.4988 20.948 36.8828 21.204C37.2748 21.452 37.5348 21.788 37.6628 22.212H37.5308L37.6628 20.94H39.1028C39.0788 21.188 39.0548 21.44 39.0308 21.696C39.0148 21.952 39.0068 22.204 39.0068 22.452V27H37.5188L37.5068 25.752H37.6508C37.5228 26.168 37.2628 26.5 36.8708 26.748C36.4788 26.996 36.0348 27.12 35.5388 27.12ZM35.9588 25.968C36.4308 25.968 36.8108 25.804 37.0988 25.476C37.3868 25.14 37.5308 24.636 37.5308 23.964C37.5308 23.292 37.3868 22.792 37.0988 22.464C36.8108 22.136 36.4308 21.972 35.9588 21.972C35.4868 21.972 35.1068 22.136 34.8188 22.464C34.5308 22.792 34.3868 23.292 34.3868 23.964C34.3868 24.636 34.5268 25.14 34.8068 25.476C35.0948 25.804 35.4788 25.968 35.9588 25.968ZM40.4616 29.724L40.1136 28.536C40.4896 28.456 40.8056 28.364 41.0616 28.26C41.3176 28.156 41.5296 28.02 41.6976 27.852C41.8656 27.684 42.0056 27.468 42.1176 27.204L42.4176 26.496L42.3816 27.084L39.7416 20.94H41.3376L43.2336 25.668H42.8856L44.7936 20.94H46.3056L43.5456 27.336C43.3616 27.768 43.1616 28.124 42.9456 28.404C42.7296 28.692 42.4976 28.92 42.2496 29.088C42.0016 29.264 41.7296 29.4 41.4336 29.496C41.1376 29.592 40.8136 29.668 40.4616 29.724Z" fill="white"/>
<path d="M99.0796 126.2C99.3036 126.792 100.184 127.208 99.7196 128.248L97.8476 132.52L95.2876 126.68C95.0476 126.12 94.9196 125.768 94.8396 125.272H91.8956C92.2476 125.784 92.4716 126.136 92.7116 126.728L95.4316 133H98.2476C98.1996 132.568 98.3116 132.296 98.5516 131.784L100.328 127.768C100.728 126.84 100.68 125.992 100.424 125.272C99.6076 125.192 98.8396 125.48 99.0796 126.2ZM106.518 133.32C109.398 133.32 111.574 131.816 111.574 129.144C111.574 126.472 109.398 124.952 106.518 124.952C103.654 124.952 101.462 126.472 101.462 129.144C101.462 131.816 103.654 133.32 106.518 133.32ZM106.518 132.984C104.87 132.984 104.022 131.656 104.022 129.144C104.022 126.616 104.87 125.304 106.518 125.304C108.182 125.304 109.03 126.616 109.03 129.144C109.03 131.656 108.182 132.984 106.518 132.984ZM113.061 120.2C113.221 121.64 113.221 122.504 113.221 123.624V129.576C113.221 130.696 113.221 131.56 113.061 133H115.733C115.557 131.56 115.557 130.696 115.557 129.576V123.624C115.557 122.504 115.557 121.64 115.733 120.2H113.061ZM125.634 133C125.394 131.624 125.394 130.856 125.394 129.672V127.464C125.378 125.576 123.986 124.952 122.066 124.952C120.21 124.952 118.53 125.64 117.426 126.376C117.634 127.528 118.85 127.704 119.506 126.856C119.97 126.264 120.354 125.304 121.746 125.304C122.61 125.304 123.058 125.816 123.058 126.824C123.058 127.848 122.354 128.168 120.962 128.424C119.426 128.696 117.122 129.192 117.122 131.176C117.122 132.744 118.578 133.32 119.906 133.32C121.65 133.32 122.642 132.52 123.074 131.368C123.09 131.928 123.122 132.376 123.234 133H125.634ZM121.058 132.536C120.242 132.536 119.682 131.992 119.682 130.792C119.682 129.704 120.258 129.016 121.442 128.664C122.194 128.44 122.754 128.296 123.058 127.912V129.88C123.058 131.384 122.29 132.536 121.058 132.536ZM133.09 133H135.762C135.586 131.416 135.586 130.792 135.586 129.672V128.136C135.586 125.832 134.626 124.952 132.994 124.952C131.346 124.952 130.338 125.912 129.714 127C129.746 126.488 129.794 125.96 129.874 125.272H127.202C127.362 126.648 127.362 127.416 127.362 128.536V129.736C127.362 130.856 127.362 131.624 127.202 133H129.874C129.698 131.624 129.698 130.856 129.698 129.736V128.536V127.56C130.274 126.44 131.074 125.576 132.082 125.576C132.898 125.576 133.25 126.184 133.25 127.304V129.672C133.25 130.792 133.25 131.416 133.09 133ZM142.805 129.736C142.485 131.928 141.957 132.792 141.253 132.792C140.661 132.792 140.405 132.328 140.405 130.952V125.624H142.741V125.272H138.773C140.373 124.632 140.725 123.224 140.725 121.864H138.757C138.757 123.688 138.805 125.272 136.597 125.272H136.341V125.624H138.069V130.6C138.069 132.472 138.709 133.4 140.389 133.4C141.845 133.4 142.693 132.584 143.093 129.736H142.805Z" fill="white"/>
<line x1="70" y1="57.5" x2="58" y2="57.5" stroke="white"/>
<line x1="70" y1="15.5" x2="58" y2="15.5" stroke="white"/>
</svg>
