<svg width="428" height="385" viewBox="0 0 428 385" fill="none" xmlns="http://www.w3.org/2000/svg">
<path d="M277.066 199.16C275.893 199.16 274.885 198.925 274.042 198.456C273.21 197.976 272.57 197.304 272.122 196.44C271.674 195.565 271.45 194.536 271.45 193.352C271.45 192.168 271.674 191.144 272.122 190.28C272.57 189.416 273.21 188.749 274.042 188.28C274.885 187.8 275.893 187.56 277.066 187.56C277.856 187.56 278.565 187.672 279.194 187.896C279.834 188.12 280.384 188.451 280.842 188.888L280.17 190.52C279.669 190.115 279.184 189.827 278.714 189.656C278.256 189.475 277.728 189.384 277.13 189.384C275.989 189.384 275.114 189.731 274.506 190.424C273.909 191.107 273.61 192.083 273.61 193.352C273.61 194.621 273.909 195.603 274.506 196.296C275.114 196.989 275.989 197.336 277.13 197.336C277.728 197.336 278.256 197.251 278.714 197.08C279.184 196.899 279.669 196.6 280.17 196.184L280.842 197.816C280.384 198.243 279.834 198.573 279.194 198.808C278.565 199.043 277.856 199.16 277.066 199.16ZM285.697 199.16C284.865 199.16 284.145 198.989 283.537 198.648C282.929 198.307 282.454 197.821 282.113 197.192C281.782 196.563 281.617 195.816 281.617 194.952C281.617 194.088 281.782 193.347 282.113 192.728C282.454 192.099 282.929 191.613 283.537 191.272C284.145 190.931 284.865 190.76 285.697 190.76C286.529 190.76 287.249 190.931 287.857 191.272C288.476 191.613 288.95 192.099 289.281 192.728C289.622 193.347 289.793 194.088 289.793 194.952C289.793 195.816 289.622 196.563 289.281 197.192C288.95 197.821 288.476 198.307 287.857 198.648C287.249 198.989 286.529 199.16 285.697 199.16ZM285.697 197.624C286.326 197.624 286.828 197.405 287.201 196.968C287.574 196.52 287.761 195.848 287.761 194.952C287.761 194.056 287.574 193.389 287.201 192.952C286.828 192.515 286.326 192.296 285.697 192.296C285.068 192.296 284.566 192.515 284.193 192.952C283.82 193.389 283.633 194.056 283.633 194.952C283.633 195.848 283.82 196.52 284.193 196.968C284.566 197.405 285.068 197.624 285.697 197.624ZM294.398 199.16C293.704 199.16 293.064 199.08 292.478 198.92C291.902 198.749 291.416 198.515 291.022 198.216L291.582 196.872C291.987 197.149 292.435 197.363 292.926 197.512C293.416 197.661 293.912 197.736 294.414 197.736C294.947 197.736 295.342 197.645 295.598 197.464C295.864 197.283 295.998 197.037 295.998 196.728C295.998 196.483 295.912 196.291 295.742 196.152C295.582 196.003 295.32 195.891 294.958 195.816L293.358 195.512C292.675 195.363 292.152 195.107 291.79 194.744C291.438 194.381 291.262 193.907 291.262 193.32C291.262 192.819 291.395 192.376 291.662 191.992C291.939 191.608 292.328 191.309 292.83 191.096C293.342 190.872 293.939 190.76 294.622 190.76C295.219 190.76 295.779 190.84 296.302 191C296.835 191.16 297.283 191.4 297.646 191.72L297.07 193.016C296.739 192.749 296.36 192.541 295.934 192.392C295.507 192.243 295.091 192.168 294.686 192.168C294.131 192.168 293.726 192.269 293.47 192.472C293.214 192.664 293.086 192.915 293.086 193.224C293.086 193.459 293.16 193.656 293.31 193.816C293.47 193.965 293.715 194.077 294.046 194.152L295.646 194.456C296.36 194.595 296.899 194.84 297.262 195.192C297.635 195.533 297.822 196.003 297.822 196.6C297.822 197.133 297.678 197.592 297.39 197.976C297.102 198.36 296.702 198.653 296.19 198.856C295.678 199.059 295.08 199.16 294.398 199.16ZM302.911 199.16C301.951 199.16 301.226 198.909 300.735 198.408C300.245 197.907 299.999 197.155 299.999 196.152V192.424H298.447V190.92H299.999V188.856L301.999 188.344V190.92H304.159V192.424H301.999V196.024C301.999 196.579 302.106 196.968 302.319 197.192C302.533 197.416 302.826 197.528 303.199 197.528C303.402 197.528 303.573 197.512 303.711 197.48C303.861 197.448 304.005 197.405 304.143 197.352V198.936C303.962 199.011 303.759 199.064 303.535 199.096C303.322 199.139 303.114 199.16 302.911 199.16Z" fill="white"/>
<path d="M45.9249 335H31.4449L32.6049 336.62C34.2649 335.6 35.6249 335.42 36.7449 335.42H37.0049V346.72C37.0049 348.58 36.9449 349.48 36.7849 351H40.5849C40.4249 349.48 40.3649 348.58 40.3649 346.72V335.42H40.6249C41.7449 335.42 43.1249 335.6 44.7649 336.62L45.9249 335ZM52.274 341.34C49.474 340.82 48.154 342.4 46.634 344.26C46.654 343.38 46.694 342.54 46.854 341.34H43.514C43.714 343.06 43.714 344.02 43.714 345.42V346.92C43.714 348.32 43.714 349.28 43.514 351H46.854C46.634 349.28 46.634 348.32 46.634 346.92V345.42V344.88C48.554 342.76 49.294 342.7 50.394 343.04C51.774 343.48 52.514 342.64 52.274 341.34ZM63.7805 351C63.4805 349.28 63.4805 348.32 63.4805 346.84V344.08C63.4605 341.72 61.7205 340.94 59.3205 340.94C57.0005 340.94 54.9005 341.8 53.5205 342.72C53.7805 344.16 55.3005 344.38 56.1205 343.32C56.7005 342.58 57.1805 341.38 58.9205 341.38C60.0005 341.38 60.5605 342.02 60.5605 343.28C60.5605 344.56 59.6805 344.96 57.9405 345.28C56.0205 345.62 53.1405 346.24 53.1405 348.72C53.1405 350.68 54.9605 351.4 56.6205 351.4C58.8005 351.4 60.0405 350.4 60.5805 348.96C60.6005 349.66 60.6405 350.22 60.7805 351H63.7805ZM58.0605 350.42C57.0405 350.42 56.3405 349.74 56.3405 348.24C56.3405 346.88 57.0605 346.02 58.5405 345.58C59.4805 345.3 60.1805 345.12 60.5605 344.64V347.1C60.5605 348.98 59.6005 350.42 58.0605 350.42ZM77.7982 351C77.4982 349.12 77.4982 348.32 77.4982 346.92V335H74.3182C74.5782 336.98 74.5782 337.76 74.5782 339.16V342.98C73.5182 341.74 72.1782 340.94 70.3982 340.94C68.1782 340.94 65.5382 342.44 65.5382 346.18C65.5382 349.92 68.0982 351.4 70.5782 351.4C72.8182 351.4 74.0582 350.24 74.5782 348.64C74.5982 349.5 74.6382 350.06 74.7982 351H77.7982ZM71.5982 350.64C69.5382 350.64 68.7382 348.64 68.7382 346.18C68.7382 343.1 69.7582 341.6 71.3382 341.6C72.5782 341.6 73.7582 342.5 74.5782 343.58V346.52C74.5782 349.16 73.3382 350.64 71.5982 350.64ZM81.684 339.22L83.604 337.52L81.684 335.82L79.764 337.52L81.684 339.22ZM80.024 341.34C80.224 343.06 80.224 344.02 80.224 345.42V346.92C80.224 348.32 80.224 349.28 80.024 351H83.364C83.144 349.28 83.144 348.32 83.144 346.92V345.42C83.144 344.02 83.144 343.06 83.364 341.34H80.024ZM92.8229 346.92C92.4229 349.66 91.7629 350.74 90.8829 350.74C90.1429 350.74 89.8229 350.16 89.8229 348.44V341.78H92.7429V341.34H87.7829C89.7829 340.54 90.2229 338.78 90.2229 337.08H87.7629C87.7629 339.36 87.8229 341.34 85.0629 341.34H84.7429V341.78H86.9029V348C86.9029 350.34 87.7029 351.5 89.8029 351.5C91.6229 351.5 92.6829 350.48 93.1829 346.92H92.8229ZM96.7035 339.22L98.6235 337.52L96.7035 335.82L94.7835 337.52L96.7035 339.22ZM95.0435 341.34C95.2435 343.06 95.2435 344.02 95.2435 345.42V346.92C95.2435 348.32 95.2435 349.28 95.0435 351H98.3835C98.1635 349.28 98.1635 348.32 98.1635 346.92V345.42C98.1635 344.02 98.1635 343.06 98.3835 341.34H95.0435ZM106.682 351.4C110.282 351.4 113.002 349.52 113.002 346.18C113.002 342.84 110.282 340.94 106.682 340.94C103.102 340.94 100.362 342.84 100.362 346.18C100.362 349.52 103.102 351.4 106.682 351.4ZM106.682 350.98C104.622 350.98 103.562 349.32 103.562 346.18C103.562 343.02 104.622 341.38 106.682 341.38C108.762 341.38 109.822 343.02 109.822 346.18C109.822 349.32 108.762 350.98 106.682 350.98ZM121.89 351H125.23C125.01 349.02 125.01 348.24 125.01 346.84V344.92C125.01 342.04 123.81 340.94 121.77 340.94C119.71 340.94 118.45 342.14 117.67 343.5C117.71 342.86 117.77 342.2 117.87 341.34H114.53C114.73 343.06 114.73 344.02 114.73 345.42V346.92C114.73 348.32 114.73 349.28 114.53 351H117.87C117.65 349.28 117.65 348.32 117.65 346.92V345.42V344.2C118.37 342.8 119.37 341.72 120.63 341.72C121.65 341.72 122.09 342.48 122.09 343.88V346.84C122.09 348.24 122.09 349.02 121.89 351ZM137.589 351C137.289 349.28 137.289 348.32 137.289 346.84V344.08C137.269 341.72 135.529 340.94 133.129 340.94C130.809 340.94 128.709 341.8 127.329 342.72C127.589 344.16 129.109 344.38 129.929 343.32C130.509 342.58 130.989 341.38 132.729 341.38C133.809 341.38 134.369 342.02 134.369 343.28C134.369 344.56 133.489 344.96 131.749 345.28C129.829 345.62 126.949 346.24 126.949 348.72C126.949 350.68 128.769 351.4 130.429 351.4C132.609 351.4 133.849 350.4 134.389 348.96C134.409 349.66 134.449 350.22 134.589 351H137.589ZM131.869 350.42C130.849 350.42 130.149 349.74 130.149 348.24C130.149 346.88 130.869 346.02 132.349 345.58C133.289 345.3 133.989 345.12 134.369 344.64V347.1C134.369 348.98 133.409 350.42 131.869 350.42ZM139.432 335C139.632 336.8 139.632 337.88 139.632 339.28V346.72C139.632 348.12 139.632 349.2 139.432 351H142.772C142.552 349.2 142.552 348.12 142.552 346.72V339.28C142.552 337.88 142.552 336.8 142.772 335H139.432ZM32.3058 371.18C32.3058 374.6 34.8458 376.4 37.8458 376.4C40.9858 376.4 42.3658 374.44 43.0658 372.14H42.6858C42.0658 374.28 40.7458 375.52 38.9258 375.52C36.4258 375.52 35.5058 373.38 35.5058 370.84C35.5058 367.88 36.2658 366.38 38.1458 366.38C39.7058 366.38 40.0658 367.42 40.2058 368.3C40.4258 369.6 41.8658 369.92 42.5658 368.86C42.1258 367.34 40.6258 365.94 38.0058 365.94C34.8458 365.94 32.3058 367.74 32.3058 371.18ZM50.8328 376.4C54.4328 376.4 57.1528 374.52 57.1528 371.18C57.1528 367.84 54.4328 365.94 50.8328 365.94C47.2528 365.94 44.5128 367.84 44.5128 371.18C44.5128 374.52 47.2528 376.4 50.8328 376.4ZM50.8328 375.98C48.7728 375.98 47.7128 374.32 47.7128 371.18C47.7128 368.02 48.7728 366.38 50.8328 366.38C52.9128 366.38 53.9728 368.02 53.9728 371.18C53.9728 374.32 52.9128 375.98 50.8328 375.98ZM71.26 376H74.6C74.38 374.02 74.38 373.24 74.38 371.84V369.64C74.38 367.04 73.34 365.94 71.64 365.94C69.94 365.94 68.78 367.26 68.02 368.5C67.74 366.72 66.78 365.94 65.36 365.94C63.66 365.94 62.52 367.24 61.82 368.48C61.86 367.86 61.92 367.2 62.02 366.34H58.68C58.88 368.06 58.88 369.02 58.88 370.42V371.92C58.88 373.32 58.88 374.28 58.68 376H62.02C61.8 374.28 61.8 373.32 61.8 371.92V370.42V369.2C62.52 367.8 63.32 366.82 64.26 366.82C65 366.82 65.18 367.5 65.18 368.72V371.84C65.18 373.24 65.18 374.02 64.96 376H68.32C68.1 374.02 68.1 373.24 68.1 371.84V369.64C68.1 369.44 68.1 369.26 68.08 369.08C68.88 367.74 69.64 366.82 70.56 366.82C71.28 366.82 71.46 367.5 71.46 368.72V371.84C71.46 373.24 71.46 374.02 71.26 376ZM83.7492 365.94C81.5092 365.94 80.2892 367.1 79.7692 368.7C79.7692 367.94 79.8092 367.08 79.9092 366.34H76.6292C76.8292 368.14 76.8292 369.12 76.8292 370.52V376.64C76.8292 378.04 76.8292 379 76.6292 380.8H79.9692C79.7492 379 79.7492 378.04 79.7492 376.64V374.36C80.8092 375.62 82.1692 376.4 83.9492 376.4C86.1492 376.4 88.7892 374.92 88.7892 371.18C88.7892 367.44 86.2492 365.94 83.7492 365.94ZM83.0092 375.74C81.7492 375.74 80.5692 374.84 79.7492 373.76V370.82C79.7492 368.18 80.9892 366.72 82.7292 366.72C84.7892 366.72 85.6092 368.72 85.6092 371.18C85.6092 374.24 84.5692 375.74 83.0092 375.74ZM100.763 376C100.463 374.28 100.463 373.32 100.463 371.84V369.08C100.443 366.72 98.703 365.94 96.303 365.94C93.983 365.94 91.883 366.8 90.503 367.72C90.763 369.16 92.283 369.38 93.103 368.32C93.683 367.58 94.163 366.38 95.903 366.38C96.983 366.38 97.543 367.02 97.543 368.28C97.543 369.56 96.663 369.96 94.923 370.28C93.003 370.62 90.123 371.24 90.123 373.72C90.123 375.68 91.943 376.4 93.603 376.4C95.783 376.4 97.023 375.4 97.563 373.96C97.583 374.66 97.623 375.22 97.763 376H100.763ZM95.043 375.42C94.023 375.42 93.323 374.74 93.323 373.24C93.323 371.88 94.043 371.02 95.523 370.58C96.463 370.3 97.163 370.12 97.543 369.64V372.1C97.543 373.98 96.583 375.42 95.043 375.42ZM110.083 376H113.423C113.203 374.02 113.203 373.24 113.203 371.84V369.92C113.203 367.04 112.003 365.94 109.963 365.94C107.903 365.94 106.643 367.14 105.863 368.5C105.903 367.86 105.963 367.2 106.063 366.34H102.723C102.923 368.06 102.923 369.02 102.923 370.42V371.92C102.923 373.32 102.923 374.28 102.723 376H106.063C105.843 374.28 105.843 373.32 105.843 371.92V370.42V369.2C106.563 367.8 107.563 366.72 108.823 366.72C109.843 366.72 110.283 367.48 110.283 368.88V371.84C110.283 373.24 110.283 374.02 110.083 376ZM117.495 364.22L119.415 362.52L117.495 360.82L115.575 362.52L117.495 364.22ZM115.835 366.34C116.035 368.06 116.035 369.02 116.035 370.42V371.92C116.035 373.32 116.035 374.28 115.835 376H119.175C118.955 374.28 118.955 373.32 118.955 371.92V370.42C118.955 369.02 118.955 368.06 119.175 366.34H115.835ZM132.193 372.26C131.413 374.6 129.873 375.64 128.113 375.64C125.613 375.64 124.353 373.5 124.353 370.94C124.353 370.66 124.353 370.4 124.373 370.14H132.093C132.053 367.9 130.193 365.94 126.973 365.94C123.993 365.94 121.153 367.8 121.153 371.18C121.153 374.54 123.933 376.4 127.173 376.4C130.113 376.4 131.793 374.82 132.553 372.26H132.193ZM126.933 366.38C128.393 366.38 129.013 367.7 129.013 369.7H124.413C124.653 367.48 125.593 366.38 126.933 366.38ZM133.629 373.34C134.169 375.36 136.069 376.4 138.569 376.4C141.189 376.4 142.869 375.22 142.869 373.4C142.869 371.42 141.129 370.74 139.069 369.8C137.129 368.9 136.389 368.44 136.389 367.58C136.389 366.8 137.049 366.38 138.069 366.38C139.389 366.38 139.849 366.98 140.149 368C140.509 369.14 141.749 369.36 142.489 368.44C141.689 366.88 140.109 365.94 138.009 365.94C136.309 365.94 134.149 366.58 134.149 368.38C134.149 370.02 135.769 370.74 137.609 371.66C139.929 372.78 140.549 373.2 140.549 374.22C140.549 375.18 139.989 375.96 138.689 375.96C137.009 375.96 136.429 374.9 136.309 373.76C136.029 372.34 134.249 372.12 133.629 373.34Z" fill="white"/>
<path d="M0 199H175V308H0V199Z" fill="#535353"/>
<path d="M0 13H175V93H0V13Z" fill="#CFCFCF"/>
<path d="M0 93H175V199H0V93Z" fill="#E3E3E3"/>
<line x1="256" y1="197.5" x2="210" y2="197.5" stroke="white"/>
<line x1="256" y1="197.5" x2="210" y2="197.5" stroke="white"/>
<path d="M277.822 97L273.838 85.72H275.982L279.054 94.968H278.414L281.726 85.72H283.262L286.334 94.968H285.742L288.958 85.72H290.974L286.958 97H285.246L282.27 88.328H282.622L279.534 97H277.822ZM292.463 97V85.224H294.463V90.536H294.239C294.484 89.96 294.863 89.5227 295.375 89.224C295.887 88.9147 296.474 88.76 297.135 88.76C298.095 88.76 298.81 89.032 299.279 89.576C299.748 90.1093 299.983 90.9253 299.983 92.024V97H297.983V92.12C297.983 91.4907 297.86 91.0373 297.615 90.76C297.38 90.472 297.002 90.328 296.479 90.328C295.871 90.328 295.38 90.52 295.007 90.904C294.644 91.2773 294.463 91.7787 294.463 92.408V97H292.463ZM305.752 97.16C304.92 97.16 304.2 96.9893 303.592 96.648C302.984 96.3067 302.509 95.8213 302.168 95.192C301.837 94.5627 301.672 93.816 301.672 92.952C301.672 92.088 301.837 91.3467 302.168 90.728C302.509 90.0987 302.984 89.6133 303.592 89.272C304.2 88.9307 304.92 88.76 305.752 88.76C306.584 88.76 307.304 88.9307 307.912 89.272C308.53 89.6133 309.005 90.0987 309.336 90.728C309.677 91.3467 309.848 92.088 309.848 92.952C309.848 93.816 309.677 94.5627 309.336 95.192C309.005 95.8213 308.53 96.3067 307.912 96.648C307.304 96.9893 306.584 97.16 305.752 97.16ZM305.752 95.624C306.381 95.624 306.882 95.4053 307.256 94.968C307.629 94.52 307.816 93.848 307.816 92.952C307.816 92.056 307.629 91.3893 307.256 90.952C306.882 90.5147 306.381 90.296 305.752 90.296C305.122 90.296 304.621 90.5147 304.248 90.952C303.874 91.3893 303.688 92.056 303.688 92.952C303.688 93.848 303.874 94.52 304.248 94.968C304.621 95.4053 305.122 95.624 305.752 95.624ZM311.572 97V85.224H313.572V97H311.572ZM319.648 97.16C318.294 97.16 317.232 96.7867 316.464 96.04C315.696 95.2933 315.312 94.2693 315.312 92.968C315.312 92.1253 315.478 91.3893 315.808 90.76C316.139 90.1307 316.598 89.64 317.184 89.288C317.782 88.936 318.475 88.76 319.264 88.76C320.043 88.76 320.694 88.9253 321.216 89.256C321.739 89.5867 322.134 90.0507 322.4 90.648C322.678 91.2453 322.816 91.944 322.816 92.744V93.272H316.928V92.216H321.392L321.12 92.44C321.12 91.6933 320.96 91.1227 320.64 90.728C320.331 90.3333 319.878 90.136 319.28 90.136C318.619 90.136 318.107 90.3707 317.744 90.84C317.392 91.3093 317.216 91.9653 317.216 92.808V93.016C317.216 93.8907 317.43 94.5467 317.856 94.984C318.294 95.4107 318.907 95.624 319.696 95.624C320.155 95.624 320.582 95.5653 320.976 95.448C321.382 95.32 321.766 95.1173 322.128 94.84L322.72 96.184C322.336 96.4933 321.878 96.7333 321.344 96.904C320.811 97.0747 320.246 97.16 319.648 97.16ZM327.39 97.16C326.697 97.16 326.057 97.08 325.47 96.92C324.894 96.7493 324.409 96.5147 324.014 96.216L324.574 94.872C324.979 95.1493 325.427 95.3627 325.918 95.512C326.409 95.6613 326.905 95.736 327.406 95.736C327.939 95.736 328.334 95.6453 328.59 95.464C328.857 95.2827 328.99 95.0373 328.99 94.728C328.99 94.4827 328.905 94.2907 328.734 94.152C328.574 94.0027 328.313 93.8907 327.95 93.816L326.35 93.512C325.667 93.3627 325.145 93.1067 324.782 92.744C324.43 92.3813 324.254 91.9067 324.254 91.32C324.254 90.8187 324.387 90.376 324.654 89.992C324.931 89.608 325.321 89.3093 325.822 89.096C326.334 88.872 326.931 88.76 327.614 88.76C328.211 88.76 328.771 88.84 329.294 89C329.827 89.16 330.275 89.4 330.638 89.72L330.062 91.016C329.731 90.7493 329.353 90.5413 328.926 90.392C328.499 90.2427 328.083 90.168 327.678 90.168C327.123 90.168 326.718 90.2693 326.462 90.472C326.206 90.664 326.078 90.9147 326.078 91.224C326.078 91.4587 326.153 91.656 326.302 91.816C326.462 91.9653 326.707 92.0773 327.038 92.152L328.638 92.456C329.353 92.5947 329.891 92.84 330.254 93.192C330.627 93.5333 330.814 94.0027 330.814 94.6C330.814 95.1333 330.67 95.592 330.382 95.976C330.094 96.36 329.694 96.6533 329.182 96.856C328.67 97.0587 328.073 97.16 327.39 97.16ZM335.646 97.16C334.942 97.16 334.323 96.9947 333.789 96.664C333.256 96.3227 332.84 95.8373 332.542 95.208C332.243 94.5787 332.094 93.8267 332.094 92.952C332.094 92.0773 332.243 91.3307 332.542 90.712C332.84 90.0827 333.256 89.6027 333.789 89.272C334.323 88.9307 334.942 88.76 335.646 88.76C336.328 88.76 336.926 88.9307 337.438 89.272C337.96 89.6027 338.307 90.0507 338.478 90.616H338.302L338.478 88.92H340.398C340.366 89.2507 340.334 89.5867 340.302 89.928C340.28 90.2693 340.27 90.6053 340.27 90.936V97H338.286L338.27 95.336H338.462C338.291 95.8907 337.944 96.3333 337.422 96.664C336.899 96.9947 336.307 97.16 335.646 97.16ZM336.206 95.624C336.835 95.624 337.342 95.4053 337.726 94.968C338.11 94.52 338.302 93.848 338.302 92.952C338.302 92.056 338.11 91.3893 337.726 90.952C337.342 90.5147 336.835 90.296 336.206 90.296C335.576 90.296 335.07 90.5147 334.686 90.952C334.302 91.3893 334.11 92.056 334.11 92.952C334.11 93.848 334.296 94.52 334.67 94.968C335.054 95.4053 335.566 95.624 336.206 95.624ZM342.447 97V85.224H344.447V97H342.447ZM350.523 97.16C349.169 97.16 348.107 96.7867 347.339 96.04C346.571 95.2933 346.187 94.2693 346.187 92.968C346.187 92.1253 346.353 91.3893 346.683 90.76C347.014 90.1307 347.473 89.64 348.059 89.288C348.657 88.936 349.35 88.76 350.139 88.76C350.918 88.76 351.569 88.9253 352.091 89.256C352.614 89.5867 353.009 90.0507 353.275 90.648C353.553 91.2453 353.691 91.944 353.691 92.744V93.272H347.803V92.216H352.267L351.995 92.44C351.995 91.6933 351.835 91.1227 351.515 90.728C351.206 90.3333 350.753 90.136 350.155 90.136C349.494 90.136 348.982 90.3707 348.619 90.84C348.267 91.3093 348.091 91.9653 348.091 92.808V93.016C348.091 93.8907 348.305 94.5467 348.731 94.984C349.169 95.4107 349.782 95.624 350.571 95.624C351.03 95.624 351.457 95.5653 351.851 95.448C352.257 95.32 352.641 95.1173 353.003 94.84L353.595 96.184C353.211 96.4933 352.753 96.7333 352.219 96.904C351.686 97.0747 351.121 97.16 350.523 97.16ZM359.776 97V90.936C359.776 90.6053 359.765 90.2693 359.743 89.928C359.722 89.5867 359.69 89.2507 359.648 88.92H361.584L361.744 90.52H361.552C361.776 89.9653 362.117 89.5333 362.576 89.224C363.045 88.9147 363.6 88.76 364.24 88.76C364.88 88.76 365.408 88.9147 365.824 89.224C366.25 89.5227 366.549 89.992 366.72 90.632H366.464C366.688 90.056 367.056 89.6027 367.568 89.272C368.08 88.9307 368.666 88.76 369.328 88.76C370.234 88.76 370.912 89.0267 371.36 89.56C371.808 90.0933 372.032 90.9253 372.032 92.056V97H370.032V92.136C370.032 91.496 369.925 91.0373 369.712 90.76C369.498 90.472 369.157 90.328 368.688 90.328C368.133 90.328 367.696 90.5253 367.376 90.92C367.056 91.304 366.896 91.8267 366.896 92.488V97H364.896V92.136C364.896 91.496 364.789 91.0373 364.576 90.76C364.362 90.472 364.021 90.328 363.552 90.328C362.997 90.328 362.56 90.5253 362.24 90.92C361.93 91.304 361.776 91.8267 361.776 92.488V97H359.776ZM377.286 97.16C376.582 97.16 375.963 96.9947 375.43 96.664C374.897 96.3227 374.481 95.8373 374.182 95.208C373.883 94.5787 373.734 93.8267 373.734 92.952C373.734 92.0773 373.883 91.3307 374.182 90.712C374.481 90.0827 374.897 89.6027 375.43 89.272C375.963 88.9307 376.582 88.76 377.286 88.76C377.969 88.76 378.566 88.9307 379.078 89.272C379.601 89.6027 379.947 90.0507 380.118 90.616H379.942L380.118 88.92H382.038C382.006 89.2507 381.974 89.5867 381.942 89.928C381.921 90.2693 381.91 90.6053 381.91 90.936V97H379.926L379.91 95.336H380.102C379.931 95.8907 379.585 96.3333 379.062 96.664C378.539 96.9947 377.947 97.16 377.286 97.16ZM377.846 95.624C378.475 95.624 378.982 95.4053 379.366 94.968C379.75 94.52 379.942 93.848 379.942 92.952C379.942 92.056 379.75 91.3893 379.366 90.952C378.982 90.5147 378.475 90.296 377.846 90.296C377.217 90.296 376.71 90.5147 376.326 90.952C375.942 91.3893 375.75 92.056 375.75 92.952C375.75 93.848 375.937 94.52 376.31 94.968C376.694 95.4053 377.206 95.624 377.846 95.624ZM384.072 97V90.984C384.072 90.6427 384.061 90.296 384.04 89.944C384.029 89.592 384.003 89.2507 383.96 88.92H385.896L386.12 91.128H385.8C385.907 90.5947 386.083 90.152 386.328 89.8C386.584 89.448 386.893 89.1867 387.256 89.016C387.619 88.8453 388.013 88.76 388.44 88.76C388.632 88.76 388.787 88.7707 388.904 88.792C389.021 88.8027 389.139 88.8293 389.256 88.872L389.24 90.632C389.037 90.5467 388.861 90.4933 388.712 90.472C388.573 90.4507 388.397 90.44 388.184 90.44C387.725 90.44 387.336 90.536 387.016 90.728C386.707 90.92 386.472 91.1867 386.312 91.528C386.163 91.8693 386.088 92.2587 386.088 92.696V97H384.072ZM390.369 97V85.224H392.369V92.36H392.401L395.681 88.92H398.097L394.017 93.192L394.033 92.392L398.385 97H395.905L392.401 93.384H392.369V97H390.369ZM402.109 97.16C401.117 97.16 400.376 96.888 399.885 96.344C399.395 95.8 399.149 94.968 399.149 93.848V88.92H401.149V93.832C401.149 94.4293 401.272 94.872 401.517 95.16C401.763 95.4373 402.136 95.576 402.637 95.576C403.203 95.576 403.661 95.384 404.013 95C404.376 94.616 404.557 94.1093 404.557 93.48V88.92H406.557V97H404.605V95.352H404.829C404.595 95.928 404.237 96.376 403.757 96.696C403.288 97.0053 402.739 97.16 402.109 97.16ZM408.729 100.456V90.936C408.729 90.6053 408.718 90.2693 408.697 89.928C408.675 89.5867 408.643 89.2507 408.601 88.92H410.537L410.713 90.616H410.537C410.697 90.0507 411.033 89.6027 411.545 89.272C412.067 88.9307 412.67 88.76 413.353 88.76C414.067 88.76 414.691 88.9307 415.225 89.272C415.758 89.6027 416.174 90.0827 416.473 90.712C416.771 91.3307 416.921 92.0773 416.921 92.952C416.921 93.8267 416.771 94.5787 416.473 95.208C416.174 95.8373 415.758 96.3227 415.225 96.664C414.691 96.9947 414.067 97.16 413.353 97.16C412.681 97.16 412.089 96.9947 411.577 96.664C411.065 96.3333 410.723 95.8907 410.553 95.336H410.729V100.456H408.729ZM412.793 95.624C413.433 95.624 413.945 95.4053 414.329 94.968C414.713 94.52 414.905 93.848 414.905 92.952C414.905 92.056 414.713 91.3893 414.329 90.952C413.945 90.5147 413.433 90.296 412.793 90.296C412.163 90.296 411.657 90.5147 411.273 90.952C410.889 91.3893 410.697 92.056 410.697 92.952C410.697 93.848 410.889 94.52 411.273 94.968C411.657 95.4053 412.163 95.624 412.793 95.624Z" fill="white"/>
<line x1="256" y1="92.5" x2="210" y2="92.5" stroke="white"/>
<path d="M274.22 16L270.236 4.72H272.38L275.452 13.968H274.812L278.124 4.72H279.66L282.732 13.968H282.14L285.356 4.72H287.372L283.356 16H281.644L278.668 7.328H279.02L275.932 16H274.22ZM288.861 16V4.224H290.861V9.536H290.637C290.883 8.96 291.261 8.52267 291.773 8.224C292.285 7.91467 292.872 7.76 293.533 7.76C294.493 7.76 295.208 8.032 295.677 8.576C296.147 9.10933 296.381 9.92533 296.381 11.024V16H294.381V11.12C294.381 10.4907 294.259 10.0373 294.013 9.76C293.779 9.472 293.4 9.328 292.877 9.328C292.269 9.328 291.779 9.52 291.405 9.904C291.043 10.2773 290.861 10.7787 290.861 11.408V16H288.861ZM301.622 16.16C300.918 16.16 300.299 15.9947 299.766 15.664C299.233 15.3227 298.817 14.8373 298.518 14.208C298.219 13.5787 298.07 12.8267 298.07 11.952C298.07 11.0773 298.219 10.3307 298.518 9.712C298.817 9.08267 299.233 8.60267 299.766 8.272C300.299 7.93067 300.918 7.76 301.622 7.76C302.305 7.76 302.902 7.93067 303.414 8.272C303.937 8.60267 304.283 9.05067 304.454 9.616H304.278L304.454 7.92H306.374C306.342 8.25067 306.31 8.58667 306.278 8.928C306.257 9.26933 306.246 9.60533 306.246 9.936V16H304.262L304.246 14.336H304.438C304.267 14.8907 303.921 15.3333 303.398 15.664C302.875 15.9947 302.283 16.16 301.622 16.16ZM302.182 14.624C302.811 14.624 303.318 14.4053 303.702 13.968C304.086 13.52 304.278 12.848 304.278 11.952C304.278 11.056 304.086 10.3893 303.702 9.952C303.318 9.51467 302.811 9.296 302.182 9.296C301.553 9.296 301.046 9.51467 300.662 9.952C300.278 10.3893 300.086 11.056 300.086 11.952C300.086 12.848 300.273 13.52 300.646 13.968C301.03 14.4053 301.542 14.624 302.182 14.624ZM311.88 16.16C310.92 16.16 310.195 15.9093 309.704 15.408C309.213 14.9067 308.968 14.1547 308.968 13.152V9.424H307.416V7.92H308.968V5.856L310.968 5.344V7.92H313.128V9.424H310.968V13.024C310.968 13.5787 311.075 13.968 311.288 14.192C311.501 14.416 311.795 14.528 312.168 14.528C312.371 14.528 312.541 14.512 312.68 14.48C312.829 14.448 312.973 14.4053 313.112 14.352V15.936C312.931 16.0107 312.728 16.064 312.504 16.096C312.291 16.1387 312.083 16.16 311.88 16.16ZM318.717 19.632L318.253 18.048C318.754 17.9413 319.176 17.8187 319.517 17.68C319.858 17.5413 320.141 17.36 320.365 17.136C320.589 16.912 320.776 16.624 320.925 16.272L321.325 15.328L321.277 16.112L317.757 7.92H319.885L322.413 14.224H321.949L324.493 7.92H326.509L322.829 16.448C322.584 17.024 322.317 17.4987 322.029 17.872C321.741 18.256 321.432 18.56 321.101 18.784C320.77 19.0187 320.408 19.2 320.013 19.328C319.618 19.456 319.186 19.5573 318.717 19.632ZM331.056 16.16C330.224 16.16 329.504 15.9893 328.896 15.648C328.288 15.3067 327.814 14.8213 327.472 14.192C327.142 13.5627 326.976 12.816 326.976 11.952C326.976 11.088 327.142 10.3467 327.472 9.728C327.814 9.09867 328.288 8.61333 328.896 8.272C329.504 7.93067 330.224 7.76 331.056 7.76C331.888 7.76 332.608 7.93067 333.216 8.272C333.835 8.61333 334.31 9.09867 334.64 9.728C334.982 10.3467 335.152 11.088 335.152 11.952C335.152 12.816 334.982 13.5627 334.64 14.192C334.31 14.8213 333.835 15.3067 333.216 15.648C332.608 15.9893 331.888 16.16 331.056 16.16ZM331.056 14.624C331.686 14.624 332.187 14.4053 332.56 13.968C332.934 13.52 333.12 12.848 333.12 11.952C333.12 11.056 332.934 10.3893 332.56 9.952C332.187 9.51467 331.686 9.296 331.056 9.296C330.427 9.296 329.926 9.51467 329.552 9.952C329.179 10.3893 328.992 11.056 328.992 11.952C328.992 12.848 329.179 13.52 329.552 13.968C329.926 14.4053 330.427 14.624 331.056 14.624ZM339.789 16.16C338.797 16.16 338.056 15.888 337.565 15.344C337.074 14.8 336.829 13.968 336.829 12.848V7.92H338.829V12.832C338.829 13.4293 338.952 13.872 339.197 14.16C339.442 14.4373 339.816 14.576 340.317 14.576C340.882 14.576 341.341 14.384 341.693 14C342.056 13.616 342.237 13.1093 342.237 12.48V7.92H344.237V16H342.285V14.352H342.509C342.274 14.928 341.917 15.376 341.437 15.696C340.968 16.0053 340.418 16.16 339.789 16.16ZM350.799 19.456V9.936C350.799 9.60533 350.788 9.26933 350.767 8.928C350.746 8.58667 350.714 8.25067 350.671 7.92H352.607L352.783 9.616H352.607C352.767 9.05067 353.103 8.60267 353.615 8.272C354.138 7.93067 354.74 7.76 355.423 7.76C356.138 7.76 356.762 7.93067 357.295 8.272C357.828 8.60267 358.244 9.08267 358.543 9.712C358.842 10.3307 358.991 11.0773 358.991 11.952C358.991 12.8267 358.842 13.5787 358.543 14.208C358.244 14.8373 357.828 15.3227 357.295 15.664C356.762 15.9947 356.138 16.16 355.423 16.16C354.751 16.16 354.159 15.9947 353.647 15.664C353.135 15.3333 352.794 14.8907 352.623 14.336H352.799V19.456H350.799ZM354.863 14.624C355.503 14.624 356.015 14.4053 356.399 13.968C356.783 13.52 356.975 12.848 356.975 11.952C356.975 11.056 356.783 10.3893 356.399 9.952C356.015 9.51467 355.503 9.296 354.863 9.296C354.234 9.296 353.727 9.51467 353.343 9.952C352.959 10.3893 352.767 11.056 352.767 11.952C352.767 12.848 352.959 13.52 353.343 13.968C353.727 14.4053 354.234 14.624 354.863 14.624ZM363.841 16.16C363.137 16.16 362.518 15.9947 361.985 15.664C361.451 15.3227 361.035 14.8373 360.737 14.208C360.438 13.5787 360.289 12.8267 360.289 11.952C360.289 11.0773 360.438 10.3307 360.737 9.712C361.035 9.08267 361.451 8.60267 361.985 8.272C362.518 7.93067 363.137 7.76 363.841 7.76C364.523 7.76 365.121 7.93067 365.633 8.272C366.155 8.60267 366.502 9.05067 366.673 9.616H366.497L366.673 7.92H368.593C368.561 8.25067 368.529 8.58667 368.497 8.928C368.475 9.26933 368.465 9.60533 368.465 9.936V16H366.481L366.465 14.336H366.657C366.486 14.8907 366.139 15.3333 365.617 15.664C365.094 15.9947 364.502 16.16 363.841 16.16ZM364.401 14.624C365.03 14.624 365.537 14.4053 365.921 13.968C366.305 13.52 366.497 12.848 366.497 11.952C366.497 11.056 366.305 10.3893 365.921 9.952C365.537 9.51467 365.03 9.296 364.401 9.296C363.771 9.296 363.265 9.51467 362.881 9.952C362.497 10.3893 362.305 11.056 362.305 11.952C362.305 12.848 362.491 13.52 362.865 13.968C363.249 14.4053 363.761 14.624 364.401 14.624ZM370.405 19.632L369.941 18.048C370.442 17.9413 370.863 17.8187 371.205 17.68C371.546 17.5413 371.829 17.36 372.053 17.136C372.277 16.912 372.463 16.624 372.613 16.272L373.013 15.328L372.965 16.112L369.445 7.92H371.573L374.101 14.224H373.637L376.181 7.92H378.197L374.517 16.448C374.271 17.024 374.005 17.4987 373.717 17.872C373.429 18.256 373.119 18.56 372.789 18.784C372.458 19.0187 372.095 19.2 371.701 19.328C371.306 19.456 370.874 19.5573 370.405 19.632Z" fill="white"/>
<line x1="256" y1="12.5" x2="210" y2="12.5" stroke="white"/>
</svg>
