<?xml version="1.0" encoding="utf-8"?>
<!-- Generator: Adobe Illustrator 25.2.3, SVG Export Plug-In . SVG Version: 6.00 Build 0)  -->
<svg version="1.1" id="Layer_1" xmlns="http://www.w3.org/2000/svg" xmlns:xlink="http://www.w3.org/1999/xlink" x="0px" y="0px"
	 viewBox="0 0 200 200" style="enable-background:new 0 0 200 200;" xml:space="preserve">
<style type="text/css">
	.st0{fill:#EFEFEF;}
	.st1{fill:#CFD1D2;}
	.st2{fill:#A4A6A9;}
	.st3{fill:#010101;}
	.st4{fill:#4D4D4D;}
	.st5{fill:#231F20;}
	.st6{fill:#595A5C;}
	.st7{fill:#818182;}
	.st8{fill:#B7B7B8;}
	.st9{fill:#6E6F72;}
	.st10{fill:none;stroke:#010101;stroke-width:0.25;stroke-miterlimit:10;}
	.st11{font-family:'Muli-Light';}
	.st12{font-size:1.6901px;}
	.st13{font-size:1.6925px;}
	.st14{font-size:1.6871px;}
	.st15{font-size:1.6858px;}
	.st16{fill:none;stroke:#010101;stroke-linecap:round;stroke-linejoin:round;}
	.st17{fill:#4D4D4D;stroke:#030303;stroke-width:0.5;stroke-linecap:round;stroke-linejoin:round;stroke-miterlimit:10;}
	.st18{fill:#030303;}
	.st19{clip-path:url(#SVGID_2_);}
</style>
<g>
	<g>
		<path class="st0" d="M88.8,42.6c13.7-5.8,26.6-6.4,29.2-1.5l2.4,5.6c-0.5-0.4-0.9-0.7-1.5-0.9c0,0-0.1-0.1-0.1-0.1
			c0,0-0.1,0-0.1,0c-5.3-2.2-15.9-1-27,3.7c-1.2,0.5-2.4,1.1-3.6,1.6l-2.9-6.8C86.4,43.7,87.6,43.1,88.8,42.6z"/>
		<path class="st1" d="M70.5,66.7c6,2,16.5,0.6,26.9-3.8s18.7-10.9,21.5-16.6c0.9,0.4,1.7,1.1,2.2,2l0.1,0.3c0,0,0,0.1,0.1,0.1
			c2.1,5.2-7.5,14.2-21.4,20.1c-13.9,5.9-27.2,6.5-29.4,1.2C70.1,69,70.1,67.8,70.5,66.7z"/>
		<path class="st1" d="M84.7,44.5l2.9,6.9L87.5,53l-3.5-8.2C84.3,44.7,84.5,44.6,84.7,44.5z"/>
		<path class="st0" d="M87.3,54.1c-6.4,2.5-11.9,8.1-13.2,9.5l-3.8-8.9c2.9-3.2,7.5-6.6,13.1-9.6L87.3,54.1z"/>
		<path class="st2" d="M87.8,54.5L87.8,54.5c0,0,0.1,0,0.1-0.1v0c0,0,0-0.1,0-0.1l0,0l0.2-2.7c1.2-0.6,2.5-1.2,3.7-1.7
			c10.9-4.6,21.4-5.9,26.5-3.8c-2.7,5.6-11,12-21.2,16.3s-20.6,5.8-26.5,3.8c0.2-0.5,0.5-1,0.7-1.5l2.7-0.4c0,0,0,0,0.1,0
			c0,0,0.1,0,0.1-0.1l0,0C74.4,64.2,80.5,57.3,87.8,54.5z"/>
		<path class="st1" d="M70,55.1l3.7,8.7l-2.2,0.3l-2.9-7C69,56.5,69.5,55.8,70,55.1z"/>
		<path class="st0" d="M69.7,68.1l-2.2-5.3c-0.6-1.4-0.3-3.2,0.7-5.1l2.8,6.7c-0.3,0.6-0.6,1.2-0.9,1.8c0,0,0,0,0,0c0,0,0,0,0,0.1
			C69.9,66.9,69.7,67.5,69.7,68.1z"/>
		<path class="st1" d="M83.6,44.5C77.7,47.5,73,51,70,54.4l0,0c-0.1,0-0.1,0.1-0.2,0.2c-0.6,0.7-1.2,1.5-1.8,2.4
			c-0.1,0.1-0.1,0.1-0.1,0.2c-1.3,2.2-1.7,4.2-1,5.9l0.5,1.2c-0.4-0.4-0.7-0.9-1-1.5C64,56.9,73.7,47.1,88.2,41s28.3-6.2,30.7-0.3
			c0.2,0.6,0.4,1.2,0.4,1.8l-0.5-1.1c0,0,0-0.1,0-0.1c-0.1-0.1-0.1-0.2-0.2-0.3v0l0,0c-2.8-5.1-16-4.5-29.9,1.3
			c-1.3,0.6-2.6,1.1-3.8,1.7l0,0c-0.4,0.2-0.8,0.4-1.2,0.6l0,0L83.6,44.5z"/>
		<path class="st0" d="M100,25c2.3,0.5,4.6,1.2,6.8,2.1c6.5,2.7,9.9,8.6,11.2,11.3c-4.6-4.1-17.1-3.4-30,2S65.8,54.4,65.5,60.5
			c-1.1-2.8-3-9.4-0.3-15.9c0.9-2.2,2-4.3,3.3-6.3c4-7,8.5-14.9,3.2-26.1c0.4-0.7,2.5-4,7.3-3.1C83.4,20.7,92.2,23,100,25z"/>
		<path class="st3" d="M70,55.1c-0.5,0.6-1,1.3-1.5,2l2.9,7l2.2-0.3L70,55.1z M68.2,57.8c-1,1.9-1.3,3.6-0.7,5.1l2.2,5.3
			c0.1-0.6,0.2-1.2,0.4-1.8c0,0,0,0,0-0.1c0,0,0,0,0,0c0.2-0.6,0.5-1.2,0.9-1.8L68.2,57.8z M87.5,53.1l0.1-1.7l-2.9-6.9
			c-0.2,0.1-0.5,0.2-0.7,0.4L87.5,53.1z M91.7,49.4c11.1-4.7,21.8-6,27-3.7c0,0,0.1,0,0.1,0c0,0,0.1,0,0.1,0.1
			c0.5,0.2,1,0.5,1.5,0.9l-2.4-5.6c-2.6-4.9-15.5-4.2-29.2,1.5c-1.2,0.5-2.4,1.1-3.6,1.6l2.9,6.8C89.3,50.5,90.5,49.9,91.7,49.4
			L91.7,49.4z M83.6,45.1c-5.7,2.9-10.3,6.3-13.1,9.6l3.8,8.9c1.3-1.4,6.7-6.9,13.2-9.5L83.6,45.1z M88.1,41
			C73.7,47.1,64,56.9,66.5,62.8c0.2,0.5,0.6,1,1,1.5L66.9,63c-0.7-1.7-0.3-3.7,1-5.9c0-0.1,0.1-0.2,0.1-0.2c0.5-0.8,1.1-1.6,1.8-2.4
			c0-0.1,0.1-0.2,0.2-0.2l0,0c3-3.4,7.7-6.9,13.6-9.9l0,0l0,0c0.4-0.2,0.8-0.4,1.2-0.6l0,0c1.2-0.6,2.5-1.2,3.8-1.7
			c13.9-5.9,27.1-6.4,29.9-1.3l0,0v0c0.1,0.1,0.1,0.2,0.2,0.3c0,0,0,0.1,0,0.1l0.5,1.1c0-0.6-0.1-1.2-0.4-1.8
			C116.4,34.8,102.6,34.9,88.1,41L88.1,41z M100,25C92.2,23,83.4,20.8,79,9.1c-4.8-0.9-6.9,2.4-7.3,3.1c5.3,11.2,0.8,19.1-3.2,26.1
			c-1.2,2-2.3,4.1-3.3,6.3c-2.7,6.5-0.8,13.1,0.3,15.9c0.3-6.2,9.5-14.6,22.4-20.1s25.4-6.1,30-2c-1.3-2.8-4.7-8.7-11.2-11.3
			C104.5,26.3,102.3,25.6,100,25L100,25z M97.2,62.4c10.2-4.3,18.5-10.7,21.2-16.3c-5.1-2.1-15.5-0.8-26.5,3.8
			c-1.3,0.6-2.5,1.1-3.7,1.7L88,54.3l0,0c0,0,0,0.1,0,0.1v0c0,0-0.1,0.1-0.1,0.1l0,0c-7.3,2.8-13.5,9.7-13.5,9.7l0,0
			c0,0-0.1,0.1-0.1,0.1c0,0,0,0-0.1,0l-2.7,0.4c-0.3,0.5-0.5,1-0.7,1.5C76.6,68.2,87,66.7,97.2,62.4L97.2,62.4z M118.9,46.3
			c-2.7,5.8-11.1,12.2-21.5,16.6s-20.8,5.8-26.9,3.8c-0.4,1.1-0.4,2.3,0,3.4c2.2,5.2,15.4,4.7,29.4-1.2c14-5.9,23.5-14.9,21.4-20.1
			c0,0,0-0.1-0.1-0.1l-0.1-0.3C120.6,47.5,119.8,46.8,118.9,46.3z M68,38c3.9-6.9,8.4-14.7,3.2-25.7c0-0.1,0-0.2,0-0.2
			c0,0,2.2-4.7,8.1-3.5c0.1,0,0.2,0.1,0.2,0.2c4.3,11.5,12.9,13.7,20.6,15.7c2.3,0.5,4.6,1.2,6.8,2.1c8.9,3.6,12.1,13,12.1,13.1
			c0,0,0,0.1,0,0.1c0.1,0.2,0.2,0.4,0.3,0.6c0.4,1,0.5,2.1,0.3,3.2l1.9,4.5c0.1,0.1,0.1,0.2,0.2,0.3c2.3,5.5-7.4,14.9-21.7,20.9
			c-13.7,5.8-26.7,6.4-29.8,1.5c-0.1,0-0.1-0.1-0.1-0.1l-2.2-5.4c-0.9-0.6-1.6-1.5-2-2.5c-0.1-0.2-0.2-0.4-0.2-0.7c0,0,0,0-0.1-0.1
			c0-0.1-4.6-9-0.9-17.8C65.7,42.2,66.8,40.1,68,38L68,38z"/>
		<path class="st1" d="M131.2,152.8c3.3,2.6,5,5.5,5,8.4c0,9.1-15.9,16.5-35.4,16.5s-35.4-7.4-35.4-16.5c0-3,1.7-5.9,5-8.4
			c-0.5,0.9-0.7,1.8-0.7,2.8v5.6c0,7.2,14,13,31.2,13s31.2-5.8,31.2-13v-5.6C131.9,154.6,131.6,153.6,131.2,152.8z"/>
		<path class="st4" d="M135.1,174.9c0,0.1-0.1,0.2-0.2,0.3l-6.1,3.5c-0.2,0.1-0.5,0.1-0.6-0.2l-0.1-0.1c-0.1-0.1-0.1-0.2,0-0.3
			c0-0.1,0.1-0.2,0.2-0.3l6.1-3.5c0.1,0,0.1-0.1,0.2-0.1h0.1c0.1,0,0.2,0.1,0.3,0.2l0.1,0.1C135.2,174.7,135.2,174.8,135.1,174.9z"
			/>
		<path class="st3" d="M134.1,173.8c0.5-0.3,1.1-0.1,1.4,0.4c0,0,0,0,0,0l0.1,0.1c0.1,0.2,0.2,0.5,0.1,0.8c-0.1,0.3-0.2,0.5-0.5,0.6
			l-6.1,3.5c-0.5,0.3-1.1,0.1-1.4-0.4c0,0,0,0,0,0l-0.1-0.1c-0.1-0.2-0.2-0.5-0.1-0.8c0.1-0.3,0.2-0.5,0.5-0.6L134.1,173.8z
			 M135,174.4c-0.1-0.1-0.2-0.2-0.3-0.2h-0.1c-0.1,0-0.2,0-0.2,0.1l-6.1,3.5c-0.1,0.1-0.2,0.2-0.2,0.3c0,0.1,0,0.2,0,0.3l0.1,0.1
			c0.1,0.2,0.4,0.3,0.6,0.2l6.1-3.5c0.1-0.1,0.2-0.2,0.2-0.3c0-0.1,0-0.2,0-0.3L135,174.4z"/>
		<path class="st4" d="M123,187c1.9,0,3.4-2,3.4-4.5s-1.5-4.5-3.4-4.5c-1.9,0-3.4,2-3.4,4.5S121.1,187,123,187z M135.2,175.7
			c0.2-0.1,0.4-0.4,0.5-0.6c0.1-0.3,0-0.5-0.1-0.8l-0.1-0.1c-0.3-0.5-0.9-0.7-1.4-0.4c0,0,0,0,0,0l-6.1,3.5
			c-0.2,0.1-0.4,0.4-0.5,0.6c-0.1,0.3,0,0.5,0.1,0.8l0.1,0.1c0.3,0.5,0.9,0.7,1.4,0.4c0,0,0,0,0,0L135.2,175.7z M136.1,175.2
			c0,9.1-15.9,16.5-35.4,16.5s-35.4-7.4-35.4-16.5v-11c3,8,17.7,14.1,35.4,14.1s32.4-6.1,35.4-14.1V175.2z M105.9,184.8
			c0.1,0.5,0.5,0.9,1.1,0.9c0,0,0.1,0,0.1,0l8-1.1c0.3,0,0.5-0.2,0.7-0.4c0.2-0.2,0.2-0.5,0.2-0.8v-0.1c-0.1-0.6-0.6-1-1.2-0.9
			l-8,1.2C106.3,183.7,105.9,184.2,105.9,184.8L105.9,184.8z"/>
		<path class="st0" d="M122.8,182.3L122.8,182.3c0,0.2-0.2,0.3-0.4,0.3h-0.1l-1-0.2c0-0.3,0.1-0.6,0.1-0.9l1.1,0.2
			c0.1,0,0.2,0.1,0.3,0.2C122.9,182.1,122.9,182.2,122.8,182.3z"/>
		<path class="st2" d="M114.9,101.9c1.4,0.3,12.8,3.1,14.3,9.2c-1.5,5.2-7.9,8.6-19,10.1c-7,0.9-14.3,0.3-18.6-0.3v-18.2
			c3,0.4,6.1,0.6,9.1,0.6C105.5,103.3,110.2,102.8,114.9,101.9z"/>
		<path class="st5" d="M123,180.1c0.9,0,1.7,1.1,1.7,2.4s-0.8,2.4-1.7,2.4c-0.9,0-1.6-0.9-1.7-2.2l0.9,0.2c0.1,0,0.1,0,0.2,0
			c0.3,0,0.6-0.2,0.7-0.6c0.1-0.4-0.2-0.8-0.5-0.9c0,0,0,0,0,0l-1-0.2C121.7,180.6,122.3,180.2,123,180.1z"/>
		<path class="st3" d="M122.8,182.3c0-0.1,0-0.2-0.1-0.3c-0.1-0.1-0.2-0.2-0.3-0.2l-1.1-0.2c-0.1,0.3-0.1,0.6-0.1,0.9l1,0.2h0.1
			C122.6,182.7,122.8,182.5,122.8,182.3L122.8,182.3z M124.7,182.5c0-1.3-0.8-2.4-1.7-2.4c-0.7,0.1-1.3,0.5-1.5,1.2l1,0.2
			c0.4,0.1,0.6,0.5,0.6,0.8c0,0,0,0,0,0c-0.1,0.3-0.4,0.6-0.7,0.6c-0.1,0-0.1,0-0.2,0l-0.9-0.2c0.1,1.2,0.8,2.2,1.7,2.2
			S124.7,183.8,124.7,182.5L124.7,182.5z M123,179.6c1.2,0,2.2,1.3,2.2,3s-1,3-2.2,3c-1.2,0-2.2-1.3-2.2-2.9c0-0.4,0.1-0.8,0.2-1.2
			C121.2,180.3,122,179.6,123,179.6L123,179.6z"/>
		<path class="st4" d="M123,185.5c1.2,0,2.2-1.3,2.2-3s-1-3-2.2-3c-1,0.1-1.8,0.8-2.1,1.7c-0.1,0.4-0.2,0.8-0.2,1.2
			C120.8,184.1,121.8,185.5,123,185.5z M123,178.6c1.5,0,2.8,1.8,2.8,3.9s-1.3,3.9-2.8,3.9c-1.5,0-2.8-1.8-2.8-3.9
			S121.5,178.6,123,178.6z"/>
		<path class="st3" d="M125.8,182.5c0-2.2-1.3-3.9-2.8-3.9c-1.5,0-2.8,1.8-2.8,3.9s1.3,3.9,2.8,3.9S125.8,184.7,125.8,182.5z
			 M123,178c1.9,0,3.4,2,3.4,4.5s-1.5,4.5-3.4,4.5c-1.9,0-3.4-2-3.4-4.5S121.1,178,123,178L123,178z"/>
		<path class="st6" d="M129.2,111C129.2,111,129.2,111,129.2,111c-1.5-6-12.9-8.8-14.3-9.1l1.2-0.3c3,0.8,10.7,3.3,13.1,7.9
			L129.2,111z"/>
		<path class="st4" d="M107.1,185.2c-0.3,0-0.5-0.1-0.6-0.4v-0.1c0-0.1,0-0.3,0.1-0.4c0.1-0.1,0.2-0.2,0.3-0.2l8-1.1h0.1
			c0.2,0,0.5,0.2,0.5,0.4v0.1c0,0.1,0,0.3-0.1,0.4c-0.1,0.1-0.2,0.2-0.3,0.2L107.1,185.2z"/>
		<path class="st3" d="M106.6,184.3c-0.1,0.1-0.1,0.2-0.1,0.4v0.1c0,0.3,0.3,0.5,0.6,0.4l8-1.1c0.1,0,0.2-0.1,0.3-0.2
			c0.1-0.1,0.1-0.2,0.1-0.4v-0.1c0-0.2-0.2-0.4-0.5-0.4h-0.1l-8,1.1C106.8,184.1,106.7,184.2,106.6,184.3z M105.9,184.8
			c-0.1-0.6,0.3-1.1,0.9-1.2l8-1.2c0.6-0.1,1.1,0.3,1.2,0.9v0.1c0,0.3,0,0.6-0.2,0.8c-0.2,0.2-0.4,0.4-0.7,0.4l-8,1.1
			c0,0-0.1,0-0.1,0C106.4,185.7,106,185.3,105.9,184.8L105.9,184.8z"/>
		<path class="st7" d="M102.5,122.2c2.6,0,5.2-0.2,7.8-0.5c10.4-1.4,16.7-4.5,18.9-9.1v21.9c0,5.7-12.8,10.3-28.5,10.3
			c-3.1,0-6.1-0.2-9.1-0.6v-22.7C95.2,121.9,98.8,122.2,102.5,122.2z"/>
		<path class="st2" d="M113.6,101.6c-4.2,0.8-8.5,1.1-12.8,1.1c-3.1,0-6.1-0.2-9.1-0.6v-1.2C93.3,100.8,104.4,99.8,113.6,101.6z"/>
		<path class="st8" d="M70.9,137.8c2.7,5.7,15.1,10,29.9,10s27.1-4.3,29.9-10v16.7c0,6.5-13.4,11.8-29.9,11.8s-29.9-5.3-29.9-11.8
			V137.8z"/>
		<path class="st8" d="M70.1,158.1c2.8,6,15.4,10.6,30.6,10.6s27.8-4.6,30.6-10.6v3.1c0,6.9-13.7,12.5-30.6,12.5
			s-30.6-5.6-30.6-12.5V158.1z"/>
		<path class="st3" d="M91.6,120.9l-0.6-0.1v-1.1l0.4-0.1c0.1,0,0.2-0.1,0.2-0.3V120.9z"/>
		<path class="st2" d="M91,119.7v1.1c-0.9-0.1-1.6-0.2-2.2-0.3L91,119.7z"/>
		<path class="st1" d="M91,102.6v16.5l-3,1v-18C89,102.3,90,102.5,91,102.6z"/>
		<path class="st1" d="M91,99.5v2.6c-1-0.1-1.9-0.3-2.8-0.4c0.3-0.4,0.6-0.8,0.8-1.2L91,99.5z"/>
		<path class="st2" d="M88,120.9c0.5,0.1,1.6,0.3,3,0.5v22.7c-1-0.1-2-0.3-3-0.5V120.9z"/>
		<path class="st9" d="M110.3,121.7c-2.6,0.3-5.2,0.5-7.8,0.5c-3.6,0-7.3-0.3-10.9-0.7l-0.6-0.1c-1.5-0.2-2.5-0.4-3-0.5l-0.3-0.1
			c-0.1,0-0.2-0.1-0.2-0.3l0,0c0-0.1,0.1-0.2,0.2-0.3l0.4-0.1l3-1l0.2-0.1c0.1-0.1,0.3,0,0.4,0.2c0,0,0,0,0,0c0,0,0,0.1,0,0.1
			c0,0.1-0.1,0.2-0.2,0.3l-0.4,0.1l-2.2,0.8c0.6,0.1,1.3,0.2,2.2,0.3l0.6,0.1c4.3,0.6,11.6,1.2,18.6,0.3c11.1-1.5,17.5-4.9,19-10.1
			c0,0,0,0,0,0v1.6C127,117.2,120.6,120.3,110.3,121.7z"/>
		<path class="st0" d="M75,97.5c2.8,2,7.1,3.6,12.4,4.6v41.5c-5.4-1-9.8-2.7-12.4-4.7V97.5z"/>
		<path class="st0" d="M78.1,94.5c1,0.6,7,4.1,12.1,4.7l-1.4,0.7c-6.8-1-10.9-3.9-12.1-4.9L78.1,94.5z"/>
		<path class="st2" d="M75.2,96.9c0.5-0.4,0.8-1,1.1-1.5c1.1,0.9,5.1,3.9,12.1,5c-0.2,0.4-0.5,0.8-0.8,1.1
			C82.2,100.5,77.9,98.9,75.2,96.9z"/>
		<path class="st2" d="M74.5,114.8c-0.7-0.6-2.1-2.1-2.1-3.8c0-1.3,0.7-2.5,2.1-3.7V114.8z"/>
		<path class="st7" d="M72.3,112.9c0.5,1,1.3,1.9,2.2,2.6v22.9c-1.4-1.2-2.2-2.6-2.2-4L72.3,112.9z"/>
		<path class="st6" d="M74.5,115.5c-0.9-0.7-1.7-1.6-2.2-2.6V111h0.1c0,1.8,1.4,3.2,2.1,3.8V115.5z"/>
		<path class="st6" d="M74.5,107.3c-1.4,1.2-2.1,2.4-2.1,3.7h-0.1v-2c0.5-1,1.3-1.8,2.2-2.5V107.3z"/>
		<path class="st1" d="M129.7,132.7c0.5,0.8,0.8,1.8,0.8,2.8c0,6.5-13.4,11.8-29.9,11.8s-29.9-5.3-29.9-11.8c0-1,0.3-1.9,0.8-2.8
			v1.7c0,1.7,1,3.2,2.8,4.6c0,0.1,0.1,0.2,0.2,0.2c2.8,2.1,7.3,3.8,12.9,4.9c0,0,0.1,0,0.1,0h0c1.1,0.2,2.2,0.4,3.4,0.6
			c0,0,0.1,0,0.1,0l0,0c3.1,0.4,6.3,0.6,9.4,0.6c16,0,29-4.9,29-10.9L129.7,132.7z"/>
		<path class="st1" d="M131.1,154.2c0.1,0.4,0.2,0.9,0.2,1.4c0,6.9-13.7,12.5-30.6,12.5s-30.6-5.6-30.6-12.5c0-0.5,0.1-0.9,0.2-1.4
			v0.2c0,6.8,13.6,12.4,30.4,12.4s30.4-5.6,30.4-12.4V154.2z"/>
		<path class="st3" d="M89.1,100.4c-0.2,0.4-0.5,0.9-0.8,1.2c0.9,0.2,1.8,0.3,2.8,0.4v-2.6L89.1,100.4z M76.8,95.1
			c1.2,0.9,5.3,3.9,12.1,4.9l1.4-0.7c-5.1-0.6-11.1-4.1-12.1-4.7L76.8,95.1z M75.2,96.9c2.7,2,7.1,3.6,12.4,4.6
			c0.3-0.4,0.6-0.7,0.8-1.1c-7-1.1-11-4.1-12.1-5C76,96,75.6,96.5,75.2,96.9L75.2,96.9z M72.3,134.4c0,1.4,0.8,2.8,2.2,4V97
			c-0.9-0.7-1.7-1.5-2.2-2.5V134.4z M130.6,135.5c0-1-0.3-1.9-0.8-2.8v1.7c0,6-13,10.9-29,10.9c-3.1,0-6.3-0.2-9.4-0.6l0,0
			c0,0-0.1,0-0.1,0c-1.2-0.2-2.3-0.3-3.4-0.6h0c0,0-0.1,0-0.1,0c-5.6-1.1-10.1-2.8-12.9-4.9c-0.1,0-0.2-0.1-0.2-0.2
			c-1.8-1.4-2.8-3-2.8-4.6v-1.7c-0.5,0.8-0.8,1.8-0.8,2.8c0,6.5,13.4,11.8,29.9,11.8S130.6,142,130.6,135.5z M100.7,166.3
			c16.5,0,29.9-5.3,29.9-11.8v-16.7c-2.7,5.7-15.1,10-29.9,10s-27.1-4.3-29.9-10v16.7C70.9,161,84.3,166.3,100.7,166.3z
			 M100.7,191.7c19.5,0,35.4-7.4,35.4-16.5v-11c-3,8-17.7,14.1-35.4,14.1s-32.4-6.1-35.4-14.1v11C65.3,184.3,81.2,191.7,100.7,191.7
			z M131.3,158.1c-2.8,6-15.4,10.6-30.6,10.6s-27.8-4.6-30.6-10.6v3.1c0,6.9,13.7,12.5,30.6,12.5s30.6-5.6,30.6-12.5V158.1z
			 M100.7,177.7c19.5,0,35.4-7.4,35.4-16.5c0-3-1.7-5.9-5-8.4c0.5,0.9,0.7,1.8,0.7,2.8v5.6c0,7.2-14,13-31.2,13s-31.2-5.8-31.2-13
			v-5.6c0-1,0.3-1.9,0.7-2.8c-3.3,2.6-5,5.5-5,8.4C65.3,170.3,81.2,177.7,100.7,177.7L100.7,177.7z M100.7,168.1
			c16.9,0,30.6-5.6,30.6-12.5c0-0.5-0.1-0.9-0.2-1.4v0.2c0,6.8-13.6,12.4-30.4,12.4s-30.4-5.6-30.4-12.4v-0.2
			c-0.1,0.4-0.2,0.9-0.2,1.4C70.1,162.5,83.8,168.1,100.7,168.1L100.7,168.1z M136.7,175.2c0,9.4-16.1,17.1-36,17.1s-36-7.7-36-17.1
			v-14c0-3.3,1.9-6.4,5.6-9.2v-16.6c0-1.4,0.5-2.7,1.4-3.8V92.4c0-6,13-10.9,29-10.9s29,4.9,29,10.9v39.3c0.8,1,1.3,2.1,1.4,3.3
			c0,0,0,0.1,0,0.1v16.9c3.4,2.5,5.3,5.4,5.5,8.4c0,0,0,0.1,0,0.1L136.7,175.2z M100.7,102.7c4.3,0,8.6-0.4,12.8-1.1
			c-9.1-1.8-20.2-0.8-22-0.7v1.2C94.6,102.5,97.7,102.7,100.7,102.7L100.7,102.7z M91.6,100.4c2.1-0.2,14.1-1.2,23.4,0.9
			c8.5-1.8,14.2-5.1,14.2-8.9c0-5.7-12.8-10.3-28.5-10.3s-28.5,4.6-28.5,10.3c0,1.5,0.9,2.9,2.5,4.2c0.5-0.5,0.9-1.1,1.2-1.7
			c0,0,0,0,0,0c0,0,0,0,0-0.1h0l0.1,0l0,0l2-0.7c0.1,0,0.2,0,0.2,0c0.1,0,7.6,4.6,13,4.7h0h0.1l0,0l0,0c0,0,0,0,0,0v0l0,0
			c0,0,0,0,0,0.1c0,0,0,0,0,0.1l0,0L91.6,100.4z M114.9,101.9c-4.7,0.9-9.4,1.4-14.2,1.4c-3.1,0-6.1-0.2-9.1-0.6v16.6
			c0,0,0-0.1,0-0.1c-0.1-0.1-0.2-0.2-0.4-0.2c0,0,0,0,0,0l-0.2,0.1v-16.5c-1-0.1-2-0.3-3-0.5v18l-0.4,0.1c-0.1,0-0.2,0.2-0.2,0.3
			v-18.5c-5.3-1-9.6-2.6-12.4-4.6v41.4c2.6,2,7,3.6,12.4,4.7v-22.9c0,0.1,0.1,0.2,0.2,0.3l0.3,0.1v22.7c1,0.2,2,0.3,3,0.5v-22.7
			l0.6,0.1v22.7c3,0.4,6.1,0.6,9.1,0.6c15.7,0,28.5-4.6,28.5-10.3V94.5c-1.6,3-6.4,5.5-13.1,7.1L114.9,101.9z"/>
		<g>
			<polygon class="st3" points="71.2,77.4 71.6,77.3 72.4,82.7 72,82.9 			"/>
			<polygon class="st3" points="70.5,77.7 71.2,76 72.3,77.4 			"/>
			<polygon class="st3" points="71.3,82.7 72.4,84 73,82.4 			"/>
		</g>
		<g>
			<polygon class="st3" points="121.6,68 122,67.8 122.8,73.3 122.3,73.4 			"/>
			<polygon class="st3" points="120.9,68.3 121.5,66.6 122.7,68 			"/>
			<polygon class="st3" points="121.6,73.2 122.8,74.6 123.4,72.9 			"/>
		</g>
		<circle class="st8" cx="96.6" cy="127.1" r="0.7"/>
		<circle class="st8" cx="99.2" cy="130.8" r="1"/>
		<circle class="st8" cx="97.3" cy="134.7" r="0.8"/>
		<circle class="st8" cx="98.8" cy="137.5" r="1"/>
		<circle class="st8" cx="115.7" cy="134.7" r="1.2"/>
		<circle class="st8" cx="117.6" cy="130.8" r="0.8"/>
		<circle class="st8" cx="115.7" cy="127.1" r="0.5"/>
		<circle class="st8" cx="118.4" cy="137.8" r="0.6"/>
		<circle class="st8" cx="125.8" cy="126" r="0.7"/>
		<circle class="st8" cx="127.1" cy="123.1" r="0.4"/>
		<circle class="st8" cx="127.5" cy="128.9" r="1"/>
		<path class="st10" d="M108,121.7c2.7-0.3,5.5-0.7,8.1-1.4"/>
		<text transform="matrix(0.9982 -5.989029e-02 5.989029e-02 0.9982 105.7204 123.5579)" class="st3 st11 st12">M</text>
		<text transform="matrix(0.9968 -7.975038e-02 7.975038e-02 0.9968 107.326 123.538)" class="st3 st11 st13">a</text>
		<text transform="matrix(0.9952 -9.757978e-02 9.757978e-02 0.9952 108.2624 123.5952)" class="st3 st11 st14">x</text>
		<text transform="matrix(0.9915 -0.1303 0.1303 0.9915 109.5701 123.4628)" class="st3 st11 st14">W</text>
		<text transform="matrix(0.988 -0.1547 0.1547 0.988 111.3234 123.1487)" class="st3 st11 st14">a</text>
		<text transform="matrix(0.9856 -0.1693 0.1693 0.9856 112.39 123.0974)" class="st3 st11 st14">t</text>
		<text transform="matrix(0.983 -0.1836 0.1836 0.983 112.9155 122.899)" class="st3 st11 st14">e</text>
		<text transform="matrix(0.9802 -0.198 0.198 0.9802 113.7536 122.6623)" class="st3 st11 st14">r</text>
		<text transform="matrix(0.9753 -0.221 0.221 0.9753 114.8807 122.6432)" class="st3 st11 st14">L</text>
		<text transform="matrix(0.9707 -0.2402 0.2402 0.9707 115.6795 122.3705)" class="st3 st11 st15">e</text>
		<text transform="matrix(0.9662 -0.2576 0.2576 0.9662 116.5337 122.0587)" class="st3 st11 st14">v</text>
		<text transform="matrix(0.961 -0.2765 0.2765 0.961 117.4355 121.8512)" class="st3 st11 st14">e</text>
		<text transform="matrix(0.9569 -0.2905 0.2905 0.9569 118.2946 121.4979)" class="st3 st11 st14">l</text>
	</g>
</g>
</svg>
