<?xml version="1.0" encoding="utf-8"?>
<!-- Generator: Adobe Illustrator 25.2.3, SVG Export Plug-In . SVG Version: 6.00 Build 0)  -->
<svg version="1.1" id="Layer_1" xmlns="http://www.w3.org/2000/svg" xmlns:xlink="http://www.w3.org/1999/xlink" x="0px" y="0px"
	 viewBox="0 0 200 200" style="enable-background:new 0 0 200 200;" xml:space="preserve">
<style type="text/css">
	.st0{fill:#CFD1D2;}
	.st1{fill:#4D4D4D;}
	.st2{fill:#010101;}
	.st3{fill:#EFEFEF;}
	.st4{fill:#A4A6A9;}
	.st5{fill:#231F20;}
	.st6{fill:#595A5C;}
	.st7{fill:#818182;}
	.st8{fill:#B7B7B8;}
	.st9{fill:#6E6F72;}
	.st10{fill:none;stroke:#010101;stroke-width:0.25;stroke-miterlimit:10;}
	.st11{font-family:'Muli-Light';}
	.st12{font-size:1.6901px;}
	.st13{font-size:1.6925px;}
	.st14{font-size:1.6871px;}
	.st15{font-size:1.6858px;}
	.st16{fill:none;stroke:#010101;stroke-linecap:round;stroke-linejoin:round;}
	.st17{fill:#4D4D4D;stroke:#030303;stroke-width:0.5;stroke-linecap:round;stroke-linejoin:round;stroke-miterlimit:10;}
	.st18{fill:#030303;}
	.st19{clip-path:url(#SVGID_2_);}
</style>
<g>
	<g>
		<g>
			<path class="st0" d="M68.6,161.2c0,7.2,14,13,31.2,13s31.2-5.8,31.2-13v-5.6c0-1-0.3-1.9-0.7-2.8c3.3,2.6,5,5.5,5,8.4
				c0,9.1-15.9,16.5-35.4,16.5s-35.4-7.4-35.4-16.5c0-3,1.7-5.9,5-8.4c-0.5,0.9-0.7,1.8-0.7,2.8L68.6,161.2z"/>
			<path class="st1" d="M127.8,178.7c-0.2,0.1-0.5,0.1-0.6-0.2l-0.1-0.1c-0.1-0.1-0.1-0.2,0-0.3c0-0.1,0.1-0.2,0.2-0.3l6.1-3.5
				c0.1,0,0.1-0.1,0.2-0.1h0.1c0.1,0,0.2,0.1,0.3,0.2l0.1,0.1c0.1,0.1,0.1,0.2,0,0.3c0,0.1-0.1,0.2-0.2,0.3L127.8,178.7z"/>
			<path class="st2" d="M127.2,178.5c0.1,0.2,0.4,0.3,0.6,0.2l6.1-3.5c0.1-0.1,0.2-0.2,0.2-0.3c0-0.1,0-0.2,0-0.3l-0.1-0.1
				c-0.1-0.1-0.2-0.2-0.3-0.2h-0.1c-0.1,0-0.2,0-0.2,0.1l-6.1,3.5c-0.1,0.1-0.2,0.2-0.2,0.3c0,0.1,0,0.2,0,0.3L127.2,178.5z
				 M127,177.3l6.1-3.5c0.5-0.3,1.1-0.1,1.4,0.4c0,0,0,0,0,0l0.1,0.1c0.1,0.2,0.2,0.5,0.1,0.8c-0.1,0.3-0.2,0.5-0.5,0.6l-6.1,3.5
				c-0.5,0.3-1.1,0.1-1.4-0.4c0,0,0,0,0,0l-0.1-0.1c-0.1-0.2-0.2-0.5-0.1-0.8C126.6,177.7,126.8,177.4,127,177.3L127,177.3z"/>
			<path class="st1" d="M126.7,178.8c0.3,0.5,0.9,0.7,1.4,0.4c0,0,0,0,0,0l6.1-3.5c0.2-0.1,0.4-0.4,0.5-0.6c0.1-0.3,0-0.5-0.1-0.8
				l-0.1-0.1c-0.3-0.5-0.9-0.7-1.4-0.4c0,0,0,0,0,0l-6.1,3.5c-0.2,0.1-0.4,0.4-0.5,0.6c-0.1,0.3,0,0.5,0.1,0.8L126.7,178.8z
				 M118.6,182.5c0,2.5,1.5,4.5,3.4,4.5s3.4-2,3.4-4.5s-1.5-4.5-3.4-4.5S118.6,180,118.6,182.5z M99.7,178.3
				c17.7,0,32.4-6.1,35.4-14.1v11c0,9.1-15.9,16.5-35.4,16.5s-35.4-7.4-35.4-16.5v-11C67.3,172.2,82,178.3,99.7,178.3z M104.9,184.8
				c0.1,0.5,0.5,0.9,1.1,0.9c0,0,0.1,0,0.1,0l8-1.1c0.3,0,0.5-0.2,0.7-0.4c0.2-0.2,0.2-0.5,0.2-0.8v-0.1c-0.1-0.6-0.6-1-1.2-0.9
				l-8,1.1C105.2,183.7,104.8,184.2,104.9,184.8L104.9,184.8z"/>
			<path class="st3" d="M120.3,182.5c0-0.3,0-0.6,0.1-0.9l1.1,0.2c0.1,0,0.2,0.1,0.3,0.2c0.1,0.1,0.1,0.2,0.1,0.3l0,0
				c0,0.2-0.2,0.3-0.4,0.3h-0.1L120.3,182.5z"/>
			<path class="st4" d="M113.9,101.9c1.4,0.3,12.8,3.1,14.3,9.2c-1.5,5.2-7.9,8.6-19,10.1c-7,0.9-14.3,0.3-18.6-0.3v-18.2
				c3,0.4,6.1,0.6,9.1,0.6C104.5,103.3,109.2,102.8,113.9,101.9z"/>
			<path class="st5" d="M122,184.9c-0.9,0-1.6-0.9-1.7-2.2l0.9,0.2c0.1,0,0.1,0,0.2,0c0.3,0,0.6-0.2,0.7-0.6
				c0.1-0.4-0.2-0.8-0.5-0.9c0,0,0,0,0,0l-1-0.2c0.2-0.7,0.8-1.1,1.5-1.2c0.9,0,1.7,1.1,1.7,2.4S122.9,184.9,122,184.9z"/>
			<path class="st2" d="M120.4,181.6c-0.1,0.3-0.1,0.6-0.1,0.9l1,0.2h0.1c0.2,0,0.4-0.1,0.4-0.3l0,0c0-0.1,0-0.2-0.1-0.3
				c-0.1-0.1-0.2-0.2-0.3-0.2L120.4,181.6z M120.3,182.7c0.1,1.2,0.8,2.2,1.7,2.2s1.7-1.1,1.7-2.4s-0.8-2.4-1.7-2.4
				c-0.7,0.1-1.3,0.5-1.5,1.2l1,0.3c0.4,0.1,0.6,0.5,0.6,0.8c0,0,0,0,0,0c-0.1,0.3-0.4,0.6-0.7,0.6c-0.1,0-0.1,0-0.2,0L120.3,182.7z
				 M119.8,182.5c0-0.4,0.1-0.8,0.2-1.2c0.2-1,1.1-1.7,2.1-1.7c1.2,0,2.2,1.3,2.2,3s-1,3-2.2,3C120.8,185.5,119.8,184.1,119.8,182.5
				L119.8,182.5z"/>
			<path class="st1" d="M120,181.3c-0.1,0.4-0.2,0.8-0.2,1.2c0,1.6,1,2.9,2.2,2.9c1.2,0,2.2-1.3,2.2-3s-1-3-2.2-3
				C121,179.6,120.2,180.3,120,181.3z M119.2,182.5c0-2.2,1.3-3.9,2.8-3.9s2.8,1.8,2.8,3.9s-1.3,3.9-2.8,3.9
				C120.5,186.4,119.2,184.7,119.2,182.5z"/>
			<path class="st2" d="M119.2,182.5c0,2.2,1.3,3.9,2.8,3.9s2.8-1.8,2.8-3.9s-1.3-3.9-2.8-3.9C120.5,178.6,119.2,180.4,119.2,182.5z
				 M122,187c-1.9,0-3.4-2-3.4-4.5s1.5-4.5,3.4-4.5s3.4,2,3.4,4.5S123.9,187,122,187L122,187z"/>
			<path class="st6" d="M128.2,111c-1.5-6-12.9-8.8-14.3-9.2l1.2-0.3c3,0.8,10.7,3.3,13.1,7.9L128.2,111
				C128.2,111,128.2,111,128.2,111z"/>
			<path class="st1" d="M114,183c0.2,0,0.5,0.2,0.5,0.4v0.1c0,0.1,0,0.3-0.1,0.4c-0.1,0.1-0.2,0.2-0.3,0.2l-8,1.1
				c-0.3,0-0.5-0.1-0.6-0.4v-0.1c0-0.1,0-0.3,0.1-0.4c0.1-0.1,0.2-0.2,0.3-0.2L114,183L114,183z"/>
			<path class="st2" d="M114.1,184c0.1,0,0.2-0.1,0.3-0.2c0.1-0.1,0.1-0.2,0.1-0.4v-0.1c0-0.2-0.2-0.4-0.5-0.4h-0.1l-8,1.1
				c-0.1,0-0.2,0.1-0.3,0.2c-0.1,0.1-0.1,0.2-0.1,0.4v0.1c0,0.3,0.3,0.5,0.6,0.4L114.1,184z M114.9,184.2c-0.2,0.2-0.4,0.4-0.7,0.4
				l-8,1.1c0,0-0.1,0-0.1,0c-0.5,0-1-0.4-1.1-0.9v-0.1c-0.1-0.6,0.3-1.1,0.9-1.2l8-1.2c0.6-0.1,1.1,0.3,1.2,0.9v0.1
				C115.1,183.6,115,183.9,114.9,184.2L114.9,184.2z"/>
			<path class="st7" d="M90.6,121.5c3.6,0.5,7.2,0.7,10.9,0.7c2.6,0,5.2-0.2,7.8-0.5c10.4-1.4,16.7-4.5,18.9-9.1v21.9
				c0,5.7-12.8,10.3-28.5,10.3c-3.1,0-6.1-0.2-9.1-0.6V121.5z"/>
			<path class="st4" d="M90.6,100.9c1.8-0.2,12.8-1.1,22,0.7c-4.2,0.8-8.5,1.1-12.8,1.1c-3.1,0-6.1-0.2-9.1-0.6V100.9z"/>
			<path class="st8" d="M69.9,137.8c2.7,5.7,15.1,10,29.9,10s27.1-4.3,29.9-10v16.7c0,6.5-13.4,11.8-29.9,11.8s-29.9-5.3-29.9-11.8
				L69.9,137.8z"/>
			<path class="st8" d="M69.1,158.1c2.8,6,15.4,10.6,30.6,10.6s27.8-4.6,30.6-10.6v3.1c0,6.9-13.7,12.5-30.6,12.5
				s-30.6-5.6-30.6-12.5L69.1,158.1z"/>
			<path class="st2" d="M90,119.7l0.4-0.1c0.1,0,0.2-0.1,0.2-0.3v1.6l-0.6-0.1V119.7z"/>
			<path class="st4" d="M90,120.8c-0.9-0.1-1.6-0.2-2.2-0.3l2.2-0.8V120.8z"/>
			<path class="st0" d="M90,99.5v2.6c-1-0.1-1.9-0.3-2.8-0.4c0.3-0.4,0.6-0.8,0.8-1.2L90,99.5z"/>
			<path class="st4" d="M87,120.9c0.5,0.1,1.6,0.3,3,0.5v22.7c-1-0.1-2-0.3-3-0.5V120.9z"/>
			<path class="st9" d="M87,120.2l3-1l0.2-0.1c0.1-0.1,0.3,0,0.4,0.2c0,0,0,0,0,0c0,0,0,0.1,0,0.1c0,0.1-0.1,0.2-0.2,0.3l-0.4,0.1
				l-2.2,0.8c0.6,0.1,1.3,0.2,2.2,0.3l0.6,0.1c4.3,0.6,11.6,1.2,18.6,0.3c11.1-1.5,17.5-4.9,19-10.1c0,0,0,0,0,0v1.6
				c-2.2,4.7-8.5,7.7-18.9,9.1c-2.6,0.3-5.2,0.5-7.8,0.5c-3.6,0-7.3-0.3-10.9-0.7l-0.6-0.1c-1.5-0.2-2.5-0.4-3-0.5l-0.3-0.1
				c-0.1,0-0.2-0.1-0.2-0.3l0,0c0-0.1,0.1-0.2,0.2-0.3L87,120.2z"/>
			<path class="st3" d="M86.4,120.6v23c-5.4-1-9.8-2.7-12.4-4.7V97.5c2.8,2,7.1,3.6,12.4,4.6V120.6z"/>
			<path class="st3" d="M77.1,94.5c1,0.6,7,4.1,12.1,4.7l-1.4,0.7c-6.8-1-10.9-3.9-12.1-4.9L77.1,94.5z"/>
			<path class="st4" d="M75.3,95.4c1.1,0.9,5.1,3.9,12.1,5c-0.2,0.4-0.5,0.8-0.8,1.1c-5.4-1-9.7-2.6-12.4-4.6
				C74.6,96.5,75,96,75.3,95.4z"/>
			<path class="st4" d="M73.5,107.3v7.5c-0.7-0.6-2.1-2.1-2.1-3.8C71.3,109.7,72,108.5,73.5,107.3z"/>
			<path class="st7" d="M71.3,112.9c0.5,1,1.3,1.9,2.2,2.6v22.9c-1.4-1.2-2.2-2.6-2.2-4V112.9z"/>
			<path class="st6" d="M71.4,111c0,1.8,1.4,3.2,2.1,3.8v0.7c-0.9-0.7-1.7-1.6-2.2-2.6L71.4,111L71.4,111z"/>
			<path class="st6" d="M71.3,109c0.5-1,1.3-1.8,2.2-2.5v0.7c-1.4,1.2-2.1,2.4-2.1,3.7h-0.1V109z"/>
			<path class="st0" d="M90.2,144.7c0,0,0.1,0,0.1,0l0,0c3.1,0.4,6.3,0.6,9.4,0.6c16,0,29-4.9,29-10.9v-1.7c0.5,0.8,0.8,1.8,0.8,2.8
				c0,6.5-13.4,11.8-29.9,11.8s-29.9-5.3-29.9-11.8c0-1,0.3-1.9,0.8-2.8v1.7c0,1.7,1,3.2,2.8,4.6c0,0.1,0.1,0.2,0.2,0.2
				c2.8,2.1,7.3,3.8,12.9,4.9c0,0,0.1,0,0.1,0h0C87.9,144.3,89,144.5,90.2,144.7z"/>
			<path class="st0" d="M69.3,154.5c0,6.8,13.6,12.4,30.4,12.4s30.4-5.6,30.4-12.4v-0.2c0.1,0.4,0.2,0.9,0.2,1.4
				c0,6.9-13.7,12.5-30.6,12.5s-30.6-5.6-30.6-12.5c0-0.5,0.1-0.9,0.2-1.4L69.3,154.5z"/>
			<path class="st2" d="M71.3,134.4c0,1.4,0.8,2.8,2.2,4V97c-0.9-0.7-1.7-1.5-2.2-2.5V134.4z M86.6,101.5c0.3-0.4,0.6-0.7,0.8-1.1
				c-7-1.1-11-4.1-12.1-5c-0.3,0.6-0.7,1.1-1.1,1.5C76.9,98.9,81.2,100.5,86.6,101.5z M89.2,99.2c-5.1-0.6-11.1-4.1-12.1-4.7
				l-1.4,0.5c1.2,0.9,5.3,3.9,12.1,4.9L89.2,99.2z M129.6,137.8c-2.7,5.7-15.1,10-29.9,10s-27.1-4.3-29.9-10v16.7
				c0,6.5,13.4,11.8,29.9,11.8s29.9-5.3,29.9-11.8V137.8z M135.7,175.2c0,9.4-16.1,17.1-36,17.1s-36-7.7-36-17.1v-14
				c0-3.3,1.9-6.4,5.6-9.2v-16.6c0-1.4,0.5-2.7,1.4-3.8V92.4c0-6,13-10.9,29-10.9s29,4.9,29,10.9v39.3c0.8,1,1.3,2.1,1.4,3.3
				c0,0,0,0.1,0,0.1v16.9c3.4,2.5,5.3,5.4,5.5,8.4c0,0,0,0.1,0,0.1L135.7,175.2z M99.7,168.1c16.9,0,30.6-5.6,30.6-12.5
				c0-0.5-0.1-0.9-0.2-1.4v0.2c0,6.8-13.6,12.4-30.4,12.4s-30.4-5.6-30.4-12.4v-0.2c-0.1,0.4-0.2,0.9-0.2,1.4
				C69.1,162.5,82.8,168.1,99.7,168.1z M130.3,158.1c-2.8,6-15.4,10.6-30.6,10.6s-27.8-4.6-30.6-10.6v3.1c0,6.9,13.7,12.5,30.6,12.5
				s30.6-5.6,30.6-12.5L130.3,158.1z M135.2,164.2c-3,8-17.7,14.1-35.4,14.1s-32.4-6.1-35.4-14.1v11c0,9.1,15.9,16.5,35.4,16.5
				s35.4-7.4,35.4-16.5V164.2z M99.7,177.7c19.5,0,35.4-7.4,35.4-16.5c0-3-1.7-5.9-5-8.4c0.5,0.9,0.7,1.8,0.7,2.8v5.6
				c0,7.2-14,13-31.2,13s-31.2-5.8-31.2-13v-5.6c0-1,0.3-1.9,0.7-2.8c-3.3,2.6-5,5.5-5,8.4C64.3,170.3,80.2,177.7,99.7,177.7z
				 M112.6,101.6c-9.1-1.8-20.2-0.8-22-0.7v1.2c3,0.4,6.1,0.6,9.1,0.6C104,102.7,108.3,102.4,112.6,101.6z M90,102.1v-2.6l-1.9,1
				c-0.2,0.4-0.5,0.9-0.8,1.2C88.1,101.8,89.1,102,90,102.1L90,102.1z M90.3,144.7c0,0-0.1,0-0.1,0c-1.2-0.2-2.3-0.3-3.4-0.6h-0.1
				c0,0-0.1,0-0.1,0c-5.6-1.1-10.1-2.8-12.9-4.9c-0.1,0-0.2-0.1-0.2-0.2c-1.8-1.4-2.8-3-2.8-4.6v-1.7c-0.5,0.8-0.8,1.8-0.8,2.8
				c0,6.5,13.4,11.8,29.9,11.8s29.9-5.3,29.9-11.8c0-1-0.3-1.9-0.8-2.8v1.7c0,6-13,10.9-29,10.9C96.5,145.3,93.4,145.1,90.3,144.7
				L90.3,144.7z M114,101.3c8.5-1.8,14.2-5.1,14.2-8.9c0-5.7-12.8-10.3-28.5-10.3s-28.5,4.6-28.5,10.3c0,1.5,0.9,2.9,2.5,4.2
				c0.5-0.5,0.9-1.1,1.2-1.7c0,0,0,0,0,0c0,0,0,0,0-0.1h0l0.1,0l0,0l2-0.7c0.1,0,0.2,0,0.2,0c0.1,0,7.6,4.6,13,4.7h0h0.1l0,0l0,0
				c0,0,0,0,0,0v0l0,0c0,0,0,0,0,0.1c0,0,0,0,0,0.1l0,0v1.4C92.6,100.2,104.6,99.2,114,101.3L114,101.3z M115.1,101.6l-1.2,0.3
				c-4.7,0.9-9.4,1.4-14.2,1.4c-3.1,0-6.1-0.2-9.1-0.6v16.6c0,0,0-0.1,0-0.1c-0.1-0.1-0.2-0.2-0.4-0.2c0,0,0,0,0,0l-0.2,0.1v-16.5
				c-1-0.1-2-0.3-3-0.5v18l-0.4,0.1c-0.1,0-0.2,0.2-0.2,0.3v-18.5c-5.3-1-9.6-2.6-12.4-4.6v41.4c2.6,2,7,3.6,12.4,4.7v-22.9
				c0,0.1,0.1,0.2,0.2,0.3l0.3,0.1v22.7c1,0.2,2,0.3,3,0.5v-22.7l0.6,0.1v22.7c3,0.4,6.1,0.6,9.1,0.6c15.7,0,28.5-4.6,28.5-10.3
				V94.5C126.6,97.5,121.8,100,115.1,101.6L115.1,101.6z"/>
			
				<rect x="134" y="151.2" transform="matrix(2.338528e-02 -0.9997 0.9997 2.338528e-02 -18.8348 283.5464)" class="st2" width="3.5" height="0.4"/>
			<polygon class="st2" points="134.8,149.9 135.8,148.4 136.6,149.9 			"/>
			<polygon class="st2" points="134.8,152.7 135.6,154.2 136.6,152.7 			"/>
			
				<rect x="62.5" y="151.2" transform="matrix(2.338528e-02 -0.9997 0.9997 2.338528e-02 -88.5879 212.1426)" class="st2" width="3.5" height="0.4"/>
			<polygon class="st2" points="63.4,149.9 64.4,148.4 65.2,149.9 			"/>
			<polygon class="st2" points="63.4,152.7 64.2,154.2 65.2,152.7 			"/>
			<circle class="st8" cx="95.6" cy="127.1" r="0.7"/>
			<circle class="st8" cx="98.2" cy="130.8" r="1"/>
			<circle class="st8" cx="96.3" cy="134.7" r="0.8"/>
			<circle class="st8" cx="97.8" cy="137.5" r="1"/>
			<circle class="st8" cx="114.7" cy="134.7" r="1.2"/>
			<circle class="st8" cx="116.6" cy="130.8" r="0.8"/>
			<circle class="st8" cx="114.7" cy="127.1" r="0.5"/>
			<circle class="st8" cx="117.4" cy="137.8" r="0.6"/>
			<circle class="st8" cx="124.8" cy="126" r="0.7"/>
			<circle class="st8" cx="126.1" cy="123.1" r="0.4"/>
			<circle class="st8" cx="126.5" cy="128.9" r="1"/>
			<path class="st10" d="M107,121.7c2.7-0.3,5.5-0.7,8.1-1.4"/>
			<text transform="matrix(0.9982 -5.989029e-02 5.989029e-02 0.9982 104.7206 123.5611)" class="st2 st11 st12">M</text>
			<text transform="matrix(0.9968 -7.975038e-02 7.975038e-02 0.9968 106.3259 123.5317)" class="st2 st11 st13">a</text>
			<text transform="matrix(0.9952 -9.757978e-02 9.757978e-02 0.9952 107.2642 123.5971)" class="st2 st11 st14">x</text>
			<text transform="matrix(0.9915 -0.1303 0.1303 0.9915 108.5734 123.4636)" class="st2 st11 st14">W</text>
			<text transform="matrix(0.988 -0.1547 0.1547 0.988 110.3299 123.1456)" class="st2 st11 st14">a</text>
			<text transform="matrix(0.9856 -0.1693 0.1693 0.9856 111.3889 123.0967)" class="st2 st11 st14">t</text>
			<text transform="matrix(0.983 -0.1836 0.1836 0.983 111.9202 122.8945)" class="st2 st11 st14">e</text>
			<text transform="matrix(0.9802 -0.198 0.198 0.9802 112.7566 122.6633)" class="st2 st11 st14">r</text>
			<text transform="matrix(0.9753 -0.221 0.221 0.9753 113.8834 122.6458)" class="st2 st11 st14">L</text>
			<text transform="matrix(0.9707 -0.2402 0.2402 0.9707 114.6863 122.3682)" class="st2 st11 st15">e</text>
			<text transform="matrix(0.9662 -0.2576 0.2576 0.9662 115.5325 122.0602)" class="st2 st11 st14">v</text>
			<text transform="matrix(0.961 -0.2765 0.2765 0.961 116.4395 121.846)" class="st2 st11 st14">e</text>
			<text transform="matrix(0.9569 -0.2905 0.2905 0.9569 117.2922 121.4979)" class="st2 st11 st14">l</text>
			<path class="st16" d="M71,92.5c0,0-0.8-9.8,6-16.6c6.7-6.7,19.2-11.1,18.5-27.3c0,0,4.2-3,8.5,0c-0.7,16.2,11.7,20.5,18.5,27.3
				c6.7,6.7,6,16.6,6,16.6"/>
			<path class="st16" d="M95.5,48.6c0,0,1,0.8,4.2,0.7s4.3-0.7,4.3-0.7"/>
		</g>
	</g>
	<g>
		<path class="st17" d="M92.7,28.1c-2,3.4-6.4,7.9-10.9,11.9c-4.5,4.1-9.4,8.8-14,14.4c-2.8,3.3-4.2,7.5-4,11.8v72.7
			c0,9.3,16,16.8,35.7,16.8s36.2-7.5,36.2-16.8l0-2.4V66.3c0.2-4.3-1.2-8.5-4-11.8c-4.6-5.6-10.1-10.7-14.5-14.8
			c-2.2-2-4.2-4.1-6.2-6.3c0,0-1.7-2.1-2.6-4.3c-0.3-0.7-0.3-0.8-0.5-1.2c-0.3-0.6-0.2-0.7-0.8-1.1c0,0-2.5-0.9-6.9-1.4
			c-5.1-0.5-5.8,0-5.8,0c-0.4,0.2-0.5,0.3-0.8,0.9C93.2,27.3,93.5,26.7,92.7,28.1z"/>
		
			<ellipse transform="matrix(0.1082 -0.9941 0.9941 0.1082 62.8796 124.2633)" class="st18" cx="100.7" cy="27.1" rx="0.6" ry="5.6"/>
	</g>
</g>
</svg>
