<svg xmlns="http://www.w3.org/2000/svg" viewBox="0 0 100 60"><g fill="none" fillRule="evenodd"><path fill="#FFF" d="M0 0h100v60H0z"/><g fillRule="nonzero"><path fill="#E8A6CD" d="M27.093 47.905c-.004-.01-.005-7.853-.002-17.427l.004-17.41 12.199-.007c12.394-.004 12.753-.003 13.831.051 4.045.204 7.446.922 10.293 2.173 3.14 1.381 5.505 3.365 7.133 5.98 1.312 2.11 2.113 4.663 2.337 7.459a23.862 23.862 0 0 1 0 3.511c-.213 2.62-.848 4.838-1.965 6.859a14.41 14.41 0 0 1-4.139 4.654c-2.822 2.062-6.526 3.367-11.074 3.902a41.198 41.198 0 0 1-3.666.258c-.855.023-24.94.02-24.95-.004v.001zm24.89-1.672c6.143-.175 10.785-1.539 14.028-4.117.287-.228.86-.738 1.1-.982 2.156-2.171 3.42-4.94 3.81-8.346.138-1.206.166-2.695.07-3.934a17.847 17.847 0 0 0-.422-2.71c-.934-3.843-3.17-6.733-6.71-8.679a19.847 19.847 0 0 0-2.938-1.276c-2.037-.69-4.284-1.124-6.869-1.33-.365-.029-.82-.058-1.52-.094-.248-.015-3.314-.02-11.938-.024l-11.602-.004v31.51h11.224c7.293 0 11.416-.004 11.768-.014zM31.889 43.7c-.026-.02-.03-.538-.03-5.465 0-3.402.008-5.448.018-5.462.014-.02.423-.024 3.479-.027 2.376-.003 3.471 0 3.493.012.033.015.034.08.034 5.482 0 4.97-.002 5.467-.028 5.474-.015.006-1.582.01-3.483.01-3.12 0-3.46-.002-3.485-.024h.002zm10.49.001c-.026-.023-.028-.513-.028-6.434 0-3.526.005-6.42.011-6.434.009-.022.076-.025.57-.025.951 0 1.358-.029 1.767-.12 1.122-.255 1.914-.912 2.3-1.91.164-.423.24-.835.26-1.384.022-.779-.117-1.423-.435-2a2.982 2.982 0 0 0-1.196-1.19 4.114 4.114 0 0 0-1.466-.437 17.336 17.336 0 0 0-.952-.023 9.834 9.834 0 0 1-.836-.023c-.018-.012-.022-.673-.022-3.213 0-1.757.006-3.205.014-3.216.012-.016.928-.019 4.924-.014 5.294.006 5.132.004 6.275.087 5.377.394 9.257 1.92 11.684 4.598 1.454 1.605 2.369 3.624 2.737 6.044.069.452.13 1.025.115 1.05-.02.023-2.967.02-2.995-.003-.016-.015-.021-.627-.021-2.667V23.74h-1.957v3.524c0 3.226.002 3.527.028 3.535.014.006 1.13.01 2.476.01h2.532l-.012.374a15.414 15.414 0 0 1-.544 3.636 10.797 10.797 0 0 1-1.966 3.87 9.27 9.27 0 0 1-1.207 1.244c-.381.335-.59.503-.896.719-2.363 1.677-5.655 2.667-9.855 2.966a48.2 48.2 0 0 1-1.399.077c-.236.012-2.022.02-5.119.024-4.394.007-4.76.006-4.787-.018zM53.346 30.8c.025-.008.03-.099.03-.867v-.86l-1.474-.004-1.472-.004v-.997l1.317-.003 1.318-.005v-1.72h-1.303c-1.084 0-1.306-.005-1.322-.022-.015-.015-.019-.14-.015-.428l.005-.405 1.39-.007 1.391-.008v-1.722h-4.756l-.005 3.522c-.004 3.345-.003 3.523.026 3.529.046.01 4.84.012 4.87.001zm3.101-.024c.009-.02.11-.32.226-.668.115-.35.216-.643.226-.654.014-.014.294-.019 1.34-.014l1.322.003.227.68.227.679 1.002.004c.552.002 1.01 0 1.02-.003.015-.004-.051-.217-.19-.622-.726-2.124-1.454-4.247-2.183-6.369l-.026-.073h-2.813l-.017.035c-.068.184-.133.369-.195.554a6374.03 6374.03 0 0 1-1.95 5.69c-.142.415-.258.763-.258.774 0 .014.238.017 1.013.017h1.013l.016-.033zm1.054-3.102a.8.8 0 0 1 .05-.207c.204-.626.585-1.76.6-1.782.018-.032.12-.035.15-.005.028.03.675 1.985.662 2.003a7.482 7.482 0 0 1-.732.014c-.635 0-.722-.001-.73-.023zm-22.675 3.398a4.654 4.654 0 0 1-2.476-1.047 3.722 3.722 0 0 1-1.29-2.214 4.497 4.497 0 0 1-.002-1.08c.208-1.195.978-2.188 2.16-2.792a4.6 4.6 0 0 1 2.025-.496c.787-.02 1.428.105 2.116.413 1.298.58 2.16 1.674 2.35 2.98.026.186.026.676-.002.87a3.736 3.736 0 0 1-.44 1.295c-.254.424-.58.8-.964 1.108a4.648 4.648 0 0 1-2.45.971 7.465 7.465 0 0 1-1.027-.007v-.001zm7.545-2.017c-.016-.015-.02-.43-.02-1.78 0-.968.006-1.768.014-1.779.012-.017.17-.02.837-.014l.822.004.166.04c.494.116.797.374.966.816.107.288.158.718.129 1.147-.027.422-.092.682-.241.947a.855.855 0 0 1-.236.29c-.226.199-.472.294-.857.33-.25.024-1.553.022-1.581-.001h.001z"/><path fill="#9B9B9B" d="M27.106 47.907c-.015-.015-.02-3.904-.02-17.416 0-14.78.003-17.4.023-17.414.035-.024 24.846-.014 25.363.01 1.447.07 2.108.119 3.057.224 5.297.583 9.464 2.209 12.38 4.827a13.57 13.57 0 0 1 1.888 2.053c.295.39.351.47.57.808 1.699 2.599 2.581 5.83 2.581 9.448 0 3.126-.605 5.885-1.804 8.214-1.571 3.055-4.097 5.366-7.561 6.924-1.617.726-3.298 1.254-5.241 1.644-2.006.402-4.084.62-6.522.68-.935.024-24.686.021-24.714-.002zm24.56-1.66c.67-.014 1.082-.03 1.622-.06 5.091-.294 9.174-1.506 12.105-3.593a14.167 14.167 0 0 0 2.121-1.867 12.803 12.803 0 0 0 2.298-3.581c.833-1.955 1.249-4.181 1.247-6.699 0-4.246-1.21-7.665-3.63-10.265-2.975-3.193-7.84-5.035-14.252-5.391-1.129-.063-.906-.061-12.784-.061h-11.41l-.004 15.747c-.002 8.662 0 15.757.003 15.767.007.015 2.223.02 11.003.02 6.588 0 11.27-.008 11.681-.015v-.002zm-19.781-2.556c-.005-.01-.006-2.472-.005-5.472l.005-5.454 3.475-.003c2.555-.003 3.482 0 3.5.014.018.014.022.896.022 5.452 0 2.99-.004 5.445-.01 5.458-.01.022-.333.024-3.496.024-2.771 0-3.486-.003-3.493-.02h.002zm10.5-6.432v-6.434h.665c.723 0 1.013-.014 1.344-.063 1.282-.188 2.22-.9 2.632-1.999.175-.467.251-.922.253-1.5 0-1.034-.28-1.835-.864-2.472-.462-.505-1.177-.87-1.955-.998-.312-.05-.43-.057-1.234-.066l-.833-.01-.005-3.214-.004-3.214 4.865.006c5.176.006 5.037.003 6.152.079 6.56.443 10.973 2.598 13.15 6.423.782 1.374 1.294 3.02 1.485 4.77l.043.386c.005.042 0 .077-.011.087-.014.013-.411.018-1.475.018-1.423 0-1.456 0-1.473-.03-.013-.02-.02-.877-.02-2.665v-2.638h-.992c-.892 0-.995.002-1.005.024-.01 1.175-.014 2.35-.01 3.524 0 2.776.004 3.506.021 3.526.02.025.196.026 2.52.03l2.499.003-.005.295a15.43 15.43 0 0 1-.273 2.543c-.434 2.286-1.391 4.208-2.83 5.685a11.263 11.263 0 0 1-2.704 2.036c-2.405 1.312-5.532 2.062-9.436 2.259-.815.04-1.384.044-5.835.044h-4.664v-6.435zm11.002-7.32.004-.881-1.472-.005-1.472-.003-.006-.475c-.003-.37 0-.477.018-.487a40.83 40.83 0 0 1 1.322-.012h1.301V27.2c0-.481-.001-.878-.004-.88-.44-.006-.88-.01-1.318-.011l-1.313-.009v-.8l1.39-.008 1.392-.007v-1.752h-4.792l-.004 3.527c-.003 1.94 0 3.536.004 3.546.006.015.51.018 2.477.015l2.468-.003.005-.88zm3.076.851c.009-.02.11-.32.226-.67.115-.348.218-.64.227-.651.014-.015.29-.018 1.322-.015l1.308.003.22.665c.121.365.229.671.239.683.014.016.223.02 1.036.02.633 0 1.023-.006 1.03-.014.007-.012-2.243-6.621-2.39-7.015l-.025-.071h-2.848l-.017.035c-.01.017-.512 1.474-1.114 3.236l-1.2 3.497c-.038.102-.07.207-.094.313.006.015.254.02 1.035.02h1.03l.015-.036zm1.058-3.12c-.01-.015.614-1.915.647-1.97.011-.02.031-.027.07-.023l.055.005.32.967c.177.53.322.981.322 1l.002.033h-.703c-.438 0-.707-.005-.713-.014v.001zm-22.46 3.416c-.983-.089-1.772-.372-2.463-.88-.867-.636-1.416-1.533-1.546-2.525a4.59 4.59 0 0 1 .007-.875c.212-1.48 1.36-2.71 2.963-3.173a4.842 4.842 0 0 1 3.273.204c.436.19.802.42 1.15.725a3.7 3.7 0 0 1 1.238 2.168c.043.248.043.827 0 1.08a3.675 3.675 0 0 1-1.238 2.16 4.14 4.14 0 0 1-1.168.733 4.532 4.532 0 0 1-1.812.383 7.42 7.42 0 0 1-.402 0h-.002zm7.333-2.043a69.523 69.523 0 0 1-.01-1.757v-1.768c0-.024.046-.026.7-.026.92 0 1.103.02 1.413.155a.962.962 0 0 1 .294.194.86.86 0 0 1 .244.301c.18.324.226.559.226 1.134 0 .358-.006.439-.04.6-.119.588-.387.93-.847 1.078-.263.083-.348.09-1.194.1-.539.004-.777 0-.786-.01z"/><path fill="#D85A9F" d="M27.11 47.89c-.004-.01-.005-7.845-.002-17.412l.004-17.396h12.432c12.94 0 12.653 0 13.778.06 4.866.27 8.818 1.296 11.939 3.098a15.41 15.41 0 0 1 3.723 2.983 14.56 14.56 0 0 1 2.008 2.854c1.294 2.44 1.94 5.226 1.94 8.376-.001 3.397-.704 6.318-2.113 8.777a14.318 14.318 0 0 1-4.033 4.49c-2.105 1.546-4.784 2.693-7.892 3.379-2.13.468-4.416.729-7.015.793-.946.025-24.758.02-24.768-.003v.002zm24.384-1.627a37.13 37.13 0 0 0 4.834-.364c4.035-.58 7.27-1.838 9.7-3.769.288-.227.86-.738 1.1-.98 1.902-1.916 3.108-4.287 3.637-7.153.335-1.8.402-3.864.19-5.77-.637-5.752-3.859-9.78-9.487-11.867a24.17 24.17 0 0 0-3.011-.88c-1.853-.414-3.654-.632-6.147-.745-.555-.026-23.295-.036-23.33-.011-.02.014-.022 2.37-.022 15.767 0 12.23.004 15.755.02 15.77.026.021 21.258.024 22.516.002zm-19.592-2.587c-.003-.01-.006-2.466-.003-5.457l.004-5.438h6.955v10.907l-3.473.003c-2.77.003-3.476 0-3.482-.015h-.001zm10.485-6.417v-6.434h.664c.723 0 1.014-.014 1.344-.063 1.282-.188 2.22-.9 2.632-1.999.176-.467.252-.922.253-1.5 0-1.034-.279-1.835-.864-2.472-.461-.505-1.177-.87-1.955-.998-.312-.05-.43-.057-1.233-.065l-.834-.01-.004-3.215-.004-3.214 4.864.006c5.177.006 5.037.003 6.153.079 6.56.443 10.972 2.598 13.15 6.424.782 1.373 1.294 3.018 1.485 4.768l.043.387c.004.042 0 .077-.012.087-.014.013-.41.018-1.475.018-1.423 0-1.456 0-1.473-.03-.013-.02-.019-.877-.019-2.665v-2.638h-.993c-.891 0-.995.002-1.005.024a318.5 318.5 0 0 0-.01 3.524c0 2.776.004 3.506.022 3.526.02.025.195.026 2.52.03l2.498.003-.004.295a15.43 15.43 0 0 1-.273 2.543c-.435 2.286-1.392 4.208-2.83 5.685a11.263 11.263 0 0 1-2.705 2.036c-2.405 1.312-5.531 2.062-9.436 2.259-.815.04-1.384.044-5.834.044h-4.665v-6.435zm11.001-7.32.005-.881-1.473-.005-1.471-.003-.006-.475c-.003-.37 0-.477.017-.487a40.83 40.83 0 0 1 1.323-.012h1.3V27.2c0-.481-.001-.878-.004-.88-.44-.006-.879-.01-1.318-.011l-1.313-.009v-.8l1.39-.008 1.392-.007v-1.752h-4.79l-.004 3.527c-.003 1.94 0 3.536.004 3.546.006.015.51.018 2.477.015l2.468-.003.004-.88zm3.076.851c.01-.02.111-.32.226-.67.115-.348.219-.64.227-.651.015-.015.29-.018 1.323-.015l1.308.003.22.665c.12.365.228.671.238.683.015.016.223.02 1.037.02.632 0 1.022-.006 1.03-.014.006-.012-2.243-6.621-2.39-7.015l-.026-.071h-2.849l-.017.035c-.01.017-.512 1.474-1.114 3.236l-1.2 3.497c-.038.102-.07.207-.094.313.006.015.254.02 1.035.02h1.03l.015-.036h.001zm1.058-3.12c-.01-.015.614-1.915.647-1.97.012-.02.032-.027.07-.023l.055.005.32.967c.178.53.323.981.323 1l.001.034h-.703c-.438 0-.707-.006-.713-.015v.001zm-22.554 3.397c-1.508-.138-2.799-.92-3.466-2.1a3.33 3.33 0 0 1-.448-1.471c-.066-.928.254-1.829.924-2.593a4.695 4.695 0 0 1 1.136-.887 4.881 4.881 0 0 1 3.555-.388c1.812.503 3.039 1.97 3.039 3.64 0 .957-.384 1.833-1.122 2.563-.652.643-1.592 1.08-2.613 1.214-.334.03-.67.037-1.005.02v.002zm7.428-2.022a69.523 69.523 0 0 1-.01-1.758v-1.769c0-.024.046-.026.7-.026.92 0 1.102.02 1.413.155a.962.962 0 0 1 .293.194c.103.08.187.183.244.302.18.323.226.558.226 1.133 0 .358-.006.439-.039.6-.12.588-.388.93-.848 1.078-.263.083-.348.09-1.193.1-.54.004-.778 0-.786-.01z"/><path fill="#D13288" d="M27.11 47.89c-.004-.01-.005-7.845-.002-17.412l.004-17.396h12.432c12.94 0 12.653 0 13.778.06 4.866.27 8.818 1.296 11.939 3.098a15.41 15.41 0 0 1 3.723 2.983 14.56 14.56 0 0 1 2.008 2.854c1.294 2.44 1.94 5.226 1.94 8.376-.001 3.397-.704 6.318-2.113 8.777a14.318 14.318 0 0 1-4.033 4.49c-2.105 1.546-4.784 2.693-7.892 3.379-2.13.468-4.416.729-7.015.793-.946.025-24.758.02-24.768-.003v.002zm24.384-1.627a37.13 37.13 0 0 0 4.834-.364c4.035-.58 7.27-1.838 9.7-3.769.288-.227.86-.738 1.1-.98 1.902-1.916 3.108-4.287 3.637-7.153.335-1.8.402-3.864.19-5.77-.637-5.752-3.859-9.78-9.487-11.867a24.17 24.17 0 0 0-3.011-.88c-1.853-.414-3.654-.632-6.147-.745-.555-.026-23.295-.036-23.33-.011-.02.014-.022 2.37-.022 15.767 0 12.23.004 15.755.02 15.77.026.021 21.258.024 22.516.002zm-19.592-2.587c-.003-.01-.006-2.466-.003-5.457l.004-5.438h6.955v10.907l-3.473.003c-2.77.003-3.476 0-3.482-.015h-.001zm10.504-.001c-.015-.015-.019-1.704-.015-6.424l.003-6.402.8-.01c.848-.012 1.021-.024 1.4-.098 1.01-.199 1.776-.718 2.228-1.511.309-.54.451-1.101.47-1.85.02-.42-.024-.84-.132-1.246a3.051 3.051 0 0 0-.968-1.57 2.82 2.82 0 0 0-.766-.49 3.965 3.965 0 0 0-1.254-.335 16.091 16.091 0 0 0-.963-.028l-.815-.008v-6.39h4.817c4.968 0 4.987 0 5.993.06 2.42.148 4.625.543 6.455 1.158 3.685 1.24 6.15 3.366 7.453 6.432.368.869.654 1.888.824 2.946.073.466.143 1.104.123 1.122-.49.01-.981.012-1.472.008l-1.459-.005-.008-2.658-.009-2.659h-2.01l-.002 3.55c-.005 2.829 0 3.55.017 3.561.011.006 1.143.012 2.515.012h2.494v.162c0 .326-.044.953-.104 1.492-.442 3.97-2.243 6.873-5.405 8.715-2.377 1.383-5.456 2.172-9.403 2.41-1.09.066-1.944.075-6.656.076-3.454 0-4.135-.003-4.151-.02zm10.982-12.848c.017-.01.022-.199.017-.894l-.004-.883-1.469-.008-1.468-.008v-.936l1.313-.007 1.314-.007v-1.77l-1.314-.007-1.313-.008-.005-.396-.005-.396h1.38c1.05 0 1.383-.005 1.399-.02.016-.014.022-.228.022-.88 0-.65-.006-.866-.022-.881-.029-.026-4.771-.026-4.801 0-.015.015-.02.824-.02 3.55 0 3.347.001 3.532.03 3.546.036.02 4.912.022 4.945.003l.001.002zm3.062 0c.014-.01.115-.283.249-.686l.223-.668 1.306-.004 1.307-.004.134.404.224.675c.049.148.1.275.112.283.014.007.482.013 1.04.013.833 0 1.018-.003 1.034-.02.015-.015-.261-.84-1.183-3.531a593.884 593.884 0 0 0-1.219-3.544l-.017-.035h-1.423c-1.17 0-1.426.003-1.442.02-.011.012-.266.74-.568 1.62l-1.201 3.508a118.88 118.88 0 0 0-.655 1.935c0 .015.006.03.012.037.017.016 2.037.011 2.066-.005l.001.002zm1.088-3.201.325-.986c.308-.919.316-.944.36-.948.028-.003.05.004.06.022.021.036.638 1.901.638 1.93 0 .021-.086.024-.696.024h-.697l.01-.042zM34.97 31.067c-1.51-.138-2.8-.92-3.468-2.1a3.33 3.33 0 0 1-.448-1.471c-.066-.928.254-1.829.924-2.593a4.695 4.695 0 0 1 1.136-.887 4.881 4.881 0 0 1 3.555-.388c1.812.503 3.039 1.97 3.039 3.64 0 .957-.384 1.833-1.122 2.563-.652.643-1.592 1.08-2.613 1.214-.334.03-.67.037-1.005.02l.002.002zm7.424-2.044a97.001 97.001 0 0 1-.004-1.763l.004-1.745h.782c.603 0 .81.005.902.02.652.117.988.453 1.135 1.138.045.203.045.964 0 1.183-.15.758-.522 1.098-1.285 1.171-.25.023-1.524.02-1.534-.004z"/><path fill="#D30071" d="M27.11 47.89c-.004-.01-.005-7.845-.002-17.412l.004-17.396h12.432c12.94 0 12.653 0 13.778.06 4.866.27 8.818 1.296 11.939 3.098a15.41 15.41 0 0 1 3.723 2.983 14.56 14.56 0 0 1 2.008 2.854c1.294 2.44 1.94 5.226 1.94 8.376-.001 3.397-.704 6.318-2.113 8.777a14.318 14.318 0 0 1-4.033 4.49c-2.105 1.546-4.784 2.693-7.892 3.379-2.13.468-4.416.729-7.015.793-.946.025-24.758.02-24.768-.003v.002zm24.384-1.627a37.13 37.13 0 0 0 4.834-.364c4.035-.58 7.27-1.838 9.7-3.769.288-.227.86-.738 1.1-.98 1.902-1.916 3.108-4.287 3.637-7.153.335-1.8.402-3.864.19-5.77-.637-5.752-3.859-9.78-9.487-11.867a24.17 24.17 0 0 0-3.011-.88c-1.853-.414-3.654-.632-6.147-.745-.555-.026-23.295-.036-23.33-.011-.02.014-.022 2.37-.022 15.767 0 12.23.004 15.755.02 15.77.026.021 21.258.024 22.516.002zm-19.592-2.587c-.003-.01-.006-2.466-.003-5.457l.004-5.438h6.955v10.907l-3.473.003c-2.77.003-3.476 0-3.482-.015h-.001zm10.51-.015c-.005-.011-.006-2.897-.005-6.416l.004-6.398.86-.009c.914-.008.996-.014 1.39-.096 1.252-.261 2.135-1.051 2.478-2.221.128-.433.166-.728.164-1.276 0-.607-.057-.964-.23-1.42a2.906 2.906 0 0 0-.904-1.298c-.503-.428-1.117-.681-1.907-.788-.208-.029-.337-.033-1.047-.04l-.812-.008v-6.367l.039-.009c.064-.014 7.973-.01 8.89.005 1.772.03 3.077.128 4.49.335 4.141.604 7.29 2.046 9.332 4.273 1.474 1.607 2.406 3.636 2.774 6.035.057.373.127.945.128 1.052 0 .008-.655.01-1.454.01l-1.457-.005-.004-2.643c-.003-1.922-.008-2.647-.023-2.661-.016-.018-.2-.02-1.009-.02-.543 0-.999.005-1.01.011-.018.01-.022.734-.018 3.569l.005 3.556 2.507.008 2.507.007.005.136c.003.076-.003.291-.014.484-.108 1.925-.469 3.519-1.127 4.974-.82 1.817-2.087 3.287-3.81 4.419-2.406 1.58-5.69 2.488-9.915 2.745-1.127.067-1.768.074-6.453.075-3.478 0-4.369-.004-4.375-.019zm14.051-12.833c.024-.019.095-.211.253-.687l.22-.66 1.295.003 1.295.004.22.662c.121.365.23.67.24.681.028.023 2.085.023 2.113 0 .02-.019.023-.006-.524-1.607l-1.71-4.992a7.23 7.23 0 0 0-.19-.518c-.015-.014-.277-.019-1.451-.019-1.348 0-1.432 0-1.446.027-.015.024-.168.465-.723 2.088-.552 1.613-1.105 3.226-1.66 4.839-.05.14-.052.186-.01.195.015.005.482.009 1.036.009.936.001 1.009 0 1.042-.025zm1.085-3.183.492-1.484c.147-.444.152-.459.193-.455.037.005.047.022.089.15l.314.953c.147.445.268.817.268.827 0 .012-.181.016-.677.016-.374 0-.679-.003-.679-.007zm-4.125 2.296c.004-.701 0-.892-.018-.9a42.626 42.626 0 0 0-1.476-.014h-1.456v-.922h1.304c1.078 0 1.305-.003 1.322-.02.015-.015.017-.263.015-.903l-.005-.882-1.318-.003-1.318-.004v-.77h1.366c.91 0 1.378-.006 1.4-.015.033-.016.033-.042.033-.9 0-.856 0-.882-.033-.898-.022-.01-.805-.015-2.411-.015-2.139 0-2.38.002-2.405.024-.024.022-.027.364-.027 3.548 0 1.94.004 3.536.01 3.55.01.021.243.023 2.511.02l2.501-.005.005-.89zm-18.455 1.125c-1.508-.137-2.799-.919-3.466-2.1a3.33 3.33 0 0 1-.448-1.47c-.066-.928.254-1.829.924-2.593a4.695 4.695 0 0 1 1.136-.887 4.881 4.881 0 0 1 3.555-.388c1.812.503 3.039 1.97 3.039 3.64 0 .957-.384 1.833-1.122 2.563-.652.643-1.593 1.08-2.613 1.214-.334.03-.67.037-1.005.02zm7.446-2.05a68.168 68.168 0 0 1-.011-1.75v-1.743h.734c.78 0 .923.01 1.155.076.524.153.809.51.92 1.159.036.217.037.777 0 1.006-.075.465-.219.758-.469.963a1.105 1.105 0 0 1-.421.217c-.239.07-.417.083-1.19.083a12.8 12.8 0 0 1-.718-.01z"/><path fill="#585858" d="M27.11 47.89c-.004-.01-.005-7.845-.002-17.412l.004-17.396h12.432c12.94 0 12.653 0 13.778.06 4.866.27 8.818 1.296 11.939 3.098a15.41 15.41 0 0 1 3.723 2.983 14.56 14.56 0 0 1 2.008 2.854c1.294 2.44 1.94 5.226 1.94 8.376-.001 3.397-.704 6.318-2.113 8.777a14.318 14.318 0 0 1-4.033 4.49c-2.105 1.546-4.784 2.693-7.892 3.379-2.13.468-4.416.729-7.015.793-.946.025-24.758.02-24.768-.003v.002zm24.384-1.627a37.13 37.13 0 0 0 4.834-.364c4.035-.58 7.27-1.838 9.7-3.769.288-.227.86-.738 1.1-.98 1.902-1.916 3.108-4.287 3.637-7.153.335-1.8.402-3.864.19-5.77-.637-5.752-3.859-9.78-9.487-11.867a24.17 24.17 0 0 0-3.011-.88c-1.853-.414-3.654-.632-6.147-.745-.555-.026-23.295-.036-23.33-.011-.02.014-.022 2.37-.022 15.767 0 12.23.004 15.755.02 15.77.026.021 21.258.024 22.516.002zm-19.592-2.587c-.003-.01-.006-2.466-.003-5.457l.004-5.438h6.955v10.907l-3.473.003c-2.77.003-3.476 0-3.482-.015h-.001zm3.066-12.61c-1.508-.137-2.799-.919-3.466-2.1a3.33 3.33 0 0 1-.448-1.47c-.066-.928.254-1.829.924-2.593a4.695 4.695 0 0 1 1.136-.887 4.881 4.881 0 0 1 3.555-.388c1.812.503 3.039 1.97 3.039 3.64 0 .957-.384 1.833-1.122 2.563-.652.643-1.593 1.08-2.613 1.214-.334.03-.67.037-1.005.02z"/><path fill="#000" d="M27.13 47.876c-.006-.012-.008-7.84-.005-17.398l.004-17.382h12.38c12.89 0 12.643 0 13.787.061 4.387.24 8.095 1.113 11.026 2.595 1.373.694 2.501 1.457 3.57 2.415a13.998 13.998 0 0 1 2.9 3.587c1.134 1.998 1.821 4.301 2.044 6.856.096 1.095.102 2.427.017 3.528-.352 4.564-2.065 8.17-5.136 10.815-1.265 1.09-2.674 1.961-4.358 2.698-1.416.616-2.76 1.047-4.43 1.419-2.2.49-4.42.74-7.135.807-.36.01-5.323.015-12.626.015-9.61 0-12.033-.003-12.04-.017l.001.001zm24.586-1.598c4.931-.113 8.876-.97 11.969-2.602 4.902-2.587 7.409-7.058 7.409-13.221 0-2.962-.582-5.5-1.762-7.687-1.047-1.94-2.584-3.557-4.582-4.824-1.45-.919-3.238-1.683-5.158-2.202-2.312-.625-4.825-.96-7.78-1.036-.918-.022-22.824-.02-22.851.005-.029.026-.029 31.538 0 31.564.026.023 21.755.026 22.755.003zM31.91 38.234V32.79l3.465.004 3.464.003v10.876l-3.464.004-3.465.005v-5.448zm3.08-7.183a4.763 4.763 0 0 1-2.34-.84 3.766 3.766 0 0 1-1.54-2.37 4.922 4.922 0 0 1 0-1.147 3.661 3.661 0 0 1 1.215-2.106c1.086-.957 2.65-1.33 4.142-.992 1.596.362 2.827 1.517 3.143 2.948.177.812.05 1.663-.36 2.385-.21.392-.492.738-.83 1.021a3.935 3.935 0 0 1-1.143.724c-.417.179-.82.29-1.265.35a6.44 6.44 0 0 1-1.02.027h-.002z"/></g></g></svg>