<?xml version="1.0" encoding="utf-8"?>
<!-- Generator: Adobe Illustrator 24.2.3, SVG Export Plug-In . SVG Version: 6.00 Build 0)  -->
<svg version="1.1" id="Layer_1" xmlns="http://www.w3.org/2000/svg" xmlns:xlink="http://www.w3.org/1999/xlink" x="0px" y="0px"
	 viewBox="0 0 600 600" style="enable-background:new 0 0 600 600;" xml:space="preserve">
<style type="text/css">
	.st0{display:none;}
	.st1{display:inline;fill:none;stroke:#1D1D1B;stroke-miterlimit:10;}
	.st2{display:inline;}
	.st3{fill:none;stroke:#DEAB5B;stroke-width:2;stroke-linecap:round;stroke-linejoin:round;stroke-miterlimit:10;}
	.st4{fill:#DEAB5B;stroke:#DEAB5B;stroke-width:2;stroke-miterlimit:10;}
</style>
<g id="Capa_1" class="st0">
	<circle class="st1" cx="300" cy="300" r="300"/>
	<g id="surface1" class="st2">
		<path d="M440.7,201.1L403,164.6c-11.4-11-23.5-21-36.3-30l-8.9-6.2c-1.5-1.1-3.3-1.6-5.1-1.6c0-18.8-7.5-36.8-20.6-49.6
			c13.9-3,26.6-10.4,36.4-21.2l-13.2-13.4c-10,10.8-23.8,16.9-38.1,16.8l-19.5-0.2V10.5h-18.4V59l-8.5-0.1
			c-15.9,0-31.1-6.3-42.8-17.6l-12.4,14.2c9.1,8.8,20,15.4,31.8,19.1c-14.7,12.9-23.2,31.9-23.2,52.1c-1.8,0-3.6,0.6-5.1,1.6
			l-6.2,4.4c-14.6,10.3-28.4,21.7-41.3,34.2l-35.4,34.2c-37,35.7-52.6,89.8-40.8,141.1l46.5,203.1c1,4.3,4.7,7.4,8.9,7.4
			c0.3,0,0.6,0,0.9,0c4.6-0.5,8.1-4.4,8.3-9.3l8.4-239.8c0.4-11.7,4.2-23,10.9-32.4c2.1,34.4,7,68.6,14.6,102.1l35,152.7
			c1.2,5.2,6.2,8.4,11.1,7.1c3.3-0.9,6-3.6,6.8-7.1l9.8-42.8L279.5,584c1.2,5.2,6.2,8.4,11.1,7.1c3.3-0.9,6-3.6,6.8-7.1l35-152.7
			c1-4.5,1.8-9.1,2.8-13.6L366.4,555c1.2,5.2,6.2,8.4,11.1,7.1c3.3-0.9,6-3.6,6.8-7.1L413,429.7l4,113.6c0.2,4.8,3.7,8.8,8.3,9.3
			c0.3,0,0.6,0,0.9,0c4.2,0,7.9-3.1,8.9-7.4l46.5-203.1C493.3,290.8,477.7,236.8,440.7,201.1z M287,78.4h3
			c24.7,0.9,44.2,22.2,44.3,48.3v10.2l-10.3,6.7c-19-20.8-50.3-21.4-70-1.4c-0.7,0.7-1.3,1.4-2,2.1l-9.6-6.7v-11
			C242.5,100.5,262.2,79.2,287,78.4z M165,258.5c-9.3,12.8-14.7,28.3-15.2,44.4l-6,169.6L113,337.7c-10.2-44.5,3.3-91.4,35.4-122.3
			l35.4-34.2c12.2-11.8,25.3-22.7,39.2-32.4l1.1-0.8l16.5,11.6L165,258.5z M237.6,482.4l-26-113.7c-9-39.5-14.1-79.8-15.2-120.3
			l38.7-50.7c-11.1,77.8-8,157.1,9.4,233.7l2.4,10.5L237.6,482.4z M288.4,540.5l-26-113.6c-18.9-83-20.5-169.4-4.7-253.1
			c3.4-17.9,20-29.5,37-25.9c12.4,2.6,22.1,12.8,24.6,25.9c15.8,83.8,14.2,170.1-4.7,253.1L288.4,540.5z M401.4,397.8l-26,113.7
			l-26-113.7c-2.1-9.1-4.1-19.4-5.9-30.6c6.9-56.4,6.2-113.5-1.8-169.7l55.5,72.9c7,9.6,11,21.2,11.4,33.3l1.6,44.5
			C407.8,366.1,404.8,382.8,401.4,397.8z M463.7,337.8l-30.9,134.7l-6-169.6c-0.5-16.2-5.9-31.8-15.3-44.5l-75.9-99.6l16.8-10.9
			l4,2.8c12,8.5,23.4,17.9,34.1,28.2l37.8,36.5C460.4,246.3,473.9,293.2,463.7,337.8L463.7,337.8z"/>
	</g>
</g>
<g id="Capa_2">
	<path class="st3" d="M1297.2,61.5"/>
	<g>
		<path class="st4" d="M340.6,144.3c-0.6,0-1.1-0.5-1.1-1.1l-1.1-22.5c0-27-23-48.9-51.3-48.9s-51.3,21.9-51.3,48.8v20.9
			c0,0.6-0.5,1.1-1.1,1.1s-1.1-0.5-1.1-1.1v-20.9c0-28.1,24-51,53.5-51s53.5,22.9,53.5,51l1.1,22.5
			C341.8,143.7,341.3,144.3,340.6,144.3L340.6,144.3z"/>
	</g>
	<g>
		<path class="st4" d="M291.6,71.9c-1.5,0-3,0-4.5-0.1c-28.6-1-50.8-11.2-64.3-19.7c-0.5-0.3-0.7-1-0.4-1.5s1-0.7,1.5-0.4
			c13.3,8.3,35.1,18.3,63.2,19.3C321,70.8,347,58,359.4,50.3c0.5-0.3,1.2-0.2,1.5,0.4c0.3,0.5,0.2,1.2-0.4,1.5
			C348.5,59.7,323.8,71.9,291.6,71.9z"/>
	</g>
	<g>
		<path class="st4" d="M288.3,71.8c-0.6,0-1.1-0.5-1.1-1.1v-60c0-0.6,0.5-1.1,1.1-1.1s1.1,0.5,1.1,1.1v60
			C289.4,71.3,288.9,71.8,288.3,71.8z"/>
	</g>
	<g>
		<path class="st4" d="M290.8,576.3c-0.5,0-0.9-0.3-1-0.7c-27.2-66.5-44.3-136.4-50.7-207.9c-6-67-2.6-134.5,10.2-200.6l0,0
			c1.6-8.2,5.9-15.7,12.1-21.1c6.9-6,14.8-9.3,23.4-9.9c11.8-0.7,23.5,3.9,32,12.7c4.6,4.8,7.8,10.9,9.3,17.6
			c13.8,61.6,19,124.8,15.6,187.7c-4.2,76.1-21,150.6-49.9,221.4C291.7,576,291.3,576.3,290.8,576.3L290.8,576.3z M251.5,167.6
			c-12.7,65.9-16.2,133.2-10.2,199.9c6.3,70.4,23,139.2,49.5,204.7C319,502.4,335.4,429,339.5,354c3.5-62.7-1.8-125.6-15.5-187.1
			c-1.4-6.3-4.5-12.1-8.8-16.6c-8-8.3-19-12.7-30.2-12c-8.1,0.5-15.6,3.6-22.1,9.3C257,152.8,253,159.8,251.5,167.6L251.5,167.6z"/>
	</g>
	<g>
		<path class="st4" d="M151.6,518.9c-0.5,0-1-0.4-1.1-0.9l-42.4-187.4c-1.6-6.9-2.2-14-1.8-21.1c1.4-26.2,4-51.9,19.9-79.2
			c19.6-33.7,55.1-66.5,99.9-92.3c0.8-0.4,1.3-0.8,1.7-1c0.9-0.5,0.9-0.5,14,9.7c6.3,4.9,12.5,9.8,12.5,9.8c0.3,0.2,0.4,0.5,0.4,0.8
			s-0.1,0.6-0.4,0.9c-20.9,19.2-42,43.2-62.8,71.2c-3.2,4.2-6.3,8.6-9.5,13.1c-5.1,7.3-10.2,14.7-14.9,22.3
			c-10,15.7-15.2,33.8-15.1,52.4l0.7,200.6C152.7,518.4,152.3,518.8,151.6,518.9C151.7,518.9,151.6,518.9,151.6,518.9z M228.4,139.3
			c-0.3,0.2-0.7,0.4-1.2,0.7c-44.4,25.6-79.6,58.1-99.1,91.5c-15.6,26.9-18.2,52.3-19.6,78.2c-0.4,6.9,0.2,13.8,1.7,20.5l40.2,177.5
			l-0.7-190.5c-0.1-19,5.3-37.6,15.5-53.6c4.8-7.5,9.8-15.1,15-22.3c3.2-4.5,6.4-8.9,9.5-13.1c20.6-27.7,41.5-51.5,62.2-70.7
			C243.2,150.6,231,141.1,228.4,139.3z"/>
	</g>
	<g>
		<path class="st4" d="M237.1,483.6L237.1,483.6c-0.6,0-1-0.4-1.1-0.9L189.6,229c-0.1-0.6,0.3-1.2,0.9-1.3c0.6-0.1,1.2,0.3,1.3,0.9
			l45.6,249.1l10.3-36.2c0.2-0.6,0.8-0.9,1.4-0.8c0.6,0.2,0.9,0.8,0.8,1.4l-11.7,40.8C238.1,483.3,237.6,483.6,237.1,483.6z"/>
	</g>
	<g>
		<path class="st4" d="M425.6,517.4h-0.1c-0.6-0.1-1-0.5-1-1.1l0.7-200.6c0.1-18.6-5.2-36.7-15.1-52.4c-4.8-7.5-9.8-15-14.9-22.3
			c-3.1-4.4-6.3-8.8-9.5-13.1c-20.8-28-42-52-62.8-71.2c-0.2-0.2-0.4-0.5-0.4-0.9s0.2-0.6,0.4-0.8c0,0,6.2-4.9,12.5-9.8
			c13.2-10.2,13.2-10.2,14-9.7c0.4,0.2,1,0.6,1.7,1c44.8,25.8,80.2,58.5,99.9,92.3c15.9,27.3,18.5,53,19.9,79.2
			c0.4,7.1-0.2,14.2-1.8,21.1l-42.4,187.4C426.6,517,426.1,517.4,425.6,517.4z M325.3,155.9c20.7,19.2,41.6,42.9,62.2,70.7
			c3.2,4.3,6.4,8.7,9.5,13.1c5.2,7.3,10.2,14.8,15,22.3c10.2,16,15.5,34.6,15.5,53.6l-0.7,190.5L467,328.6
			c1.5-6.7,2.1-13.6,1.7-20.5c-1.4-25.9-3.9-51.3-19.6-78.2c-19.5-33.4-54.6-65.9-99.1-91.5c-0.5-0.3-0.9-0.5-1.2-0.7
			C346.3,139.6,334,149.1,325.3,155.9z"/>
	</g>
	<g>
		<path class="st4" d="M340.1,482.1c-0.5,0-1-0.4-1.1-0.9l-10.3-42.5c-0.1-0.6,0.2-1.2,0.8-1.3c0.6-0.2,1.2,0.2,1.3,0.8l9.1,37.4
			L385.4,227c0.1-0.6,0.7-1,1.3-0.9c0.6,0.1,1,0.7,0.9,1.3l-46.5,253.7C341.1,481.7,340.7,482.1,340.1,482.1L340.1,482.1z"/>
	</g>
</g>
</svg>
