<?xml version="1.0" encoding="utf-8"?>
<!-- Generator: Adobe Illustrator 24.2.3, SVG Export Plug-In . SVG Version: 6.00 Build 0)  -->
<svg version="1.1" id="Layer_1" xmlns="http://www.w3.org/2000/svg" xmlns:xlink="http://www.w3.org/1999/xlink" x="0px" y="0px"
	 viewBox="0 0 255.1 255.1" style="enable-background:new 0 0 255.1 255.1;" xml:space="preserve">
<style type="text/css">
	.st0{fill:none;stroke:#DEAB5B;stroke-width:1.5;stroke-miterlimit:2.6131;}
</style>
<g>
	<path class="st0" d="M125.4,112.2c-2.3-4.3-5.4-8.3-8.1-11.1 M112,97c-6.3-3.9-12.1-3.4-14.6,1.1C92.9,105,64.2,160.8,68.5,228
		c2.6-57.4,18.5-88,32.4-127.3c1.6-3.9,6.8-3.3,12.6,0.8 M119.6,106.7c2.1,2.1,4,4.6,5.8,7.5"/>
	<path class="st0" d="M125.2,111.2c-2-2.6-4.2-4.7-6.3-6.2 M114.1,102.8c-3.9-1.1-7.5-0.6-9.8,0.9c-3.6,4.7-26.4,42.3-23,87.7
		c2.1-38.7,14.7-59.5,25.8-86c2.2-1.8,4.8-2.1,7.4-1.2 M119.7,107.1c1.8,1.5,3.7,3.4,5.5,5.7"/>
	<polygon id="XMLID_58_" class="st0" points="129.9,133.5 132.6,71.8 134.9,113.8 133.7,133.7 	"/>
	<path class="st0" d="M138.5,111.6c19.9-23.5,39.5,1.2,47.3,54.5c-3.4-51.8-17.6-69.5-37.6-63.5c-4.3,1.9-7.4,4.1-9.7,6.6
		 M138.3,121.5c1.1,0.7,2,1.9,2.5,3.7c6.1,34.5,10.2,69.1,16.2,103.6c-2.8-34.4-4.1-68.7-11.2-103.1c-2.1-8.1-4.9-8-7.2-8.2"/>
	<path id="XMLID_55_" class="st0" d="M138.6,112.6c13.7-14.8,26.8,5.3,32.2,46.3c-2.5-41.8-12.7-56.1-27.1-51.3
		c-2.1,1-3.8,2.1-5.1,3.4"/>
	<polygon id="XMLID_54_" class="st0" points="124.5,53.8 125.5,134.2 129.9,133.5 	"/>
	<path id="XMLID_53_" class="st0" d="M132.5,72c3.7,49.1,2.9,94.4-0.4,137.8c5.3-44,7.4-88.8,6.1-134.7
		C137.4,70.6,135.1,70.5,132.5,72L132.5,72z"/>
	<polyline id="XMLID_52_" class="st0" points="138.9,106 147.9,26.2 138.3,85 	"/>
	<path class="st0" d="M125.4,120.4l-16.5-39 M108.1,79.5L88.8,33.8l17,46.3 M106.7,82.6l13.8,37.6 M122.9,127.1l2.6,7.1"/>
	<path id="XMLID_47_" class="st0" d="M139.1,110.1c5.7-34.9,27.6-21.6,48,22.3c-14.9-39-29-49.6-41.2-40.7
		C139.7,97.4,139.3,103.2,139.1,110.1L139.1,110.1z"/>
	<path id="XMLID_46_" class="st0" d="M125,100.6c-5.7-34.9-27.3-21.5-47.7,22.4c14.9-39,29-49.6,41.2-40.7
		C124.7,88.1,124.7,93.8,125,100.6L125,100.6z"/>
	<path class="st0" d="M138.3,117.9c5.3-3.6,10.5-6.1,15.7-7.5 M157,109.7c3-0.6,5.9-0.8,8.8-0.7 M170.8,109.4
		c1.4,0.2,2.8,0.5,4.2,0.9 M177.6,111.1c19.3,6.6,35.4,28.6,43.7,61.3c-4.8-40.8-21.2-60.5-45-64 M173.4,108
		c-1.4-0.2-2.7-0.2-4.1-0.2 M164.6,107.9c-3,0.2-5.8,0.5-9,1 M152.9,109.5c-6.4,1.7-11,3.8-14.6,6.1"/>
	<path class="st0" d="M89.2,101.2c2.3-0.5,4.5-0.7,6.8-0.7 M100.9,100.8c2.2,0.3,4.5,0.8,6.6,1.6 M111.2,103.8
		c0.2,0.1,0.5,0.2,0.7,0.3c1.4,0.8,2.6,1.6,3.7,2.5 M116.4,109.3c-2.1-2.3-4.5-4-7.1-5.3 M105.6,102.9c-1.6-0.4-3.4-0.6-5.1-0.6
		 M94.8,102.8c-2.6,0.5-5.3,1.3-8,2.4 M84.7,106.1c-15.5,7-33.5,23.3-50.8,47.1c18.5-30.8,36.3-46.9,52.7-51.4"/>
	<path id="XMLID_31_" class="st0" d="M125.5,122.5C112,93,99,134.9,93.7,219.8c2.5-87,12.7-116.9,27.1-106.8
		c2.1,2.1,3.8,4.5,5.1,7.1"/>
	<polygon id="XMLID_30_" class="st0" points="120.1,32.9 121.1,105.6 125.5,112.6 	"/>
	<path id="XMLID_29_" class="st0" d="M125.7,121.6c-1.1,0.7-2,1.9-2.5,3.7c-6.1,34.5-10.2,69.1-16.2,103.6
		c2.8-34.4,4.1-68.7,11.2-103.1c2.1-8.1,4.9-8,7.2-8.2"/>
	<path id="XMLID_28_" class="st0" d="M139.7,97.4l26.9-58.9c2-5.5,9-5.4,16.5,3.9c-7.7-6.9-12-7.7-13.9-4.6l-30.6,68.3"/>
	<path class="st0" d="M95.6,88.1L58.4,40.2c-3.8-5.5-10.7-5.4-15.3,3.9c5.5-6.9,9.4-7.7,12.5-4.6l38.7,50.4 M95.9,91.9L99,96
		 M101.7,99.4l1.2,1.6 M106.8,106.1l4.8,6.2 M113.6,114.8l5.9,7.6 M120.5,120.1l-5.3-6.7 M113.7,111.3l-5.3-6.8 M106.4,102l-2.9-3.8
		 M100.9,94.9l-3.7-4.8"/>
	<path class="st0" d="M140.5,107.5l13.7-17 M155.6,88.7l17.2-21.5L157,89 M155.6,90.9l-9.1,12.6"/>
	<path id="XMLID_15_" class="st0" d="M93.5,91c-12-5.1-31.3,7.2-49.5,31.8c18-29.5,35-38.2,49.9-32.4"/>
	<path id="XMLID_14_" class="st0" d="M160.1,90.1c12.1-2.5,29.9,9.7,47,32.6c-17.1-28.1-33.4-37.3-47.7-33.1"/>
</g>
</svg>
