<?xml version="1.0" encoding="utf-8"?>
<!-- Generator: Adobe Illustrator 25.2.3, SVG Export Plug-In . SVG Version: 6.00 Build 0)  -->
<svg version="1.1" id="Layer_1" xmlns="http://www.w3.org/2000/svg" xmlns:xlink="http://www.w3.org/1999/xlink" x="0px" y="0px"
	 viewBox="0 0 80 80" style="enable-background:new 0 0 80 80;" xml:space="preserve">
<style type="text/css">
	.st0{fill:#4A3F3C;}
</style>
<g>
	<path class="st0" d="M12.8,38.5c-0.6,0-1.2-0.1-1.8-0.2c-6.5-1.2-10.5-6.2-9.5-11.9c0.9-5.1,5.6-8.7,11.1-8.7c0.4,0,0.8,0,1.1,0.1
		c0,0.3-0.1,0.6-0.1,0.8c-0.1,0.4,0.2,0.7,0.5,0.8h0.1c0.3,0,0.6-0.2,0.7-0.5C15,18.6,15,18.3,15,18c2.8,0.6,5.2,2.1,6.9,4.1
		c0.4-0.2,0.8-0.5,1.2-0.7c-1.9-2.4-4.7-4.2-8.1-4.9c0-0.4,0-0.8-0.1-1.1C16,16,17,16.3,18,16.3c5,0,6.1-7.4,6.2-7.7
		c0-0.2,0-0.4-0.1-0.5C24,8,23.8,7.9,23.6,7.8c0,0-5.9-0.6-8.8,2.3c-0.3,0.3-0.6,0.7-0.8,1.1c-0.6-1.9-1.3-3.3-1.4-3.5
		c-0.2-0.3-0.6-0.5-0.9-0.3c-0.3,0.2-0.5,0.6-0.3,0.9c0,0,2.1,4.2,2.2,8c-0.4,0-0.8-0.1-1.2-0.1C6.2,16.2,1,20.4,0,26.1
		c-1,6.5,3.6,12.3,10.8,13.6c0.7,0.1,1.4,0.2,2.1,0.2C12.8,39.5,12.8,39,12.8,38.5z M16,11c1.8-1.8,5.3-2,6.9-1.9
		c-0.4,1.7-1.6,5.8-4.6,5.8c-1,0-2.1-0.4-3.3-1.2C14.9,12.6,15.3,11.7,16,11z"/>
	<path class="st0" d="M32.6,52.9c0-0.3,0-0.5,0-0.8C32,52,31.3,52,30.7,51.9c-8.9-1.6-14.3-8.5-12.9-16.3
		c1.2-6.9,7.6-11.9,15.1-11.9c0.5,0,1,0,1.6,0.1c0,0.4-0.1,0.8-0.2,1.1c-0.1,0.5,0.2,1,0.7,1.1c0.1,0,0.1,0,0.2,0
		c0.4,0,0.8-0.3,0.9-0.7c0.1-0.4,0.2-0.8,0.2-1.2c4.6,0.9,8.3,3.7,10.6,7.2c0.6-0.3,1.2-0.5,1.8-0.8c-2.5-4.2-6.9-7.4-12.3-8.4
		c0-0.5,0-1-0.1-1.5c1.5,0.8,2.9,1.2,4.2,1.2c6.9,0,8.3-10.2,8.4-10.6c0-0.3,0-0.5-0.2-0.7s-0.4-0.3-0.7-0.4c0,0-8.1-0.8-12,3.2
		c-0.5,0.5-0.8,1-1.1,1.6c-0.9-2.6-1.8-4.6-1.9-4.7c-0.2-0.5-0.8-0.7-1.3-0.4c-0.5,0.2-0.7,0.8-0.4,1.3c0,0.1,2.8,5.7,3.1,10.9
		c-0.5,0-1.1-0.1-1.6-0.1c-8.4,0-15.6,5.7-17,13.5c-1.6,8.8,4.6,16.7,14.5,18.5c0.7,0.1,1.5,0.2,2.3,0.3
		C32.6,53.7,32.6,53.3,32.6,52.9z M37.5,14.6c2.4-2.5,7.2-2.7,9.4-2.7c-0.5,2.4-2.2,7.9-6.3,7.9c-1.3,0-2.8-0.6-4.5-1.7
		C36,16.8,36.5,15.6,37.5,14.6z"/>
	<g>
		<path class="st0" d="M61.4,33.2c0-0.7-0.1-1.3-0.1-2c1.9,1,3.7,1.5,5.4,1.5c8.7,0,10.7-13,10.7-13.5c0-0.3,0-0.7-0.2-0.9
			c-0.2-0.3-0.5-0.4-0.8-0.5c0,0-10.4-1-15.3,4c-0.6,0.6-1,1.3-1.4,2c-1.1-3.4-2.3-5.8-2.4-6c-0.3-0.6-1-0.8-1.6-0.5s-0.8,1-0.5,1.6
			c0,0.1,3.6,7.3,3.9,13.9c-0.7-0.1-1.4-0.1-2-0.1C46.1,32.8,37,40,35.2,50c-2,11.2,5.9,21.3,18.5,23.6c1.6,0.3,3.3,0.4,4.9,0.4
			c10.9,0,19.4-6.4,21.1-16C81.7,46.5,73.5,35.5,61.4,33.2z M62.8,23.6c3.1-3.2,9.2-3.5,12-3.4c-0.7,3-2.8,10.1-8.1,10.1
			c-1.7,0-3.6-0.7-5.8-2.1C60.9,26.3,61.6,24.8,62.8,23.6z M77.3,57.5c-1.5,8.4-9,14.1-18.7,14.1c-1.5,0-3-0.1-4.4-0.4
			c-11.4-2-18.3-10.8-16.5-20.8c1.6-8.8,9.7-15.2,19.3-15.2c0.7,0,1.3,0,2,0.1c0,0.5-0.1,1-0.2,1.4c-0.1,0.7,0.3,1.3,0.9,1.4
			c0.1,0,0.2,0,0.3,0c0.6,0,1.1-0.4,1.2-1c0.1-0.5,0.2-1,0.3-1.6C71.9,37.8,79.1,47.5,77.3,57.5z"/>
		<path class="st0" d="M50.1,43.4c0-0.3-0.1-0.6-0.4-0.8c-0.4-0.4-1.2-0.5-1.7,0c-0.2,0.2-0.3,0.5-0.3,0.8s0.1,0.7,0.3,0.9
			s0.6,0.4,0.9,0.4c0.3,0,0.6-0.1,0.8-0.4C49.9,44.1,50.1,43.7,50.1,43.4z"/>
		<path class="st0" d="M49.9,49.6c-0.2,0.2-0.3,0.5-0.3,0.8s0.1,0.6,0.4,0.9c0.2,0.2,0.5,0.3,0.8,0.3s0.6-0.1,0.9-0.4
			c0.2-0.2,0.3-0.5,0.3-0.8s-0.1-0.6-0.4-0.8C51.2,49.1,50.4,49.1,49.9,49.6z"/>
	</g>
</g>
</svg>
