<?xml version="1.0" encoding="utf-8"?>
<!-- Generator: Adobe Illustrator 25.2.3, SVG Export Plug-In . SVG Version: 6.00 Build 0)  -->
<svg version="1.1" id="Layer_1" xmlns="http://www.w3.org/2000/svg" xmlns:xlink="http://www.w3.org/1999/xlink" x="0px" y="0px"
	 viewBox="0 0 80 80" style="enable-background:new 0 0 80 80;" xml:space="preserve">
<style type="text/css">
	.st0{fill:#4A3F3C;}
</style>
<g>
	<path class="st0" d="M39.6,31c4,1.7,7.6,2.7,10.8,2.7l0,0c4.3,0,7.8-1.5,10.6-4.6c7.8-8.7,6.1-26.8,6-27.6c0-0.5-0.3-0.9-0.7-1.2
		C65.9,0.1,65.5-0.1,65,0C45.1,3.7,38.4,12.3,36.4,19c-3-3-8.2-4.6-15.4-4.6c-4.6,0-8.4,0.7-8.5,0.7c-0.5,0.1-0.9,0.4-1.1,0.7
		c-0.3,0.4-0.3,0.9-0.2,1.3c0.1,0.8,4.6,17.9,16,17.9c2.9,0,6-1.2,9.1-3.5c0.3,2.3,0.8,5.5,1.8,8.9c0.6,1.8,0.7,4.3,0.4,7.3
		c-0.1,0.9,0.6,1.7,1.5,1.8c0.1,0,0.1,0,0.2,0c0.9,0,1.6-0.6,1.7-1.5c0.3-3.5,0.1-6.4-0.5-8.7C40.3,36.2,39.9,33.1,39.6,31z
		 M63.8,3.7c0.2,4.7,0.3,17-5.3,23.2c-2.1,2.3-4.7,3.5-8.1,3.5l0,0c-3,0-6.5-1-10.4-2.8c1.1-2,3.5-5.7,7.1-7
		c6-2.2,11.3-6.6,11.5-6.8c0.7-0.6,0.8-1.6,0.2-2.4c-0.6-0.7-1.7-0.8-2.4-0.2c-0.1,0-5.1,4.2-10.5,6.2c-3,1.1-5.2,3.4-6.9,5.5
		C39.7,17.1,43.9,7.8,63.8,3.7z M14.9,18.1c4.9-0.6,18-1.4,20.7,5.6c0,0.1,0,0.1,0,0.2c0,0.3,0,0.6,0,0.9
		c-4.4-2.1-10.4-2.6-11.3-2.6c-0.9-0.1-1.7,0.6-1.8,1.6c-0.1,0.9,0.6,1.7,1.6,1.8c2.2,0.1,7.9,0.9,10.9,2.8
		c-2.8,2.2-5.5,3.4-7.9,3.4C20.3,31.7,16.3,22.2,14.9,18.1z"/>
	<path class="st0" d="M28.2,52.1c-2-1.5-2.1-1.6-2.8-2.4c-0.8-0.9-2.3-2.6-7.2-7.4c-2.1-2-6-1.2-7,1.3c-0.5,1.4-0.2,2.9,0.9,3.8
		l3.5,4.2c0.3,0.5,0.6,1.2,0.8,1.7C15.8,53,15,52.6,14,51.8c-0.5-0.4-0.9-0.8-5.1-6.9c-0.5-0.7-0.7-1.4-0.7-2.2v-5.9
		c0-2.3-1.8-4-4.1-4c-2.4,0-4.1,1.7-4.1,4v2.4c0,4.5-0.1,7,2.1,10.2c1.6,2.3,2.6,4,3.4,5.3c2.9,4.7,3.3,5,12.7,11c3,1.9,3,3.8,3,7.9
		v1.5c0,2.2,1.9,4,4.1,4h7.2c2.3,0,4.1-1.8,4.1-4v-7.7C36.6,61.7,35.9,55.9,28.2,52.1z M33.3,75.1c0,0.4-0.3,0.7-0.8,0.7h-7.2
		c-0.4,0-0.8-0.3-0.8-0.7v-1.5c0-4.2,0.1-7.9-4.5-10.8c-9-5.7-9-5.8-11.6-9.9c-0.8-1.3-1.9-3.1-3.5-5.4c-1.6-2.3-1.6-4-1.5-8.2v-2.5
		c0-0.5,0.4-0.6,0.8-0.6S5,36.3,5,36.8v5.9c0,1.5,0.4,2.9,1.3,4.1c4.4,6.4,4.8,6.8,5.6,7.5c0,0,0.2,0.2,0.3,0.3
		c1.4,1,3.3,2.3,5.1,2.3c1.1,0,1.7-0.5,2.1-0.8c1.4-1.5,0.3-4.1-0.9-6.3l-3.8-4.5c0,0-0.2-0.2-0.2-0.3c0.1-0.3,1-0.7,1.6-0.1
		c4.9,4.7,6.3,6.3,7,7.2c0.9,1,1.1,1.3,3.6,3.1c6.3,3.1,6.8,7.3,6.8,12.5v7.4H33.3z"/>
	<path class="st0" d="M80,39.2v-2.4c0-2.3-1.8-4-4.1-4c-2.4,0-4.1,1.7-4.1,4v5.9c0,0.8-0.2,1.5-0.7,2.2c-4.2,6.1-4.6,6.5-5.1,7
		c-0.9,0.7-1.7,1.1-2.2,1.3c0.2-0.5,0.4-1.1,0.7-1.6l3.5-4.2c1.2-1.1,1.5-2.6,1-4c-1-2.5-4.8-3.3-7-1.3c-5,4.8-6.4,6.5-7.2,7.4
		c-0.7,0.8-0.8,1-2.5,2.3c-8,4-8.7,9.8-8.7,15.5V75c0,2.2,1.9,4,4.1,4h7.2c2.3,0,4.1-1.8,4.1-4v-1.5c0-4.1-0.1-6,3-7.9
		c9.4-6,9.7-6.3,12.7-11c0.8-1.3,1.8-3,3.4-5.3C80.1,46.2,80,43.7,80,39.2z M75.1,47.5c-1.6,2.4-2.7,4.1-3.5,5.4
		C69,57,69,57.1,60,62.8c-4.6,2.9-4.6,6.6-4.5,10.8v1.5c0,0.4-0.3,0.7-0.8,0.7h-7.2c-0.4,0-0.8-0.3-0.8-0.7v-7.7
		c0-5.2,0.5-9.4,7.1-12.6c2.2-1.6,2.5-1.9,3.4-2.9c0.7-0.9,2.1-2.5,7-7.2c0.2-0.2,0.5-0.3,0.7-0.3c0.4,0,0.7,0.3,0.8,0.4
		c0,0.1-0.2,0.3-0.3,0.5l-3.7,4.4l0,0c-0.3,0.4-0.5,0.9-0.8,1.5c-0.6,1.4-1.4,3.5-0.1,4.9c0.4,0.4,1,0.8,2.1,0.8
		c1.7,0,3.7-1.2,5.1-2.3c0,0,0.3-0.2,0.3-0.3c0.8-0.7,1.2-1.1,5.6-7.5c0.8-1.2,1.3-2.6,1.3-4.1v-5.9c0-1.1,1.6-1.1,1.6,0v2.5
		C76.7,43.4,76.7,45.2,75.1,47.5z"/>
</g>
</svg>
