<?xml version="1.0" encoding="utf-8"?>
<!-- Generator: Adobe Illustrator 25.2.3, SVG Export Plug-In . SVG Version: 6.00 Build 0)  -->
<svg version="1.1" id="Layer_1" xmlns="http://www.w3.org/2000/svg" xmlns:xlink="http://www.w3.org/1999/xlink" x="0px" y="0px"
	 viewBox="0 0 80 80" style="enable-background:new 0 0 80 80;" xml:space="preserve">
<style type="text/css">
	.st0{fill:#4A3F3C;}
</style>
<g>
	<path class="st0" d="M29.7,19.9h20.5c2.5,0,4.1-1.1,4.9-2.1c1.1-1.2,1.6-2.8,1.6-4.4c0-3.2-2.3-6.5-6.6-6.5h-2.4V6.3
		c0-3.5-2.9-6.3-6.6-6.3h-2.5C35,0,32,2.8,32,6.3v0.5h-2.6c-4.3,0-6.5,3.3-6.5,6.5C23.1,16.6,25.4,19.9,29.7,19.9z M29.7,10.2h4.2
		c0.9,0,1.7-0.7,1.7-1.7V6.3c0-1.7,1.4-3,3.2-3h2.5c1.8,0,3.2,1.4,3.2,3v2.2c0,0.9,0.7,1.7,1.7,1.7h4.1c2.4,0,3.2,1.7,3.2,3.2
		c0,0.8-0.3,1.7-0.8,2.2c-0.6,0.6-1.4,1-2.4,1H29.7c-1,0-1.9-0.3-2.4-1c-0.5-0.6-0.8-1.4-0.8-2.2C26.5,12.2,27.1,10.2,29.7,10.2z"/>
	<path class="st0" d="M68.4,9.9h-6.8c-0.9,0-1.7,0.7-1.7,1.7c0,0.9,0.7,1.7,1.7,1.7h5.1v63.4H13.3V13.2h5c0.9,0,1.7-0.7,1.7-1.7
		c0-0.9-0.7-1.7-1.7-1.7h-6.7c-0.9,0-1.7,0.7-1.7,1.7v66.8c0,0.9,0.7,1.7,1.7,1.7h56.8c0.9,0,1.7-0.7,1.7-1.7V11.6
		C70.1,10.7,69.3,9.9,68.4,9.9z"/>
	<path class="st0" d="M54.4,33.8l-20.6,25l-7.2-7.9c-0.6-0.7-1.7-0.7-2.3-0.1c-0.7,0.6-0.7,1.7-0.1,2.3l8.5,9.3
		c0.3,0.3,0.8,0.5,1.2,0.5l0,0c0.5,0,0.9-0.2,1.2-0.6L57,35.9c0.6-0.7,0.5-1.8-0.2-2.3C56,33,55,33.1,54.4,33.8z"/>
	<path class="st0" d="M40,8.9c0.5,0,0.9-0.2,1.2-0.5s0.5-0.7,0.5-1.2c0-0.4-0.2-0.9-0.5-1.2c-0.6-0.6-1.7-0.6-2.4,0
		c-0.3,0.3-0.5,0.7-0.5,1.2c0,0.4,0.2,0.9,0.5,1.2S39.6,8.9,40,8.9z"/>
</g>
</svg>
