<?xml version="1.0" encoding="utf-8"?>
<!-- Generator: Adobe Illustrator 25.2.3, SVG Export Plug-In . SVG Version: 6.00 Build 0)  -->
<svg version="1.1" id="Layer_1" xmlns="http://www.w3.org/2000/svg" xmlns:xlink="http://www.w3.org/1999/xlink" x="0px" y="0px"
	 viewBox="0 0 80 80" style="enable-background:new 0 0 80 80;" xml:space="preserve">
<style type="text/css">
	.st0{fill:#4A3F3C;}
</style>
<g>
	<path class="st0" d="M79.8,25.9C78.7,20.4,75.9,17,69.7,14c-4.9-2.4-10.5-1.7-12.5-1.3c-1.7-1.2-6.4-4.5-12-5.8
		C38.2,5.3,33.1,7,32,7.8c-0.4,0.3-1.6,1.2-1.6,2.7c0,1.6,1.3,3.3,4,5.3c4.5,3.3,9.1,4.2,12.4,4.9c0.5,0.1,1,0.2,1.4,0.3
		c1.8,0.4,2.2,0.9,2.9,1.9c0.3,0.4,0.6,0.9,1.1,1.3c0.4,0.4,0.5,0.6,0.6,0.7c0,0-0.1,0.1-0.2,0.2c-0.7,0.6-2.3,1.2-4,1.5
		c-1,0.2-8.5,0-12.5-0.1c-2.3-0.1-4.4-0.1-5.3-0.1c-4.4,0-8.4,1.1-12.1,3.2c-4.5,2.6-7.8,7.1-9.2,10.2c-0.5,0.9-3,6.7-2.2,13.5H7.2
		c-3.8,0-6.9,3.1-6.9,6.9c0,3.8,3.1,6.9,6.9,6.9c2.1,0,4-0.9,5.3-2.4c7.1,8.3,16.2,8.9,16.6,9h27L55,69.9c-0.3-1-1.1-2.6-3-4.1
		c0.9-1,2.3-2.6,3.3-5c0.6-1.4,1.2-2.8,1.6-4c2.8,5.6,6,12.1,6.4,13c0.8,1.7,1.8,2.3,2.6,2.5c0.3,0.1,0.6,0.1,0.9,0.1
		c0.6,0,1.3-0.2,1.8-0.6c1.6-1.1,1.4-3.7,1.1-7.3V64c-0.2-2.3-1-9-1.4-11.7c1-0.7,2.3-2,3.3-4.3c1.2-2.9,1.1-9.3,1-12.1
		c1.3-0.3,2.2-0.8,2.7-1c0.1-0.1,0.2-0.1,0.3-0.1C79,33.4,80.6,30,79.8,25.9z M7.2,64c-2.1,0-3.7-1.7-3.7-3.7s1.7-3.7,3.7-3.7
		c0.3,0,0.5,0,0.8,0.1c0.5,1.8,1.3,3.6,2.5,5.5C9.8,63.2,8.6,64,7.2,64z M74.3,31.9c-0.2,0.1-0.4,0.2-0.5,0.3
		c-0.8,0.4-2.2,1.2-5.4,0.9c-3.7-0.3-7.2-2.9-7.2-2.9c-0.7-0.5-1.7-0.4-2.3,0.3c-0.5,0.7-0.4,1.7,0.3,2.3c0.2,0.1,4.2,3.2,8.9,3.6
		c0.4,0,0.9,0.1,1.3,0.1c0.1,3.1,0.1,8.5-0.8,10.5c-1,2.3-2.5,3-2.6,3l-1.2,0.4l0.2,1.3c0,0.1,1.3,9.8,1.5,12.6v0.5
		c0.1,1.3,0.3,3.4,0.1,4.3c-0.1-0.1-0.3-0.3-0.4-0.7c-0.8-1.8-10.4-20.9-10.8-21.8c-0.4-0.8-1.4-1.1-2.2-0.7
		c-0.8,0.4-1.1,1.4-0.7,2.2c0,0.1,1,2,2.3,4.6c-0.4,1.2-1.4,4-2.6,6.7c-1.2,2.6-2.7,4.2-3.3,4.7c-0.8-0.4-1.8-0.7-2.8-1
		c-5.3-1.4-9.7-2-9.9-2.1c-0.9-0.1-1.7,0.5-1.8,1.4s0.5,1.7,1.4,1.8c0,0,4.4,0.6,9.4,2c4.6,1.3,6,3.2,6.4,4.2H29.2
		c-0.6-0.1-8.9-0.9-15.1-8.8c-6.9-8.9-2.3-19.4-1.8-20.6c1.3-2.9,4.3-6.7,7.9-8.7c3.3-1.9,6.7-2.8,10.5-2.8c0.9,0,2.9,0,5.2,0.1
		C44,29.9,48,30,49.1,29.8c1.4-0.2,3.9-0.8,5.5-2.1c0.9-0.7,1.4-1.6,1.4-2.5c0.1-1-0.4-2.1-1.5-3.1c-0.3-0.3-0.5-0.6-0.7-0.9
		C53,20.1,52,18.7,49,18.1c-0.5-0.1-1-0.2-1.5-0.3c-3.2-0.6-7.2-1.4-11.1-4.3c-2.2-1.6-2.6-2.4-2.7-2.7c0.1-0.1,0.2-0.1,0.2-0.2
		c0.5-0.3,4.7-1.7,10.7-0.3s11.2,5.6,11.3,5.6l0.6,0.5l0.8-0.2c0.1,0,6.3-1.4,11.1,0.9c5.3,2.6,7.4,5.1,8.3,9.6
		C77.3,29.9,75.7,31.3,74.3,31.9z"/>
</g>
</svg>
