<?xml version="1.0" encoding="utf-8"?>
<!-- Generator: Adobe Illustrator 25.2.3, SVG Export Plug-In . SVG Version: 6.00 Build 0)  -->
<svg version="1.1" id="Layer_1" xmlns="http://www.w3.org/2000/svg" xmlns:xlink="http://www.w3.org/1999/xlink" x="0px" y="0px"
	 viewBox="0 0 80 80" style="enable-background:new 0 0 80 80;" xml:space="preserve">
<style type="text/css">
	.st0{fill:#4A3F3C;}
</style>
<g>
	<path class="st0" d="M52.4,57.7c-0.8-0.4-1.9-0.1-2.3,0.7c-1.4,2.5-2.9,4.6-3.9,5.6c-0.2-0.7-0.3-1.8-0.3-2.7
		c0.2-10.9-4.2-14-4.9-14.5c-0.2-0.1-5.3-2.1-7.7-2.6c-0.1-0.1-0.2-0.4,0-1c0.2-0.8,0.6-1.4,1.2-1.7c0.5-0.2,0.7-0.2,1.1-0.1
		c0.5,0.1,1.4,0.2,2.1-0.6c0.9-0.8,0.8-2.1,0.6-4.1c-0.2-1.7-0.7-3-1.8-3.8c-1.6-1.3-3.6-1.1-5.1-0.9c-0.4,0-0.7,0.1-1,0.1
		c-2.9,0-3.6,2-4.4,6c-0.1-1-0.2-2.2-0.3-3.4c0-0.8-0.6-1.4-1.3-1.6c-0.7-0.2-1.5,0.2-1.9,0.8l-2.1,3.7c0,0-0.4,0.8-2.6,1.5
		c0-1,0.6-3,1.3-4.7c0.4-0.9,0-1.9-0.9-2.2c-0.9-0.4-1.9,0-2.2,0.9c-1.1,2.4-2.6,6.8-0.7,8.7c0.5,0.5,1.6,1.3,3.7,0.6
		s3.3-1.6,3.9-2.3c0.2,0.7,0.3,1,0.4,1.1c0.2,0.4,1.5,2.5,3.4,2.2c0.8-0.1,1.9-0.7,2.3-2.8l0.2-0.9c0.4-2.1,0.9-4,1.3-4.3
		c0.4,0,0.9-0.1,1.4-0.1c0.9-0.1,2.1-0.2,2.5,0.1c0.3,0.2,0.5,0.8,0.5,1.5c0,0.4,0.1,0.6,0.1,0.9c-0.5,0-1.2,0.1-2,0.5
		c-2.4,1.1-3.4,3.9-3.2,5.8c0.2,1.7,1.2,2.9,2.7,3.2c1.7,0.4,5.4,1.8,6.9,2.4c0.5,0.5,3.2,3.3,3,11.4c0,1.9,0.4,5.4,2.3,6.4
		c0.4,0.2,0.8,0.3,1.2,0.3c0.5,0,1.1-0.2,1.6-0.5c1.7-1.1,4.1-4.6,5.6-7.4C53.5,59.2,53.2,58.2,52.4,57.7z"/>
	<path class="st0" d="M74,18.7C74,8.4,65.6,0,55.3,0S36.6,8.4,36.6,18.7c0,0.5,0.1,1,0.1,1.5c-0.3,0-0.6,0-0.9,0
		C19.4,20.2,6,33.6,6,50.1S19.4,80,35.8,80c16.5,0,29.9-13.4,29.9-29.9c0-2.6-0.4-5.3-1.2-8C69.1,34,74,24.1,74,18.7z M55.3,3.4
		c8.5,0,15.3,6.9,15.3,15.3c0,4.5-4.7,14-9.3,22.2c0,0.1-0.1,0.1-0.1,0.2c-2.1,3.7-4.2,7.2-5.9,9.8C50,42.5,40,25.4,40,18.7
		C40,10.3,46.8,3.4,55.3,3.4z M62.3,50.1c0,14.6-11.9,26.5-26.5,26.5S9.3,64.7,9.3,50.1s11.9-26.5,26.5-26.5c0.6,0,1.1,0,1.6,0.1
		C41,35.2,53.3,54,53.9,55c0.3,0.5,0.9,0.8,1.4,0.8c0.6,0,1.1-0.3,1.4-0.8c0.3-0.4,2.5-3.8,5.3-8.5C62.2,47.7,62.3,48.9,62.3,50.1z"
		/>
	<path class="st0" d="M63.1,17.4c0-4.3-3.5-7.8-7.8-7.8s-7.8,3.5-7.8,7.8s3.5,7.8,7.8,7.8S63.1,21.7,63.1,17.4z M50.9,17.4
		c0-2.4,2-4.4,4.4-4.4s4.4,2,4.4,4.4s-2,4.4-4.4,4.4S50.9,19.8,50.9,17.4z"/>
</g>
</svg>
