<?xml version="1.0" encoding="utf-8"?>
<!-- Generator: Adobe Illustrator 25.2.3, SVG Export Plug-In . SVG Version: 6.00 Build 0)  -->
<svg version="1.1" id="Layer_1" xmlns="http://www.w3.org/2000/svg" xmlns:xlink="http://www.w3.org/1999/xlink" x="0px" y="0px"
	 viewBox="0 0 80 80" style="enable-background:new 0 0 80 80;" xml:space="preserve">
<style type="text/css">
	.st0{fill:#4A3F3C;}
</style>
<g>
	<path class="st0" d="M77.5,58.2c-1.7-1.2-3.8-1.4-5.9-0.4l-13.1,5.9c-0.7-0.8-1.6-1.4-2.9-1.8L37,56.5c-8.4-2.4-22.9,0-29.9,1.2
		L4.9,58c-2.5,0.4-4.4,2.2-4.9,4.7c-0.3,1.4,0.4,3.9,1.6,8.1L2,71.9c0.9,3,4,4.9,7.1,4.1c1.5-0.4,2.9-0.8,4.2-1.1
		c4.5-1.2,8.7-2.4,10.5-1.6c7.9,3.5,15.4,5.2,22.9,5.2c7.6,0,8.1-0.2,20.2-5.8c2.6-1.2,5.7-2.6,9.6-4.4c2-0.9,3.2-2.6,3.4-4.6
		C80.2,61.6,79.2,59.5,77.5,58.2z M75.2,65.3c-3.9,1.7-7,3.2-9.6,4.4c-11.9,5.5-11.9,5.5-18.8,5.5c-7,0-14.1-1.6-21.6-4.9
		c-0.9-0.4-1.9-0.6-3-0.6c-2.6,0-5.9,0.9-9.7,1.9c-1.3,0.4-2.7,0.7-4.2,1.1C7,73,5.6,72.3,5.3,71L5,69.9c-0.4-1.4-1.7-5.6-1.5-6.5
		c0.2-1,1-1.8,2.1-2L7.5,61c6.7-1.1,20.8-3.5,28.4-1.3l18.6,5.4c0.7,0.2,1.2,0.6,1.5,1.1c0,0.1,0.1,0.2,0.1,0.3
		c0,0.1,0.1,0.1,0.1,0.2c0.1,0.5,0.1,1,0,1.4c-0.3,1.1-1.3,2.2-3.1,1.7l-19.6-5.7c-0.9-0.3-1.8,0.3-2.1,1.2
		c-0.3,0.9,0.3,1.8,1.2,2.1l19.6,5.7c3.7,1.1,6.5-1.2,7.3-4c0.2-0.7,0.3-1.5,0.2-2.3l13.2-6c1-0.4,1.8-0.4,2.5,0.1
		c0.8,0.5,1.2,1.5,1.1,2.5C76.5,64.3,76,64.9,75.2,65.3z"/>
	<path class="st0" d="M51.8,51.1c13.7,0,24.8-11.1,24.8-24.8S65.5,1.5,51.8,1.5S27,12.6,27,26.3S38.1,51.1,51.8,51.1z M51.8,4.9
		c11.8,0,21.4,9.6,21.4,21.4s-9.6,21.4-21.4,21.4s-21.4-9.6-21.4-21.4S40,4.9,51.8,4.9z"/>
	<path class="st0" d="M38.7,20.7c1.3-0.5,2.2-1,2.7-1.5c0.1,0.2,0.1,0.3,0.2,0.3c0.6,1,1.7,2.1,3,1.9c0.7-0.1,1.7-0.6,2.1-2.4
		l0.1-0.7c0.3-1.5,0.6-2.9,0.7-3.1c0.3,0,0.7,0,1.1-0.1c0.5-0.1,1.5-0.2,1.7,0c0.1,0.1,0.2,0.4,0.3,0.9c0,0.1,0,0.2,0,0.3
		c-0.4,0-0.8,0.2-1.3,0.4c-2,1-2.9,3.2-2.7,4.9c0.2,1.5,1.1,2.5,2.4,2.8c1.2,0.3,3.9,1.3,5.2,1.8l1.5,1.6c0.9,3.4,0.9,3.6,0.8,6v1
		c0,2,0.4,4.5,2,5.3c0.3,0.2,0.7,0.3,1.1,0.3c0.5,0,1-0.2,1.4-0.5c2-1.3,7.7-9.6,6.3-13.6c-0.2-0.6-0.5-1.4-0.6-1.8
		c0.1-0.1,0.3-0.2,0.6-0.3c2.7-1.5,4.1-3.2,4-5.2c-0.1-0.9-0.9-1.7-1.8-1.6s-1.7,0.9-1.6,1.8c0,0.3-0.4,1.1-2.2,2
		c-3.1,1.7-2.5,3.4-1.6,6.2c0.5,1.4-2.3,6.5-4.1,8.7c-0.1-0.4-0.1-1-0.1-1.4v-1c0-2.7,0-3.2-1.1-7.3c-0.1-0.3-0.2-0.5-0.4-0.7
		l-2-2.2c-0.2-0.2-0.4-0.3-0.6-0.4c-0.4-0.2-4.2-1.7-5.8-1.9c-0.1-0.3,0.1-1.3,0.7-1.6c0.3-0.1,0.4-0.1,0.7-0.1
		c0.4,0,1.2,0.1,1.9-0.5c0.8-0.8,0.7-1.8,0.6-3.5c-0.1-1.4-0.6-2.5-1.5-3.2c-1.4-1.1-3.1-0.9-4.2-0.8c-0.3,0-0.5,0.1-0.7,0.1
		c-1.9,0-2.7,1-3.3,2.9c0-0.2,0-0.3,0-0.4c0-0.7-0.6-1.4-1.3-1.5c-0.7-0.2-1.5,0.2-1.9,0.8l-1.6,2.9c0,0-0.2,0.3-1.3,0.8
		c0.1-0.8,0.5-2,0.9-3c0.4-0.9,0-1.9-0.9-2.2c-0.9-0.4-1.9,0-2.2,0.9c-1,2.4-2,5.6-0.5,7.2C35.9,20.6,36.9,21.3,38.7,20.7z"/>
	<path class="st0" d="M40,31.4c0.1,0,0.2,0.1,0.4,0.1c-1.1,1.1-2,2.4-3.6,7.2c-0.3,0.9,0.2,1.8,1.1,2.2C38,41,38.2,41,38.4,41
		c0.7,0,1.4-0.4,1.6-1.1c1.7-5,2.2-5.5,3.2-6.3l0.5-0.5c0.9-0.8,0.9-1.7,0.8-2.2c-0.3-1.5-1.8-2.1-3.4-2.7c-0.5-0.2-1.4-0.5-1.6-0.7
		c-0.8-0.8-1.4-1.1-1.9-1.4c-0.3-0.2-0.7-0.4-1.1-0.8c-0.6-0.5-1.4-0.6-2.1-0.3c-0.6,0.2-1.9,0.8-2.4,6.6c-0.1,0.9,0.6,1.8,1.5,1.8
		c1,0.1,1.8-0.6,1.8-1.5c0.1-1.1,0.3-2.2,0.4-3c0,0,0,0,0.1,0c0.5,0.3,0.8,0.5,1.2,0.9C37.9,30.6,38.9,31,40,31.4z"/>
</g>
</svg>
