<?xml version="1.0" encoding="utf-8"?>
<!-- Generator: Adobe Illustrator 24.2.3, SVG Export Plug-In . SVG Version: 6.00 Build 0)  -->
<svg version="1.1" id="Layer_1" xmlns="http://www.w3.org/2000/svg" xmlns:xlink="http://www.w3.org/1999/xlink" x="0px" y="0px"
	 viewBox="0 0 600 600" style="enable-background:new 0 0 600 600;" xml:space="preserve">
<style type="text/css">
	.st0{display:none;}
	.st1{display:inline;fill:none;stroke:#1D1D1B;stroke-miterlimit:10;}
	.st2{display:inline;}
	.st3{fill:none;stroke:#DEAB5B;stroke-width:4;stroke-linecap:round;stroke-linejoin:round;stroke-miterlimit:10;}
	.st4{fill:#DEAB5B;stroke:#DEAB5B;stroke-width:4;stroke-miterlimit:10;}
</style>
<g id="Capa_1" class="st0">
	<circle class="st1" cx="300" cy="300" r="300"/>
	<path class="st2" d="M63.2,313c0.6,0.1,1.3,0.2,1.9,0.2c4.7,0,8.9-3.3,9.8-8.1v-0.2c1-5.4-2.5-10.7-7.9-11.7s-10.7,2.5-11.7,7.9
		v0.2C54.3,306.7,57.8,311.9,63.2,313z"/>
	<path class="st2" d="M322.6,223.3c-16.3-13.5-35.8-23.5-56.3-28.8c-5.3-1.4-10.8,1.8-12.2,7.2c-1.4,5.3,1.8,10.8,7.2,12.2
		c17.7,4.6,34.5,13.1,48.5,24.8c1.9,1.6,4.1,2.3,6.4,2.3c2.9,0,5.7-1.2,7.7-3.6C327.4,233.2,326.9,226.8,322.6,223.3z"/>
	<path class="st2" d="M334.8,259.8c2.2,0,4.3-0.7,6.2-2.1c4.3-3.4,5.1-9.7,1.7-14l-0.3-0.3c-3.5-4.3-9.8-4.9-14.1-1.4
		c-4.3,3.5-4.9,9.8-1.4,14.1C328.9,258.5,331.9,259.8,334.8,259.8z"/>
	<path class="st2" d="M205.8,323.8l0.1-0.2c1.4-5.3-1.8-10.8-7.1-12.2s-10.8,1.8-12.2,7.1l-0.1,0.2c-1.4,5.3,1.8,10.8,7.1,12.2
		c0.9,0.2,1.7,0.3,2.6,0.3C200.5,331.2,204.6,328.3,205.8,323.8z"/>
	<path class="st2" d="M124.4,358.9c0.9,0.2,1.7,0.3,2.6,0.3c4.4,0,8.5-2.9,9.7-7.4l0.1-0.2c1.4-5.3-1.7-10.8-7.1-12.3
		c-5.3-1.4-10.8,1.7-12.3,7.1l-0.1,0.2C115.9,352,119.1,357.5,124.4,358.9z"/>
	<path class="st2" d="M179.2,383c-5.3-1.4-10.8,1.8-12.2,7.1l-0.1,0.2c-1.4,5.3,1.8,10.8,7.1,12.2c0.9,0.2,1.7,0.3,2.6,0.3
		c4.4,0,8.5-3,9.7-7.4l0.1-0.2C187.7,389.9,184.5,384.4,179.2,383z"/>
	<path class="st2" d="M190.4,448.4c-5.3-1.4-10.8,1.7-12.3,7.1l-0.1,0.2c-1.4,5.3,1.7,10.8,7.1,12.3c0.9,0.2,1.7,0.3,2.6,0.3
		c4.4,0,8.5-2.9,9.7-7.4l0.1-0.2C198.9,455.3,195.8,449.8,190.4,448.4z"/>
	<path class="st2" d="M426,236.5c-15,0-29.4,2.4-42.9,6.8c-28.1-47-75.8-78.1-129.4-85.2c-4.3-14.8-5.2-30.6-1.9-40.1
		c6.4-18.5-1.4-29.9-10-34c-11.6-5.6-25.9-0.2-34.1,12.8c-2.6,4.1-4.6,8.1-6.1,12.3c-9.7-10.4-22.3-18.2-36.4-21.9
		c-24.1-6.4-49.9-0.8-69.1,15.1c-3.1,2.6-4.4,6.8-3.2,10.6c3.9,12.7,16.7,25.2,34.3,33.3c13.8,6.4,28.8,9.6,43.8,9.6
		c9.6,0,19.2-1.3,28.5-3.9c0.3,2,0.6,4.1,0.9,6.2c0,0.3,0.1,0.6,0.2,0.8c-26,4.4-50.6,14.4-72.5,29.8C97.9,210,75.3,239.4,62.8,274
		c-1.9,5.2,0.8,10.9,6,12.8c1.1,0.4,2.3,0.6,3.4,0.6c4.1,0,7.9-2.5,9.4-6.6c22.6-62.3,82.3-104.2,148.6-104.2
		c54.9,0,105.4,28.3,134.2,74.5c-45.3,22.7-76.5,69.6-76.5,123.6c0,34.1,12.4,65.4,33,89.5c-26.6,18.7-57.8,28.6-90.7,28.6
		c-85.1,0-156-69.2-158.1-154.2c-0.1-5.5-4.8-9.9-10.2-9.8c-5.5,0.1-9.9,4.7-9.8,10.2c1.1,46.7,20.1,90.3,53.5,123
		c33.5,32.7,77.7,50.7,124.5,50.7c37.7,0,74.6-12.1,104.9-34.2c24.3,21.3,56.1,34.2,90.9,34.2c46.2,0,89.1-22.9,114.8-61.3
		c3.1-4.6,1.8-10.8-2.8-13.9s-10.8-1.8-13.9,2.8c-22,32.9-58.7,52.5-98.2,52.5c-65.1,0-118.1-53-118.1-118.1s53-118.1,118.1-118.1
		s118.1,53,118.1,118.1c0,2.9-0.1,5.9-0.3,8.9c-0.4,5.5,3.7,10.3,9.2,10.7c5.5,0.4,10.3-3.7,10.7-9.2c0.3-3.4,0.4-6.9,0.4-10.4
		C564.2,298.5,502.2,236.5,426,236.5z M135.6,128.2c-10.1-4.7-16.6-10.3-20.3-15.1c13.3-8.2,29.5-10.7,44.7-6.6
		c14.5,3.9,26.8,13.4,34.4,26.1C167.4,140.5,144.7,132.4,135.6,128.2z M220.2,156.9c0-0.6,0-1.1-0.1-1.7c-1.1-6.7-1.7-12.4-2-17.2
		c0-0.1,0-0.2,0-0.4c-0.8-14.8,1.7-22.3,6.6-30.1c3.2-5.1,7.2-6.1,8.5-5.4c0.9,0.4,1.7,3.7-0.3,9.5c-4.7,13.5-3.5,30.7-0.2,45.1
		c-0.8,0-1.7,0-2.5,0C226.9,156.6,223.5,156.7,220.2,156.9z"/>
	<path class="st2" d="M501,299.7c-0.3-0.3-0.5-0.5-0.8-0.7c-19.1-18.7-45.3-30.3-74.1-30.3c-28.8,0-55,11.6-74.1,30.3
		c-0.3,0.2-0.6,0.5-0.8,0.7s-0.5,0.5-0.7,0.8c-18.7,19.1-30.3,45.3-30.3,74.1c0,28.8,11.6,55,30.3,74.1c0.2,0.3,0.5,0.6,0.7,0.8
		s0.5,0.5,0.8,0.7c19.1,18.7,45.3,30.3,74.1,30.3c28.8,0,55-11.6,74.1-30.3c0.3-0.2,0.6-0.5,0.8-0.7s0.5-0.5,0.7-0.8
		c18.7-19.1,30.3-45.3,30.3-74.1s-11.6-55-30.3-74.1C501.5,300.2,501.3,300,501,299.7z M493.5,427.9l-41.4-41.4
		c0.3-0.6,0.6-1.3,0.8-1.9h58.5C509.5,400.9,503.1,415.7,493.5,427.9z M340.6,384.7h58.5c0.2,0.7,0.5,1.3,0.8,1.9L358.5,428
		C349,415.7,342.5,400.9,340.6,384.7z M358.6,321.4l41.4,41.4c-0.3,0.6-0.6,1.3-0.8,1.9h-58.5C342.5,348.4,349,333.6,358.6,321.4z
		 M417.4,374.7c0-4.8,3.9-8.7,8.7-8.7l0,0l0,0c4.8,0,8.7,3.9,8.7,8.7s-3.9,8.7-8.7,8.7C421.3,383.3,417.4,379.4,417.4,374.7z
		 M438,348.6c-0.6-0.3-1.3-0.6-1.9-0.8v-58.5c16.2,1.9,31.1,8.3,43.3,18L438,348.6z M416,347.8c-0.7,0.2-1.3,0.5-1.9,0.8l-41.4-41.4
		c12.2-9.7,27.1-16.1,43.3-18V347.8z M414.1,400.7c0.6,0.3,1.3,0.6,1.9,0.8V460c-16.2-1.9-31.1-8.3-43.3-18L414.1,400.7z M436,401.5
		c0.7-0.2,1.3-0.5,1.9-0.8l41.4,41.4c-12.2,9.7-27.1,16.1-43.3,18V401.5z M452.9,364.6c-0.2-0.7-0.5-1.3-0.8-1.9l41.4-41.4
		c9.7,12.2,16.1,27.1,18,43.3H452.9L452.9,364.6z"/>
	<path class="st2" d="M549.2,410.9c-5.2-1.9-10.9,0.8-12.9,5.9c-2,5.2,0.6,10.9,5.8,12.9c1.2,0.4,2.4,0.7,3.6,0.7
		c4,0,7.8-2.5,9.4-6.4l0.1-0.2C557.1,418.6,554.4,412.8,549.2,410.9z"/>
</g>
<g id="Capa_2">
	<circle class="st3" cx="424.2" cy="375.8" r="93.7"/>
	<circle class="st3" cx="426.7" cy="374.2" r="117.8"/>
	<circle class="st3" cx="425.6" cy="374.4" r="8.4"/>
	<path class="st3" d="M424.2,282.1c0.5,2,1.4,83.9,1.4,83.9"/>
	<line class="st3" x1="491.2" y1="311.1" x2="432.3" y2="369.6"/>
	<line class="st3" x1="517.8" y1="374.4" x2="434.1" y2="374.4"/>
	<line class="st3" x1="417.2" y1="374.4" x2="330.5" y2="375.8"/>
	<line class="st3" x1="419" y1="367.3" x2="359.2" y2="309.3"/>
	<path class="st3" d="M418.5,380.2c-1.3,0.9-61.6,60.7-61.6,60.7"/>
	<line class="st3" x1="425.6" y1="382.8" x2="425.6" y2="469.2"/>
	<line class="st3" x1="432.3" y1="379.3" x2="492.1" y2="439.5"/>
	<path class="st3" d="M347.4,461.4c-30.2,27.3-70.3,43.8-114.2,43.8c-94.2,0-170.6-76.4-170.6-170.6S138.9,164,233.2,164
		c68.8,0,128.1,40.7,155.1,99.4"/>
	<path class="st3" d="M333.7,250.9c0,0-4-50.2-73.3-49.8"/>
	<g>
		<path class="st4" d="M126.6,347.5c-0.1,0-0.3,0-0.4,0c-0.3,0-0.7,0.1-1,0.2s-0.6,0.3-0.8,0.5c-0.2,0.2-0.4,0.5-0.5,0.8
			c-0.2,0.3-0.2,0.6-0.2,1c0,0.2,0.1,0.4,0.1,0.7c0.1,0.4,0.3,0.8,0.6,1.1c0.2,0.1,0.3,0.3,0.5,0.4c0.4,0.2,0.8,0.3,1.3,0.3
			c0.1,0,0.3,0,0.4,0c0.3,0,0.7-0.1,1-0.2s0.6-0.3,0.8-0.5s0.4-0.5,0.5-0.8c0.2-0.3,0.2-0.6,0.2-1c0-0.2-0.1-0.4-0.1-0.7
			c-0.1-0.4-0.3-0.8-0.6-1.1c-0.2-0.1-0.3-0.3-0.5-0.4C127.5,347.6,127,347.5,126.6,347.5L126.6,347.5z"/>
	</g>
	<g>
		<path class="st4" d="M197.7,320.5c3.2,0,3.2-5,0-5S194.5,320.5,197.7,320.5L197.7,320.5z"/>
	</g>
	<g>
		<path class="st4" d="M175,397.8c3.2,0,3.2-5,0-5S171.8,397.8,175,397.8L175,397.8z"/>
	</g>
	<g>
		<path class="st4" d="M183.9,456.6c-0.1,0.1-0.3,0.3-0.4,0.4c-0.2,0.2-0.4,0.5-0.5,0.8c-0.2,0.3-0.2,0.6-0.2,1c0,0.3,0.1,0.7,0.2,1
			c0.1,0.3,0.3,0.6,0.5,0.8c0.2,0.1,0.3,0.3,0.5,0.4c0.4,0.2,0.8,0.3,1.3,0.3c0.2,0,0.4-0.1,0.7-0.1c0.4-0.1,0.8-0.3,1.1-0.6
			c0.1-0.1,0.3-0.3,0.4-0.4c0.2-0.2,0.4-0.5,0.5-0.8c0.2-0.3,0.2-0.6,0.2-1c0-0.3-0.1-0.7-0.2-1c-0.1-0.3-0.3-0.6-0.5-0.8
			c-0.2-0.1-0.3-0.3-0.5-0.4c-0.4-0.2-0.8-0.3-1.3-0.3c-0.2,0-0.4,0.1-0.7,0.1C184.6,456.1,184.2,456.3,183.9,456.6L183.9,456.6z"/>
	</g>
	<path class="st3" d="M226.6,163.3c0-1.8-28.9-58.2,13.3-75.1"/>
	<path class="st3" d="M216.6,121.3c1.3,0.2,2-31.7-49.1-41.7c-0.8-0.1-1.5,0.4-1.5,1.2C166,86.9,170.3,112.8,216.6,121.3z"/>
</g>
</svg>
