<?xml version="1.0" standalone="no"?>
<!DOCTYPE svg PUBLIC "-//W3C//DTD SVG 20010904//EN"
 "http://www.w3.org/TR/2001/REC-SVG-20010904/DTD/svg10.dtd">
<svg version="1.0" xmlns="http://www.w3.org/2000/svg"
 width="512.000000pt" height="512.000000pt" viewBox="0 0 512.000000 512.000000"
 preserveAspectRatio="xMidYMid meet">
<metadata>
Created by potrace 1.16, written by Peter Selinger 2001-2019
</metadata>
<g transform="translate(0.000000,512.000000) scale(0.100000,-0.100000)"
fill="#000000" stroke="none">
<path d="M0 2560 l0 -2560 2560 0 2560 0 0 2560 0 2560 -2560 0 -2560 0 0
-2560z m2785 1663 c273 -89 472 -307 530 -581 8 -37 15 -122 15 -189 l0 -123
328 0 c355 0 352 0 381 -57 8 -15 11 -279 11 -925 0 -1005 1 -982 -67 -1118
-71 -141 -219 -258 -374 -295 -96 -22 -2002 -22 -2098 0 -202 48 -368 214
-421 420 -19 75 -20 111 -20 987 0 650 3 916 11 931 29 57 26 57 382 57 l327
0 0 128 c0 195 42 333 145 477 112 157 270 257 490 309 11 3 83 3 160 1 104
-2 156 -8 200 -22z"/>
<path d="M2422 4020 c-105 -28 -167 -64 -252 -150 -122 -122 -169 -246 -170
-442 l0 -98 560 0 560 0 0 98 c-1 196 -48 320 -170 442 -86 87 -147 122 -256
150 -96 25 -177 25 -272 0z"/>
<path d="M1280 2323 c0 -468 4 -826 10 -866 17 -114 75 -206 168 -266 98 -62
72 -61 1102 -61 1030 0 1004 -1 1102 61 93 60 151 152 168 266 6 40 10 398 10
866 l0 797 -255 0 -255 0 0 -147 c0 -125 -3 -151 -18 -169 -35 -44 -90 -56
-141 -30 -43 23 -51 54 -51 206 l0 140 -560 0 -560 0 0 -140 c0 -79 -5 -149
-11 -163 -22 -48 -93 -71 -142 -46 -52 27 -57 44 -57 202 l0 147 -255 0 -255
0 0 -797z"/>
</g>
</svg>
