<svg width="35" height="35" viewBox="0 0 35 35" fill="none" xmlns="http://www.w3.org/2000/svg">
<g clip-path="url(#clip0_87_239)">
<path d="M27.3 2.93164L24.2375 0.175391C23.975 -0.0871094 23.5375 -0.0871094 23.275 0.175391L20.65 2.53789L18.025 0.175391C17.7625 -0.0871094 17.325 -0.0871094 17.0625 0.175391L14.4375 2.53789L11.8125 0.175391C11.55 -0.0871094 11.1125 -0.0871094 10.85 0.175391L7.83125 2.88789C7.6125 3.01914 7.4375 3.23789 7.4375 3.54414V34.3004C7.4375 34.6942 7.74375 35.0442 8.18125 35.0442H26.9938C27.3875 35.0442 27.7375 34.7379 27.7375 34.3004V3.54414C27.65 3.28164 27.5188 3.06289 27.3 2.93164ZM26.1625 33.5567H8.8375V3.89414L11.2875 1.70664L13.9125 4.06914C14.175 4.33164 14.6125 4.33164 14.875 4.06914L17.5 1.70664L20.125 4.06914C20.3875 4.33164 20.825 4.33164 21.0875 4.06914L23.7125 1.70664L26.1625 3.89414V33.5567Z" fill="#4A3F3C"/>
<path d="M21.132 27.7383H13.8258C13.432 27.7383 13.082 28.0445 13.082 28.482C13.082 28.8758 13.3883 29.2258 13.8258 29.2258H21.132C21.5258 29.2258 21.8758 28.9195 21.8758 28.482C21.832 28.0445 21.5258 27.7383 21.132 27.7383Z" fill="#4A3F3C"/>
<path d="M21.132 23.3633H13.8258C13.432 23.3633 13.082 23.6695 13.082 24.107C13.082 24.5008 13.3883 24.8508 13.8258 24.8508H21.132C21.5258 24.8508 21.8758 24.5445 21.8758 24.107C21.832 23.6695 21.5258 23.3633 21.132 23.3633Z" fill="#4A3F3C"/>
<path d="M16.9313 19.0319V19.6444C16.9313 20.0381 17.2376 20.3881 17.6751 20.3881C18.0688 20.3881 18.4188 20.0819 18.4188 19.6444V19.0756C19.9063 18.7694 21.0001 17.5881 21.0001 16.1444C21.0001 14.0881 18.6376 13.3881 17.8938 13.1693C16.1876 12.6443 15.7938 12.1631 15.7938 11.5943C15.7938 10.7631 16.6251 10.0631 17.6751 10.0631C18.3751 10.0631 18.9876 10.3693 19.3376 10.8943C19.5563 11.2443 19.9938 11.3318 20.3438 11.1131C20.6938 10.8943 20.7813 10.4568 20.5626 10.1068C20.0813 9.40684 19.2938 8.88184 18.4188 8.70684V8.09434C18.4188 7.70059 18.1126 7.35059 17.6751 7.35059C17.2813 7.35059 16.9313 7.65684 16.9313 8.09434V8.66309C15.4438 8.96934 14.3501 10.1506 14.3501 11.5943C14.3501 13.6068 16.4501 14.2631 17.4563 14.5694C19.2938 15.0944 19.5126 15.7069 19.5126 16.1444C19.5126 16.9756 18.6813 17.6756 17.6313 17.6756C16.9313 17.6756 15.8376 17.1944 15.1813 16.6256C14.8751 16.3631 14.3938 16.4069 14.1313 16.7131C13.8688 17.0194 13.9126 17.4569 14.2188 17.7631C15.0063 18.3756 16.0126 18.8569 16.9313 19.0319Z" fill="#4A3F3C"/>
</g>
<defs>
<clipPath id="clip0_87_239">
<rect width="35" height="35" fill="white"/>
</clipPath>
</defs>
</svg>
