<svg width="40" height="40" viewBox="0 0 40 40" fill="none" xmlns="http://www.w3.org/2000/svg">
<path d="M39.9499 18.0497C39.8999 17.7997 39.7999 17.5497 39.5499 17.3997L35.8999 15.1497L37.6999 11.2997C37.7999 11.0497 37.7999 10.7997 37.6999 10.5497C37.5499 10.2997 37.3498 10.1497 37.0998 10.0997L32.8999 9.44966L33.0499 5.19966C33.0499 4.94966 32.9499 4.69966 32.7499 4.49966C32.5499 4.34966 32.2999 4.24966 31.9999 4.34966L27.8499 5.34966L26.3499 1.34966C26.2499 1.09966 26.0499 0.899656 25.7999 0.849656C25.5499 0.749656 25.2499 0.799656 25.0499 0.949656L21.5999 3.44966L18.6999 0.349656C18.4999 0.149656 18.2499 0.0496558 17.9999 0.0996558C17.7499 0.149656 17.4999 0.249656 17.3499 0.499656L15.0999 4.14966L11.2499 2.34966C10.9999 2.24966 10.7499 2.24966 10.4999 2.34966C10.2499 2.49966 10.0999 2.69966 10.0499 2.94966L9.39985 7.14966L5.14985 6.99966C4.89985 6.99966 4.64985 7.09966 4.44985 7.29966C4.29985 7.49966 4.19985 7.79966 4.29985 8.04966L5.29985 12.1997L1.29985 13.6997C1.04985 13.7997 0.849851 13.9997 0.799851 14.2497C0.699851 14.4997 0.749851 14.7997 0.899851 14.9997L3.39985 18.4497L0.299851 21.3497C0.0998511 21.4497 -0.000148926 21.7497 0.0498511 21.9997C0.0998511 22.2497 0.199851 22.4997 0.449851 22.6497L4.09985 24.8997L2.29985 28.7497C2.19985 28.9997 2.19985 29.2497 2.29985 29.4997C2.44985 29.7497 2.64985 29.8997 2.89985 29.9497L7.09985 30.5997L6.94985 34.8497C6.94985 35.0997 7.04985 35.3497 7.24985 35.5497C7.44985 35.6997 7.69985 35.7997 7.99985 35.6997L12.1499 34.6997L13.6499 38.6997C13.7499 38.9497 13.9499 39.1497 14.1999 39.1997C14.4499 39.2997 14.7499 39.2497 14.9499 39.0997L18.3999 36.5997L21.2999 39.6997C21.4499 39.8497 21.6999 39.9497 21.8999 39.9497C21.9499 39.9497 21.9499 39.9497 21.9999 39.9497C22.2499 39.8997 22.4999 39.7997 22.6499 39.5497L24.8999 35.8997L28.7499 37.6997C28.9999 37.7997 29.2499 37.7997 29.4999 37.6997C29.7499 37.5497 29.8999 37.3497 29.9499 37.0997L30.5999 32.8997L34.8498 33.0497C34.8498 33.0497 34.8499 33.0497 34.8999 33.0497C34.8999 33.0497 34.8999 33.0497 34.9499 33.0497C35.3999 33.0497 35.7999 32.6497 35.7999 32.1997C35.7999 32.0497 35.7499 31.8997 35.6999 31.7997L34.7499 27.8997L38.7499 26.3997C38.9999 26.2997 39.1999 26.0997 39.2499 25.8497C39.3498 25.5997 39.2999 25.2997 39.1499 25.0997L36.6499 21.6497L39.7499 18.7497C39.8999 18.5997 39.9999 18.2997 39.9499 18.0497ZM34.8999 20.9497C34.5999 21.2497 34.5499 21.6997 34.7999 22.0497L37.0998 25.1997L33.4499 26.5497C33.0499 26.6997 32.7999 27.0997 32.8999 27.5497L33.7999 31.3497L29.8999 31.1997C29.4999 31.1997 29.0998 31.4997 29.0499 31.8997L28.4499 35.7497L24.8999 34.1497C24.4999 33.9497 24.0499 34.0997 23.7999 34.4997L21.7499 37.7997L19.0999 34.9497C18.9499 34.7497 18.6999 34.6997 18.4999 34.6997C18.3499 34.6997 18.1499 34.7497 17.9999 34.8497L14.8499 37.1497L13.4999 33.4997C13.3499 33.0997 12.9499 32.8497 12.4999 32.9497L8.69985 33.8497L8.84985 29.9497C8.84985 29.4997 8.54985 29.1497 8.14985 29.0997L4.29985 28.4997L5.89985 24.9497C6.09985 24.5497 5.94985 24.0997 5.54985 23.8497L2.24985 21.7997L5.09985 19.1497C5.39985 18.8497 5.44985 18.3997 5.19985 18.0497L2.89985 14.8997L6.54985 13.5497C6.94985 13.3997 7.19985 12.9997 7.09985 12.5497L6.19985 8.74966L10.0999 8.89966C10.5499 8.89966 10.8999 8.59966 10.9499 8.19966L11.5499 4.34966L15.0999 5.94966C15.4999 6.14966 15.9499 5.99966 16.1999 5.59966L18.2499 2.29966L20.8999 5.14966C21.1999 5.44966 21.6499 5.49966 21.9999 5.24966L25.1499 2.94966L26.4999 6.59966C26.6499 6.99966 27.0499 7.24966 27.4999 7.14966L31.2999 6.24966L31.1499 10.1497C31.1499 10.5997 31.4499 10.9497 31.8499 10.9997L35.6999 11.5997L34.0998 15.1497C33.8998 15.5497 34.0499 15.9997 34.4499 16.2497L37.7499 18.2997L34.8999 20.9497Z" fill="#4A3F3C"/>
<path d="M24.0495 16.4997L18.3995 21.3997L16.7495 19.8997C16.3495 19.5497 15.6995 19.5497 15.2995 19.9497C14.9495 20.3497 14.9495 20.9997 15.3495 21.3997L17.6495 23.4997C17.8495 23.6997 18.0995 23.7497 18.3495 23.7497C18.5995 23.7497 18.7995 23.6497 18.9995 23.4997L25.3495 17.9997C25.7495 17.6497 25.7995 16.9997 25.4495 16.5997C25.0995 16.1997 24.4995 16.1497 24.0495 16.4997Z" fill="#4A3F3C"/>
</svg>
