<svg width="40" height="40" viewBox="0 0 40 40" fill="none" xmlns="http://www.w3.org/2000/svg">
<path d="M34.3004 6.6502C34.3004 6.6502 33.4504 6.9002 32.1504 6.9002C29.3004 6.9002 25.1504 5.8502 21.6504 0.800195C20.9504 -0.249805 19.1004 -0.249805 18.3504 0.800195C14.3504 6.5502 9.25039 7.0002 7.80039 7.0002C6.80039 7.0002 6.15039 6.8502 5.70039 6.7002C4.45039 6.3502 3.15039 7.3002 3.15039 8.6002V19.5002C3.15039 35.1502 18.8004 39.7502 19.4504 39.9502C19.6004 40.0002 19.8004 40.0002 19.9504 40.0002C20.1504 40.0002 20.3004 40.0002 20.5004 39.9502C21.1504 39.7502 36.8004 35.2002 36.8004 19.5002V8.6002C36.8504 7.3002 35.5504 6.3002 34.3004 6.6502ZM35.1504 19.4502C35.1504 33.9002 20.7004 38.1002 20.1004 38.3002C20.0504 38.3002 20.0504 38.3002 20.0004 38.3002H19.9504C19.3504 38.1502 4.85039 33.8502 4.85039 19.4502V8.6002C4.85039 8.4002 5.00039 8.3002 5.20039 8.3002C5.95039 8.5502 6.85039 8.7002 7.80039 8.7002C9.50039 8.7002 15.3004 8.2002 19.7504 1.8002C19.8504 1.6502 20.1504 1.6502 20.2504 1.8002C24.2004 7.4502 28.8504 8.6502 32.1004 8.6502C33.7004 8.6502 34.7504 8.3502 34.8004 8.3502C34.9504 8.3502 35.1004 8.4502 35.1004 8.6502L35.1504 19.4502Z" fill="#4A3F3C"/>
</svg>
