<?xml version="1.0" encoding="utf-8"?>
<!-- Generator: Adobe Illustrator 24.2.3, SVG Export Plug-In . SVG Version: 6.00 Build 0)  -->
<svg version="1.1" xmlns="http://www.w3.org/2000/svg" xmlns:xlink="http://www.w3.org/1999/xlink" x="0px" y="0px"
	 viewBox="0 0 600 600" style="enable-background:new 0 0 600 600;" xml:space="preserve">
<style type="text/css">
	.st0{display:none;}
	.st1{display:inline;fill:none;stroke:#1D1D1B;stroke-miterlimit:10;}
	.st2{display:inline;}
	.st3{fill:#DEAB5B;stroke:#DEAB5B;stroke-width:2;stroke-miterlimit:10;}
</style>
<g id="Capa_1" class="st0">
	<circle class="st1" cx="300" cy="300" r="300"/>
	<path class="st2" d="M499.7,266.8C469,236.2,426.5,220,376.8,220c-4.6,0-9.1,0.2-13.6,0.4c-29.7-48.3-84.3-77.8-147.5-79.9
		c-0.5-7.3-1.9-14.2-3.7-20.5c4.3,0.5,8.6,0.8,13,0.8c19.3,0,39-5.2,56.7-15.1c25.6-14.4,44.9-37.6,52.9-63.8c0.6-2,0.4-4.1-0.6-5.9
		c-1-1.8-2.7-3.1-4.7-3.6c-26.5-6.8-56.4-2.4-82,12c-20.6,11.6-37.1,28.8-46.9,48.8c-5.3-8.9-10-14.1-10.5-14.6
		c-2.8-3-7.6-3.2-10.6-0.4c-3,2.8-3.2,7.6-0.4,10.6c0.2,0.2,19,20.9,21.7,51.7c-47,1.7-89.6,18.5-120.7,47.7
		c-30.1,28.3-47.3,66.2-47.3,103.9c0,37.7,17.2,75.6,47.3,103.9c32.8,30.9,78.5,47.9,128.5,47.9c4.3,0,8.6-0.1,12.8-0.4
		C229,462,240,478.7,254,492.8c30.7,30.6,73.2,46.8,122.8,46.8c49.7,0,92.1-16.2,122.8-46.8c29-29,45-69.1,45-113
		C544.7,335.9,528.7,295.7,499.7,266.8z M254.7,57.5c19.7-11,42.1-15.3,62.8-12.2c-8.1,19.3-23.4,36.3-43.1,47.3
		s-42.1,15.3-62.8,12.2C219.7,85.5,235.1,68.6,254.7,57.5z M489.1,482.2c-27.8,27.8-66.6,42.4-112.2,42.4
		c-45.6,0-84.4-14.7-112.2-42.4C238.4,456,224,419.7,224,379.8c0-59.6,31.3-108.7,83.6-131.4c3.8-1.6,5.6-6.1,3.9-9.9
		c-1.6-3.8-6.1-5.6-9.9-3.9c-28.6,12.4-52.3,32.5-68.4,58.1c-15.9,25.2-24.2,55.3-24.2,87c0,17.1,2.4,33.5,7.1,49
		c-2.5,0.1-5.1,0.1-7.6,0.1c-46.2,0-88.2-15.6-118.2-43.8c-27.1-25.5-42.6-59.4-42.6-93c0-33.6,15.5-67.5,42.6-93
		c30-28.3,72-43.8,118.2-43.8c58.2,0,109.1,24.8,138,66.8c-3.8,0.6-7.6,1.2-11.3,2c-4.1,0.8-6.7,4.8-5.8,8.9
		c0.8,4.1,4.8,6.7,8.9,5.8c12.2-2.5,25.2-3.8,38.6-3.8c45.6,0,84.4,14.7,112.2,42.4c26.2,26.1,40.6,62.5,40.6,102.4
		C529.7,419.7,515.2,456,489.1,482.2z"/>
	<path class="st2" d="M404.6,367.2c-0.7-0.7-1.9-1.8-2.1-2.3c-0.3-0.5-0.7-2.1-1-3.2c-1-3.8-2.3-9-7.4-11.9
		c-4.9-2.8-10-1.5-13.8-0.5c-1.2,0.3-2.8,0.7-3.5,0.7c-0.7,0-2.3-0.4-3.5-0.7c-3.7-1-8.9-2.4-13.8,0.5c-5,2.9-6.4,8.1-7.4,11.9
		c-0.3,1.1-0.7,2.6-1,3.2c-0.3,0.5-1.4,1.5-2.1,2.3c-2.7,2.6-6.7,6.6-6.7,12.5c0,6,4.1,9.9,6.7,12.5c0.7,0.7,1.9,1.8,2.1,2.3
		c0.3,0.5,0.7,2.1,1,3.2c1,3.8,2.3,9,7.4,11.9c4.9,2.8,10,1.5,13.8,0.5c1.2-0.3,2.8-0.7,3.5-0.7c0.7,0,2.3,0.4,3.5,0.7
		c2.1,0.6,4.6,1.2,7.2,1.2c2.1,0,4.3-0.4,6.5-1.7c5-2.9,6.4-8.1,7.4-11.9c0.3-1.1,0.7-2.6,1-3.2c0.3-0.5,1.4-1.5,2.1-2.3
		c2.7-2.6,6.8-6.6,6.8-12.5C411.3,373.8,407.3,369.9,404.6,367.2z M394.1,381.6c-1.6,1.5-3.3,3.3-4.6,5.5c-1.3,2.3-2,4.7-2.5,6.9
		c-0.2,0.7-0.4,1.5-0.6,2.2c-0.7-0.1-1.5-0.4-2.1-0.5c-2.2-0.6-4.7-1.3-7.4-1.3c-2.7,0-5.2,0.7-7.4,1.3c-0.6,0.2-1.4,0.4-2.1,0.5
		c-0.2-0.7-0.4-1.5-0.6-2.2c-0.6-2.2-1.2-4.6-2.5-6.9c-1.3-2.2-3.1-4-4.6-5.5c-0.5-0.5-1.2-1.2-1.8-1.8c0.5-0.6,1.2-1.3,1.8-1.8
		c1.6-1.5,3.3-3.3,4.6-5.5c1.3-2.3,2-4.7,2.5-6.9c0.2-0.7,0.4-1.5,0.6-2.2c0.7,0.1,1.5,0.4,2.1,0.5c2.2,0.6,4.7,1.3,7.4,1.3
		c2.7,0,5.2-0.7,7.4-1.3c0.6-0.2,1.4-0.4,2.1-0.5c0.2,0.7,0.4,1.5,0.6,2.2c0.6,2.2,1.2,4.6,2.5,6.9c1.3,2.2,3.1,4,4.6,5.5
		c0.5,0.5,1.3,1.2,1.8,1.8C395.4,380.3,394.7,381,394.1,381.6z"/>
	<path class="st2" d="M505.4,357.8c-2-3.7-3.8-7.3-4.7-10.5c-0.9-3.4-1-7.5-1.2-11.8c-0.3-7.2-0.6-15.4-4.8-22.4
		c-4.3-7.1-11.4-11.3-17.7-14.9c-3.7-2.1-7.1-4.1-9.7-6.5c-2.4-2.2-4.7-5.4-7-8.8c-4.2-6-9-12.8-16.7-16.6c-6.9-3.4-14.4-3.2-21.7-3
		c-4.6,0.1-8.9,0.2-12.6-0.5c-3.2-0.7-6.8-2.5-10.6-4.3c-6.3-3.1-13.5-6.7-21.8-6.7s-15.5,3.5-21.8,6.7c-3.8,1.9-7.4,3.7-10.6,4.3
		c-3.8,0.8-8.1,0.7-12.6,0.5c-7.3-0.2-14.8-0.4-21.7,3c-7.7,3.8-12.5,10.6-16.7,16.6c-2.4,3.4-4.6,6.6-7,8.8c-2.6,2.3-6,4.4-9.7,6.5
		c-6.3,3.7-13.5,7.8-17.7,14.9c-4.2,7-4.5,15.2-4.8,22.4c-0.2,4.3-0.3,8.4-1.2,11.8c-0.8,3.2-2.7,6.8-4.7,10.5
		c-3.4,6.4-7.2,13.6-7.2,22c0,8.4,3.8,15.6,7.2,22c2,3.7,3.8,7.3,4.7,10.5c0.9,3.4,1,7.5,1.2,11.8c0.3,7.2,0.6,15.4,4.8,22.4
		c4.3,7.1,11.4,11.3,17.7,14.9c3.7,2.1,7.1,4.1,9.7,6.5c2.4,2.2,4.7,5.4,7,8.8c4.2,6,9,12.8,16.7,16.6c6.9,3.4,14.4,3.2,21.7,3
		c4.6-0.1,8.9-0.2,12.6,0.6c3.2,0.7,6.8,2.5,10.6,4.3c6.3,3.1,13.5,6.7,21.8,6.7s15.5-3.6,21.8-6.7c3.8-1.9,7.4-3.7,10.6-4.3
		c3.8-0.8,8.1-0.7,12.6-0.6c7.3,0.2,14.8,0.4,21.7-3c3.7-1.8,5.3-6.3,3.4-10c-1.8-3.7-6.3-5.3-10-3.4c-3.6,1.8-9,1.6-14.7,1.5
		c-5.2-0.1-10.6-0.3-16.1,0.9c-5,1.1-9.7,3.4-14.2,5.6c-5.3,2.6-10.4,5.1-15.1,5.1s-9.8-2.5-15.1-5.1c-4.5-2.2-9.1-4.5-14.2-5.6
		c-5.5-1.2-10.9-1-16.1-0.9c-5.7,0.2-11.1,0.3-14.7-1.5c-4.2-2.1-7.5-6.8-11-11.7c-2.7-3.9-5.6-7.9-9.2-11.2
		c-3.8-3.4-8.1-5.9-12.3-8.4c-5.2-3-10.1-5.8-12.4-9.6c-2.2-3.7-2.4-9.3-2.6-15.3c-0.2-4.9-0.4-10-1.7-15.1
		c-1.3-4.9-3.6-9.4-5.9-13.7c-2.8-5.3-5.4-10.3-5.4-15s2.6-9.6,5.5-15c2.3-4.3,4.6-8.8,5.9-13.7c1.3-5,1.5-10.1,1.7-15.1
		c0.2-5.9,0.4-11.5,2.6-15.3c2.3-3.8,7.2-6.6,12.4-9.6c4.2-2.4,8.5-4.9,12.3-8.4c3.6-3.3,6.5-7.3,9.2-11.2c3.5-5,6.8-9.7,11-11.7
		c3.6-1.8,9-1.6,14.7-1.5c5.2,0.1,10.6,0.3,16.1-0.9c5-1.1,9.7-3.4,14.2-5.6c5.3-2.6,10.4-5.1,15.1-5.1s9.8,2.5,15.1,5.1
		c4.5,2.2,9.1,4.5,14.2,5.6c5.5,1.1,10.9,1,16.1,0.9c5.7-0.2,11.1-0.3,14.7,1.5c4.2,2.1,7.5,6.8,11,11.7c2.7,3.9,5.6,7.9,9.2,11.2
		c3.8,3.4,8.1,5.9,12.3,8.4c5.2,3,10.1,5.8,12.4,9.6c2.2,3.7,2.4,9.3,2.6,15.3c0.2,4.9,0.4,10,1.7,15.1c1.3,4.9,3.6,9.4,5.9,13.7
		c2.8,5.3,5.5,10.3,5.5,14.9c0,4.6-2.6,9.7-5.5,15c-2.3,4.3-4.6,8.8-5.9,13.7c-1.3,5-1.5,10.1-1.7,15.1c-0.2,5.9-0.4,11.5-2.6,15.3
		c-2.3,3.8-7.2,6.6-12.4,9.6c-4.2,2.4-8.5,4.9-12.3,8.4c-3.1,2.8-3.3,7.5-0.5,10.6c2.8,3.1,7.5,3.3,10.6,0.5c2.6-2.3,6-4.4,9.7-6.5
		c6.3-3.6,13.5-7.8,17.7-14.9c4.2-7,4.5-15.2,4.8-22.4c0.2-4.3,0.3-8.4,1.2-11.8c0.8-3.2,2.7-6.7,4.7-10.5c3.4-6.4,7.2-13.6,7.2-22
		S508.8,364.2,505.4,357.8z"/>
</g>
<g id="Capa_2">
	<g>
		<path class="st3" d="M377.9,530.9c-84.6,0-153.4-68.8-153.4-153.4s68.8-153.4,153.4-153.4s153.4,68.8,153.4,153.4
			S462.5,530.9,377.9,530.9z M377.9,226.4c-83.3,0-151.1,67.8-151.1,151.1c0,83.3,67.8,151.1,151.1,151.1
			c83.3,0,151.1-67.8,151.1-151.1C529,294.2,461.2,226.4,377.9,226.4z"/>
	</g>
	<g>
		<path class="st3" d="M366.5,405.8c-0.3,0-0.7-0.1-1-0.2c-2.2-0.8-2.5-3.3-2.8-6.2c-0.3-3.2-0.8-7.2-3.6-10.7
			c-1.8-2.2-3.8-3.3-5.4-4.1c-1.9-1-3.6-2-3.8-4.2c-0.2-2.4,1.7-3.6,3.8-5.1c2-1.4,4.5-3,6.4-6.2c1.7-2.9,2.1-5.6,2.4-7.8
			c0.3-2.4,0.6-4.7,2.8-5.7c1.9-0.9,3.5,0,5.2,0.9c1.5,0.8,3.3,1.8,6,2c3.2,0.2,5.5-0.7,7.4-1.6c2-0.9,3.9-1.8,6-0.6
			c2.2,1.2,2.5,3.4,2.9,5.7c0.3,2.3,0.7,4.9,2.8,7.5c1.7,2.2,3.5,3.1,5.1,3.9c1.7,0.9,3.3,1.7,3.7,3.8l0,0c0.4,2.4-1.4,4-3.3,5.6
			c-1.8,1.5-3.9,3.4-5.3,6.7c-1.4,3.3-1.3,6.3-1.2,8.7c0.1,2.4,0.2,4.5-1.7,5.4c-2,1-4-0.5-6.1-2.2c-2.2-1.8-4.8-3.8-8-3.6
			c-3.2,0.2-5.5,2.5-7.5,4.6C369.7,404.2,368.2,405.8,366.5,405.8z M367,357.6c-0.2,0-0.5,0.1-0.7,0.2c-1,0.5-1.2,1.6-1.5,3.9
			c-0.3,2.3-0.7,5.3-2.7,8.6c-2.1,3.6-5,5.5-7,6.9c-1.9,1.3-2.9,2-2.8,3.1c0.1,0.9,0.7,1.3,2.6,2.3c1.7,0.9,4,2.2,6,4.7
			c3.3,4.1,3.8,8.6,4.1,11.9c0.2,2.1,0.4,3.9,1.2,4.2c0.9,0.3,2.1-1,3.5-2.5c2.2-2.3,4.9-5.1,9-5.3c4-0.2,7.1,2.2,9.5,4.1
			c1.5,1.2,2.9,2.3,3.6,1.9c0.5-0.3,0.5-1.4,0.4-3.3c-0.1-2.5-0.2-5.9,1.4-9.7c1.6-3.7,4-5.8,5.9-7.5c1.8-1.6,2.7-2.4,2.5-3.6v0
			c-0.1-0.9-0.9-1.3-2.5-2.2c-1.6-0.8-3.8-2-5.8-4.5c-2.5-3.1-2.9-6.2-3.3-8.6c-0.3-2.2-0.5-3.4-1.7-4.1c-1.1-0.6-2.1-0.2-4,0.7
			c-2.1,0.9-4.7,2.1-8.5,1.8c-3.2-0.2-5.4-1.4-6.9-2.3C368.3,357.9,367.6,357.6,367,357.6z"/>
	</g>
	<g>
		<path class="st3" d="M380.3,501.9c-5.9,0-9.3-2.9-12.9-6c-3.5-3-7.5-6.4-14.7-8.1c-7.9-1.9-13.4-0.3-18.7,1.2
			c-5.4,1.6-10.5,3-17.1,0c-5.3-2.4-7-5.6-9.2-9.7c-1.9-3.5-4.3-8-10-13.4c-7.3-6.9-13.4-9.1-18.3-10.9c-5-1.8-9.4-3.4-12.7-9.1
			c-4-6.9-2.7-13.2-1.5-19.3c1.3-6.2,2.6-12.7-1.2-20.3c-3-6.1-7.2-8.8-11-11.2c-4-2.5-7.7-4.9-8.9-10.6c-1.4-6.5,1.8-10.8,5.6-15.9
			c3.5-4.7,7.8-10.5,9.8-19.8c1.9-8.6,0.7-14.9-0.2-20c-1-5.5-1.9-10.2,1.7-15.2c3.9-5.3,9.1-6,14.7-6.8c5.7-0.8,11.6-1.6,17.5-7
			c5.3-4.8,6.7-9.7,8.1-14.4c1.3-4.8,2.6-9.3,7.9-12.5c6-3.6,11.4-2.2,17.3-0.7c5.7,1.5,12.1,3.1,20.4,0.6c7.2-2.2,11-6.1,14.3-9.5
			c3.5-3.5,6.8-6.9,12.8-6.9c6.6,0,10.2,3.9,14.1,7.9c3.8,4,7.8,8.2,15.1,9.7c6.9,1.4,11.7-0.6,16.4-2.6c4.9-2.1,9.5-4,15.9-1.8
			c6.1,2.1,8.3,6.3,10.8,11.1c2.4,4.6,5.2,9.8,12,15.5c6.7,5.6,12.3,7.5,17.2,9.1c5.3,1.8,10,3.3,13.4,9.2c3,5.2,2.4,9.1,1.8,13.6
			c-0.6,4.2-1.3,8.9,0.5,16.1c2.2,8.7,6.2,13.4,9.8,17.6c3.8,4.4,7,8.2,7,15.2l0,0c0,5.9-2.5,9.2-5.3,12.9
			c-2.6,3.4-5.9,7.7-8.4,15.6c-2.7,8.6-2.1,13.7-1.5,18.2c0.5,4.3,1,8.3-1.6,14.1c-3.8,8.4-9.9,11.2-16.8,14.5
			c-6.9,3.2-14.7,6.9-22.5,17c-3,3.9-4.8,7.2-6.2,9.9c-2.4,4.5-4.2,7.7-9.2,9.8c-5.4,2.3-9.6,1.1-14.1-0.1
			c-4.2-1.2-8.5-2.4-14.7-1.1c-6.8,1.4-10.3,4.6-13.7,7.7c-3.5,3.2-6.8,6.2-12.9,6.4C380.8,501.9,380.6,501.9,380.3,501.9z
			 M345.6,484.6c2.3,0,4.8,0.3,7.6,0.9c7.7,1.9,12,5.4,15.7,8.6c3.7,3.2,6.6,5.7,12.1,5.4c5.3-0.2,8.1-2.8,11.4-5.8
			c3.5-3.2,7.4-6.7,14.8-8.2c6.7-1.4,11.5,0,15.8,1.2c4.2,1.2,7.9,2.2,12.6,0.2c4.3-1.8,5.7-4.4,8.1-8.8c1.5-2.7,3.3-6.2,6.4-10.2
			c8.1-10.6,16.2-14.4,23.3-17.7c6.8-3.2,12.2-5.7,15.7-13.3c2.4-5.2,2-8.6,1.4-12.8c-0.6-4.7-1.3-10,1.6-19.1
			c2.6-8.2,6-12.7,8.7-16.3c2.8-3.7,4.8-6.4,4.9-11.5c0-6.2-2.8-9.5-6.4-13.7c-3.7-4.3-7.9-9.3-10.3-18.5c-2-7.6-1.2-12.8-0.6-17
			c0.6-4.5,1.1-7.7-1.5-12.1c-3-5.1-6.8-6.4-12.1-8.2c-4.9-1.6-11-3.7-18-9.6c-7.1-6-10.1-11.6-12.5-16.2c-2.5-4.7-4.3-8.2-9.6-10
			c-5.5-1.9-9.6-0.2-14.2,1.7c-4.7,2-10.1,4.3-17.7,2.7c-8-1.7-12.4-6.3-16.3-10.3c-3.7-3.9-6.9-7.2-12.5-7.2c0,0,0,0-0.1,0
			c-5,0-7.7,2.7-11.1,6.2c-3.4,3.4-7.6,7.7-15.3,10.1c-8.9,2.8-15.7,1-21.6-0.5c-5.8-1.5-10.4-2.7-15.5,0.4
			c-4.6,2.8-5.7,6.7-6.9,11.2c-1.4,4.8-2.9,10.2-8.7,15.5c-6.5,5.8-13,6.7-18.7,7.6c-5.3,0.8-9.9,1.4-13.2,5.9
			c-3.1,4.2-2.4,8.1-1.3,13.4c1,5.2,2.2,11.8,0.2,20.9c-2.2,9.8-6.6,15.8-10.2,20.7c-3.7,5-6.4,8.6-5.2,14c1,4.8,4.1,6.7,7.9,9.2
			c4,2.5,8.5,5.4,11.8,12.1c4.1,8.3,2.7,15.5,1.4,21.8c-1.2,6-2.4,11.6,1.2,17.7c2.9,5,6.5,6.3,11.5,8.1c5.1,1.9,11.5,4.2,19.1,11.4
			c6,5.6,8.4,10.2,10.4,13.9c2.2,4,3.6,6.6,8.2,8.7c5.8,2.7,10.3,1.4,15.5-0.2C336.9,485.8,340.8,484.6,345.6,484.6z M506.8,377.2
			L506.8,377.2L506.8,377.2z"/>
	</g>
	<g>
		<path class="st3" d="M202.7,432.2c-81.1,0-147.2-66-147.2-147.2s66-147.2,147.2-147.2c30,0,58.8,9,83.4,25.9
			c24,16.5,42.4,39.5,53.2,66.5c0.2,0.6,0,1.3-0.6,1.5c-0.6,0.2-1.3,0-1.5-0.6c-10.6-26.5-28.8-49.2-52.4-65.5
			c-24.2-16.7-52.6-25.5-82.1-25.5c-79.9,0-144.9,65-144.9,144.9c0,79.9,65,144.9,144.9,144.9c10.1,0,20.1-1,29.9-3.1
			c0.6-0.1,1.2,0.3,1.4,0.9c0.1,0.6-0.3,1.2-0.9,1.4C223.2,431.2,213,432.2,202.7,432.2z"/>
	</g>
	<g>
		<path class="st3" d="M207.8,139.6c-0.6,0-1.1-0.5-1.1-1.1c-0.5-10.3-2.8-20.3-6.9-29.8c-4.3-9.9-10.4-18.7-18-26.3
			c-0.4-0.4-0.5-1.2,0-1.6c0.4-0.4,1.2-0.5,1.6,0c7.9,7.8,14.1,16.9,18.5,27c4.2,9.7,6.6,20,7.1,30.6
			C209,139.1,208.5,139.6,207.8,139.6C207.9,139.6,207.9,139.6,207.8,139.6z"/>
	</g>
	<g>
		<path class="st3" d="M228.1,113.1c-16.3,0-27.5-3.6-27.7-3.7c-0.3-0.1-0.6-0.3-0.7-0.6c-0.1-0.3-0.1-0.6,0-0.9
			c15.5-33.3,38.4-55.8,68-66.9c24.1-9.1,46.5-8,57.7-6.6l0,0c2.2,0.3,4,1.6,5.1,3.5c1,1.9,1,4.2,0,6.1
			c-25.1,47.8-59.1,63.1-83.2,67.5C240.4,112.6,233.9,113.1,228.1,113.1z M202.4,107.6c4.8,1.3,22.6,5.5,44.5,1.5
			c23.6-4.3,56.8-19.3,81.5-66.3c0.7-1.3,0.7-2.7,0-4c-0.7-1.3-1.9-2.1-3.3-2.3l0,0c-11-1.4-33-2.4-56.6,6.5
			C239.9,53.8,217.7,75.5,202.4,107.6z"/>
	</g>
</g>
</svg>
