<?xml version="1.0" encoding="utf-8"?>
<!-- Generator: Adobe Illustrator 24.2.3, SVG Export Plug-In . SVG Version: 6.00 Build 0)  -->
<svg version="1.1" xmlns="http://www.w3.org/2000/svg" xmlns:xlink="http://www.w3.org/1999/xlink" x="0px" y="0px"
	 viewBox="0 0 600 600" style="enable-background:new 0 0 600 600;" xml:space="preserve">
<style type="text/css">
	.st0{display:none;}
	.st1{display:inline;fill:none;stroke:#1D1D1B;stroke-miterlimit:10;}
	.st2{display:inline;}
	.st3{fill:#DEAB5B;stroke:#DEAB5B;stroke-width:2;stroke-miterlimit:10;}
</style>
<g id="Capa_1" class="st0">
	<circle class="st1" cx="300" cy="300" r="300"/>
	<path class="st2" d="M543.9,273.7c-16.8-29.5-27.2-61.5-30.9-95.2c-1.7-15.5-9.2-29.6-21.1-39.7c-14.2-12-32.9-17.6-51.4-15.4
		c-6.1,0.7-12,2.3-17.6,4.6c0.5-6,0.2-12.1-1-18.1c-3.6-18.2-14.7-34.3-30.5-44.1c-13.3-8.2-29-11-44.3-7.8
		c-33.2,6.9-66.9,6.9-100.1,0c-15.3-3.2-31-0.4-44.3,7.8c-15.8,9.8-26.9,25.9-30.5,44.1c-1.3,6.5-1.5,13-0.9,19.5
		c-5.9-2.6-12.3-4.4-18.8-5.2c-18.5-2.2-37.2,3.4-51.4,15.4c-11.9,10.1-19.4,24.2-21.1,39.7c-3.7,33.7-14.1,65.7-30.9,95.2
		c-7.7,13.6-10,29.4-6.2,44.6c4.4,18.1,16.3,33.6,32.5,42.7c5.5,3,11.3,5.3,17.3,6.7c-3.6,4.4-6.6,9.2-9,14.4
		c-7.8,16.9-8.3,36.4-1.2,53.6c5.9,14.5,17,26,31.3,32.4c30.9,14,58.1,33.7,81,58.8c10.5,11.6,24.9,18.6,40.5,19.7
		c1.6,0.1,3.3,0.2,4.9,0.2c16.8,0,33.3-6.4,45.7-17.9c4.5-4.2,8.3-8.9,11.5-14.1c3.2,5.1,7,9.9,11.5,14.1
		c12.4,11.5,28.8,17.9,45.7,17.9c1.6,0,3.3-0.1,4.9-0.2c15.6-1.2,29.9-8.2,40.5-19.7c22.8-25.1,50.1-44.9,81-58.8
		c14.2-6.4,25.3-17.9,31.3-32.4c7-17.2,6.6-36.8-1.2-53.6c-2.6-5.6-5.9-10.7-9.8-15.3c5.9-1.4,11.6-3.6,16.9-6.6
		c16.2-9.1,28.1-24.6,32.5-42.7C553.9,303.1,551.7,287.3,543.9,273.7z M191.6,113.7c2.6-13,10.2-24,21.5-31
		c8.9-5.5,19.5-7.4,29.8-5.3c35.9,7.4,72.3,7.4,108.1,0c10.3-2.1,20.9-0.3,29.8,5.3c11.3,7,18.9,18,21.5,31
		c2.6,13-0.3,26.1-8.1,36.8l-81.5,112.2c-1.9-0.7-3.8-1.3-5.7-1.8v-57.2c4.5-1.5,8.7-4,12.3-7.6c3.9-3.9,3.9-10.2,0-14.1
		c-3.9-3.9-10.2-3.9-14.1,0c-4.5,4.5-11.9,4.5-16.4,0c-3.9-3.9-10.2-3.9-14.1,0c-3.9,3.9-3.9,10.2,0,14.1c3.6,3.6,7.8,6.1,12.3,7.6
		V261c-2,0.5-3.9,1.1-5.7,1.8l-81.5-112.2C192,139.8,189.1,126.7,191.6,113.7z M274.2,302.5c0-12.6,10.2-22.8,22.8-22.8
		c12.6,0,22.8,10.2,22.8,22.8s-10.2,22.8-22.8,22.8S274.2,315.1,274.2,302.5z M62,314.3c-2.5-10.2-1-20.8,4.2-30
		c18.1-31.8,29.4-66.4,33.4-102.8c1.2-10.4,6.2-19.9,14.2-26.7c10.1-8.6,23-12.4,36.1-10.8c13.2,1.6,24.7,8.4,32.5,19.1
		c1.1,1.5,2.5,2.6,4.1,3.3L265,274.2c-1.6,1.9-3.1,3.9-4.4,6l-50.8-16.5c1-3.1,1.6-6.4,1.6-9.8c0-5.5-4.5-10-10-10
		c-5.5,0-10,4.5-10,10c0,6.4-5.2,11.6-11.6,11.6c-5.5,0-10,4.5-10,10c0,5.5,4.5,10,10,10c6.3,0,12.1-1.8,17-5l57.6,18.7
		c-0.1,1.1-0.1,2.2-0.1,3.4c0,0.9,0,1.8,0.1,2.7l-127.9,41.6c-1,0-1.9,0.2-2.9,0.5c-1.7,0.6-3.4,1.2-5.1,1.9
		c-11.4,2.7-23.2,1-33.6-4.8C73.3,337.9,65.2,327.2,62,314.3z M493.4,428.9c-4,9.7-11.4,17.5-21,21.8
		c-33.4,15.1-62.8,36.5-87.5,63.6c-7.1,7.8-16.7,12.5-27.2,13.3c-13.2,1-25.9-3.4-35.6-12.5c-9.7-9-15.1-21.3-15.1-34.6v-65.5
		c0-5.5-4.5-10-10-10c-5.5,0-10,4.5-10,10v65.5c0,13.3-5.4,25.6-15.1,34.6c-9.7,9-22.4,13.5-35.6,12.5c-10.5-0.8-20.1-5.5-27.2-13.3
		c-24.7-27.1-54.1-48.5-87.5-63.6c-9.6-4.3-17-12.1-21-21.8c-5-12.3-4.7-25.7,0.9-37.7c4.8-10.4,13-18.5,23.3-23.1
		c1.3-0.3,2.6-0.7,3.9-1.1l131.6-42.8c1.3,2.1,2.7,4.2,4.3,6l-32.9,45.3c-3.9-1.7-8.2-2.7-12.7-2.7c-5.5,0-10,4.5-10,10
		c0,5.5,4.5,10,10,10c3.2,0,6.1,1.3,8.2,3.4c0,0,0,0,0,0c2.1,2.1,3.4,5,3.4,8.2c0,5.5,4.5,10,10,10s10-4.5,10-10
		c0-5.5-1.4-10.7-4-15.3l34.2-47.1c5,2.1,10.6,3.3,16.4,3.3c5.8,0,11.3-1.2,16.4-3.3l34.2,47.1c-2.5,4.5-4,9.7-4,15.3
		c0,5.5,4.5,10,10,10c5.5,0,10-4.5,10-10c0-3.2,1.3-6.1,3.4-8.2c0,0,0,0,0,0c2.1-2.1,5-3.4,8.2-3.4c5.5,0,10-4.5,10-10
		c0-5.5-4.5-10-10-10c-4.5,0-8.8,1-12.7,2.7l-32.9-45.3c1.7-2,3.2-4.1,4.5-6.4l130.3,42.3c12.6,4.1,22.6,13,28.2,25
		C498.1,403.2,498.4,416.6,493.4,428.9z M530.8,313.5c-3.2,12.9-11.3,23.5-22.9,30c-11.6,6.5-24.9,7.8-37.5,3.7c0,0,0,0,0,0
		l-130.7-42.5c0-0.7,0.1-1.5,0.1-2.2c0-1.1-0.1-2.3-0.1-3.4l57.6-18.7c4.9,3.2,10.7,5,17,5c5.5,0,10-4.5,10-10c0-5.5-4.5-10-10-10
		c-6.4,0-11.6-5.2-11.6-11.6c0-5.5-4.5-10-10-10c-5.5,0-10,4.5-10,10c0,3.4,0.5,6.7,1.6,9.8l-50.8,16.5c-1.3-2.1-2.8-4.1-4.4-6
		l81.3-112c7.8-10.7,19.4-17.5,32.5-19.1c13.2-1.6,26,2.3,36.1,10.8c8,6.8,13.1,16.3,14.2,26.7c4,36.4,15.3,71,33.4,102.8
		C531.8,292.7,533.3,303.3,530.8,313.5z"/>
	<path class="st2" d="M296.9,365.2c-2.6,0-5.2,1.1-7.1,2.9c-1.9,1.9-2.9,4.4-2.9,7c0,2.6,1.1,5.2,2.9,7c1.9,1.9,4.4,2.9,7.1,2.9
		c2.6,0,5.2-1.1,7-2.9c1.9-1.9,2.9-4.4,2.9-7c0-2.6-1.1-5.2-2.9-7C302.1,366.2,299.5,365.2,296.9,365.2z"/>
</g>
<g id="Capa_2">
	<g>
		<path class="st3" d="M295.5,339.5c-19,0-34.5-15.5-34.5-34.5c0-19,15.5-34.5,34.5-34.5S330,286,330,305
			C330,324,314.5,339.5,295.5,339.5z M295.5,272.8c-17.7,0-32.2,14.4-32.2,32.2s14.4,32.2,32.2,32.2c17.7,0,32.2-14.4,32.2-32.2
			S313.3,272.8,295.5,272.8z"/>
	</g>
	<g>
		<path class="st3" d="M91.6,360.8c-13.3,0-26.2-5.6-35.1-15.7c-0.4-0.4-0.7-0.9-1.1-1.3c-0.4-0.5-0.8-0.9-1.1-1.4
			c-11.6-15.5-11.8-36.8-0.6-53.1c10.6-15.3,19.4-31.9,26.2-49.2c8.3-21.1,13.6-43.4,15.7-66.1c1.4-14.9,9.9-28.2,22.9-35.4
			c3.2-1.8,6.6-3.3,10.2-4.5c0.6-0.2,1.2-0.4,1.8-0.6c19.3-5.8,40.8,1.2,53.5,17.5l95.3,122.7c0.4,0.5,0.3,1.2-0.2,1.6
			c-0.5,0.4-1.2,0.3-1.6-0.2L182,152.4c-12.1-15.6-32.6-22.3-51-16.7c-0.6,0.2-1.1,0.3-1.7,0.5c-3.4,1.1-6.7,2.6-9.8,4.3
			c-12.3,6.9-20.4,19.4-21.7,33.6c-2.1,22.9-7.5,45.3-15.8,66.7c-6.8,17.5-15.7,34.2-26.4,49.7c-10.7,15.5-10.5,35.8,0.5,50.4
			c0.3,0.5,0.7,0.9,1.1,1.4c0.3,0.4,0.7,0.8,1,1.2c11.2,12.9,29.4,18,46.2,13.1l156.7-46c0.6-0.2,1.2,0.2,1.4,0.8
			c0.2,0.6-0.2,1.2-0.8,1.4l-156.7,46C100.6,360.1,96.1,360.8,91.6,360.8z"/>
	</g>
	<g>
		<path class="st3" d="M262.9,293.5c-0.1,0-0.3,0-0.4-0.1l-62.6-22c-0.6-0.2-0.9-0.9-0.7-1.5c0.2-0.6,0.9-0.9,1.5-0.7l62.6,22
			c0.6,0.2,0.9,0.9,0.7,1.5C263.8,293.2,263.3,293.5,262.9,293.5z"/>
	</g>
	<g>
		<path class="st3" d="M184.2,281.5c-0.6,0-1.1-0.5-1.1-1.1c0-0.6,0.5-1.2,1.1-1.2c1,0,8.1-2,14.7-10.1c8.2-10,6.2-20.3,6.2-20.4
			c-0.2-0.6,0.2-1.2,0.8-1.4c0.6-0.2,1.2,0.1,1.4,0.7c0.5,1.6,1.7,12.5-6.6,22.5C194,278.7,186.3,281.5,184.2,281.5
			C184.3,281.5,184.2,281.5,184.2,281.5z"/>
	</g>
	<g>
		<path class="st3" d="M240.7,549.6c-14,0-27.7-6.6-36.6-18.5c-11.2-14.9-24.1-28.5-38.4-40.4c-17.4-14.5-36.8-26.6-57.7-35.8
			c-13.7-6.1-23.6-18.3-26.4-32.9c-0.7-3.6-1-7.3-1-11.1c0-0.6,0-1.2,0-1.9c0.6-21.3,13-48.3,31.7-54.9c0.6-0.2,1.2,0.1,1.5,0.7
			c0.2,0.6-0.1,1.2-0.7,1.5c-17.9,6.3-29.6,32.3-30.2,52.8c0,0.6,0,1.2,0,1.8c0,3.6,0.3,7.1,1,10.6c2.6,13.8,12,25.5,25,31.2
			c21.1,9.3,40.7,21.4,58.2,36.1c14.4,12,27.4,25.8,38.8,40.8c11.3,15,30.6,21.3,48,15.5c0.5-0.2,1.1-0.4,1.6-0.6
			c0.5-0.2,1-0.4,1.5-0.6c15.8-6.6,26.4-22.1,27.1-39.7l5.6-165.6c0-0.6,0.5-1.1,1.1-1.1c0,0,0,0,0,0c0.6,0,1.1,0.6,1.1,1.2
			l-5.6,165.6c-0.7,18.5-11.8,34.8-28.5,41.7c-0.5,0.2-1,0.4-1.6,0.6c-0.6,0.2-1.1,0.4-1.7,0.6C250.1,548.9,245.4,549.6,240.7,549.6
			z"/>
	</g>
	<g>
		<path class="st3" d="M232.6,387.3c-0.2,0-0.5-0.1-0.7-0.2c-0.5-0.4-0.6-1.1-0.2-1.6l41.4-54.3c0.4-0.5,1.1-0.6,1.6-0.2
			c0.5,0.4,0.6,1.1,0.2,1.6l-41.4,54.3C233.3,387.2,233,387.3,232.6,387.3z"/>
	</g>
	<g>
		<path class="st3" d="M239.8,403.2c0,0-0.1,0-0.1,0c-0.6-0.1-1.1-0.6-1-1.3c0.1-1-0.9-8.3-8.1-16c-8.9-9.5-19.3-8.8-19.4-8.8
			c-0.6,0.1-1.2-0.3-1.3-0.9c-0.1-0.6,0.3-1.2,0.9-1.3c1.7-0.3,12.6,0,21.5,9.5c7.2,7.8,8.9,15.7,8.7,17.8
			C240.9,402.7,240.4,403.2,239.8,403.2z"/>
	</g>
	<g>
		<path class="st3" d="M487,367.8c-3.6,0-7.1-0.4-10.4-1.4l-147.9-45.5c-0.6-0.2-0.9-0.8-0.8-1.4s0.8-0.9,1.4-0.8l147.9,45.5
			c17.5,4.8,40.1-4.3,52.7-21.3c0.4-0.5,0.7-1,1-1.4c2-2.9,3.8-6.1,5.2-9.3c5.7-12.8,4.7-27.8-2.7-39.9
			c-12-19.6-21.1-40.8-27.2-62.9c-5-18.1-7.8-36.8-8.5-55.6c-0.7-18.8-13-34.9-30.6-40.1c-0.5-0.2-1.1-0.3-1.7-0.5
			c-0.5-0.1-1.1-0.3-1.6-0.4c-16.7-3.6-34.3,3.1-44.9,17.2l-98.1,130.6c-0.4,0.5-1.1,0.6-1.6,0.2s-0.6-1.1-0.2-1.6l98.1-130.6
			c11.1-14.8,29.6-21.8,47.2-18c0.5,0.1,1.1,0.2,1.7,0.4c0.6,0.2,1.2,0.3,1.7,0.5c18.5,5.4,31.5,22.4,32.2,42.2
			c0.7,18.6,3.5,37.2,8.5,55.1c6,21.9,15.1,42.9,27,62.3c7.8,12.8,8.9,28.5,2.9,42c-1.5,3.4-3.3,6.6-5.5,9.7c-0.4,0.5-0.7,1-1.1,1.5
			C521,358.8,503.2,367.8,487,367.8z"/>
	</g>
	<g>
		<path class="st3" d="M330.5,297.4c-0.5,0-0.9-0.3-1.1-0.8c-0.2-0.6,0.1-1.2,0.8-1.4l63.3-19.8c0.6-0.2,1.2,0.1,1.4,0.8
			c0.2,0.6-0.1,1.2-0.8,1.4l-63.3,19.8C330.7,297.4,330.6,297.4,330.5,297.4z"/>
	</g>
	<g>
		<path class="st3" d="M407.3,297.9c-0.1,0-0.2,0-0.4-0.1c-1.6-0.5-10.9-6.4-13.8-19c-2.3-10.4,0.2-18.1,1.4-19.7
			c0.4-0.5,1.1-0.6,1.6-0.2c0.5,0.4,0.6,1.1,0.2,1.6c-0.6,0.8-3.4,7.6-1.1,17.9c2.9,12.7,12.2,17.3,12.3,17.4
			c0.6,0.2,0.9,0.9,0.7,1.5C408.2,297.6,407.7,297.9,407.3,297.9z"/>
	</g>
	<g>
		<path class="st3" d="M278.7,276.3c-0.3,0-0.7-0.2-0.9-0.4L177,145c-10-14.5-4.4-38.1,5.7-55c0.3-0.5,0.6-1,0.9-1.4
			c0.3-0.5,0.7-1,1-1.5c11-15.9,31.2-22.8,50.2-17.2c17.9,5.2,36.4,8.4,54.9,9.4c22.7,1.2,45.4-0.7,67.6-5.8
			C372,70,387.2,74,398.1,84c2.7,2.5,5.2,5.3,7.5,8.2c0.4,0.5,0.7,1,1.1,1.5c12.2,17.4,18.5,46.5,7.4,63c-0.4,0.5-1.1,0.7-1.6,0.3
			c-0.5-0.4-0.7-1.1-0.3-1.6c10.5-15.7,4.4-43.6-7.4-60.4c-0.3-0.5-0.7-1-1-1.4c-2.1-2.9-4.5-5.5-7.2-7.9
			c-10.4-9.5-24.8-13.2-38.7-10c-22.4,5.2-45.4,7.1-68.3,5.9c-18.7-1-37.4-4.2-55.5-9.5c-18.1-5.3-37.2,1.3-47.7,16.3
			c-0.3,0.5-0.6,0.9-1,1.4c-0.3,0.5-0.6,0.9-0.9,1.4c-13.4,22.6-12.6,42.7-5.8,52.5l100.8,130.8c0.4,0.5,0.3,1.2-0.2,1.6
			C279.2,276.2,279,276.3,278.7,276.3z"/>
	</g>
	<g>
		<path class="st3" d="M297.9,272.5C297.9,272.5,297.9,272.5,297.9,272.5c-0.6,0-1.2-0.5-1.1-1.2l0.7-68.3c0-0.6,0.5-1.1,1.2-1.1
			c0.6,0,1.1,0.5,1.1,1.2l-0.7,68.3C299,272,298.5,272.5,297.9,272.5z"/>
	</g>
	<g>
		<path class="st3" d="M301.5,204.6c-0.1,0-0.1,0-0.2,0c-10.6-0.1-17.6-4.3-18.9-5.8c-0.4-0.5-0.4-1.2,0.1-1.6
			c0.5-0.4,1.2-0.4,1.6,0.1c0.7,0.8,6.7,5,17.2,5c0.1,0,0.1,0,0.2,0c12.9,0,19.5-8,19.5-8.1c0.4-0.5,1.1-0.7,1.6-0.3
			c0.5,0.3,0.7,1,0.4,1.5C322.1,196.9,314.4,204.6,301.5,204.6z"/>
	</g>
	<g>
		<path class="st3" d="M356.5,543.5c-1.1,0-2.1,0-3.2-0.1c-3.7-0.3-7.4-0.9-11-1.8c-0.6-0.2-1.2-0.3-1.8-0.5
			c-20-6-53.5-46.6-55.1-66.9c0-0.6,0.4-1.2,1.1-1.2c0.6-0.1,1.2,0.4,1.2,1.1c1.5,19.2,34.5,59.2,53.4,64.9c0.6,0.2,1.1,0.3,1.7,0.5
			c3.4,0.9,7,1.5,10.5,1.8c14,1,27.7-5,36.6-16.2c14.4-18,31.2-33.8,49.9-47c15.3-10.8,32-19.9,49.4-27
			c17.5-7.1,28.4-24.1,27.3-42.4c0-0.6-0.1-1.1-0.1-1.7c-0.1-0.5-0.1-1.1-0.2-1.6c-2.3-17-14.6-31.2-31.4-36.4l-158.8-48.5
			c-0.6-0.2-0.9-0.8-0.8-1.4c0.2-0.6,0.8-0.9,1.4-0.8l158.8,48.5c17.7,5.4,30.6,20.4,33,38.2c0.1,0.6,0.1,1.1,0.2,1.7
			c0.1,0.6,0.1,1.2,0.1,1.8c1.2,19.3-10.3,37.2-28.7,44.7c-17.3,7-33.7,16-48.9,26.7c-18.5,13.1-35.2,28.8-49.4,46.5
			C383.2,537.3,370.2,543.5,356.5,543.5z"/>
	</g>
	<g>
		<path class="st3" d="M357.5,389.4c-0.3,0-0.7-0.2-0.9-0.4L314,333.9c-0.4-0.5-0.3-1.2,0.2-1.6c0.5-0.4,1.2-0.3,1.6,0.2l42.6,55.1
			c0.4,0.5,0.3,1.2-0.2,1.6C358,389.3,357.8,389.4,357.5,389.4z"/>
	</g>
	<g>
		<path class="st3" d="M349.5,407.8c-0.6,0-1-0.4-1.1-1c-0.2-1.7,0.8-12.6,10.8-20.9c8.2-6.8,16.2-8,18.2-7.6c0.6,0.1,1,0.7,0.9,1.3
			c-0.1,0.6-0.7,1.1-1.3,0.9c-1-0.2-8.3,0.4-16.4,7.1c-10,8.3-10,18.7-9.9,18.8c0.1,0.6-0.4,1.2-1,1.3
			C349.6,407.8,349.6,407.8,349.5,407.8z"/>
	</g>
</g>
</svg>
