<?xml version="1.0" encoding="utf-8"?>
<!-- Generator: Adobe Illustrator 24.2.3, SVG Export Plug-In . SVG Version: 6.00 Build 0)  -->
<svg version="1.1" xmlns="http://www.w3.org/2000/svg" xmlns:xlink="http://www.w3.org/1999/xlink" x="0px" y="0px"
	 viewBox="0 0 600 600" style="enable-background:new 0 0 600 600;" xml:space="preserve">
<style type="text/css">
	.st0{display:none;}
	.st1{display:inline;fill:none;stroke:#1D1D1B;stroke-miterlimit:10;}
	.st2{display:inline;}
	.st3{fill:#DEAB5B;stroke:#DEAB5B;stroke-width:2;stroke-miterlimit:10;}
</style>
<g id="Capa_1" class="st0">
	<circle class="st1" cx="300" cy="300" r="300"/>
	<g class="st2">
		<g>
			<g>
				<path d="M92.4,439.5C92.4,439.5,92.4,439.5,92.4,439.5C92.4,439.5,92.4,439.5,92.4,439.5z"/>
				<path d="M67.3,401.9L67.3,401.9L67.3,401.9z"/>
			</g>
			<path d="M494.5,163.3C494.5,163.3,494.5,163.3,494.5,163.3C494.5,163.3,494.5,163.3,494.5,163.3z"/>
		</g>
		<g>
			<g>
				<path d="M155.3,502.5L155.3,502.5L155.3,502.5z"/>
				<path d="M147.9,501.6L147.9,501.6L147.9,501.6z"/>
			</g>
			<path d="M431.5,100.4L431.5,100.4L431.5,100.4z"/>
		</g>
		<path d="M543.1,313.4l-23.8-12l23.8-12c4.1-2,6.5-6.1,6.4-10.7c-0.1-4.5-2.8-8.4-7-10.2c-16.1-6.9-40.6-13.8-74-14
			c28.9-16.9,46.6-35.1,57.1-49.1c0,0,0-0.1,0.1-0.1c2.7-3.6,3-8.3,0.9-12.3c-2.2-4-6.3-6.4-10.9-6.1l-26.6,1.5l14.6-22.3
			c2.5-3.8,2.5-8.6,0.1-12.4c-2.4-3.8-6.6-5.9-11-5.4c0,0-0.1,0-0.1,0c-17.4,2.1-42,8.4-71.1,24.9c16.6-29,22.8-53.7,24.9-71.1
			c0,0,0-0.1,0-0.1c0.5-4.5-1.5-8.7-5.4-11.1c-3.9-2.4-8.6-2.3-12.4,0.1l-22.3,14.6l1.5-26.6c0.3-4.5-2.1-8.7-6.1-10.9
			c-4-2.1-8.7-1.8-12.3,1c-7.9,5.9-15.6,13-22.9,21.1c-2.8,3.1-2.5,7.8,0.5,10.6c3.1,2.8,7.8,2.5,10.6-0.5
			c4.8-5.3,9.7-10.1,14.8-14.4l-1.9,33.7c-0.2,2.8,1.3,5.5,3.7,6.9c2.5,1.4,5.5,1.3,7.9-0.2l28.2-18.5c-4,22.3-15.3,54.5-45.2,92
			L337,254.9c-7.1-6.6-15.6-11.7-25.2-14.6l23.5-69.1c6.2-15.9,13.6-30.5,21.8-43.5c2.2-3.5,1.2-8.1-2.3-10.3
			c-3.5-2.2-8.1-1.2-10.3,2.3c-1.4,2.2-2.8,4.6-4.2,6.9c-0.2-33.5-7.1-58-14-74.1c0,0,0-0.1,0-0.1c-1.8-4.1-5.7-6.8-10.2-6.9
			c-4.5-0.1-8.7,2.3-10.7,6.4l-12,23.8l-12-23.8c-2-4.1-6.2-6.5-10.7-6.4c-4.5,0.1-8.4,2.8-10.2,6.9c0,0,0,0.1,0,0.1
			c-6.9,16.1-13.8,40.6-14,74c-16.9-28.9-35.1-46.6-49.2-57.2c-3.6-2.7-8.3-3-12.3-0.9c-4,2.2-6.4,6.3-6.1,10.9l1.5,26.6l-22.3-14.6
			c-3.8-2.5-8.6-2.5-12.4-0.1c-3.8,2.4-5.9,6.6-5.4,11.1c0,0,0,0.1,0,0.1c2.1,17.4,8.3,42,24.9,71.1c-29.1-16.6-53.7-22.8-71.2-24.9
			c-4.5-0.5-8.7,1.5-11.1,5.4c-2.4,3.9-2.3,8.6,0.1,12.4l14.6,22.3L71.2,187c-4.5-0.3-8.7,2.1-10.9,6.1c-2.1,4-1.8,8.7,0.9,12.3
			c0,0,0,0.1,0.1,0.1c10.5,14,28.2,32.2,57.1,49.1c-33.5,0.2-57.9,7.1-74,14c0,0-0.1,0-0.1,0.1c-4.1,1.8-6.8,5.7-6.9,10.2
			c-0.1,4.6,2.3,8.7,6.4,10.7l23.8,12l-23.8,12c-4.1,2-6.5,6.1-6.4,10.7c0.1,4.5,2.8,8.4,7,10.2c16.1,6.9,40.6,13.8,74.1,14
			c-28.9,16.9-46.6,35.1-57.1,49.1c0,0,0,0.1-0.1,0.1c-2.7,3.6-3,8.3-0.9,12.3c2.2,4,6.3,6.4,10.9,6.1l26.6-1.5l-14.6,22.3
			c-2.5,3.8-2.5,8.6-0.1,12.4c2.1,3.4,5.8,5.4,9.7,5.4c0.4,0,0.9,0,1.4-0.1c0,0,0.1,0,0.1,0c17.4-2.1,42-8.3,71.1-24.9
			c-16.5,29-22.8,53.7-24.9,71.1c0,0,0,0.1,0,0.1c-0.5,4.5,1.5,8.7,5.4,11.1c3.9,2.4,8.6,2.3,12.4-0.1l22.3-14.6l-1.5,26.6
			c-0.3,4.5,2.1,8.7,6.1,10.9c1.7,0.9,3.6,1.4,5.4,1.4c2.4,0,4.8-0.8,6.9-2.3c14-10.5,32.3-28.2,49.2-57.2c0,3.9,0.1,7.7,0.3,11.5
			c0.2,4.1,3.8,7.3,7.9,7.1c4.1-0.2,7.3-3.8,7.1-7.9c-0.8-14.5-0.1-29.9,1.9-45.8c0.5-1.1,19.1-55.7,26.1-76.1
			c1.2,0.1,5.9,0.1,7.1,0c7.7,22.5,25.6,75,26.1,76.1c5.7,44.3-0.4,75.9-7.7,96.2l-15.2-30.2c-1.3-2.5-3.9-4.1-6.7-4.1
			c-2.8,0-5.4,1.6-6.7,4.1l-15.2,30.1c-2-5.4-3.6-11.2-5-17.2c-0.9-4-5-6.5-9-5.6c-4,0.9-6.5,5-5.6,9c2.2,9.6,5.1,18.6,8.6,26.8
			c0,0,0,0.1,0,0.1c1.8,4.1,5.7,6.8,10.2,6.9c4.5,0.1,8.7-2.3,10.7-6.4l12-23.8l12,23.8c2,3.9,5.9,6.4,10.3,6.4c0.1,0,0.2,0,0.4,0
			c4.5-0.1,8.4-2.8,10.2-6.9c0,0,0-0.1,0-0.1c6.9-16.1,13.8-40.6,14-74c16.9,28.9,35.1,46.6,49.2,57.2c2,1.5,4.4,2.3,6.8,2.3
			c1.9,0,3.7-0.5,5.5-1.4c4-2.2,6.4-6.3,6.1-10.9l-1.5-26.6l22.3,14.6c3.8,2.5,8.6,2.5,12.4,0.1c3.8-2.4,5.9-6.6,5.4-11.1
			c0,0,0-0.1,0-0.1c-2.1-17.4-8.3-42-24.9-71.1c29.1,16.6,53.7,22.8,71.2,24.9c0.5,0.1,0.9,0.1,1.4,0.1c3.9,0,7.6-2,9.7-5.4
			c2.4-3.9,2.3-8.6-0.1-12.4L489,414.4l26.6,1.5c4.5,0.3,8.7-2.1,10.9-6.1c2.1-4,1.8-8.7-0.9-12.3c0,0,0-0.1-0.1-0.1
			c-10.5-14-28.2-32.2-57.1-49.1c33.5-0.2,57.9-7.1,74-14c0,0,0.1,0,0.1-0.1c4.1-1.8,6.8-5.7,6.9-10.2
			C549.5,319.5,547.1,315.4,543.1,313.4L543.1,313.4z M399.7,205.9c35.4-27.1,65.9-37.6,87.2-41.4l-18.5,28.2
			c-1.6,2.4-1.6,5.4-0.2,7.9c1.4,2.5,4.1,3.9,6.9,3.7l33.7-1.9c-14,16.6-38.3,37.7-79.5,54.8c-1.3,0.2-62.6,12.2-79,15.4
			c-1.1-2.1-2.2-4.1-3.5-6.1C363,248,398.9,206.8,399.7,205.9L399.7,205.9z M271.5,65.4l15.2,30.2c1.3,2.5,3.9,4.1,6.7,4.1
			c2.8,0,5.4-1.6,6.7-4.1l15.2-30.2c7.4,20.4,13.5,52,7.7,96.3c-0.5,1.1-18.9,55.2-26.1,76.1c-1.2-0.1-5.9-0.1-7.1,0
			c-7.2-21-25.6-75-26.1-76.1C258.1,117.4,264.1,85.8,271.5,65.4L271.5,65.4z M156.4,108l28.2,18.5c2.4,1.6,5.4,1.6,7.9,0.2
			c2.5-1.4,3.9-4.1,3.7-6.9l-1.9-33.7c17.3,14.6,39.6,40.5,57.1,85.1l23.5,69.1c-9.5,2.9-18.1,7.9-25.2,14.6L201.6,200
			C171.7,162.5,160.4,130.3,156.4,108z M78.1,202.4l33.7,1.9c2.8,0.2,5.5-1.3,6.9-3.7c1.4-2.5,1.3-5.5-0.2-7.9L100,164.5
			c21.4,3.8,51.8,14.4,87.2,41.4c0.8,1,38.4,44.1,52.9,60.7c-1.3,2-2.5,4-3.5,6.1c-17.6-3.5-77.7-15.3-79-15.5
			C116.4,240.1,92.1,219,78.1,202.4L78.1,202.4z M57.4,323.3l30.1-15.2c2.5-1.3,4.1-3.9,4.1-6.7c0-2.8-1.6-5.4-4.1-6.7l-30.2-15.2
			c21.3-7.7,54.9-14,102.3-6.9l71.6,14.2c-1.1,4.7-1.7,9.5-1.7,14.5s0.6,9.9,1.7,14.5l-71.6,14.2C112.3,337.3,78.8,331,57.4,323.3
			L57.4,323.3z M100,438.4l18.5-28.2c1.6-2.4,1.6-5.4,0.2-7.9c-1.3-2.3-3.8-3.7-6.5-3.7c-0.1,0-0.3,0-0.4,0l-33.7,1.9
			c14-16.6,38.3-37.7,79.5-54.8c1.2-0.2,54.3-10.6,79-15.5c1.1,2.1,2.2,4.1,3.5,6.1c-14.7,16.9-52.1,59.7-52.9,60.7
			C151.7,424.1,121.3,434.6,100,438.4L100,438.4z M251.5,431.6c-17.5,44.6-39.7,70.5-57.1,85.1l1.9-33.7c0.2-2.8-1.3-5.5-3.7-6.9
			c-1.2-0.7-2.5-1-3.7-1c-1.4,0-2.9,0.4-4.1,1.2l-28.2,18.5c4-22.3,15.3-54.5,45.2-92l48.2-54.9c7.1,6.6,15.6,11.7,25.2,14.6
			L251.5,431.6z M244.6,301.4c0-26.9,21.9-48.8,48.8-48.8c26.9,0,48.8,21.9,48.8,48.8c0,26.9-21.9,48.8-48.8,48.8
			C266.5,350.2,244.6,328.3,244.6,301.4L244.6,301.4z M430.4,494.9l-28.2-18.5c-2.4-1.6-5.4-1.6-7.9-0.2c-2.5,1.4-3.9,4.1-3.7,6.9
			l1.9,33.7c-17.3-14.6-39.6-40.5-57.1-85.1l-23.5-69.1c9.5-2.9,18.1-7.9,25.2-14.6l48.2,54.9C415.1,440.4,426.4,472.6,430.4,494.9
			L430.4,494.9z M508.7,400.5l-33.7-1.9c-2.8-0.2-5.5,1.3-6.9,3.7c-1.4,2.5-1.3,5.5,0.2,7.9l18.5,28.2
			c-21.4-3.8-51.8-14.4-87.2-41.4c-0.8-1-40.8-46.8-52.9-60.7c1.3-2,2.5-4,3.5-6.1c21.7,4.3,77.8,15.3,79,15.5
			C470.4,362.8,494.7,383.8,508.7,400.5L508.7,400.5z M427.1,330.2L355.5,316c1.1-4.7,1.7-9.5,1.7-14.5c0-5-0.6-9.9-1.7-14.5
			l71.6-14.2c47.4-7.1,80.9-0.8,102.3,6.9l-30.1,15.2c-2.5,1.3-4.1,3.9-4.1,6.7c0,2.8,1.6,5.4,4.1,6.7l30.2,15.2
			C508.1,331,474.5,337.3,427.1,330.2z"/>
	</g>
</g>
<g id="Capa_2">
	<g>
		<path class="st3" d="M293.9,355.5c-30.5,0-55.3-24.8-55.3-55.3s24.8-55.3,55.3-55.3c30.5,0,55.3,24.8,55.3,55.3
			S324.4,355.5,293.9,355.5z M293.9,247.2c-29.2,0-53,23.8-53,53c0,29.2,23.8,53,53,53s53-23.8,53-53
			C346.9,271,323.1,247.2,293.9,247.2z"/>
	</g>
	<g>
		<path class="st3" d="M255.4,262.9c-0.2,0-0.5-0.1-0.7-0.2c-30.3-21.1-56.1-48.9-74.9-80.4c-14.3-24.1-24.6-50.3-30.6-77.9
			c-0.4-1.9,0.4-3.8,2-4.9c1.6-1.1,3.7-1,5.3,0.1l29.2,20.5c0.8,0.5,1.7,0.6,2.5,0.1c0.8-0.5,1.3-1.3,1.3-2.2l-1.6-37.4
			c-0.1-2,1.1-3.8,3-4.6c1.9-0.7,4-0.2,5.3,1.4c18.4,22,34.9,45.8,49.1,70.8c17.5,30.8,31.5,63.6,41.7,97.5c0.2,0.6-0.2,1.2-0.8,1.4
			c-0.6,0.2-1.2-0.2-1.4-0.8c-10.2-33.8-24.1-66.4-41.5-97c-14.1-24.8-30.5-48.5-48.9-70.4c-0.8-1-2-1-2.7-0.7
			c-0.8,0.3-1.6,1.1-1.5,2.4l1.6,37.4c0.1,1.8-0.9,3.5-2.4,4.3c-1.6,0.9-3.5,0.8-5-0.3l-29.2-20.5c-1-0.7-2.1-0.5-2.7,0
			c-0.7,0.4-1.3,1.3-1,2.5c5.9,27.3,16.1,53.3,30.3,77.2c18.6,31.2,44.2,58.8,74.2,79.7c0.5,0.4,0.6,1.1,0.3,1.6
			C256.2,262.7,255.8,262.9,255.4,262.9z"/>
	</g>
	<g>
		<path class="st3" d="M253.4,165.9c-0.5,0-1-0.3-1.1-0.8c-5.9-21.7-6.8-44.7-2.6-66.5c3.1-16.2,9-31.7,17.4-46
			c0.7-1.2,1.9-1.9,3.3-1.8c1.4,0,2.6,0.8,3.2,2l18.6,35c0.3,0.6,1,1,1.7,1c0,0,0,0,0,0c0.7,0,1.3-0.4,1.7-1L313.7,53
			c0.5-1,1.6-1.6,2.7-1.6c0,0,0,0,0.1,0c1.2,0,2.2,0.7,2.7,1.7c6.4,13.8,11.1,28.3,13.9,43.2c4.9,25.9,2.4,47.1-0.6,64.5
			c-0.1,0.6-0.7,1-1.3,0.9c-0.6-0.1-1-0.7-0.9-1.3c3-17.1,5.5-38.1,0.6-63.7c-2.8-14.7-7.4-29.1-13.7-42.7c-0.2-0.4-0.5-0.4-0.7-0.4
			c-0.1,0-0.5,0-0.7,0.4l-18.1,34.7c-0.7,1.4-2.1,2.2-3.7,2.2c0,0,0,0,0,0c-1.6,0-3-0.8-3.7-2.2l-18.6-35c-0.3-0.5-0.7-0.8-1.3-0.8
			c-0.2,0-0.9,0.1-1.3,0.7C260.8,67.8,255,83.1,252,99c-4.2,21.5-3.3,44.1,2.6,65.5c0.2,0.6-0.2,1.2-0.8,1.4
			C253.6,165.9,253.5,165.9,253.4,165.9z"/>
	</g>
	<g>
		<path class="st3" d="M338.3,268.2l-0.9-0.8l0,0l-1.1,0c0-0.5,0-0.5,2.6-3.1c27.4-26.6,47.6-48.9,60-66.5
			c19-26.8,31.3-59.4,36.7-96.9c0-0.2-0.1-0.3-0.2-0.4c-0.1-0.1-0.3-0.1-0.4,0l-35.6,22.7c-0.8,0.5-1.9,0.6-2.8,0.1
			c-0.9-0.5-1.4-1.4-1.4-2.4l1.4-45.4c0-0.2-0.2-0.4-0.2-0.4c-0.1-0.1-0.3-0.1-0.4,0.1c-30.2,29.2-54.1,63.1-71.1,100.7
			c-10,22.2-17.6,45.6-22.5,69.6c-0.1,0.6-0.7,1-1.3,0.9c-0.6-0.1-1-0.7-0.9-1.4c4.9-24.2,12.5-47.8,22.6-70.1
			c17.1-37.8,41.2-71.9,71.5-101.4c0.8-0.8,2-1,3-0.5c1,0.4,1.6,1.5,1.6,2.6l-1.4,45.4c0,0.2,0.1,0.3,0.2,0.4c0.1,0,0.2,0.1,0.4,0
			l35.6-22.7c0.9-0.6,2-0.6,2.9,0c0.9,0.6,1.4,1.6,1.2,2.6c-5.4,37.9-17.9,70.9-37.1,97.9c-12.5,17.7-32.8,40.1-60.3,66.8
			C339.4,267.2,338.5,268.1,338.3,268.2z"/>
	</g>
	<g>
		<path class="st3" d="M440.2,268.2c-0.5,0-0.9-0.3-1.1-0.7c-0.2-0.6,0.1-1.3,0.6-1.5c16.2-6.4,35.3-15.2,54.6-32.7
			c11.1-10,20.9-21.5,29.2-34c0.2-0.3,0.1-0.7,0-0.8c-0.1-0.1-0.3-0.4-0.7-0.4l-39,2.6c-1.5,0.1-3-0.7-3.8-2c-0.8-1.3-0.8-3,0-4.3
			l20.1-34.1c0.3-0.5,0.3-1,0-1.5c-0.1-0.2-0.5-0.7-1.3-0.7c-16.3,0.3-32.3,3.3-47.5,9c-20.5,7.7-39.4,20.2-54.5,36.3
			c-0.4,0.5-1.2,0.5-1.6,0c-0.5-0.4-0.5-1.2,0-1.6c15.4-16.4,34.6-29.1,55.4-36.9c15.5-5.8,31.7-8.9,48.3-9.2c1.3,0,2.6,0.7,3.3,1.9
			c0.7,1.2,0.7,2.6,0,3.8l-20.1,34.1c-0.4,0.6-0.4,1.3,0,2c0.4,0.6,1,0.9,1.7,0.9l39-2.6c1.2-0.1,2.2,0.5,2.8,1.5
			c0.6,1,0.5,2.2-0.1,3.2c-8.4,12.7-18.4,24.3-29.6,34.4c-19.6,17.7-39,26.7-55.3,33.1C440.5,268.2,440.4,268.2,440.2,268.2z"/>
	</g>
	<g>
		<path class="st3" d="M456.3,347c-4.3,0-8.5-0.1-12.7-0.4c-20.6-1.4-51-7.3-90.5-17.7c-0.3,0.3-0.8,0.4-1.2,0.3
			c-0.2-0.1-2.3-0.8-4.4-1.4c-2-0.7-3.2-1.1-4-1.3c-0.1,0-0.2,0-0.2-0.1l0,0c-1-0.4-1-0.6-1-1.1c0-0.4,0.2-0.8,0.5-1
			c0.2-0.1,0.3-0.2,1-0.1l0,0c0,0,0,0,0.1,0c0.6,0.1,1.6,0.4,3.3,0.9c42.5,11.3,74.9,17.8,96.5,19.3c32.7,2.2,67-4.3,101.8-19.3
			c0.2-0.1,0.2-0.3,0.2-0.4c0-0.1,0-0.3-0.2-0.4l-37.9-18.5c-0.9-0.4-1.5-1.3-1.5-2.3s0.5-1.9,1.4-2.4l39.5-22.5
			c0.2-0.1,0.2-0.3,0.2-0.4c0-0.1-0.1-0.3-0.3-0.3c-40.7-10.5-82-13.2-123-8.1c-32.1,4-64.8,15.1-77.4,19.6
			c-0.6,0.2-1.3-0.1-1.5-0.7c-0.2-0.6,0.1-1.3,0.7-1.5c12.6-4.6,45.5-15.7,77.9-19.8c41.2-5.1,82.9-2.4,123.8,8.1
			c1.1,0.3,1.9,1.2,2,2.2c0.1,1.1-0.4,2.2-1.3,2.7l-39.5,22.5c-0.2,0.1-0.2,0.3-0.2,0.4s0,0.3,0.2,0.4l37.9,18.5
			c1,0.5,1.5,1.4,1.5,2.5c0,1.1-0.6,2-1.6,2.4C515.7,340.3,485.5,347,456.3,347z"/>
	</g>
	<g>
		<path class="st3" d="M507.6,459.7c-0.1,0-0.2,0-0.3,0c-15.1-1.6-30-5.2-44.2-10.5c-24.7-9.2-41.6-22.3-54.8-33.9
			c-0.5-0.4-0.5-1.1-0.1-1.6c0.4-0.5,1.1-0.5,1.6-0.1c13.1,11.4,29.8,24.4,54.1,33.5c14,5.2,28.7,8.7,43.6,10.3
			c0.4,0,0.6-0.2,0.7-0.3c0.1-0.1,0.2-0.4,0-0.8l-20.3-33.4c-0.8-1.3-0.8-3,0-4.3s2.3-2.1,3.8-2l39.6,2.2c0.5,0,1-0.2,1.3-0.7
			c0.1-0.2,0.4-0.8,0.1-1.5c-7.8-14.4-17.8-27.2-29.9-38.1c-16.2-14.7-36.1-25.6-57.4-31.7c-0.6-0.2-1-0.8-0.8-1.4
			c0.2-0.6,0.8-1,1.4-0.8c21.6,6.1,41.8,17.3,58.3,32.2c12.2,11.1,22.4,24.1,30.4,38.7c0.7,1.2,0.6,2.6-0.1,3.8
			c-0.7,1.2-2,1.8-3.4,1.7l-39.6-2.2c-0.7,0-1.4,0.3-1.7,0.9s-0.4,1.3,0,2l20.3,33.4c0.6,1,0.6,2.2,0,3.2
			C509.6,459.2,508.6,459.7,507.6,459.7z"/>
	</g>
	<g>
		<path class="st3" d="M406.2,537c-0.6,0-1.2-0.2-1.7-0.6c-29.6-24.3-51.4-52-64.6-82.4c-12.2-28.1-27.7-74.9-33.6-92.5
			c-1.1-3.3-1.9-5.9-2.1-6.3c0-0.1-0.1-0.1-0.1-0.2c-0.2-0.6,0.2-1.2,0.8-1.4c1.1-0.3,1.3,0.3,2,2.4c0.4,1.1,0.9,2.7,1.6,4.8
			c5.8,17.6,21.3,64.2,33.5,92.3c13.1,30.1,34.6,57.5,64,81.6c0.2,0.1,0.3,0.1,0.4,0c0.1,0,0.2-0.2,0.2-0.4l-1-42.2
			c0-1,0.5-1.9,1.4-2.4c0.9-0.5,1.9-0.5,2.8,0.1l38.1,24.7c0.2,0.1,0.4,0.1,0.5,0c0.1-0.1,0.2-0.2,0.2-0.4
			c-9.4-40.9-26-78.9-49.4-112.9c-15.1-21.9-44.6-49.1-60.5-63.6l-2.6-2.4c-0.5-0.4-0.5-1.2-0.1-1.6c0.4-0.5,1.2-0.5,1.6-0.1
			l2.6,2.4c15.9,14.6,45.6,41.9,60.8,64c23.5,34.2,40.2,72.5,49.7,113.7c0.2,1.1-0.2,2.2-1.1,2.8c-0.9,0.6-2.1,0.7-3,0.1l-38.1-24.7
			c-0.2-0.1-0.3-0.1-0.4,0c-0.1,0-0.2,0.2-0.2,0.4l1,42.2c0,1.1-0.6,2-1.5,2.5C407.1,536.9,406.6,537,406.2,537z"/>
	</g>
	<g>
		<path class="st3" d="M240.2,294.5c-0.2,0-0.3,0-0.5-0.1l0,0c-0.2-0.1-1.4-0.4-3-0.8c-34.8-8.9-62.4-18-82.1-26.8
			c-30.2-13.6-57.7-35.7-81.6-65.7c-0.7-0.8-0.8-1.9-0.3-2.9c0.5-1,1.4-1.5,2.5-1.5l42.2,1.6c0.2,0,0.3-0.1,0.4-0.2
			c0-0.1,0.1-0.2,0-0.4l-24.2-38.5c-0.6-0.9-0.6-2.1,0.1-3c0.6-0.9,1.8-1.3,2.8-1c29.2,7.1,62.3,21.3,93.1,40c0.5,0.3,0.7,1,0.4,1.6
			c-0.3,0.5-1,0.7-1.6,0.4c-30.6-18.6-63.5-32.7-92.5-39.7c-0.2-0.1-0.3,0.1-0.4,0.2c-0.1,0.1-0.1,0.3,0,0.5l24.2,38.5
			c0.5,0.8,0.6,1.9,0.1,2.8c-0.5,0.9-1.4,1.4-2.4,1.3L75.3,199c-0.2,0-0.3,0.1-0.4,0.2c0,0.1-0.1,0.3,0,0.4
			c23.6,29.7,50.8,51.5,80.7,65c19.5,8.8,47,17.8,81.7,26.7c0.4,0.1,0.8,0.2,1.1,0.3c0.6-0.5,1.2-0.1,1.8,0.3l0.5,0.3l0,0
			c0.2,0.1,0.3,0.2,0.4,0.4c0.3,0.4,0.2,1-0.2,1.4C240.7,294.4,240.5,294.5,240.2,294.5z"/>
	</g>
	<g>
		<path class="st3" d="M123.2,349.1c-9.9,0-20.7-0.9-32.4-3.3c-14.8-3.1-29.3-8-43-14.7c-1-0.5-1.7-1.5-1.7-2.7
			c0-1.2,0.6-2.2,1.7-2.7l35-17.5c0.6-0.3,1-0.9,1-1.7c0-0.7-0.3-1.3-1-1.7l-34.6-19.3c-1.2-0.7-1.9-1.9-1.9-3.3
			c0-1.4,0.7-2.6,1.9-3.3c14.5-8.1,30.1-13.7,46.3-16.5c29-5.1,50.8-0.2,64.7,3.8c0.6,0.2,1,0.8,0.8,1.4c-0.2,0.6-0.8,1-1.4,0.8
			c-13.7-4-35.2-8.8-63.7-3.8c-16,2.8-31.3,8.3-45.6,16.3c-0.7,0.4-0.7,1-0.7,1.3c0,0.5,0.3,1,0.8,1.3L84,302.8
			c1.4,0.8,2.2,2.2,2.1,3.8c0,1.6-0.9,3-2.3,3.7l-35,17.5c-0.4,0.2-0.4,0.5-0.4,0.7c0,0.1,0,0.5,0.4,0.7
			c13.5,6.6,27.8,11.5,42.4,14.5c25.5,5.3,46.5,3.2,63.7,0.5c0.6-0.1,1.2,0.3,1.3,1c0.1,0.6-0.3,1.2-1,1.3
			C145.8,347.8,135.1,349.1,123.2,349.1z"/>
	</g>
	<g>
		<path class="st3" d="M93.5,450.7c-0.9,0-1.8-0.5-2.3-1.3c-0.6-0.9-0.5-2,0-2.9l23.3-35.2c0.1-0.2,0.1-0.3,0-0.4
			c0-0.1-0.1-0.2-0.4-0.2c0,0,0,0,0,0l-45.4,0.6c0,0,0,0,0,0c-1.1,0-2.1-0.6-2.5-1.7c-0.4-1-0.2-2.2,0.6-3
			c30-29.8,64.5-53.3,102.7-69.7c27.5-11.9,54.4-18.2,72.1-21.5c0.6-0.1,1.2,0.3,1.3,0.9c0.1,0.6-0.3,1.2-0.9,1.3
			c-17.6,3.2-44.3,9.6-71.7,21.3c-37.9,16.3-72.2,39.6-102,69.2c-0.2,0.2-0.1,0.3-0.1,0.4c0,0.1,0.1,0.3,0.4,0.3c0,0,0,0,0,0
			l45.4-0.6c1-0.1,1.9,0.5,2.4,1.4s0.4,1.9-0.1,2.8l-23.3,35.2c-0.1,0.2-0.1,0.4,0,0.4c0.1,0.1,0.2,0.2,0.4,0.2
			c37.6-4.7,70.5-16.4,97.6-34.9C209,401.4,233,380,262.7,350c1.3-1.3,1.9-2,2.4-2.3c0,0,0,0,0,0l0,0c0.5-0.4,0.6-0.4,0.9-0.4
			c0.6,0,1.1,0.5,1.1,1.1c0,0.2,0,0.3-0.4,0.9l0,0c0,0,0,0-0.1,0.1c-0.5,0.7-1.6,2-3.9,4.7c-0.3,0.3-0.7,0.5-1.1,0.4
			c-28.5,28.7-51.7,49.2-69.1,61c-27.4,18.7-60.6,30.6-98.6,35.3C93.7,450.7,93.6,450.7,93.5,450.7z"/>
	</g>
	<g>
		<path class="st3" d="M193,545.8c-0.5,0-0.9-0.1-1.4-0.3c-1-0.5-1.7-1.6-1.7-2.8l0.6-39.1c0-0.7-0.4-1.3-1-1.7
			c-0.6-0.3-1.4-0.3-2,0.1l-33,21.9c-1.2,0.8-2.6,0.8-3.8,0.2c-1.2-0.6-2-1.8-2-3.2c-0.6-16.6,1.7-33,6.6-48.7
			c6.7-21.2,18.4-41,34-57.3c0.4-0.5,1.2-0.5,1.6,0c0.5,0.4,0.5,1.2,0,1.6c-15.3,16-26.9,35.5-33.4,56.4c-4.9,15.5-7.1,31.6-6.5,48
			c0,0.8,0.6,1.1,0.8,1.2c0.5,0.2,1,0.2,1.5-0.1l33-21.9c1.3-0.9,3-0.9,4.3-0.2c1.4,0.7,2.2,2.2,2.2,3.7l-0.6,39.1
			c0,0.4,0.3,0.6,0.4,0.7c0.1,0.1,0.4,0.2,0.8-0.1c12.1-9,23-19.4,32.4-31c16.4-20.2,24.2-39.8,29.7-56.3c0.2-0.6,0.8-0.9,1.4-0.7
			c0.6,0.2,0.9,0.8,0.7,1.4c-5.6,16.7-13.5,36.5-30.1,57c-9.5,11.8-20.6,22.3-32.8,31.4C194.2,545.6,193.6,545.8,193,545.8z"/>
	</g>
	<g>
		<path class="st3" d="M273.2,565c-0.1,0-0.1,0-0.2,0c-1.1-0.1-2-0.8-2.4-1.9c-12.7-40.3-17.6-81.8-14.6-123.2
			c1.9-26.1,12.7-61.3,19.1-82.3c0.6-1.8,1.1-3.5,1.5-5c0.2-0.6,0.8-0.9,1.4-0.8c0.6,0.2,0.9,0.8,0.8,1.4c-0.5,1.6-1,3.3-1.5,5
			c-6.4,20.9-17.2,55.9-19,81.7c-2.9,41.1,2,82.3,14.5,122.4c0.1,0.2,0.2,0.3,0.4,0.3c0.1,0,0.3,0,0.4-0.2l20.4-40.6
			c0.5-0.9,1.4-1.5,2.4-1.5c1-0.1,1.9,0.5,2.4,1.4l20.5,36.9c0.1,0.2,0.3,0.2,0.4,0.2c0.1,0,0.3-0.1,0.3-0.3
			c13.1-35.6,17.8-70.1,13.9-102.7c-0.8-6.6-2-14.6-3.5-23.6c-0.1-0.6,0.3-1.2,0.9-1.3c0.6-0.1,1.2,0.3,1.3,0.9
			c1.5,9.1,2.7,17.1,3.5,23.7c4,32.9-0.7,67.9-14,103.8c-0.4,1-1.3,1.7-2.3,1.8c-1.1,0.1-2.1-0.4-2.6-1.4l-20.5-36.9
			c-0.1-0.2-0.3-0.2-0.4-0.2c-0.1,0-0.3,0-0.4,0.2l-20.4,40.6C275.2,564.4,274.3,565,273.2,565z"/>
	</g>
</g>
</svg>
