<?xml version="1.0" encoding="utf-8"?>
<!-- Generator: Adobe Illustrator 25.2.3, SVG Export Plug-In . SVG Version: 6.00 Build 0)  -->
<svg version="1.1" id="Layer_1" xmlns="http://www.w3.org/2000/svg" xmlns:xlink="http://www.w3.org/1999/xlink" x="0px" y="0px"
	 viewBox="0 0 200 200" style="enable-background:new 0 0 200 200;" xml:space="preserve">
<style type="text/css">
	.st0{fill:#CFD1D2;}
	.st1{fill:#4D4D4D;}
	.st2{fill:#010101;}
	.st3{fill:#EFEFEF;}
	.st4{fill:#A4A6A9;}
	.st5{fill:#231F20;}
	.st6{fill:#595A5C;}
	.st7{fill:#818182;}
	.st8{fill:#B7B7B8;}
	.st9{fill:#6E6F72;}
	.st10{fill:none;stroke:#010101;stroke-width:0.25;stroke-miterlimit:10;}
	.st11{font-family:'Muli-Light';}
	.st12{font-size:1.6901px;}
	.st13{font-size:1.6925px;}
	.st14{font-size:1.6871px;}
	.st15{font-size:1.6858px;}
	.st16{fill:none;stroke:#010101;stroke-linecap:round;stroke-linejoin:round;}
	.st17{clip-path:url(#SVGID_2_);}
	.st18{fill:#4D4D4D;stroke:#030303;stroke-width:0.5;stroke-linecap:round;stroke-linejoin:round;stroke-miterlimit:10;}
	.st19{fill:#030303;}
</style>
<g>
	<g>
		<path class="st0" d="M67.3,142.4c0,7.2,14,13,31.2,13s31.2-5.8,31.2-13v-5.6c0-1-0.3-1.9-0.7-2.8c3.3,2.6,5,5.5,5,8.4
			c0,9.1-15.9,16.5-35.4,16.5S63,151.5,63,142.4c0-3,1.7-5.9,5-8.4c-0.5,0.9-0.7,1.8-0.7,2.8L67.3,142.4z"/>
		<path class="st1" d="M126.5,159.9c-0.2,0.1-0.5,0.1-0.6-0.2l-0.1-0.1c-0.1-0.1-0.1-0.2,0-0.3c0-0.1,0.1-0.2,0.2-0.3l6.1-3.5
			c0.1,0,0.1-0.1,0.2-0.1h0.1c0.1,0,0.2,0.1,0.3,0.2l0.1,0.1c0.1,0.1,0.1,0.2,0,0.3c0,0.1-0.1,0.2-0.2,0.3L126.5,159.9z"/>
		<path class="st2" d="M125.9,159.8c0.1,0.2,0.4,0.3,0.6,0.2l6.1-3.5c0.1-0.1,0.2-0.2,0.2-0.3c0-0.1,0-0.2,0-0.3l-0.1-0.1
			c-0.1-0.1-0.2-0.2-0.3-0.2h-0.1c-0.1,0-0.2,0-0.2,0.1L126,159c-0.1,0.1-0.2,0.2-0.2,0.3c0,0.1,0,0.2,0,0.3L125.9,159.8z
			 M125.7,158.5l6.1-3.5c0.5-0.3,1.1-0.1,1.4,0.4c0,0,0,0,0,0l0.1,0.1c0.1,0.2,0.2,0.5,0.1,0.8c-0.1,0.3-0.2,0.5-0.5,0.6l-6.1,3.5
			c-0.5,0.3-1.1,0.1-1.4-0.4c0,0,0,0,0,0l-0.1-0.1c-0.1-0.2-0.2-0.5-0.1-0.8C125.3,158.9,125.5,158.7,125.7,158.5L125.7,158.5z"/>
		<path class="st1" d="M125.4,160c0.3,0.5,0.9,0.7,1.4,0.4c0,0,0,0,0,0l6.1-3.5c0.2-0.1,0.4-0.4,0.5-0.6c0.1-0.3,0-0.5-0.1-0.8
			l-0.1-0.1c-0.3-0.5-0.9-0.7-1.4-0.4c0,0,0,0,0,0l-6.1,3.5c-0.2,0.1-0.4,0.4-0.5,0.6c-0.1,0.3,0,0.5,0.1,0.8L125.4,160z
			 M117.4,163.7c0,2.5,1.5,4.5,3.4,4.5s3.4-2,3.4-4.5s-1.5-4.5-3.4-4.5S117.4,161.3,117.4,163.7z M98.5,159.5
			c17.7,0,32.4-6.1,35.4-14.1v11c0,9.1-15.9,16.5-35.4,16.5S63,165.5,63,156.4v-11C66,153.4,80.8,159.5,98.5,159.5z M103.7,166
			c0.1,0.5,0.5,0.9,1.1,0.9c0,0,0.1,0,0.1,0l8-1.1c0.3,0,0.5-0.2,0.7-0.4c0.2-0.2,0.2-0.5,0.2-0.8v-0.1c-0.1-0.6-0.6-1-1.2-0.9
			l-8,1.1C104,164.9,103.6,165.4,103.7,166L103.7,166z"/>
		<path class="st3" d="M119.1,163.7c0-0.3,0-0.6,0.1-0.9l1.1,0.2c0.1,0,0.2,0.1,0.3,0.2c0.1,0.1,0.1,0.2,0.1,0.3l0,0
			c0,0.2-0.2,0.3-0.4,0.3H120L119.1,163.7z"/>
		<path class="st4" d="M112.6,83.1c1.4,0.3,12.8,3.1,14.3,9.2c-1.5,5.2-7.9,8.6-19,10.1c-7,0.9-14.3,0.3-18.6-0.3V83.9
			c3,0.4,6.1,0.6,9.1,0.6C103.2,84.5,108,84,112.6,83.1z"/>
		<path class="st5" d="M120.7,166.1c-0.9,0-1.6-0.9-1.7-2.2l0.9,0.2c0.1,0,0.1,0,0.2,0c0.3,0,0.6-0.2,0.7-0.6
			c0.1-0.4-0.2-0.8-0.5-0.9c0,0,0,0,0,0l-1-0.2c0.2-0.7,0.8-1.1,1.5-1.2c0.9,0,1.7,1.1,1.7,2.4S121.7,166.1,120.7,166.1z"/>
		<path class="st2" d="M119.2,162.8c-0.1,0.3-0.1,0.6-0.1,0.9l1,0.2h0.1c0.2,0,0.4-0.1,0.4-0.3l0,0c0-0.1,0-0.2-0.1-0.3
			c-0.1-0.1-0.2-0.2-0.3-0.2L119.2,162.8z M119.1,164c0.1,1.2,0.8,2.2,1.7,2.2s1.7-1.1,1.7-2.4s-0.8-2.4-1.7-2.4
			c-0.7,0.1-1.3,0.5-1.5,1.2l1,0.3c0.4,0.1,0.6,0.5,0.6,0.8c0,0,0,0,0,0c-0.1,0.3-0.4,0.6-0.7,0.6c-0.1,0-0.1,0-0.2,0L119.1,164z
			 M118.5,163.7c0-0.4,0.1-0.8,0.2-1.2c0.2-1,1.1-1.7,2.1-1.7c1.2,0,2.2,1.3,2.2,3s-1,3-2.2,3C119.5,166.7,118.5,165.4,118.5,163.7
			L118.5,163.7z"/>
		<path class="st1" d="M118.7,162.5c-0.1,0.4-0.2,0.8-0.2,1.2c0,1.6,1,2.9,2.2,2.9c1.2,0,2.2-1.3,2.2-3s-1-3-2.2-3
			C119.8,160.9,118.9,161.5,118.7,162.5z M117.9,163.7c0-2.2,1.3-3.9,2.8-3.9s2.8,1.8,2.8,3.9s-1.3,3.9-2.8,3.9
			C119.2,167.7,117.9,165.9,117.9,163.7z"/>
		<path class="st2" d="M117.9,163.7c0,2.2,1.3,3.9,2.8,3.9s2.8-1.8,2.8-3.9s-1.3-3.9-2.8-3.9C119.2,159.8,117.9,161.6,117.9,163.7z
			 M120.7,168.2c-1.9,0-3.4-2-3.4-4.5s1.5-4.5,3.4-4.5s3.4,2,3.4,4.5S122.6,168.2,120.7,168.2L120.7,168.2z"/>
		<path class="st6" d="M126.9,92.3c-1.5-6-12.9-8.8-14.3-9.2l1.2-0.3c3,0.8,10.7,3.3,13.1,7.9L126.9,92.3
			C126.9,92.2,126.9,92.2,126.9,92.3z"/>
		<path class="st1" d="M112.7,164.2c0.2,0,0.5,0.2,0.5,0.4v0.1c0,0.1,0,0.3-0.1,0.4c-0.1,0.1-0.2,0.2-0.3,0.2l-8,1.1
			c-0.3,0-0.5-0.1-0.6-0.4v-0.1c0-0.1,0-0.3,0.1-0.4c0.1-0.1,0.2-0.2,0.3-0.2L112.7,164.2L112.7,164.2z"/>
		<path class="st2" d="M112.8,165.2c0.1,0,0.2-0.1,0.3-0.2c0.1-0.1,0.1-0.2,0.1-0.4v-0.1c0-0.2-0.2-0.4-0.5-0.4h-0.1l-8,1.1
			c-0.1,0-0.2,0.1-0.3,0.2c-0.1,0.1-0.1,0.2-0.1,0.4v0.1c0,0.3,0.3,0.5,0.6,0.4L112.8,165.2z M113.6,165.4c-0.2,0.2-0.4,0.4-0.7,0.4
			l-8,1.1c0,0-0.1,0-0.1,0c-0.5,0-1-0.4-1.1-0.9v-0.1c-0.1-0.6,0.3-1.1,0.9-1.2l8-1.2c0.6-0.1,1.1,0.3,1.2,0.9v0.1
			C113.9,164.8,113.8,165.1,113.6,165.4L113.6,165.4z"/>
		<path class="st7" d="M89.3,102.7c3.6,0.5,7.2,0.7,10.9,0.7c2.6,0,5.2-0.2,7.8-0.5c10.4-1.4,16.7-4.5,18.9-9.1v21.9
			c0,5.7-12.8,10.3-28.5,10.3c-3.1,0-6.1-0.2-9.1-0.6V102.7z"/>
		<path class="st4" d="M89.3,82.2c1.8-0.2,12.8-1.1,22,0.7c-4.2,0.8-8.5,1.1-12.8,1.1c-3.1,0-6.1-0.2-9.1-0.6V82.2z"/>
		<path class="st8" d="M68.6,119c2.7,5.7,15.1,10,29.9,10s27.1-4.3,29.9-10v16.7c0,6.5-13.4,11.8-29.9,11.8s-29.9-5.3-29.9-11.8
			L68.6,119z"/>
		<path class="st8" d="M67.9,139.3c2.8,6,15.4,10.6,30.6,10.6s27.8-4.6,30.6-10.6v3.1c0,6.9-13.7,12.5-30.6,12.5
			s-30.6-5.6-30.6-12.5L67.9,139.3z"/>
		<path class="st2" d="M88.8,100.9l0.4-0.1c0.1,0,0.2-0.1,0.2-0.3v1.6l-0.6-0.1V100.9z"/>
		<path class="st4" d="M88.8,102.1c-0.9-0.1-1.6-0.2-2.2-0.3l2.2-0.8V102.1z"/>
		<path class="st0" d="M88.8,80.7v2.6c-1-0.1-1.9-0.3-2.8-0.4c0.3-0.4,0.6-0.8,0.8-1.2L88.8,80.7z"/>
		<path class="st4" d="M85.7,102.1c0.5,0.1,1.6,0.3,3,0.5v22.7c-1-0.1-2-0.3-3-0.5V102.1z"/>
		<path class="st9" d="M85.7,101.4l3-1l0.2-0.1c0.1-0.1,0.3,0,0.4,0.2c0,0,0,0,0,0c0,0,0,0.1,0,0.1c0,0.1-0.1,0.2-0.2,0.3l-0.4,0.1
			l-2.2,0.8c0.6,0.1,1.3,0.2,2.2,0.3l0.6,0.1c4.3,0.6,11.6,1.2,18.6,0.3c11.1-1.5,17.5-4.9,19-10.1c0,0,0,0,0,0v1.6
			c-2.2,4.7-8.5,7.7-18.9,9.1c-2.6,0.3-5.2,0.5-7.8,0.5c-3.6,0-7.3-0.3-10.9-0.7l-0.6-0.1c-1.5-0.2-2.5-0.4-3-0.5l-0.3-0.1
			c-0.1,0-0.2-0.1-0.2-0.3l0,0c0-0.1,0.1-0.2,0.2-0.3L85.7,101.4z"/>
		<path class="st3" d="M85.2,101.8v23c-5.4-1-9.8-2.7-12.4-4.7V78.7c2.8,2,7.1,3.6,12.4,4.6V101.8z"/>
		<path class="st3" d="M75.9,75.7c1,0.6,7,4.1,12.1,4.7l-1.4,0.7c-6.8-1-10.9-3.9-12.1-4.9L75.9,75.7z"/>
		<path class="st4" d="M74,76.6c1.1,0.9,5.1,3.9,12.1,5c-0.2,0.4-0.5,0.8-0.8,1.1c-5.4-1-9.7-2.6-12.4-4.6
			C73.4,77.7,73.8,77.2,74,76.6z"/>
		<path class="st4" d="M72.2,88.5V96c-0.7-0.6-2.1-2.1-2.1-3.8C70.1,90.9,70.8,89.7,72.2,88.5z"/>
		<path class="st7" d="M70,94.1c0.5,1,1.3,1.9,2.2,2.6v22.9c-1.4-1.2-2.2-2.6-2.2-4V94.1z"/>
		<path class="st6" d="M70.1,92.2c0,1.8,1.4,3.2,2.1,3.8v0.7c-0.9-0.7-1.7-1.6-2.2-2.6L70.1,92.2L70.1,92.2z"/>
		<path class="st6" d="M70,90.2c0.5-1,1.3-1.8,2.2-2.5v0.7c-1.4,1.2-2.1,2.4-2.1,3.7H70V90.2z"/>
		<path class="st0" d="M88.9,125.9c0,0,0.1,0,0.1,0l0,0c3.1,0.4,6.3,0.6,9.4,0.6c16,0,29-4.9,29-10.9v-1.7c0.5,0.8,0.8,1.8,0.8,2.8
			c0,6.5-13.4,11.8-29.9,11.8s-29.9-5.3-29.9-11.8c0-1,0.3-1.9,0.8-2.8v1.7c0,1.7,1,3.2,2.8,4.6c0,0.1,0.1,0.2,0.2,0.2
			c2.8,2.1,7.3,3.8,12.9,4.9c0,0,0.1,0,0.1,0h0C86.6,125.6,87.7,125.7,88.9,125.9z"/>
		<path class="st0" d="M68,135.7c0,6.8,13.6,12.4,30.4,12.4s30.4-5.6,30.4-12.4v-0.2c0.1,0.4,0.2,0.9,0.2,1.4
			c0,6.9-13.7,12.5-30.6,12.5s-30.6-5.6-30.6-12.5c0-0.5,0.1-0.9,0.2-1.4L68,135.7z"/>
		<path class="st2" d="M70,115.6c0,1.4,0.8,2.8,2.2,4V78.3c-0.9-0.7-1.7-1.5-2.2-2.5V115.6z M85.4,82.8c0.3-0.4,0.6-0.7,0.8-1.1
			c-7-1.1-11-4.1-12.1-5c-0.3,0.6-0.7,1.1-1.1,1.5C75.6,80.1,80,81.7,85.4,82.8z M88,80.4c-5.1-0.6-11.1-4.1-12.1-4.7l-1.4,0.5
			c1.2,0.9,5.3,3.9,12.1,4.9L88,80.4z M128.3,119c-2.7,5.7-15.1,10-29.9,10s-27.1-4.3-29.9-10v16.7c0,6.5,13.4,11.8,29.9,11.8
			s29.9-5.3,29.9-11.8V119z M134.5,156.4c0,9.4-16.1,17.1-36,17.1s-36-7.7-36-17.1v-14c0-3.3,1.9-6.4,5.6-9.2v-16.6
			c0-1.4,0.5-2.7,1.4-3.8V73.6c0-6,13-10.9,29-10.9s29,4.9,29,10.9v39.3c0.8,1,1.3,2.1,1.4,3.3c0,0,0,0.1,0,0.1v16.9
			c3.4,2.5,5.3,5.4,5.5,8.4c0,0,0,0.1,0,0.1L134.5,156.4z M98.5,149.3c16.9,0,30.6-5.6,30.6-12.5c0-0.5-0.1-0.9-0.2-1.4v0.2
			c0,6.8-13.6,12.4-30.4,12.4S68,142.5,68,135.7v-0.2c-0.1,0.4-0.2,0.9-0.2,1.4C67.9,143.7,81.6,149.3,98.5,149.3z M129.1,139.3
			c-2.8,6-15.4,10.6-30.6,10.6s-27.8-4.6-30.6-10.6v3.1c0,6.9,13.7,12.5,30.6,12.5s30.6-5.6,30.6-12.5L129.1,139.3z M133.9,145.4
			c-3,8-17.7,14.1-35.4,14.1S66,153.4,63,145.4v11c0,9.1,15.9,16.5,35.4,16.5s35.4-7.4,35.4-16.5V145.4z M98.5,158.9
			c19.5,0,35.4-7.4,35.4-16.5c0-3-1.7-5.9-5-8.4c0.5,0.9,0.7,1.8,0.7,2.8v5.6c0,7.2-14,13-31.2,13s-31.2-5.8-31.2-13v-5.6
			c0-1,0.3-1.9,0.7-2.8c-3.3,2.6-5,5.5-5,8.4C63,151.5,78.9,158.9,98.5,158.9z M111.3,82.8c-9.1-1.8-20.2-0.8-22-0.7v1.2
			c3,0.4,6.1,0.6,9.1,0.6C102.8,83.9,107.1,83.6,111.3,82.8z M88.8,83.3v-2.6l-1.9,1c-0.2,0.4-0.5,0.9-0.8,1.2
			C86.9,83,87.8,83.2,88.8,83.3L88.8,83.3z M89.1,125.9c0,0-0.1,0-0.1,0c-1.2-0.2-2.3-0.3-3.4-0.6h-0.1c0,0-0.1,0-0.1,0
			c-5.6-1.1-10.1-2.8-12.9-4.9c-0.1,0-0.2-0.1-0.2-0.2c-1.8-1.4-2.8-3-2.8-4.6v-1.7c-0.5,0.8-0.8,1.8-0.8,2.8
			c0,6.5,13.4,11.8,29.9,11.8s29.9-5.3,29.9-11.8c0-1-0.3-1.9-0.8-2.8v1.7c0,6-13,10.9-29,10.9C95.3,126.5,92.1,126.3,89.1,125.9
			L89.1,125.9z M112.7,82.5c8.5-1.8,14.2-5.1,14.2-8.9c0-5.7-12.8-10.3-28.5-10.3S70,67.9,70,73.6c0,1.5,0.9,2.9,2.5,4.2
			c0.5-0.5,0.9-1.1,1.2-1.7c0,0,0,0,0,0c0,0,0,0,0-0.1h0l0.1,0l0,0l2-0.7c0.1,0,0.2,0,0.2,0c0.1,0,7.6,4.6,13,4.7h0h0.1l0,0l0,0
			c0,0,0,0,0,0v0l0,0c0,0,0,0,0,0.1c0,0,0,0,0,0.1l0,0v1.4C91.4,81.4,103.4,80.4,112.7,82.5L112.7,82.5z M113.8,82.8l-1.2,0.3
			c-4.7,0.9-9.4,1.4-14.2,1.4c-3.1,0-6.1-0.2-9.1-0.6v16.6c0,0,0-0.1,0-0.1c-0.1-0.1-0.2-0.2-0.4-0.2c0,0,0,0,0,0l-0.2,0.1V83.9
			c-1-0.1-2-0.3-3-0.5v18l-0.4,0.1c-0.1,0-0.2,0.2-0.2,0.3V83.3c-5.3-1-9.6-2.6-12.4-4.6v41.4c2.6,2,7,3.6,12.4,4.7v-22.9
			c0,0.1,0.1,0.2,0.2,0.3l0.3,0.1v22.7c1,0.2,2,0.3,3,0.5v-22.7l0.6,0.1v22.7c3,0.4,6.1,0.6,9.1,0.6c15.7,0,28.5-4.6,28.5-10.3V75.7
			C125.3,78.7,120.5,81.2,113.8,82.8L113.8,82.8z"/>
		<circle class="st8" cx="94.3" cy="108.3" r="0.7"/>
		<circle class="st8" cx="96.9" cy="112.1" r="1"/>
		<circle class="st8" cx="95" cy="115.9" r="0.8"/>
		<circle class="st8" cx="96.6" cy="118.7" r="1"/>
		<circle class="st8" cx="113.4" cy="115.9" r="1.2"/>
		<circle class="st8" cx="115.3" cy="112.1" r="0.8"/>
		<circle class="st8" cx="113.4" cy="108.3" r="0.5"/>
		<circle class="st8" cx="116.1" cy="119" r="0.6"/>
		<circle class="st8" cx="123.6" cy="107.2" r="0.7"/>
		<circle class="st8" cx="124.8" cy="104.3" r="0.4"/>
		<circle class="st8" cx="125.2" cy="110.2" r="1"/>
		<path class="st10" d="M105.8,102.9c2.7-0.3,5.5-0.7,8.1-1.4"/>
		<text transform="matrix(0.9982 -5.989029e-02 5.989029e-02 0.9982 103.4573 104.7761)" class="st2 st11 st12">M</text>
		<text transform="matrix(0.9968 -7.975038e-02 7.975038e-02 0.9968 105.0621 104.7467)" class="st2 st11 st13">a</text>
		<text transform="matrix(0.9952 -9.757978e-02 9.757978e-02 0.9952 106.0024 104.811)" class="st2 st11 st14">x</text>
		<text transform="matrix(0.9915 -0.1303 0.1303 0.9915 107.3111 104.6753)" class="st2 st11 st14">W</text>
		<text transform="matrix(0.988 -0.1547 0.1547 0.988 109.0662 104.359)" class="st2 st11 st14">a</text>
		<text transform="matrix(0.9856 -0.1693 0.1693 0.9856 110.1264 104.309)" class="st2 st11 st14">t</text>
		<text transform="matrix(0.983 -0.1836 0.1836 0.983 110.6579 104.1088)" class="st2 st11 st14">e</text>
		<text transform="matrix(0.9802 -0.198 0.198 0.9802 111.4935 103.8796)" class="st2 st11 st14">r</text>
		<text transform="matrix(0.9753 -0.221 0.221 0.9753 112.6223 103.8599)" class="st2 st11 st14">L</text>
		<text transform="matrix(0.9707 -0.2402 0.2402 0.9707 113.4233 103.5808)" class="st2 st11 st15">e</text>
		<text transform="matrix(0.9662 -0.2576 0.2576 0.9662 114.2691 103.2725)" class="st2 st11 st14">v</text>
		<text transform="matrix(0.961 -0.2765 0.2765 0.961 115.1781 103.0624)" class="st2 st11 st14">e</text>
		<text transform="matrix(0.9569 -0.2905 0.2905 0.9569 116.0293 102.7099)" class="st2 st11 st14">l</text>
		<path class="st16" d="M69.8,73.7c0,0-0.8-9.8,6-16.6c6.7-6.7,19.2-11.1,18.5-27.3c0,0,3.2-0.6,8.5,0C102,46,114.5,50.4,121.2,57.1
			s6,16.6,6,16.6"/>
	</g>
	<g>
		<defs>
			<rect id="SVGID_1_" x="40.7" y="-18.5" width="118.7" height="205"/>
		</defs>
		<clipPath id="SVGID_2_">
			<use xlink:href="#SVGID_1_"  style="overflow:visible;"/>
		</clipPath>
		<g class="st17">
			<path class="st3" d="M162.2,183.6c0.8-0.2,1.7-0.2,2.6,0c0,0.5,0,2.1-0.7,2.7c-0.2,0.2-0.4,0.2-0.6,0.2c-0.6,0-1.1,0.1-1.6,0.2
				c-1,0.3-2.1,0.3-3.1,0.1c-2.3-0.4-5.8-2.7-6.3-3.1c0-1,0.5-2,1.4-2.5c4.9,3.4,6.7,2.8,7.9,2.5
				C161.9,183.7,162.1,183.7,162.2,183.6z"/>
			<path class="st3" d="M145.7,177.1c0.9-1.5,1.6-1.8,1.6-1.8l0,0l1.9,1.7c-0.2,0.1-0.8,0.4-1.3,1.3c0,0.1,0,0.2,0.1,0.2
				c0.1,0,0.2,0,0.2-0.1c0.6-1.1,1.2-1.2,1.2-1.2c0,0,0.1,0,0.1,0l1.8,1.6c-0.4,0.1-0.8,0.4-1.1,0.8c0,0.1,0,0.2,0.1,0.2
				c0.1,0,0.2,0,0.2-0.1c0.2-0.3,0.5-0.5,0.9-0.6c0,0,0.1,0,0.1-0.1l0,0l2.1,1.9c-0.9,0.5-1.5,1.5-1.5,2.6l-2.7-0.9c0,0,0,0,0-0.1
				c-0.1-0.3-0.1-0.7,0.1-1.1c0-0.1,0-0.2-0.1-0.2c-0.1,0-0.2,0-0.2,0.1c-0.2,0.4-0.3,0.8-0.2,1.2l-2.2-0.8c0-0.2-0.1-0.7,0.5-1.6
				c0-0.1,0-0.2-0.1-0.2c-0.1,0-0.2,0-0.2,0.1c-0.3,0.5-0.5,1.1-0.5,1.7l-2.5-0.8c0-0.2,0.1-1,0.8-2.1c0-0.1,0-0.2-0.1-0.2
				c-0.1,0-0.2,0-0.2,0.1c-0.4,0.7-0.7,1.4-0.8,2.2l-2.8-0.9l-8.5-5c-1.6-1-1.2-3.1-0.2-4.7c0.9-1.6,2.5-3,4.2-2.1l8.5,5l2.2,2
				c-0.3,0.1-0.9,0.6-1.6,1.9c0,0.1,0,0.2,0.1,0.2C145.6,177.2,145.7,177.2,145.7,177.1z"/>
			<path class="st3" d="M124.3,165.5c0.6-1.1,1.7-1.8,2.3-1.4l6.9,4c-0.7,0.5-1.2,1.2-1.6,1.9c-0.4,0.7-0.7,1.4-0.8,2.2l-6.8-4
				C123.6,167.9,123.6,166.6,124.3,165.5z"/>
			<path class="st2" d="M152.5,183.7c0.5,0.4,3.9,2.7,6.3,3.1c1,0.2,2.1,0.2,3.1-0.1c0.5-0.2,1.1-0.2,1.6-0.2c0.2,0,0.4-0.1,0.6-0.2
				c0.6-0.6,0.7-2.2,0.7-2.7c-0.9-0.1-1.7-0.1-2.6,0c-0.1,0-0.3,0.1-0.4,0.1c-1.2,0.4-3,0.9-7.9-2.5
				C153,181.7,152.5,182.7,152.5,183.7z M124.3,165.5c-0.6,1.1-0.7,2.3-0.1,2.7l6.8,4c0.1-0.8,0.4-1.5,0.8-2.2
				c0.4-0.7,0.9-1.4,1.6-1.9l-6.9-4C126,163.8,124.9,164.4,124.3,165.5z M122.8,167.8c-0.8-0.5-0.8-1.8,0-3.2s2-2,2.8-1.5l1,0.6
				c0,0,0,0,0.1,0.1c0.1,0,0.1,0,0.2,0.1l7,4.1c0.7-0.5,1.5-0.6,2.3-0.3c0,0,0.1,0,0.1,0l8.9,5.2l9,8.1c4.8,3.3,6.5,2.8,7.6,2.5
				c0.1,0,0.3-0.1,0.4-0.1c0.9-0.2,1.9-0.2,2.8,0l0.1,0l0,0.1c0,0.1,0.1,1.8-0.5,2.8c-0.1,0.1-0.2,0.2-0.3,0.3
				c-0.2,0.2-0.5,0.3-0.8,0.3c-0.5,0-1,0.1-1.5,0.2c-1.1,0.3-2.2,0.3-3.3,0.1c-2.5-0.4-6.1-2.9-6.5-3.2l-8.4-2.8c0,0,0,0,0,0l-3.1-1
				l-8.9-5.2c0,0-0.1-0.1-0.1-0.1c-0.6-0.6-0.9-1.4-0.8-2.3l-7-4.1c-0.1,0-0.1-0.1-0.2-0.1c0,0-0.1,0-0.1,0L122.8,167.8z
				 M147.3,180.2c-0.5,0.9-0.5,1.5-0.5,1.6l2.2,0.8c-0.1-0.4,0-0.8,0.2-1.2c0-0.1,0.1-0.1,0.2-0.1c0.1,0,0.1,0.1,0.1,0.2
				c-0.2,0.3-0.2,0.7-0.1,1.1c0,0,0,0,0,0.1l2.7,0.9c0-1.1,0.6-2,1.5-2.6l-2.1-1.9l0,0c0,0-0.1,0.1-0.1,0.1
				c-0.4,0.1-0.7,0.3-0.9,0.6c0,0.1-0.1,0.1-0.2,0.1c-0.1,0-0.1-0.1-0.1-0.2c0.2-0.4,0.6-0.7,1.1-0.8l-1.8-1.6c0,0,0,0-0.1,0
				c0,0-0.6,0.2-1.2,1.2c0,0.1-0.1,0.1-0.2,0.1c-0.1,0-0.1-0.1-0.1-0.2c0.5-0.9,1.1-1.2,1.3-1.3l-1.9-1.7l0,0c0,0-0.7,0.3-1.6,1.8
				c0,0.1-0.1,0.1-0.2,0.1c-0.1,0-0.1-0.1-0.1-0.2c0.7-1.3,1.4-1.7,1.6-1.9l-2.2-2l-8.5-5c-1.6-1-3.3,0.5-4.2,2.1
				c-0.9,1.6-1.4,3.7,0.2,4.7l8.5,5l2.8,0.9c0.1-0.8,0.4-1.5,0.8-2.2c0-0.1,0.1-0.1,0.2-0.1c0.1,0,0.1,0.1,0.1,0.2
				c-0.7,1.2-0.8,1.9-0.8,2.1l2.5,0.8c0-0.6,0.2-1.2,0.5-1.7c0-0.1,0.1-0.1,0.2-0.1C147.3,180,147.4,180.1,147.3,180.2
				C147.3,180.2,147.3,180.2,147.3,180.2L147.3,180.2z"/>
		</g>
	</g>
	<g>
		<path class="st18" d="M91.4,31.4c-2,3.4-6.4,7.9-10.9,11.9c-4.5,4.1-9.4,8.8-14,14.4c-2.8,3.3-4.2,7.5-4,11.8v72.7
			c0,9.3,16,16.8,35.7,16.8s36.2-7.5,36.2-16.8l0-2.4V69.6c0.2-4.3-1.2-8.5-4-11.8c-4.6-5.6-10.1-10.7-14.5-14.8
			c-2.2-2-4.2-4.1-6.2-6.3c0,0-1.7-2.1-2.6-4.3c-0.3-0.7-0.3-0.8-0.5-1.2c-0.3-0.6-0.2-0.7-0.8-1.1c0,0-2.5-0.9-6.9-1.4
			c-5.1-0.5-5.8,0-5.8,0c-0.4,0.2-0.5,0.3-0.8,0.9C91.9,30.6,92.2,30,91.4,31.4z"/>
		
			<ellipse transform="matrix(0.1082 -0.9941 0.9941 0.1082 58.4485 125.9249)" class="st19" cx="99.4" cy="30.4" rx="0.6" ry="5.6"/>
	</g>
</g>
</svg>
