<?xml version="1.0" encoding="utf-8"?>
<!-- Generator: Adobe Illustrator 25.1.0, SVG Export Plug-In . SVG Version: 6.00 Build 0)  -->
<svg version="1.1" id="Layer_1" xmlns="http://www.w3.org/2000/svg" xmlns:xlink="http://www.w3.org/1999/xlink" x="0px" y="0px"
	 viewBox="0 0 600 600" style="enable-background:new 0 0 600 600;" xml:space="preserve">
<style type="text/css">
	.st0{display:none;}
	.st1{display:inline;fill:none;stroke:#1D1D1B;stroke-miterlimit:10;}
	.st2{display:inline;}
	.st3{fill:none;stroke:#DEAB5B;stroke-width:4;stroke-miterlimit:10;}
</style>
<g id="Capa_1" class="st0">
	<circle class="st1" cx="300" cy="300" r="300"/>
	<g id="surface1" class="st2">
		<path d="M332.5,395.1c-1.8-2-2.4-4.7-1.7-7.3l1.6-5.7c3.1-11.5-2.8-23.4-13.9-28.2l-5.6-2.4c-2.5-1.1-4.3-3.2-4.8-5.8l-1.1-5.8
			c-2.3-11.6-12.9-19.9-25-19.5l-6.1,0.2c-2.7,0.1-5.3-1.2-6.9-3.2l-3.6-4.8c-7.3-9.5-20.5-12.4-31.2-7l-5.4,2.8
			c-2.4,1.2-5.3,1.2-7.7,0l-5.4-2.8c-10.7-5.5-24-2.5-31.2,7l-3.6,4.8c-1.6,2.1-4.2,3.3-6.9,3.2l-6.1-0.2
			c-12.2-0.5-22.8,7.8-25,19.5l-1.1,5.8c-0.5,2.6-2.3,4.8-4.8,5.8l-5.6,2.4c-11.1,4.8-17,16.7-13.9,28.2l1.6,5.7
			c0.7,2.6,0.1,5.3-1.7,7.3l-4,4.5c-8,9-8,22.3,0,31.3l4,4.5c1.8,2,2.4,4.7,1.7,7.3l-1.6,5.7c-3.1,11.5,2.8,23.4,13.9,28.2l5.6,2.4
			c2.5,1.1,4.3,3.2,4.8,5.8l1.1,5.8c2.3,11.6,12.9,19.9,25,19.5l6.1-0.2c2.7-0.1,5.3,1.1,6.9,3.2l3.6,4.8c7.3,9.5,20.5,12.4,31.2,7
			l5.4-2.8c2.4-1.2,5.3-1.2,7.7,0l5.4,2.8c3.5,1.8,7.4,2.8,11.4,2.8c7.8,0,15.2-3.6,19.8-9.7l3.6-4.8c1.6-2.2,4.2-3.4,6.9-3.2
			l6.1,0.2c12.2,0.5,22.9-7.8,25-19.5l1.1-5.8c0.5-2.6,2.3-4.8,4.8-5.8l5.6-2.4c11.1-4.8,17-16.7,13.9-28.2l-1.6-5.7
			c-0.7-2.6-0.1-5.3,1.7-7.3l4-4.5c8-9,8-22.3,0-31.3L332.5,395.1z M324,420.4l-4,4.5c-5.3,6-7.2,14.2-5.1,21.9l1.6,5.7
			c1,3.8-0.9,7.8-4.6,9.4l-5.6,2.4c-7.5,3.2-12.8,9.8-14.3,17.6l-1.1,5.8c-0.7,3.9-4.3,6.7-8.4,6.5l-6.1-0.2
			c-8.1-0.3-15.9,3.3-20.7,9.7l-3.6,4.8c-2.4,3.2-6.8,4.2-10.4,2.3l-5.4-2.8c-7.2-3.7-15.8-3.7-23,0l-5.4,2.8
			c-3.6,1.9-8,0.9-10.4-2.3l-3.6-4.8c-4.6-6.1-12-9.7-19.8-9.7h-0.9l-6.1,0.2c-4.1,0.2-7.6-2.6-8.3-6.5l-1.1-5.8
			c-1.5-7.8-6.9-14.4-14.3-17.6l-5.6-2.4c-3.7-1.6-5.7-5.6-4.6-9.4l1.6-5.7c2.1-7.7,0.2-15.8-5.1-21.9l-4-4.5c-2.6-3-2.6-7.4,0-10.4
			l4-4.5c5.3-6,7.2-14.2,5.1-21.9l-1.6-5.8c-1-3.8,0.9-7.8,4.6-9.4l5.6-2.4c7.5-3.2,12.8-9.8,14.3-17.6l1.1-5.8
			c0.7-3.9,4.3-6.7,8.4-6.5l6.1,0.2c8.1,0.3,15.8-3.4,20.7-9.7l3.6-4.8c2.4-3.2,6.8-4.1,10.4-2.3l5.4,2.8c7.2,3.7,15.8,3.7,23,0
			l5.4-2.8c3.6-1.9,8-0.9,10.4,2.3l3.6,4.8c4.8,6.4,12.5,10,20.6,9.8l6.1-0.2c4-0.1,7.6,2.6,8.3,6.5l1.1,5.8
			c1.5,7.8,6.9,14.4,14.3,17.6l5.6,2.3c3.7,1.6,5.7,5.6,4.6,9.4l-1.6,5.7c-2.1,7.7-0.2,15.8,5.1,21.9l4,4.5
			C326.7,413,326.7,417.4,324,420.4z"/>
		<path d="M170.1,364.9l11.6-11.3l16.4,16l-11.6,11.3L170.1,364.9z"/>
		<path d="M224.9,391.2c-13.6,0-24.5,10.7-24.5,24s11,24,24.5,24s24.5-10.7,24.5-24S238.5,391.2,224.9,391.2z M224.9,423.2
			c-4.5,0-8.2-3.6-8.2-8s3.7-8,8.2-8s8.2,3.6,8.2,8S229.4,423.2,224.9,423.2z"/>
		<path d="M251.8,452.8l11.6-11.3l16.4,16l-11.6,11.3L251.8,452.8z"/>
		<path d="M265.8,407.2h24.5v16h-24.5V407.2z"/>
		<path d="M253.1,384.6l24.5-16l9.1,13.3l-24.5,16L253.1,384.6z"/>
		<path d="M216.7,351.3h16.4v24h-16.4V351.3z"/>
		<path d="M151.3,407.2H184v16h-32.7V407.2z"/>
		<path d="M161.9,457.5l16.4-16l11.6,11.3l-16.4,16L161.9,457.5z"/>
		<path d="M208.6,455.2H225v32h-16.4V455.2z"/>
		<path d="M558.6,251.8c-1.3-3.8-2.3-7.7-3.4-11.7c-2.2-11-6.5-21.4-12.7-30.9c-7.3-8.7-16.1-15.9-26.2-21.3
			c-3.5-2.2-7-4.4-10.3-6.7s-6.4-4.9-9.6-7.4c-8.4-7.7-18.2-13.7-29-17.8c-11-2.8-22.4-3.5-33.7-2.2c-8.4,0.5-16.9,0.5-25.4,0
			c-11.3-1.3-22.7-0.6-33.7,2.2c-10.7,4.1-20.6,10.1-29,17.8c-3.2,2.6-6.3,5.1-9.6,7.4c-3.2,2.3-6.8,4.5-10.3,6.7
			c-2.9,1.8-5.8,3.7-8.7,5.7c-13.4-6.5-28.2-10-43.3-10.1h-8.2c-5.9,0-11.8,0.9-17.4,2.7c0.7-3.5,1.1-7.1,1.1-10.7
			c-0.1-52.9-44-95.8-98.1-95.9h-8.2c-31.6,0-57.2,25.1-57.2,55.9c0.1,52.9,44,95.8,98.1,95.9h8.2c5.9,0,11.8-0.9,17.4-2.7
			c-0.7,3.5-1.1,7.1-1.1,10.7c0,12.5,2.6,24.9,7.5,36.5c-2.5-0.4-5.1-1-7.8-1.5c-9.9-3.1-20.5-3.5-30.6-1.1
			c-9.8,4-18.4,10.6-24.7,18.9c-3.4,4.1-7.2,7.8-11.3,11.1c-4.5,2.9-9.4,5.3-14.5,7.3c-10,3.3-19,9.1-25.9,17
			c-5.5,8.8-8.4,18.8-8.5,29.1c-0.3,5.4-1.2,10.7-2.7,15.8c-1.9,4.8-4.3,9.4-7.1,13.7c-6.3,8.6-10,18.6-10.9,29.1
			c0.9,10.5,4.6,20.6,10.9,29.1c2.9,4.3,5.2,8.9,7.1,13.7c1.4,5.2,2.3,10.5,2.7,15.8c0.1,10.3,3,20.4,8.5,29.1
			c6.9,7.8,15.9,13.6,25.9,16.9c5.1,1.9,9.9,4.4,14.4,7.3c4.2,3.3,8,7,11.3,11.1c6.3,8.4,14.9,14.9,24.7,19
			c10.1,2.3,20.7,1.9,30.6-1.1c5.4-1.4,11-2.2,16.6-2.5c5.6,0.3,11.2,1.1,16.6,2.5c6.4,1.6,12.9,2.5,19.4,2.8
			c3.8,0,7.6-0.5,11.2-1.6c9.8-4,18.4-10.6,24.7-19c3.4-4.1,7.2-7.8,11.3-11.1c4.5-2.9,9.4-5.3,14.4-7.3c10-3.3,19-9.1,25.9-17
			c5.5-8.8,8.4-18.8,8.5-29.1c0.3-5.4,1.2-10.7,2.7-15.8c1.9-4.8,4.3-9.4,7.1-13.7c2-3.3,4.1-6.7,5.9-10.4c0.7,0.3,1.4,0.6,2.2,0.8
			c7.1,2.1,14.4,3,21.8,2.7v0.1c-0.3,21.1,15.8,39,37.3,41.5c1.2,0.1,2.4,0.2,3.6,0.2c22.6,0,40.9-17.8,41-39.9v-0.1
			c0-5.4,2.6-10.5,7-13.7c3.8-2.7,7.4-5.6,11-8.5c3.2-2.6,6.3-5.1,9.6-7.4c3.2-2.3,6.8-4.5,10.3-6.7c10-5.4,18.9-12.6,26.2-21.3
			c6.2-9.4,10.5-19.9,12.7-30.9c1-3.9,2.1-7.8,3.4-11.7c1.2-3.7,2.7-7.3,4.2-11c4.9-10.2,7.8-21.3,8.4-32.6
			c-0.6-11.3-3.5-22.4-8.4-32.6C561.3,259,559.8,255.4,558.6,251.8z M274,199.5c10.1,0,20.2,1.9,29.6,5.5c-1.3,1.3-2.6,2.7-3.7,4.2
			c-6.2,9.4-10.5,19.9-12.7,30.9l-0.1,0.4l-44-34.2c6.7-4.4,14.6-6.8,22.7-6.8L274,199.5L274,199.5z M234.2,275.8
			c-6-11.2-9.2-23.7-9.3-36.4c0-7.7,2.3-15.3,6.7-21.7l50.3,39.2c-0.7,1.9-1.4,3.8-2.2,5.8c-1.5,3.8-3.1,7.7-4.5,11.8
			c-1-0.4-2-0.8-3.1-1.2c-10.1-2.3-20.7-1.9-30.6,1.1C239,274.9,236.6,275.4,234.2,275.8z M184,215.5c-45.1,0-81.7-35.8-81.8-79.9
			c0-22.1,18.3-39.9,40.9-40h8.2c45.1,0,81.7,35.8,81.8,79.9c0,6.6-1.8,13.2-5.1,19l-104.3-81.2l-10.2,12.5l103.9,80.9
			c-7.1,5.6-16,8.7-25.2,8.7L184,215.5L184,215.5z M352.7,436.2c-3.5,5.3-6.4,11-8.6,16.9c-1.8,6.3-3,12.7-3.4,19.2
			c0,7.4-1.9,14.7-5.4,21.3c-5.3,5.4-11.9,9.4-19.2,11.7c-6.2,2.4-12.1,5.4-17.6,9c-5.1,4-9.8,8.5-14,13.4
			C280,533.8,274,538.8,267,542c-7.4,1.3-15,0.7-22.1-1.5c-6.6-1.7-13.3-2.6-20.1-2.9c-6.8,0.2-13.5,1.2-20.1,2.8
			c-7.1,2.3-14.7,2.8-22.1,1.5c-7-3.3-13-8.2-17.5-14.3c-4.1-4.9-8.8-9.4-13.9-13.4c-5.5-3.6-11.4-6.7-17.6-9
			c-7.3-2.3-13.9-6.3-19.2-11.7c-3.6-6.5-5.4-13.9-5.4-21.3c-0.4-6.5-1.5-12.9-3.4-19.2c-2.2-5.9-5.1-11.6-8.6-16.9
			c-4.6-6.2-7.6-13.4-8.6-21c1-7.6,4-14.8,8.6-21c3.5-5.3,6.4-11,8.6-16.9c1.8-6.3,3-12.7,3.4-19.2c0-7.4,1.8-14.7,5.4-21.2
			c5.3-5.4,11.9-9.5,19.2-11.7c6.2-2.4,12.1-5.4,17.6-9c5.1-4,9.8-8.5,14-13.4c4.5-6.1,10.5-11.1,17.5-14.3c7.4-1.3,15-0.7,22.1,1.5
			c6.6,1.7,13.3,2.6,20.1,2.9c6.8-0.2,13.5-1.2,20.1-2.8c7.1-2.3,14.7-2.8,22.1-1.5c7,3.3,13,8.2,17.5,14.3
			c4.1,4.9,8.8,9.4,13.9,13.4c5.5,3.6,11.4,6.7,17.6,9c7.3,2.3,13.9,6.3,19.2,11.7c3.6,6.5,5.4,13.9,5.4,21.3
			c0.4,6.5,1.6,12.9,3.4,19.2c2.2,5.9,5.1,11.6,8.6,16.9c4.6,6.2,7.6,13.4,8.6,20.9C360.3,422.8,357.4,430,352.7,436.2z
			 M547.6,322.1c-1.6,4-3.3,8-4.6,12c-1.4,4.1-2.5,8.3-3.6,12.6c-1.7,9-5.2,17.7-10.1,25.5c-6.1,7-13.5,12.8-21.7,17.2
			c-3.8,2.4-7.6,4.7-11.1,7.3c-3.6,2.5-6.9,5.3-10.4,8c-3.4,2.8-6.7,5.4-10.2,7.9c-8.7,6.2-13.9,16.1-13.8,26.6
			c0,6.7-2.9,13.1-8,17.7s-11.9,6.8-18.8,6.2c-13-1.7-22.7-12.7-22.3-25.5v-8c0-4.6-3.8-8.3-8.5-8.3c-0.2,0-0.3,0-0.5,0
			c-8.1,0.9-16.3,0.3-24.1-1.6c-0.8-0.3-1.6-0.6-2.5-0.9c0.1-1.1,0.2-2.3,0.2-3.4c-0.9-10.5-4.6-20.6-10.9-29.1
			c-2.9-4.3-5.2-8.9-7.1-13.7c-1.4-5.2-2.3-10.5-2.7-15.8c-0.1-10.3-3-20.4-8.5-29.1c-6.9-7.8-15.8-13.7-25.8-17
			c-5.1-1.9-9.9-4.4-14.5-7.3c-4.2-3.3-7.9-7-11.3-11.1c-2.4-2.6-4.9-5.4-7.6-8c1.5-5.3,3.4-10.6,5.6-15.7c1.6-4,3.2-7.9,4.5-11.8
			c1.4-4.1,2.5-8.3,3.6-12.6c1.7-9,5.2-17.7,10.1-25.5c6.1-7,13.5-12.8,21.7-17.2c3.8-2.4,7.6-4.7,11.1-7.3c3.6-2.5,6.9-5.3,10.4-8
			c6.9-6.4,14.9-11.4,23.6-14.9c9.1-2.1,18.4-2.6,27.6-1.5c9.1,0.5,18.2,0.5,27.3,0c9.2-1.1,18.6-0.7,27.7,1.5
			c8.7,3.5,16.7,8.6,23.6,14.9c3.4,2.8,6.9,5.5,10.4,8s7.4,4.9,11.1,7.3c8.2,4.4,15.6,10.3,21.7,17.3c4.9,7.8,8.3,16.5,10.1,25.5
			c1.1,4.2,2.3,8.5,3.6,12.6c1.3,4,2.9,7.9,4.6,12c4.1,8.4,6.5,17.4,7.2,26.7C554.1,304.6,551.7,313.7,547.6,322.1z"/>
		<path d="M414.5,352.9l-14.9-10.5l-8.9-15.7c-0.6-1-1.4-1.9-2.4-2.6l-14.9-10.4l-8.9-15.7l-14.3,7.8L360,323c0.6,1,1.4,1.9,2.4,2.6
			l14.8,10.4l8.9,15.7c0.6,1,1.4,1.9,2.4,2.6l14.9,10.5l8.9,15.7l14.3-7.8l-9.8-17.3C416.3,354.5,415.5,353.6,414.5,352.9z"/>
		<path d="M450.3,242.2l-1.2,19.8c-0.1,1.5,0.3,3,1,4.4l10,17.4l-1.2,19.9l16.4,0.9l1.3-22.2c0.1-1.5-0.3-3-1-4.4l-10-17.4l1.2-19.8
			c0.1-1.5-0.3-3-1-4.4l-10-17.3l1.2-19.8l-16.4-0.9l-1.3,22.2c-0.1,1.5,0.3,3,1,4.4L450.3,242.2z"/>
		<path d="M493.2,300.5c-1,1-1.7,2.2-2,3.5l-8.1,30.9l-22.6,23c-1,1-1.7,2.2-2,3.5l-8.1,31l-22.6,23.1l11.8,11.1l24.1-24.6
			c1-1,1.7-2.2,2-3.5l8.1-31l22.6-23.1c1-1,1.7-2.2,2-3.5l8.1-30.9l22.6-23l-11.8-11.1L493.2,300.5z"/>
		<path d="M352.8,241.8l22.8,16.2l13.5,24.2c0.6,1,1.4,1.9,2.4,2.6l22.9,16.2l13.5,24.2l14.4-7.7l-14.4-25.8c-0.6-1-1.4-1.9-2.4-2.6
			L402.6,273l-13.5-24.2c-0.6-1-1.4-1.9-2.4-2.6L363.9,230l-13.5-24.2l-14.4,7.6l14.4,25.8C351,240.2,351.8,241.1,352.8,241.8z"/>
	</g>
</g>
<path class="st3" d="M329.4,213.8c8.6,1.1,2.8-0.6,11.3,0.9c3,0.5,5.7,1.3,7.6,4c2.9,4.4,3,10.4,3.2,15.5c0.2,6.1,0.1,12.2-0.1,18.3
	c-0.6,21.3-4.4,30,4.9,50c0.8,1.7,4.5,10.9,6.1,11.8c2.9,1.6,5.7-0.1,7.3-2.9c1.6-2.9,4.6-9.6,5.8-12.7
	c6.6-16.6,14.9-21.4,12.6-38.4c-1.1-8.5-6.3-15.7-11.2-22.6c-3.5-4.8-6.9-9.5-10.4-14.3c-4.2-5.8-9.3-12.1-16.1-12.7
	c-4.1-0.3-8.7,5.7-12.2,3.4"/>
<path class="st3" d="M308.6,167.2c-4.8-1.5-10.3-3.8-11.6-8.8c-0.9-3.5,0.7-7.2,3.3-9.5s5.9-3.3,9.3-3.8c4.7-0.7,9.5-0.6,14.3-0.5
	c4.9,0.1,10.4,0.5,14,4.1c2.4,2.5,3.5,5.9,4.5,9.3c1.8,6.1,3.7,12.3,5.5,18.4c0.8,2.6,7.8,33.5,3.6,34.5c-4.5,1.1-11.6-22.3-13-25.3
	c-2.7-5.5-4.4-10.3-9.5-11.9C322.1,171.5,315.4,169.4,308.6,167.2z"/>
<path class="st3" d="M348.8,176.9c11.3-8.2,26.4-18.5,38.7-24.8c5.1-2.6,11.1-5.1,16.4-2.7c3.2,1.4,5.6,4.5,7.6,7.4
	c2.6,3.8,5.1,7.7,7.3,11.7c2.9,5.3,5.5,11.8,3,17.2c-1.1,2.3-2.9,4-4.8,5.7c-13.7,12-33.8,25.3-50.5,32.1"/>
<path class="st3" d="M393.7,149.3c3.3,11,9.3,27.9,16.2,36.9c0.6,0.7,9.2,3.5,9.7,2.6"/>
<path class="st3" d="M346.1,170.5c5.3-33.1,22.7-73.1,44.4-97.4c6.6-7.4,14.2-14.4,23.7-16.8s21,1.2,25.5,10.5
	c1,2.1,1.6,4.5,0.8,6.7c-0.5,1.4-1.5,2.5-2.5,3.5c-8.6,9.2-17.7,18.1-24.9,28.6c-7.2,10.5-13.2,29.3-13.6,42.4"/>
<path class="st3" d="M367.9,224c46.8-9.6,112.1-39.1,143.1-76.6c1.4-1.7,2.8-3.6,3-5.8c0.2-3.1-2.3-6-5.2-7c-2.9-1.1-6-0.7-8.9-0.3
	c-26.4,3.7-60.9,18.6-82.1,32.2"/>
<path class="st3" d="M366.5,223.4c11.9,1,36.4,3.2,46.1,10.7c12.7,9.7,17.3,27.1,20.2,43.2c3.4,19,5.8,38.1,7.1,57.3
	c0.5,7.5,0.7,15.5-3.2,21.7c-1.7,2.7-4.4,4.9-7.5,5c-3.6,0.1-6.9-2.6-8.7-6c-1.8-3.3-2.4-7.1-3.1-10.9
	c-4.4-23.9-15.7-48.6-28.3-69.2"/>
<path class="st3" d="M330,174.7c2.7,5.7,4.3,33.6,1.1,38.8"/>
<path class="st3" d="M194.1,343.6c1.7-1.9,4.3-1.9,6.6-1.8c14.5,0.5,29,1,43.5,1.5c6.5,0.2,13.3,0.5,19.6,4.3
	c6.3,3.7,11.9,12,11.7,20.4c-0.1,6.7-3.8,11.9-7.8,15.5c-5,4.6-11,7.6-17.3,8.8c-8.2,1.6-16.8,0.3-25.3-1.1
	c-5.3-0.8-10.6-1.7-15.9-2.5c-4.1-0.6-9.3-0.3-13.1-3.1c-7.2-5.3-3.5-18.8-3.6-26.2C192.5,354.4,191,347.1,194.1,343.6z"/>
<path class="st3" d="M193,318c1.4,8.2,4.2,20.9,3.4,23.1c-1.7,4.6-12.3-13.1-16.1-16.8c-5.1-5.1-9.6-11.7-13.4-17.9
	c-4.2-7-7.5-14.6-8.9-22.8c-2.7-15.6,1.9-31.7,10.4-44.6c8.5-12.8,20.5-22.6,33.4-30.3c3.1-1.8,6.7-3.6,10-2.1
	c2.1,0.9,3.5,2.9,4.8,4.8c2.2,3.1,4.3,6.2,6.5,9.3c4.2,6,8.7,12.9,7.7,20.3c-0.6,4.3-2.9,8.1-5.3,11.6c-6.4,9.9-12.8,19.7-19.2,29.6
	c-3.9,6.1-7.9,12.2-10.8,18.8c-1.5,3.3-2.7,6.8-3.4,10.4c-0.3,1.5,0.1,3.4,0.4,4.9c0.1,0.4,0.1,0.7,0.3,1.1c0.2,0.5,0.6,0.8,1.1,1
	c1.6,0.7,3.3,0.5,4.9,0.2c2-0.3,3.9-0.7,5.9-1c0.3-0.1,0.6-0.1,0.9,0.1c0.2,0.2,0.3,0.5,0.3,0.8c0.1,2.3,0.2,4.5,0.3,6.8
	c0.2,3.8,0.4,7.8-1.3,11.2c-0.3,0.7-2.8,3.8-3.1,4.5"/>
<path class="st3" d="M173.6,316.3c-14.9,1.7-36.6,6-51.6,5.3c-2.1-0.1-4.3-0.1-5.9,1.2c-0.9,0.8-1.5,1.9-2,3
	c-6.6,14.2-5.7,33.3,5.4,44.5c2.1,2.1,5,4,7.7,2.9c2.1-0.9,3.2-3.3,3.9-5.6c2-6.3,3.2-13,2.5-19.7s-11.9-21.1-16.8-25.5"/>
<path class="st3" d="M127.1,373.1c4.2,0.1,20.3-2.4,24.5-3c11.1-1.9,31-8,42.2-9.8"/>
<path class="st3" d="M160.8,368.2c-20.8,39.1-16.2,106,12.9,140.1c2.6,3,6.2,6.1,9.7,4.7c3.9-1.6,4-7.2,3.6-11.7
	c-3.3-34.7,2.6-81.8,13.1-114.5"/>
<path class="st3" d="M151.6,370.1c-24.8,13-44.8,38.2-62.7,60.4c-7.3,9.1-14.2,19-24.1,24.8c-3.6,2.1-8.3,3.6-11.8,1
	c-2.1-1.6-3.2-4.3-3.9-6.9c-3.4-12.5-0.8-26,4.5-37.6c5.3-11.6,13.1-21.6,20.9-31.4c7.8-9.9,26.7-24.1,35.7-29.8"/>
<path class="st3" d="M132.2,321.4c-30.5-19.8-50.2-70.7-40.5-106.2c1.2-4.5,2.9-9.1,6.2-12.3s8.3-4.8,12.4-2.7
	c3.6,1.9,5.6,6,7.2,9.8c14.8,34.9,27.2,76.6,49.6,96.4"/>
<path class="st3" d="M134.8,100.4c22,29.4,48.1,55.2,74.3,80.5c55.2,53.4,134,124.8,206.3,209.8"/>
<path class="st3" d="M285.7,369.7c3.6,5.9,11.2,18.8,15.5,24.1c23.4,29.3,53.3,53.4,87.6,66c14,5.1,28.5,8.3,42.9,11.5
	c29.8,6.5,59.2,6.4,89,3c-28.5-56.9-20.1-45-30.1-98.4c-2.9-15.2-4.8-28.9-10.4-44.7c-4-11.3-9.3-27.8-18.9-39.6
	c-8.2-9.9-21.4-25.7-32.3-32.2"/>
<path class="st3" d="M279.3,247.2c-3.7,1.2-4.9,17.2-5.1,21.2c-1.2,18.2-1.2,36.4,0,54.7c0.4,5.7,4.2,34.4,11.9,47.5"/>
<path class="st3" d="M280.1,248c19-4.6,50.7-0.8,69.5-1.9"/>
<path class="st3" d="M293,243.9"/>
<path class="st3" d="M206.1,319.5c13.5-19.2,12.6-38,11.1-53.7"/>
<path class="st3" d="M207,206.4c-4.7-19.5-9.8-31.7-16.6-44.1"/>
<path class="st3" d="M187.6,159.8c34,25,80.2,63.4,143.5,53.7"/>
</svg>
