<?xml version="1.0" encoding="utf-8"?>
<!-- Generator: Adobe Illustrator 24.2.3, SVG Export Plug-In . SVG Version: 6.00 Build 0)  -->
<svg version="1.1" id="Layer_1" xmlns="http://www.w3.org/2000/svg" xmlns:xlink="http://www.w3.org/1999/xlink" x="0px" y="0px"
	 viewBox="0 0 533.1 535.2" style="enable-background:new 0 0 533.1 535.2;" xml:space="preserve">
<style type="text/css">
	.st0{fill-rule:evenodd;clip-rule:evenodd;fill:#DEAB5B;stroke:#DEAB5B;stroke-width:2;stroke-miterlimit:2.6131;}
</style>
<g>
	<path id="XMLID_68_" class="st0" d="M210.3,146.4L210.3,146.4c0.4-0.2,0.5-0.7,0.2-1.2c-0.1-0.2-0.4-0.3-0.7-0.3
		c-0.2,0-0.3,0-0.5,0.1c-4.1,2.7-25.5,18.4-43.8,62.6c-11.1,26.8-18.8,58.9-23.1,95.3c-5.2,45.2-5,97.5,0.6,155.3
		c0,0.4,0.4,0.7,0.8,0.7h0.1c0.2,0,0.4-0.1,0.5-0.3c0.1-0.2,0.2-0.4,0.2-0.6c-5.7-57.6-5.9-109.8-0.7-154.9
		c4.2-36.2,11.9-68.2,23-94.8c8-19.2,17.4-35.3,28.2-47.9C203,151.6,208.7,147.5,210.3,146.4L210.3,146.4z"/>
	<path class="st0" d="M130.9,230.7c-1.5-2.9-4.1-4.9-7.6-5.8c-1.3-0.4-2.8-0.5-4.3-0.5c-3.7,0-7.4,1.1-10.3,2.9
		c-3.4,2.1-6.1,5.4-7.5,9c-1.5,3.8-1.3,7.6,0.5,10.7c6.7,11.4,17,20.4,27,29.1c5,4.3,10.1,8.7,14.7,13.4c0.2,0.2,0.4,0.2,0.6,0.2
		c0.1,0,0.2,0,0.4-0.1c0.3-0.2,0.5-0.5,0.4-0.8C144.4,286.9,137.8,243.8,130.9,230.7L130.9,230.7z M140.1,284
		c-3.4-3.2-7-6.3-10.5-9.3c-9.9-8.5-20.1-17.3-26.7-28.6c-3.4-5.8,0.7-13.9,6.6-17.5c2.7-1.7,6.1-2.7,9.4-2.7c1.4,0,2.7,0.2,3.9,0.5
		c2.1,0.6,5,1.9,6.6,5c5.3,10,10.6,39.5,12.6,51.5l0.6,3.5L140.1,284L140.1,284z"/>
	<path class="st0" d="M160,228.4c0.1-1.8,1.4-45.4-3-59.5c-1-3.1-3.1-5.5-6.3-7.1c-2.3-1.1-5-1.7-7.8-1.7c-2.5,0-5,0.5-7.1,1.3
		c-7.1,2.9-13.2,10.7-10.5,18.1c4.6,12.4,13,23,21.3,33.3c4.1,5.1,8.4,10.5,12.1,16c0.1,0.2,0.4,0.4,0.7,0.4c0.1,0,0.2,0,0.2,0
		C159.8,229.2,160,228.8,160,228.4L160,228.4z M158.5,222.4l-0.1,3.5l-2.1-2.9c-2.8-3.8-5.8-7.5-8.7-11.1
		c-8.1-10.1-16.5-20.6-21-32.7c-2.3-6.3,3.1-13.4,9.6-16.1c2-0.8,4.3-1.2,6.6-1.2c2.6,0,5,0.5,7.1,1.5c1.9,0.9,4.5,2.7,5.5,6.1
		C158.8,180.2,158.7,210,158.5,222.4L158.5,222.4z"/>
	<path class="st0" d="M182.7,175.6c0.4-1.8,8.8-44.6,6.8-59.3c-0.4-3.2-2.2-6-5.1-8c-2.9-2-6.7-3.2-10.6-3.2c-1.4,0-2.7,0.1-4,0.4
		c-3.9,0.8-7.5,3-10.1,5.9c-2.7,3.1-3.9,6.7-3.3,10.2c2.4,13,9.1,24.9,15.6,36.4c3.2,5.7,6.5,11.6,9.3,17.6c0.1,0.3,0.4,0.5,0.7,0.5
		h0.1C182.3,176.3,182.7,175.9,182.7,175.6L182.7,175.6z M181.6,172.8l-1.6-3.1c-2.1-4.2-4.5-8.3-6.7-12.3
		c-6.4-11.4-13-23.1-15.4-35.9c-1.2-6.6,5.5-12.9,12.2-14.3c1.2-0.3,2.4-0.4,3.7-0.4c3.6,0,7.1,1,9.7,2.9c1.8,1.2,4,3.4,4.5,6.9
		c1.5,11.3-3.5,40.6-5.7,52.7L181.6,172.8L181.6,172.8z"/>
	<path class="st0" d="M210.3,271.2c1.4-4.6,0.7-10.4-1.8-14.7c-3.1-5.4-9-9.2-14.3-9.2c-1.8,0-3.5,0.4-5.1,1.3
		c-11.8,6.3-21.1,16.2-30.1,25.8c-4.5,4.8-9.1,9.7-13.9,14c-0.3,0.2-0.3,0.6-0.2,0.9c0.1,0.3,0.4,0.5,0.7,0.5h0.1
		c1.8-0.2,45.2-4.9,58.5-11.3C207.2,277.1,209.2,274.6,210.3,271.2L210.3,271.2z M151.5,287.5l-3.5,0.4l2.5-2.5
		c3.3-3.3,6.5-6.7,9.6-10c8.9-9.5,18.2-19.3,29.7-25.5c1.3-0.7,2.8-1.1,4.4-1.1c4.7,0,10,3.4,12.9,8.4c2.3,3.9,2.9,9.2,1.6,13.4
		c-0.6,2.1-2.1,4.9-5.3,6.4C193.2,282,163.7,286,151.5,287.5L151.5,287.5z"/>
	<path class="st0" d="M208.7,194.7c-12.4,4.6-23,13.1-33.3,21.4c-5.1,4.1-10.4,8.4-15.8,12.1c-0.3,0.2-0.4,0.6-0.3,0.9
		c0.1,0.3,0.4,0.6,0.7,0.6c0.3,0,6.5,0.2,15,0.2c21.8,0,37.6-1.2,44.6-3.3c3.1-1,5.6-3.2,7.1-6.4c2.1-4.4,2.1-10.2,0.2-14.9
		c-2.3-5.6-8-11.2-14.5-11.2v-0.6l0,0v0.6C211.1,193.9,210,194.2,208.7,194.7L208.7,194.7z M225.4,205.7c1.8,4.3,1.7,9.6-0.2,13.6
		c-0.9,2-2.7,4.5-6.1,5.5c-8.6,2.7-28.8,3.2-44.2,3.2c-2.9,0-5.8,0-8.7-0.1h-3.5l2.8-2.1c3.8-2.8,7.5-5.8,11-8.7
		c10.1-8.2,20.6-16.6,32.9-21.1c1-0.4,2-0.5,3.1-0.5C218.2,195.6,223.4,200.8,225.4,205.7L225.4,205.7z"/>
	<path class="st0" d="M249.2,181.1c2.9-3.9,4.2-9.4,3.3-14.3c-1.2-6.8-6.9-14.2-14.1-14.2c-0.5,0-1,0-1.4,0.1
		c-13.2,1.8-25.4,8-37.3,14c-5.8,2.9-11.8,6-17.8,8.5c-0.3,0.1-0.5,0.5-0.5,0.8s0.3,0.6,0.6,0.7c1.6,0.4,38.8,9.4,55.9,9.4
		c1.2,0,2.2,0,3.1-0.1C244.1,185.7,247,184,249.2,181.1L249.2,181.1z M240.7,184.4c-0.9,0.1-1.9,0.1-3,0.1c-12.8,0-39-5.6-49.5-8
		l-3.4-0.8l3.2-1.5c4.2-1.9,8.4-4.1,12.4-6.1c11.7-5.9,23.9-12,36.7-13.8c0.4-0.1,0.8-0.1,1.2-0.1c6.4,0,11.5,6.7,12.5,12.8
		c0.8,4.4-0.4,9.6-3,13.1C246.5,182,244.2,184.1,240.7,184.4L240.7,184.4z"/>
	<path class="st0" d="M264,108.7c-0.2-4.9-2.7-10-6.5-13.2c-3.4-3-8-4.7-12.2-4.7c-2.5,0-6,0.6-8.7,3.6c-9,9.7-14.6,22.1-20.1,34.3
		c-2.7,6-5.5,12.2-8.6,17.9c-0.2,0.3-0.1,0.7,0.1,0.9c0.2,0.2,0.4,0.3,0.6,0.3c0.1,0,0.2,0,0.3-0.1c1.7-0.8,41-19.4,51.7-29.8
		C263,115.5,264.2,112.4,264,108.7L264,108.7z M213.8,143.5l-3.2,1.6l1.6-3.2c2.1-4.2,4-8.5,5.9-12.7c5.3-11.9,10.9-24.2,19.7-33.8
		c1.9-2,4.5-3.1,7.6-3.1c3.8,0,8,1.6,11.1,4.3c3.5,2.9,5.8,7.7,5.9,12.1c0.1,2.2-0.4,5.4-2.9,7.9
		C251.4,124.6,224.8,138.1,213.8,143.5L213.8,143.5z"/>
	<path class="st0" d="M82.5,327.1c-9.7-5.5-16.2-8.1-19.6-8.1c-1.1,0-1.8,0.3-2.1,0.5c-0.6,0.4-1.2,1.1-1.1,2.6
		c0.5,5.4,11.7,18.5,27.9,32.6c17.5,15.4,36.2,27.9,49.9,33.8c0.1,0,0.2,0.1,0.3,0.1c0.2,0,0.3,0,0.4-0.1c0.2-0.1,0.4-0.4,0.4-0.6
		C138.7,386.7,139.7,359.2,82.5,327.1L82.5,327.1z M137.2,386.7l-2.2-1c-14-6.6-31.5-18.8-48.1-33.8c-15-13.4-25.8-26.1-25.6-30.1
		v-0.9l0.9-0.2c0.2,0,0.4-0.1,0.7-0.1c1.8,0,6.6,1,18.8,7.9c44.4,24.9,53.2,47.2,55,55.7L137.2,386.7L137.2,386.7z"/>
	<path class="st0" d="M229.5,340.7c-0.1-0.7-0.6-1.6-2-2c-0.6-0.2-1.4-0.3-2.3-0.3v-0.6l0,0v0.6c-15.8,0-66.4,25.1-88.2,46.3v0.5
		v1.2v0.3c1.1,0.4,4.7,1.7,10.7,1.7c12.7,0,34.7-5.3,66.4-30.5C225.1,349.3,230.1,343.7,229.5,340.7L229.5,340.7z M213.3,356.7
		c-31.4,24.8-53.1,30-65.6,30c-2.5,0-4.8-0.2-6.9-0.6l-2.3-0.5l1.8-1.6c11.5-10.5,29.6-22,49.5-31.6c19-9.2,31-12.4,35.5-12.4
		c0.9,0,1.5,0.1,2,0.4l0.8,0.4l-0.2,0.9C227.6,343.1,225.3,347,213.3,356.7L213.3,356.7z"/>
	<path id="XMLID_49_" class="st0" d="M137.1,385.8v-1.1c-0.2,0.2-0.4,0.4-0.6,0.6s-0.3,0.4-0.2,0.7c0,0.3,0.2,0.5,0.4,0.6
		c0,0,0.1,0.1,0.4,0.2v-0.3l0,0L137.1,385.8L137.1,385.8z"/>
	<path id="XMLID_48_" class="st0" d="M354.3,154.9c12.1-16.9,25-30.5,38.2-40.2c9.4-6.9,16-9.6,17.8-10.3h0.1c0.4-0.2,0.6-0.6,0.4-1
		c-0.1-0.4-0.5-0.5-0.8-0.5c-0.1,0-0.2,0-0.3,0.1c-4.6,1.7-29.1,12.2-56.9,51.2c-16.8,23.6-31.6,53.1-43.9,87.7
		c-15.4,42.9-26.8,93.9-34.3,151.5c0,0.2,0,0.4,0.2,0.6s0.3,0.3,0.5,0.3h0.1c0.4,0,0.7-0.3,0.8-0.7c7.4-57.4,18.9-108.4,34.3-151.1
		C322.8,207.8,337.5,178.4,354.3,154.9L354.3,154.9z"/>
	<path class="st0" d="M314.6,228.2c0.1-1.8,3.5-45.3-0.3-59.7c-0.8-3.2-3-5.7-6.1-7.4c-2.4-1.3-5.5-2-8.6-2v-0.6l0,0v0.6
		c-2.2,0-4.3,0.4-6.2,1c-3.8,1.3-7.2,3.9-9.4,7.1c-1.7,2.4-3.3,6.1-1.9,10.5c3.9,12.8,12.1,23.9,19.9,34.7
		c3.8,5.2,7.8,10.6,11.2,16.1c0.1,0.2,0.4,0.4,0.7,0.4c0.1,0,0.1,0,0.2,0C314.2,228.8,314.6,228.4,314.6,228.2L314.6,228.2z
		 M313.3,222.1l-0.2,3.5l-2-2.9c-2.6-3.8-5.3-7.5-8-11.1c-7.8-10.6-15.8-21.6-19.7-34.3c-2.1-6.4,3.7-13.2,10.3-15.6
		c1.8-0.6,3.8-0.9,5.7-0.9c2.8,0,5.6,0.6,7.8,1.8c1.9,1,4.4,3,5.3,6.4C315.6,179.9,314.1,209.8,313.3,222.1L313.3,222.1z"/>
	<path class="st0" d="M348.7,105.8c-3-2.4-7.3-3.8-11.4-3.8c-1,0-2,0.1-2.9,0.2c-9.9,1.5-15.1,9.1-14.4,15.4
		c1.6,13.2,7.5,25.4,13.2,37.2c2.9,5.9,5.8,12.1,8.2,18.2c0.1,0.3,0.4,0.5,0.7,0.5c0.4,0,0.7-0.3,0.8-0.6
		c0.5-1.8,11.5-43.9,10.4-58.8C353.2,111,351.5,108.1,348.7,105.8L348.7,105.8z M342.9,166.6L342,170l-1.4-3.2
		c-1.9-4.3-3.9-8.6-5.9-12.7c-5.7-11.7-11.5-23.9-13.1-36.7c-0.8-6.7,6.1-12.4,13.1-13.5c0.9-0.1,1.8-0.2,2.7-0.2
		c3.8,0,7.7,1.3,10.4,3.4c1.7,1.3,3.8,3.7,4.1,7.3C352.5,125.7,345.8,154.7,342.9,166.6L342.9,166.6z"/>
	<path class="st0" d="M393.7,61.4c-3.2-3.6-8.5-5.9-13.5-6h-0.3c-4.5,0-8.7,1.5-11.8,4.1c-2.8,2.4-4.4,5.5-4.6,8.6
		c-0.5,13.2,3.3,26.2,6.9,38.8c1.9,6.4,3.8,13,5.1,19.5c0.1,0.3,0.3,0.6,0.7,0.6h0.1c0.3,0,0.6-0.2,0.7-0.5
		c0.8-1.7,18.7-41.4,20.1-56.2C397.2,67.1,396.1,63.9,393.7,61.4L393.7,61.4z M395.3,70.1c-1,11.3-12.5,38.8-17.4,50.1l-1.4,3.3
		l-0.9-3.4c-1.1-4.6-2.5-9.2-3.8-13.7c-3.6-12.5-7.4-25.3-6.9-38.3c0.3-5.4,6.1-11.2,14.9-11.2h0.2c4.6,0.1,9.4,2.2,12.4,5.5
		C393.9,64,395.6,66.6,395.3,70.1L395.3,70.1z"/>
	<path class="st0" d="M409.7,179.8c3-3.8,4.4-9.4,3.7-14.4c-1.1-6.9-6.7-14.4-13.9-14.4v-0.6l0,0v0.6c-0.5,0-0.9,0-1.4,0.1
		c-13.3,1.6-25.6,7.6-37.6,13.3c-5.8,2.8-11.8,5.7-17.9,8.1c-0.3,0.1-0.5,0.4-0.5,0.8c0,0.3,0.3,0.6,0.6,0.7
		c1.6,0.4,39.7,10.4,56.2,10.4c0.9,0,1.7,0,2.4-0.1C404.7,184.3,407.5,182.6,409.7,179.8L409.7,179.8z M401.3,182.9
		c-0.7,0.1-1.5,0.1-2.4,0.1c-12.6,0-39.1-6.2-49.9-8.9l-3.4-0.8l3.2-1.4c4.2-1.9,8.4-3.9,12.4-5.8c11.8-5.7,24-11.7,37.1-13.2
		c0.3,0,0.7-0.1,1.1-0.1c6.5,0,11.4,6.6,12.4,13c0.7,4.6-0.6,9.7-3.3,13.2C407.1,180.5,404.8,182.6,401.3,182.9L401.3,182.9z"/>
	<path class="st0" d="M395.8,121.7c-6.4,1.6-13,3.2-19.5,4.2c-0.3,0.1-0.6,0.3-0.7,0.7c-0.1,0.3,0.1,0.7,0.4,0.8
		c1.7,0.8,40.6,20.4,55.4,22.5c0.5,0.1,1,0.1,1.5,0.1c2.7,0,5.3-1,7.6-2.9c3.7-3.1,6.3-8.3,6.5-13.3c0.6-10-5.8-16.6-11.9-17.1
		c-1.9-0.2-3.9-0.3-5.8-0.3v-0.6l0,0v0.6C417.9,116.2,406.7,119,395.8,121.7L395.8,121.7z M429.2,117.9c1.9,0,3.8,0.1,5.7,0.3
		c6.7,0.5,10.8,8.4,10.5,15.5c-0.2,4.6-2.6,9.4-5.9,12.2c-1.4,1.2-3.7,2.5-6.6,2.5c-0.4,0-0.9,0-1.3-0.1
		c-11.4-1.6-38.3-14.3-49.4-19.6l-3.2-1.5l3.5-0.7c4.6-0.9,9.2-2.1,13.7-3.2C406.9,120.5,418.2,117.9,429.2,117.9L429.2,117.9z"/>
	<path class="st0" d="M471.1,79.9c1-4.7-0.3-10.5-3.3-14.6c-3.3-4.6-8.9-7.7-13.8-7.7c-2.3,0-4.4,0.6-6.3,1.9
		c-11.1,7.4-19.3,18.3-27.3,28.8c-4,5.2-8,10.6-12.4,15.5c-0.2,0.3-0.3,0.6-0.1,0.9c0.1,0.2,0.4,0.4,0.7,0.4c0.1,0,0.1,0,0.2,0
		c1.8-0.4,44.4-9.6,57-17.4C468.6,86.1,470.5,83.5,471.1,79.9L471.1,79.9z M414.3,102.4l-3.4,0.8l2.2-2.7c3-3.6,5.8-7.4,8.6-11
		c7.9-10.4,16-21.2,26.9-28.6c1.6-1.1,3.4-1.6,5.4-1.6c4.5,0,9.5,2.8,12.5,7c2.7,3.8,3.9,9,3,13.4c-0.4,2.1-1.6,5-4.6,6.8
		C455.4,92.5,426.3,99.6,414.3,102.4L414.3,102.4z"/>
	<path class="st0" d="M366.9,199.1c-12.8,3.4-24.2,11-35.2,18.3c-5.5,3.6-11.1,7.4-16.9,10.6c-0.3,0.2-0.5,0.5-0.4,0.9
		c0.1,0.3,0.3,0.6,0.7,0.6c1.1,0.1,27,3.2,45.6,3.2c6.2,0,10.9-0.3,14-1c3.2-0.7,5.8-2.7,7.6-5.7c2.4-4.2,3.1-10,1.6-14.8
		c-1.8-6-7.4-12.4-14.2-12.4v-0.6l0,0v0.6C368.8,198.7,367.8,199,366.9,199.1L366.9,199.1z M382.4,211.7c1.4,4.4,0.8,9.7-1.4,13.5
		c-1.1,1.9-3.1,4.2-6.6,5c-3,0.7-7.6,1-13.5,1c-13.2,0-30.5-1.6-39.5-2.5l-3.5-0.4l3-1.8c4-2.4,8-5.1,11.8-7.6
		c10.8-7.2,22-14.7,34.7-18.1c0.8-0.2,1.6-0.3,2.4-0.3C375.6,200.4,380.8,206.2,382.4,211.7L382.4,211.7z"/>
	<path id="XMLID_20_" class="st0" d="M285.3,321.1v-0.9c-0.1,0.1-0.3,0.2-0.4,0.3c-0.2,0.1-0.4,0.4-0.4,0.6c0,0.3,0.1,0.5,0.3,0.7
		c0,0,0.2,0.2,0.5,0.4v-0.4l0,0V321.1L285.3,321.1z"/>
	<path class="st0" d="M375.5,293.6v0.6c-21.5,0-67.2,11.9-90.1,25.9v0.3v1.2v0.4c1.9,1.3,8.9,5.2,22.8,5.2c16.4,0,36.2-5.4,58.8-16
		c12.5-5.9,18.7-10.3,18.8-13.3c0-0.7-0.2-1.7-1.5-2.4c-1.1-0.6-3.4-1.4-8.6-1.4L375.5,293.6L375.5,293.6L375.5,293.6z M376.2,295.9
		c5.8,0,7,1,7.4,1.3l0.7,0.6l-0.4,0.8c-0.6,1.4-3.7,4.8-17.7,11.4c-22.2,10.5-41.6,15.8-57.9,15.8c-9.6,0-15.8-1.9-19.4-3.5l-2.2-1
		l2.1-1.2c13.5-7.6,33.8-14.8,55.5-19.7C361.7,296.4,371.7,295.9,376.2,295.9L376.2,295.9z"/>
	<path class="st0" d="M263.9,250.7c-6-8.3-10.5-13-13.4-14.2c-0.9-0.4-1.7-0.4-2-0.4c-0.7,0.1-1.4,0.5-1.9,1.7
		c-1.7,4.7,2.8,20,11,37.9c8.8,19.5,19.7,37.1,29.1,47.2c0.1,0,0.2,0.2,0.2,0.2c0.1,0,0.2,0.1,0.4,0.1s0.5-0.2,0.6-0.3
		C288.4,321.9,299.6,299.2,263.9,250.7L263.9,250.7z M287.1,321.3l-1.5-1.7c-9.2-10.8-19.2-27.7-27.6-46.6
		c-7.5-16.9-11.7-31.7-10.1-35l0.3-0.7l0.8,0.2c0.2,0.1,0.4,0.1,0.7,0.2c1.5,0.7,5.1,3.4,12.8,13.8c27.7,37.7,26.7,59.8,24.8,67.5
		L287.1,321.3L287.1,321.3z"/>
</g>
</svg>
