<?xml version="1.0" encoding="utf-8"?>
<!-- Generator: Adobe Illustrator 24.2.3, SVG Export Plug-In . SVG Version: 6.00 Build 0)  -->
<svg version="1.1" id="Layer_1" xmlns="http://www.w3.org/2000/svg" xmlns:xlink="http://www.w3.org/1999/xlink" x="0px" y="0px"
	 viewBox="0 0 255.1 255.1" style="enable-background:new 0 0 255.1 255.1;" xml:space="preserve">
<style type="text/css">
	.st0{fill:none;stroke:#DEAB5B;stroke-width:2;stroke-linecap:round;stroke-linejoin:round;stroke-miterlimit:2.6131;}
</style>
<g>
	<path class="st0" d="M102,190.6c-5.6,0.7-8.6-5.1-8.6-10.2c0-5.8,7.8-4.2,3.5-10.7c-1.2-1.9,2.5-5.2-3.3-10.2
		c-1.2-1.1-1.2-23.1-0.1-25.3c4.7-10.5,30.8-9.7,40.1-6.1c0.5,0.2,22.5-1.3,26.9,1.5c6.7,4.4,4.1-2,7.2,3.3c2,3.3,9.9,2.3,10.2,6.3
		c0.4,4.5,4.1-1.2,6.2,3.9c4.5,10.8,2.4,3.5,3.1,7.9c0.1,1.1-1.2,4.8-0.7,10.8c0,0.2-1.4,5.7-1.4,7.9c0,4.4-5,22.6-8.2,23.7
		c-7.7,2.6-15.1-1.2-22,5.3c-6.9,6.6-13.8-2-19.8,0.8c-3.7,1.8-15.4,0.2-17.4-1.1c-2.4-1.6-5.1-5.7-6-5.7
		C108.8,192.8,104.5,190.3,102,190.6L102,190.6z M105,180.6c-0.5-14.3,3.2-1.5,3.2-21.6c-0.7-6-2.9-5.4-2.2-10.2"/>
	<path id="XMLID_26_" class="st0" d="M137.8,155.7c4.3-0.8,41.2,1.4,49.3-5.7"/>
	<path class="st0" d="M153.2,186.3c3.4-5.3,22-2.8,23-11.5c0-0.3,0.1-2.3,0.1-2.6 M152.5,137.5c13.4,3.3-7.2,8.2,3.4,8.9
		c5.5,0.4,10.6,4.5,16.5,4.5 M94.6,132.5c9.6-3.6,15.8,5.6,23.2,11.1c5.6,4.2,20.6,14.4,20.3,11.6 M143.2,127.5
		c-9.2,0.7-15.5,0.5-21.9-3.9c-17.5-11.9-15.4,0.5-28.4-17.9c-1.6-2.3-0.1-7.5-4.6-9.6c-2.9-1.2,2.6-9.7,2.3-15.4
		c0-0.8,7.5-7.8,7.9-12.3c0.3-4.6,20.2-7.6,28.3-14.1c5.2-4.2,25.8,10.4,32.1,11.6c1,0.1,19.3,6.4,19.1,9.2c-0.1,3.9,2,1.1-0.6,7.9
		c-4,10.6,13,3.7,10.6,20.3c-1.5,10.2-9.3,4.2-15.7,17.6c-3.1,6.4-12.2,5.6-19.3,5.9C150.9,127,145.4,127.3,143.2,127.5L143.2,127.5
		z M171.1,84.2c-1.4,3.9-10.2,7.5-13.7,10.2c-3.1,2.4-11.1,3.7-14.9,2.5c-2.9,0-1-1.2-3.7-2c-1.8-0.5-9.6-5.6-10.1-5.6
		c-14.7-0.6-7.6-4.8-10-6.1c-5.3-2.9-9.6-5.3-15.8-5.3 M185.5,109c4-1,16.8,0,16.5,4.8c-0.3,7.5,22,17.8,14.6,30.5
		c-3.7,6.4-3.1,20.7-7.3,23.5c-8,5.2-8.3,0.7-15.1,9.3c-0.6,0.7-10.8,4.5-11.9,4.4l0.1,0.8 M91.5,100.4c-10.8,4.3-5.6-4.6-15.7,3.2
		c-6,4.6-10.6-8.9-16.5,11.3c-1.5,5.1-8.1,0.1-10.8,11.7c-0.4,1.5-15.3,17-10.8,30.6c1.7,5.1,9.7,1.2,17.1,10
		c6,7.2,12.3,0.2,19.7,8.1c5.1,5.5,17.6-5.3,18.9-12.6c0.5-0.3,1.5-1,2-1.2 M106.3,117.5c0,0.1,2,5.2,2.7,8.6 M80,110.1
		c-2.7,3.1-3.1,0.6-3.7,5.3c-0.2,1.7-5.6-2.8-3.1,11c0.1,0.6-2.8,4.5,4.2,9.2c4.5,3.1-0.7-10,2.4-9.9c6.2,0.1-4.1-3,0.5-9.4
		C80.2,116.4,80.5,109.5,80,110.1L80,110.1z"/>
	<path id="XMLID_16_" class="st0" d="M81.4,149.6c-0.3,4.2-6.3-0.8-6.5,1.9c-0.1,1.8-2.8,5.1-0.7,7.8c0.1,0.1,0.3,4.2,2.7,2.2
		c1.5-1.2,1.2-2.9,1.5,1.7c0.1,2.9,2.2-3.7,3.1-4.4c1.2-1,2.8-10.3,0-10C81.4,148.8,81.5,149.2,81.4,149.6L81.4,149.6z"/>
	<path id="XMLID_15_" class="st0" d="M143.5,124.6c-0.4-11.7,2.6-1.2,2.6-17.7c-0.6-4.9-2.3-4.4-1.8-8.3"/>
	<path id="XMLID_14_" class="st0" d="M91.4,127.3c1.9-3-2.7-4.1-1.5,0.1C90,128,91.3,127.6,91.4,127.3L91.4,127.3z"/>
</g>
</svg>
