<?xml version="1.0" encoding="utf-8"?>
<!-- Generator: Adobe Illustrator 24.2.3, SVG Export Plug-In . SVG Version: 6.00 Build 0)  -->
<svg version="1.1" xmlns="http://www.w3.org/2000/svg" xmlns:xlink="http://www.w3.org/1999/xlink" x="0px" y="0px"
	 viewBox="0 0 600 600" style="enable-background:new 0 0 600 600;" xml:space="preserve">
<style type="text/css">
	.st0{display:none;}
	.st1{display:inline;fill:none;stroke:#1D1D1B;stroke-miterlimit:10;}
	.st2{display:inline;}
	.st3{fill:#DEAB5B;stroke:#DEAB5B;stroke-width:2;stroke-miterlimit:10;}
</style>
<g id="Capa_1" class="st0">
	<circle class="st1" cx="300" cy="300" r="300"/>
	<g transform="matrix(1.38786 0 0 1.38786 -39.7553 30.3321)" class="st2">
		<path d="M365.6,396.5c-1.4-2.6-4.1-4.2-7.1-4.2h-93c-1.8-8.6-3.4-17.4-4.8-26.3c0-0.1,0-0.2-0.1-0.2c1.3-1.6,2.5-3.2,3.6-5
			c11.8-20.1,5.8-34.1,1.1-40.7c-2.9-4.1-6.6-7.3-10.6-9.8c-1.1-17.6-1.5-34.9-1.3-51.4c8.1,10.3,20,17.3,33.1,19
			c3.5,0.5,6.7,0.7,9.7,0.7c22.9,0,33.9-11.8,38.6-19.5c9-14.8,8.1-34.7,1.7-44.1c-5.1-7.3-13-11.3-22.5-11.3
			c-1.9,0-3.6-1.3-4.3-3.1c-2.9-8.9-8.8-14.9-17.1-17.6c5.4-1,10.7-3.2,15.4-6.6c0,0,0,0,0,0c18.8-13.2,24.5-41.3,12.1-59
			c-10.1-14.3-28.2-17.7-43.9-13.3c5.4-5.2,8.3-13.1,8.3-22.8c0-9.4-2.8-19-7.4-25.9c-6.5-9.6-14.8-10.8-20.6-10.2
			c-5.7,0.6-11.9,3.3-19.5,8.4c-7.6,5.2-12.3,9.9-15,15c-2.7,5.2-4.5,13.4,2,22.9c4.7,6.8,12.7,12.9,21.4,16.4
			c2.2,0.9,4.4,1.5,6.6,2c-0.8,4.3-1.8,9.4-2.8,15.3c-1.5,3-2.7,6.1-3.4,9.3c-0.6-2.4-1.4-4.8-2.5-7.1c-4.4-9.6-13-17.7-23.5-22.1
			c-11-4.7-22.7-4.8-32.3-0.4c-21.2,9.8-25.9,37-17,56.2c4.5,9.7,12.5,17.1,22.6,20.8c4.5,1.7,9.2,2.5,13.9,2.5
			c5.7,0,11.4-1.2,16.8-3.7c9.5-4.4,16.7-12.1,20.5-21.8c-2.5,19.5-5,44.3-6.2,72.3c-10.8-15.1-30.8-22.6-42.8-20.2
			c-9.4,1.9-16.5,7.9-20.5,17.3c-0.9,2.2-3.3,3.6-5.7,3.4c-10.2-0.9-18.8,2.6-24.9,10c-7.8,9.4-10.5,30.7-2.2,47.4
			c4.7,9.4,16.9,24.7,46.2,24.7c1.3,0,2.6,0,4-0.1c18.1-0.8,35.1-11,44.2-26.6c0.4-0.7,0.8-1.4,1.2-2c0.2,6.5,0.4,13.1,0.8,19.7
			c-1.7-0.1-3.3,0-4.7,0.3h0c-7.1,1.5-12.7,6.2-15.8,13.3c-0.2,0.5-0.6,0.8-1.3,0.7c-7.6-0.7-14.5,2.1-19.1,7.7
			c-5.8,7-8.1,22.3-1.8,34.9c3.4,6.9,12.3,18.2,33.6,18.2c0.9,0,1.9,0,2.8-0.1c4.9-0.2,9.7-1.4,14.1-3.4c0.9,5.3,1.9,10.5,2.9,15.6
			h-68.5c-3,0-5.7,1.6-7.1,4.2c-8.5,15.8-13,33.6-13,51.6c0,60.1,48.9,109,109,109c60.1,0,109-48.9,109-109
			C378.6,430.2,374.1,412.3,365.6,396.5z M229.6,152.7c-2.2,6-6.6,10.8-12.5,13.5c-5.8,2.7-12.3,3-18.4,0.7
			c-6-2.2-10.8-6.6-13.5-12.5c-5.5-11.9-2.8-29.4,9.2-34.9c2.5-1.2,5.4-1.8,8.4-1.8c3.5,0,7.2,0.8,10.9,2.3
			c6.8,2.9,12.5,8.2,15.2,14.1c0,0,0,0,0,0C231.6,140.1,231.8,146.7,229.6,152.7z M222.6,279.2c-6.5,11-18.4,18.2-31.1,18.7
			c-17.7,0.8-29.5-4.5-35.2-15.8c-5.8-11.5-3.1-26,0.2-30c1.6-1.9,4.2-4.3,9.6-4.3c0.5,0,1.1,0,1.6,0.1c9.4,0.8,18.1-4.5,21.8-13.1
			c2.5-6,6.4-7.4,9-7.9c5.1-1.1,19.2,3.4,26.6,13.9C232.5,251,231.6,263.9,222.6,279.2z M246.1,153.7c0,0.1-0.1,0.1-0.1,0.2
			c0-0.1,0-0.2,0.1-0.3C246.1,153.6,246.1,153.6,246.1,153.7z M258.7,174.1c5.2,4.5,11.3,7.4,17.8,8.8c-6.6,1.5-13.7,4.6-19.6,9.3
			C257.4,185.9,258,179.8,258.7,174.1z M314,219.8c5.6,0,8,2.5,9.3,4.4v0c2.2,3.2,4.2,16.2-2.1,26.6c-5.8,9.6-16.8,13.4-32.5,11.3
			c-11.3-1.5-21.4-8.8-26.4-19.1c-6.9-14.3-6.7-25.9,0.6-34.4c6.7-7.9,17-10.6,22.3-10.6c1,0,1.8,0.1,2.3,0.3
			c2.2,0.7,5.4,2.1,7.1,7.5C297.3,214.1,305.1,219.8,314,219.8z M289,118.6c7.2,0,14,2.5,18.1,8.2c7.3,10.4,3.2,28.5-8.2,36.6
			c-10.8,7.6-25.9,5.1-33.5-5.8c-7.6-10.8-5.1-25.9,5.8-33.5C276.1,120.6,282.6,118.6,289,118.6z M237.4,82.6
			c-2.3-3.4-1.8-5.1-1-6.5c1.3-2.6,4.6-5.7,9.7-9.2c5.1-3.5,9.2-5.4,12.1-5.7c0.3,0,0.5,0,0.8,0c1.4,0,3,0.5,4.9,3.4
			c2.8,4.1,4.6,10.7,4.6,16.8c0,5.7-1.6,10.3-4.3,12.1c-2.7,1.8-7.5,1.7-12.9-0.4C245.7,90.9,240.2,86.8,237.4,82.6z M231.5,364
			c-10.9,0.5-18.1-2.6-21.4-9.2c-3.6-7.2-1.6-15.9-0.2-17.5c0.8-1,2-2,4.5-2c0.3,0,0.6,0,0.9,0c7.6,0.7,14.4-3.6,17.4-10.4
			c1.2-2.9,2.8-3.6,4.2-3.9c2.1-0.4,10.7,1.8,15.4,8.4c4.3,6,3.7,13.8-1.9,23.2C246.5,359.3,239.2,363.7,231.5,364z M269.6,541.1
			c-51.3,0-93-41.7-93-93c0-13.8,3.1-27.4,8.9-39.8h168c5.9,12.4,9,26.1,9,39.8C362.6,499.4,320.9,541.1,269.6,541.1z"/>
		<path d="M335.4,437.1c-4.4,0-8,3.6-8,8c0,19-8.7,36.5-23.9,48c-3.5,2.7-4.2,7.7-1.6,11.2c1.6,2.1,4,3.2,6.4,3.2
			c1.7,0,3.4-0.5,4.8-1.6c19.2-14.5,30.2-36.7,30.2-60.8C343.4,440.7,339.8,437.1,335.4,437.1z"/>
	</g>
</g>
<g id="Capa_2">
	<g>
		<path class="st3" d="M317.9,534.4c-0.5,0-1-0.4-1.1-0.9c-10.6-49.6-17-100.3-18.9-150.8c-3.9-103.9,3.9-158.7,18.8-218.2
			c0.2-0.6,0.8-1,1.4-0.8c0.6,0.2,1,0.8,0.8,1.4c-14.8,59.3-22.6,113.8-18.7,217.5c1.9,50.4,8.2,101,18.8,150.4
			c0.1,0.6-0.3,1.2-0.9,1.4C318.1,534.3,318,534.4,317.9,534.4z"/>
	</g>
	<g>
		<path class="st3" d="M280.6,508.6c-8.6,0-16.7-3-24.3-8.8c-8.2-6.3-13.5-14.3-16.4-19.8c-5.9-11.1-7.8-22.1-4.5-26.9
			c2.3-3.3,6.5-3.3,11.4-3.2c5.7,0.1,12.7,0.2,19.6-4.8c5.8-4.2,7.8-9.3,9.6-13.8c1.7-4.3,3.2-7.9,7.4-9.4
			c4.7-1.6,11.6,0.1,18.7,4.6c0.5,0.3,0.7,1,0.3,1.6c-0.3,0.5-1,0.7-1.6,0.3c-6.4-4.1-12.7-5.8-16.7-4.4c-3.2,1.1-4.5,4.2-6,8.1
			c-1.8,4.5-4.1,10.2-10.4,14.8c-7.5,5.4-15,5.3-21,5.2c-4.6-0.1-7.9-0.1-9.5,2.2c-2.8,4-0.9,14.3,4.6,24.5
			c13.9,25.9,33.7,27.5,39.4,27.4c10.2-0.2,19.9-4.6,28-12.9c0.4-0.4,1.2-0.5,1.6,0c0.4,0.4,0.5,1.2,0,1.6
			c-8.4,8.5-19,13.3-29.6,13.5C281.1,508.6,280.8,508.6,280.6,508.6z"/>
	</g>
	<g>
		<path class="st3" d="M230.5,417.2c-13.3,0-25.9-4.6-37.7-13.7c-12.7-9.8-20.9-22.2-25.6-30.8c-9.2-17.1-12.1-34.2-7-41.4
			c3.4-4.9,9.8-4.8,17.3-4.7c9,0.1,20.1,0.3,31.1-7.6c9.3-6.7,12.5-14.7,15.3-21.8c2.6-6.5,4.9-12.2,11.2-14.4
			c7.8-2.7,20,0.8,31.7,9.2c15.6,11.1,32.2,32.2,32,58l-1.1,0l1.1,0c-0.2,34.5-32.2,66.6-67.2,67.2
			C231.2,417.2,230.8,417.2,230.5,417.2z M174.1,328.9c-5.5,0-9.8,0.5-12.1,3.7c-4.5,6.5-1.5,22.9,7.2,39
			c21.9,40.8,53.2,43.5,62.3,43.3c33.8-0.6,64.8-31.6,65-65l0,0c0.1-24.9-16-45.3-31.1-56.1c-11.2-8-22.5-11.4-29.7-8.9
			c-5.3,1.9-7.3,6.8-9.8,13.1c-2.8,7-6.3,15.8-16.1,22.8c-11.6,8.3-23.1,8.2-32.4,8C176.3,328.9,175.2,328.9,174.1,328.9z"/>
	</g>
	<g>
		<path class="st3" d="M360.8,373.8c-29.3,0-58.1-24.1-62.4-53.7c-1.8-12.4,0.9-24.7,8-36.8c7.5-12.7,17.7-21.5,25-26.7
			c14.5-10.3,29.6-14.8,36.8-11.1c4.9,2.6,5.5,8.4,6.3,15.2c0.9,8.1,2,18.2,10.4,27.2c7.1,7.6,14.7,9.6,21.5,11.4
			c6.2,1.6,11.6,3,14.3,8.6c3.4,6.8,1.6,18.2-4.7,29.9c-8.3,15.4-25.6,32.8-48.9,35.6l0,0C364.9,373.7,362.9,373.8,360.8,373.8z
			 M366.9,372.3L366.9,372.3L366.9,372.3z M361.9,246.6c-7.4,0-18.6,4.4-29.2,12c-34.5,24.4-33.3,53-32.1,61.2
			c4.4,30.5,35.9,55,66.1,51.4l0,0c22.5-2.7,39.1-19.6,47.2-34.5c5.9-11,7.7-21.6,4.7-27.8c-2.3-4.6-7-5.8-12.9-7.4
			c-6.7-1.8-15-3.9-22.6-12c-8.9-9.6-10-20.1-11-28.5c-0.7-6.4-1.3-11.4-5-13.4C365.8,247,364,246.6,361.9,246.6z"/>
	</g>
	<g>
		<path class="st3" d="M271.9,260.3c-11.1,0-22.5-5.6-31.3-15.6c-7-8-10.6-17-8.9-22.4c1.2-3.7,4.5-5.1,8.3-6.8
			c4.3-1.9,9.2-4.1,13.2-10c3.5-5.2,4.1-9.8,4.5-13.5c0.4-3.6,0.7-6.8,3.7-8.9c4.1-2.9,11.8-2.6,20.3,0.7
			c10.9,4.2,23.6,14.2,26.8,29.3l0,0c2.1,9.9-0.2,20.7-6.2,29.8c-5.9,8.9-14.8,15-24.3,16.8C276,260.1,274,260.3,271.9,260.3z
			 M269.1,183.4c-2.7,0-4.9,0.5-6.4,1.6c-2.1,1.5-2.4,3.9-2.7,7.3c-0.4,4-1,8.9-4.9,14.6c-4.4,6.5-9.9,8.9-14.2,10.8
			c-3.6,1.6-6.1,2.7-7,5.4c-1.5,4.6,2,12.9,8.4,20.2c9.9,11.2,23.1,16.6,35.2,14.3c8.9-1.7,17.2-7.4,22.8-15.8
			c5.7-8.6,7.9-18.8,5.9-28.1c-3-14.2-15.1-23.6-25.4-27.7C276.6,184.3,272.5,183.4,269.1,183.4z"/>
	</g>
	<g>
		<path class="st3" d="M345.9,246.6c-6.6,0-13.8-2.4-20.5-7c-10.2-7-16.4-17.5-16.3-27.4c0.1-13.1,11-23.8,20.2-29
			c6.8-3.8,13-5,16.2-3c2.2,1.3,2.7,3.8,3.2,6.4c0.5,2.8,1.1,5.9,4.1,8.4c2.9,2.5,6.1,2.5,9.2,2.5c2.7,0,5.5,0,7.7,2
			c3.5,3.1,4.8,10.4,3.3,19c-1.8,10.1-7.5,22.4-18.4,26.6C351.8,246,348.9,246.6,345.9,246.6z M341.6,181.5c-2.9,0-7,1.3-11.2,3.7
			c-8.7,4.9-18.9,14.9-19.1,27c-0.1,9.1,5.8,18.9,15.3,25.5c9,6.2,19.3,8.2,27,5.2c10-3.9,15.4-15.9,17-24.9
			c1.3-7.6,0.3-14.4-2.5-16.9l0,0c-1.6-1.4-3.7-1.4-6.2-1.4c-3.3,0-7-0.1-10.6-3.1c-3.5-3-4.2-6.7-4.8-9.7c-0.5-2.5-0.8-4.1-2.1-4.8
			C343.7,181.7,342.7,181.5,341.6,181.5z"/>
	</g>
	<g>
		<path class="st3" d="M304.6,167.2c-5.9,0-11.2-1.2-15.7-3.5c-7.4-3.8-12.2-10.8-13.9-20.2c-1.8-9.6-0.2-17.4,4.7-23.2
			c4.5-5.4,11.7-9,21.5-10.8c20-3.7,29.6,2.5,33.1,21.2l0,0c3.9,21.3-2.3,32.2-20.3,35.5C310.8,166.9,307.6,167.2,304.6,167.2z
			 M311.4,110.7c-2.9,0-6.1,0.3-9.7,1c-9.2,1.7-16,5.1-20.2,10c-4.4,5.3-5.8,12.5-4.2,21.3c1.6,8.8,5.9,15,12.7,18.6
			c6.2,3.2,14.4,4,23.6,2.3c16.6-3.1,22.1-12.9,18.4-32.9l0,0C329.4,116.9,323.5,110.7,311.4,110.7z"/>
	</g>
</g>
</svg>
