<?xml version="1.0" encoding="utf-8"?>
<!-- Generator: Adobe Illustrator 24.2.3, SVG Export Plug-In . SVG Version: 6.00 Build 0)  -->
<svg version="1.1" xmlns="http://www.w3.org/2000/svg" xmlns:xlink="http://www.w3.org/1999/xlink" x="0px" y="0px"
	 viewBox="0 0 600 600" style="enable-background:new 0 0 600 600;" xml:space="preserve">
<style type="text/css">
	.st0{display:none;}
	.st1{display:inline;fill:none;stroke:#1D1D1B;stroke-miterlimit:10;}
	.st2{display:inline;}
	.st3{fill:#DEAB5B;stroke:#DEAB5B;stroke-width:2;stroke-miterlimit:10;}
	.st4{fill:none;stroke:#DEAB5B;stroke-width:2;stroke-linecap:round;stroke-linejoin:round;stroke-miterlimit:10;}
</style>
<g id="Capa_1" class="st0">
	<circle class="st1" cx="300" cy="300" r="300"/>
	<g id="surface1" class="st2">
		<path d="M332.5,395.1c-1.8-2-2.4-4.7-1.7-7.3l1.6-5.7c3.1-11.5-2.8-23.4-13.9-28.2l-5.6-2.4c-2.5-1.1-4.3-3.2-4.8-5.8l-1.1-5.8
			c-2.3-11.6-12.9-19.9-25-19.5l-6.1,0.2c-2.7,0.1-5.3-1.2-6.9-3.2l-3.6-4.8c-7.3-9.5-20.5-12.4-31.2-7l-5.4,2.8
			c-2.4,1.2-5.3,1.2-7.7,0l-5.4-2.8c-10.7-5.5-24-2.5-31.2,7l-3.6,4.8c-1.6,2.1-4.2,3.3-6.9,3.2l-6.1-0.2
			c-12.2-0.5-22.8,7.8-25,19.5l-1.1,5.8c-0.5,2.6-2.3,4.8-4.8,5.8l-5.6,2.4c-11.1,4.8-17,16.7-13.9,28.2l1.6,5.7
			c0.7,2.6,0.1,5.3-1.7,7.3l-4,4.5c-8,9-8,22.3,0,31.3l4,4.5c1.8,2,2.4,4.7,1.7,7.3l-1.6,5.7c-3.1,11.5,2.8,23.4,13.9,28.2l5.6,2.4
			c2.5,1.1,4.3,3.2,4.8,5.8l1.1,5.8c2.3,11.6,12.9,19.9,25,19.5l6.1-0.2c2.7-0.1,5.3,1.1,6.9,3.2l3.6,4.8c7.3,9.5,20.5,12.4,31.2,7
			l5.4-2.8c2.4-1.2,5.3-1.2,7.7,0l5.4,2.8c3.5,1.8,7.4,2.8,11.4,2.8c7.8,0,15.2-3.6,19.8-9.7l3.6-4.8c1.6-2.2,4.2-3.4,6.9-3.2
			l6.1,0.2c12.2,0.5,22.9-7.8,25-19.5l1.1-5.8c0.5-2.6,2.3-4.8,4.8-5.8l5.6-2.4c11.1-4.8,17-16.7,13.9-28.2l-1.6-5.7
			c-0.7-2.6-0.1-5.3,1.7-7.3l4-4.5c8-9,8-22.3,0-31.3L332.5,395.1z M324,420.4l-4,4.5c-5.3,6-7.2,14.2-5.1,21.9l1.6,5.7
			c1,3.8-0.9,7.8-4.6,9.4l-5.6,2.4c-7.5,3.2-12.8,9.8-14.3,17.6l-1.1,5.8c-0.7,3.9-4.3,6.7-8.4,6.5l-6.1-0.2
			c-8.1-0.3-15.9,3.3-20.7,9.7l-3.6,4.8c-2.4,3.2-6.8,4.2-10.4,2.3l-5.4-2.8c-7.2-3.7-15.8-3.7-23,0l-5.4,2.8
			c-3.6,1.9-8,0.9-10.4-2.3l-3.6-4.8c-4.6-6.1-12-9.7-19.8-9.7h-0.9l-6.1,0.2c-4.1,0.2-7.6-2.6-8.3-6.5l-1.1-5.8
			c-1.5-7.8-6.9-14.4-14.3-17.6l-5.6-2.4c-3.7-1.6-5.7-5.6-4.6-9.4l1.6-5.7c2.1-7.7,0.2-15.8-5.1-21.9l-4-4.5c-2.6-3-2.6-7.4,0-10.4
			l4-4.5c5.3-6,7.2-14.2,5.1-21.9l-1.6-5.8c-1-3.8,0.9-7.8,4.6-9.4l5.6-2.4c7.5-3.2,12.8-9.8,14.3-17.6l1.1-5.8
			c0.7-3.9,4.3-6.7,8.4-6.5l6.1,0.2c8.1,0.3,15.8-3.4,20.7-9.7l3.6-4.8c2.4-3.2,6.8-4.1,10.4-2.3l5.4,2.8c7.2,3.7,15.8,3.7,23,0
			l5.4-2.8c3.6-1.9,8-0.9,10.4,2.3l3.6,4.8c4.8,6.4,12.5,10,20.6,9.8l6.1-0.2c4-0.1,7.6,2.6,8.3,6.5l1.1,5.8
			c1.5,7.8,6.9,14.4,14.3,17.6l5.6,2.3c3.7,1.6,5.7,5.6,4.6,9.4l-1.6,5.7c-2.1,7.7-0.2,15.8,5.1,21.9l4,4.5
			C326.7,413,326.7,417.4,324,420.4z"/>
		<path d="M170.1,364.9l11.6-11.3l16.4,16l-11.6,11.3L170.1,364.9z"/>
		<path d="M224.9,391.2c-13.6,0-24.5,10.7-24.5,24s11,24,24.5,24c13.5,0,24.5-10.7,24.5-24S238.5,391.2,224.9,391.2z M224.9,423.2
			c-4.5,0-8.2-3.6-8.2-8s3.7-8,8.2-8s8.2,3.6,8.2,8S229.4,423.2,224.9,423.2z"/>
		<path d="M251.8,452.8l11.6-11.3l16.4,16l-11.6,11.3L251.8,452.8z"/>
		<path d="M265.8,407.2h24.5v16h-24.5V407.2z"/>
		<path d="M253.1,384.6l24.5-16l9.1,13.3l-24.5,16L253.1,384.6z"/>
		<path d="M216.7,351.3h16.4v24h-16.4V351.3z"/>
		<path d="M151.3,407.2H184v16h-32.7V407.2z"/>
		<path d="M161.9,457.5l16.4-16l11.6,11.3l-16.4,16L161.9,457.5z"/>
		<path d="M208.6,455.2h16.4v32h-16.4V455.2z"/>
		<path d="M558.6,251.8c-1.3-3.8-2.3-7.7-3.4-11.7c-2.2-11-6.5-21.4-12.7-30.9c-7.3-8.7-16.1-15.9-26.2-21.3
			c-3.5-2.2-7-4.4-10.3-6.7c-3.3-2.3-6.4-4.9-9.6-7.4c-8.4-7.7-18.2-13.7-29-17.8c-11-2.8-22.4-3.5-33.7-2.2
			c-8.4,0.5-16.9,0.5-25.4,0c-11.3-1.3-22.7-0.6-33.7,2.2c-10.7,4.1-20.6,10.1-29,17.8c-3.2,2.6-6.3,5.1-9.6,7.4
			c-3.2,2.3-6.8,4.5-10.3,6.7c-2.9,1.8-5.8,3.7-8.7,5.7c-13.4-6.5-28.2-10-43.3-10.1h-8.2c-5.9,0-11.8,0.9-17.4,2.7
			c0.7-3.5,1.1-7.1,1.1-10.7c-0.1-52.9-44-95.8-98.1-95.9h-8.2c-31.6,0-57.2,25.1-57.2,55.9c0.1,52.9,44,95.8,98.1,95.9h8.2
			c5.9,0,11.8-0.9,17.4-2.7c-0.7,3.5-1.1,7.1-1.1,10.7c0,12.5,2.6,24.9,7.5,36.5c-2.5-0.4-5.1-1-7.8-1.5c-9.9-3.1-20.5-3.5-30.6-1.1
			c-9.8,4-18.4,10.6-24.7,18.9c-3.4,4.1-7.2,7.8-11.3,11.1c-4.5,2.9-9.4,5.3-14.5,7.3c-10,3.3-19,9.1-25.9,17
			c-5.5,8.8-8.4,18.8-8.5,29.1c-0.3,5.4-1.2,10.7-2.7,15.8c-1.9,4.8-4.3,9.4-7.1,13.7c-6.3,8.6-10,18.6-10.9,29.1
			c0.9,10.5,4.6,20.6,10.9,29.1c2.9,4.3,5.2,8.9,7.1,13.7c1.4,5.2,2.3,10.5,2.7,15.8c0.1,10.3,3,20.4,8.5,29.1
			c6.9,7.8,15.9,13.6,25.9,16.9c5.1,1.9,9.9,4.4,14.4,7.3c4.2,3.3,8,7,11.3,11.1c6.3,8.4,14.9,14.9,24.7,19
			c10.1,2.3,20.7,1.9,30.6-1.1c5.4-1.4,11-2.2,16.6-2.5c5.6,0.3,11.2,1.1,16.6,2.5c6.4,1.6,12.9,2.5,19.4,2.8
			c3.8,0,7.6-0.5,11.2-1.6c9.8-4,18.4-10.6,24.7-19c3.4-4.1,7.2-7.8,11.3-11.1c4.5-2.9,9.4-5.3,14.4-7.3c10-3.3,19-9.1,25.9-17
			c5.5-8.8,8.4-18.8,8.5-29.1c0.3-5.4,1.2-10.7,2.7-15.8c1.9-4.8,4.3-9.4,7.1-13.7c2-3.3,4.1-6.7,5.9-10.4c0.7,0.3,1.4,0.6,2.2,0.8
			c7.1,2.1,14.4,3,21.8,2.7v0.1c-0.3,21.1,15.8,39,37.3,41.5c1.2,0.1,2.4,0.2,3.6,0.2c22.6,0,40.9-17.8,41-39.9c0,0,0-0.1,0-0.1
			c0-5.4,2.6-10.5,7-13.7c3.8-2.7,7.4-5.6,11-8.5c3.2-2.6,6.3-5.1,9.6-7.4c3.2-2.3,6.8-4.5,10.3-6.7c10-5.4,18.9-12.6,26.2-21.3
			c6.2-9.4,10.5-19.9,12.7-30.9c1-3.9,2.1-7.8,3.4-11.7c1.2-3.7,2.7-7.3,4.2-11c4.9-10.2,7.8-21.3,8.4-32.6
			c-0.6-11.3-3.5-22.4-8.4-32.6C561.3,259,559.8,255.4,558.6,251.8z M274,199.5c10.1,0,20.2,1.9,29.6,5.5c-1.3,1.3-2.6,2.7-3.7,4.2
			c-6.2,9.4-10.5,19.9-12.7,30.9l-0.1,0.4l-44-34.2c6.7-4.4,14.6-6.8,22.7-6.8H274z M234.2,275.8c-6-11.2-9.2-23.7-9.3-36.4
			c0-7.7,2.3-15.3,6.7-21.7l50.3,39.2c-0.7,1.9-1.4,3.8-2.2,5.8c-1.5,3.8-3.1,7.7-4.5,11.8c-1-0.4-2-0.8-3.1-1.2
			c-10.1-2.3-20.7-1.9-30.6,1.1C239,274.9,236.6,275.4,234.2,275.8z M184,215.5c-45.1,0-81.7-35.8-81.8-79.9
			c0-22.1,18.3-39.9,40.9-40h8.2c45.1,0,81.7,35.8,81.8,79.9c0,6.6-1.8,13.2-5.1,19l-104.3-81.2l-10.2,12.5l103.9,80.9
			c-7.1,5.6-16,8.7-25.2,8.7H184z M352.7,436.2c-3.5,5.3-6.4,11-8.6,16.9c-1.8,6.3-3,12.7-3.4,19.2c0,7.4-1.9,14.7-5.4,21.3
			c-5.3,5.4-11.9,9.4-19.2,11.7c-6.2,2.4-12.1,5.4-17.6,9c-5.1,4-9.8,8.5-14,13.4C280,533.8,274,538.8,267,542
			c-7.4,1.3-15,0.7-22.1-1.5c-6.6-1.7-13.3-2.6-20.1-2.9c-6.8,0.2-13.5,1.2-20.1,2.8c-7.1,2.3-14.7,2.8-22.1,1.5
			c-7-3.3-13-8.2-17.5-14.3c-4.1-4.9-8.8-9.4-13.9-13.4c-5.5-3.6-11.4-6.7-17.6-9c-7.3-2.3-13.9-6.3-19.2-11.7
			c-3.6-6.5-5.4-13.9-5.4-21.3c-0.4-6.5-1.5-12.9-3.4-19.2c-2.2-5.9-5.1-11.6-8.6-16.9c-4.6-6.2-7.6-13.4-8.6-21
			c1-7.6,4-14.8,8.6-21c3.5-5.3,6.4-11,8.6-16.9c1.8-6.3,3-12.7,3.4-19.2c0-7.4,1.8-14.7,5.4-21.2c5.3-5.4,11.9-9.5,19.2-11.7
			c6.2-2.4,12.1-5.4,17.6-9c5.1-4,9.8-8.5,14-13.4c4.5-6.1,10.5-11.1,17.5-14.3c7.4-1.3,15-0.7,22.1,1.5c6.6,1.7,13.3,2.6,20.1,2.9
			c6.8-0.2,13.5-1.2,20.1-2.8c7.1-2.3,14.7-2.8,22.1-1.5c7,3.3,13,8.2,17.5,14.3c4.1,4.9,8.8,9.4,13.9,13.4c5.5,3.6,11.4,6.7,17.6,9
			c7.3,2.3,13.9,6.3,19.2,11.7c3.6,6.5,5.4,13.9,5.4,21.3c0.4,6.5,1.6,12.9,3.4,19.2c2.2,5.9,5.1,11.6,8.6,16.9
			c4.6,6.2,7.6,13.4,8.6,20.9C360.3,422.8,357.4,430,352.7,436.2z M547.6,322.1c-1.6,4-3.3,8-4.6,12c-1.4,4.1-2.5,8.3-3.6,12.6
			c-1.7,9-5.2,17.7-10.1,25.5c-6.1,7-13.5,12.8-21.7,17.2c-3.8,2.4-7.6,4.7-11.1,7.3c-3.6,2.5-6.9,5.3-10.4,8
			c-3.4,2.8-6.7,5.4-10.2,7.9c-8.7,6.2-13.9,16.1-13.8,26.6c0,6.7-2.9,13.1-8,17.7c-5.1,4.6-11.9,6.8-18.8,6.2
			c-13-1.7-22.7-12.7-22.3-25.5v-8c0-4.6-3.8-8.3-8.5-8.3c-0.2,0-0.3,0-0.5,0c-8.1,0.9-16.3,0.3-24.1-1.6c-0.8-0.3-1.6-0.6-2.5-0.9
			c0.1-1.1,0.2-2.3,0.2-3.4c-0.9-10.5-4.6-20.6-10.9-29.1c-2.9-4.3-5.2-8.9-7.1-13.7c-1.4-5.2-2.3-10.5-2.7-15.8
			c-0.1-10.3-3-20.4-8.5-29.1c-6.9-7.8-15.8-13.7-25.8-17c-5.1-1.9-9.9-4.4-14.5-7.3c-4.2-3.3-7.9-7-11.3-11.1
			c-2.4-2.6-4.9-5.4-7.6-8c1.5-5.3,3.4-10.6,5.6-15.7c1.6-4,3.2-7.9,4.5-11.8c1.4-4.1,2.5-8.3,3.6-12.6c1.7-9,5.2-17.7,10.1-25.5
			c6.1-7,13.5-12.8,21.7-17.2c3.8-2.4,7.6-4.7,11.1-7.3c3.6-2.5,6.9-5.3,10.4-8c6.9-6.4,14.9-11.4,23.6-14.9
			c9.1-2.1,18.4-2.6,27.6-1.5c9.1,0.5,18.2,0.5,27.3,0c9.2-1.1,18.6-0.7,27.7,1.5c8.7,3.5,16.7,8.6,23.6,14.9
			c3.4,2.8,6.9,5.5,10.4,8c3.5,2.5,7.4,4.9,11.1,7.3c8.2,4.4,15.6,10.3,21.7,17.3c4.9,7.8,8.3,16.5,10.1,25.5
			c1.1,4.2,2.3,8.5,3.6,12.6c1.3,4,2.9,7.9,4.6,12c4.1,8.4,6.5,17.4,7.2,26.7C554.1,304.6,551.7,313.7,547.6,322.1z"/>
		<path d="M414.5,352.9l-14.9-10.5l-8.9-15.7c-0.6-1-1.4-1.9-2.4-2.6l-14.9-10.4l-8.9-15.7l-14.3,7.8l9.8,17.2
			c0.6,1,1.4,1.9,2.4,2.6l14.8,10.4l8.9,15.7c0.6,1,1.4,1.9,2.4,2.6l14.9,10.5l8.9,15.7l14.3-7.8l-9.8-17.3
			C416.3,354.5,415.5,353.6,414.5,352.9z"/>
		<path d="M450.3,242.2l-1.2,19.8c-0.1,1.5,0.3,3,1,4.4l10,17.4l-1.2,19.9l16.4,0.9l1.3-22.2c0.1-1.5-0.3-3-1-4.4l-10-17.4l1.2-19.8
			c0.1-1.5-0.3-3-1-4.4l-10-17.3l1.2-19.8l-16.4-0.9l-1.3,22.2c-0.1,1.5,0.3,3,1,4.4L450.3,242.2z"/>
		<path d="M493.2,300.5c-1,1-1.7,2.2-2,3.5l-8.1,30.9l-22.6,23c-1,1-1.7,2.2-2,3.5l-8.1,31l-22.6,23.1l11.8,11.1l24.1-24.6
			c1-1,1.7-2.2,2-3.5l8.1-31l22.6-23.1c1-1,1.7-2.2,2-3.5l8.1-30.9l22.6-23l-11.8-11.1L493.2,300.5z"/>
		<path d="M352.8,241.8l22.8,16.2l13.5,24.2c0.6,1,1.4,1.9,2.4,2.6l22.9,16.2l13.5,24.2l14.4-7.7l-14.4-25.8c-0.6-1-1.4-1.9-2.4-2.6
			L402.6,273l-13.5-24.2c-0.6-1-1.4-1.9-2.4-2.6l-22.8-16.2l-13.5-24.2l-14.4,7.6l14.4,25.8C351,240.2,351.8,241.1,352.8,241.8z"/>
	</g>
</g>
<g id="Capa_2">
	<g>
		<path class="st3" d="M225.3,433.5c-10.2,0-18.6-8.3-18.6-18.6c0-10.2,8.3-18.6,18.6-18.6s18.6,8.3,18.6,18.6
			C243.9,425.2,235.5,433.5,225.3,433.5z M225.3,398.6c-9,0-16.3,7.3-16.3,16.3s7.3,16.3,16.3,16.3s16.3-7.3,16.3-16.3
			S234.3,398.6,225.3,398.6z"/>
	</g>
	<g>
		<path class="st3" d="M247.1,525.5c-4.5,0-7.4-3.4-10.2-6.6c-3-3.4-6.1-7-11.1-7.2c-4.2-0.2-6.9,1.9-9.8,4.1
			c-3.1,2.4-6.4,4.9-11.3,4.3c-4.5-0.5-6.6-3-9-6c-2.2-2.6-4.6-5.5-9.4-8c-6.1-3.1-10.9-2.9-15.1-2.6c-4.3,0.2-8.4,0.5-12.7-2.9
			c-4.6-3.6-5.3-8.1-5.9-12.8c-0.6-4.5-1.3-9.1-5.6-13.8c-4.2-4.5-8.8-5.8-12.9-7c-4.4-1.3-8.5-2.4-10.7-7.1
			c-2-4.2-0.7-7.6,0.6-11.2c1.3-3.4,2.7-7.2,1.7-12.5c-1.2-6.4-5-10.2-8.3-13.6c-3.2-3.2-6.3-6.3-5.6-10.9c0.7-4.5,4.3-6.6,8.2-8.7
			c3.9-2.2,7.9-4.5,9.9-9.5c1.8-4.7,0.6-8.4-0.7-12.3c-1.3-4-2.7-8.1-0.5-13c2.3-4.9,6.2-6.4,10.5-8.1c4.1-1.6,8.4-3.2,11.9-8.3
			c2.8-4.2,3.1-7.7,3.4-11c0.3-3.6,0.6-7,4-10.2c3.6-3.3,7.3-3.2,11.2-3.2c3.7,0.1,7.9,0.1,13.1-2.4c5.3-2.6,7.7-5.9,9.8-8.8
			c2.2-3.1,4.3-6,9.1-6.9c5.1-1,8.4,1.1,11.9,3.3c3.5,2.2,7,4.4,13,4.5c5.4,0.1,8.7-1.8,11.9-3.5c3.3-1.8,6.5-3.6,11.2-2.4
			c4.6,1.1,6.6,4,8.8,7c2.1,2.9,4.4,6.1,9.5,8.8c4.6,2.4,7.8,2.4,10.9,2.3c3.2,0,6.2-0.1,10.2,2.5c4.8,3.1,6.1,6.8,7.5,11.1
			c1.4,4,2.9,8.4,7.7,13.7c3.8,4.2,6.9,5.9,9.4,7.3c2.8,1.6,5.3,2.9,7,6.9c2.4,5.5,0.9,10-0.5,14.4c-1.3,4.1-2.6,8-0.7,12.7
			c1.9,4.7,5.7,7,9.1,9c3.5,2.1,6.8,4,7.2,8.2l0,0c0.3,4.1-2.5,6.6-5.5,9.2c-3.1,2.8-6.7,5.9-8.3,11.6c-1.2,4.4-0.5,7.4,0.2,10.3
			c0.8,3.1,1.6,6.4-0.2,10.8c-1.9,4.8-5,6.5-8.3,8.3c-2.9,1.6-6.1,3.4-9.3,7.6c-4,5.4-4.6,10.2-5.1,14.4c-0.5,4.4-1,8.6-5.3,12.2
			c-3.9,3.3-7.6,3.2-11.5,3.1c-3.6-0.1-7.6-0.2-12.8,2.4c-6.6,3.3-9.7,8.2-12.4,12.5c-2.7,4.2-5,7.8-9.7,8
			C247.4,525.5,247.3,525.5,247.1,525.5z M225.2,509.3c0.2,0,0.5,0,0.7,0c6,0.3,9.6,4.4,12.7,8c2.8,3.2,5.2,6,8.8,5.8
			c3.5-0.2,5.3-3,7.8-7c2.8-4.3,6.2-9.8,13.4-13.3c5.7-2.8,10-2.7,13.9-2.7c3.7,0.1,6.7,0.2,9.9-2.6c3.5-3,4-6.4,4.5-10.7
			c0.5-4.5,1.2-9.7,5.6-15.5c3.5-4.6,6.9-6.5,10-8.2c3.2-1.8,5.7-3.1,7.3-7.1c1.5-3.8,0.9-6.4,0.1-9.4c-0.7-3.1-1.6-6.5-0.2-11.5
			c1.8-6.4,5.8-9.9,9-12.7c2.9-2.5,5-4.4,4.8-7.3l0,0c-0.2-3-2.8-4.5-6.1-6.4c-3.5-2.1-7.9-4.6-10.1-10.1c-2.2-5.5-0.8-9.9,0.6-14.3
			c1.3-4.2,2.6-8.1,0.6-12.8c-1.4-3.3-3.3-4.3-6-5.8c-2.7-1.5-6-3.3-10-7.7c-5.1-5.6-6.8-10.6-8.2-14.5c-1.4-4.1-2.5-7.3-6.6-9.9
			c-3.4-2.2-6-2.2-9-2.2c-3.2,0-6.8,0.1-12-2.6c-5.6-2.9-8.2-6.5-10.3-9.5c-2.1-2.9-3.7-5.2-7.4-6.1c-3.9-0.9-6.4,0.5-9.6,2.2
			c-3.2,1.8-6.9,3.8-12.8,3.8c-0.1,0-0.1,0-0.2,0c-6.6-0.1-10.6-2.6-14.2-4.8c-3.4-2.1-6.1-3.8-10.3-3c-3.9,0.8-5.5,3.1-7.7,6
			c-2.2,3-4.9,6.7-10.7,9.5c-5.7,2.8-10.4,2.7-14.1,2.7c-3.8-0.1-6.7-0.1-9.6,2.6c-2.8,2.6-3,5.3-3.3,8.7c-0.3,3.5-0.6,7.5-3.8,12.1
			c-3.9,5.7-8.7,7.5-12.9,9.2c-3.9,1.5-7.3,2.8-9.2,6.9c-1.9,4-0.7,7.4,0.5,11.3c1.3,4,2.8,8.4,0.7,13.9c-2.3,5.8-6.9,8.4-10.9,10.7
			c-3.6,2-6.5,3.7-7.1,7.1c-0.5,3.4,1.9,5.9,4.9,8.9c3.4,3.4,7.6,7.6,8.9,14.8c1.1,5.9-0.4,10.1-1.8,13.7c-1.3,3.4-2.3,6.1-0.7,9.5
			c1.8,3.7,5.1,4.7,9.3,5.9c4.4,1.3,9.4,2.7,14,7.7c4.8,5.2,5.6,10.4,6.2,15c0.6,4.4,1.2,8.2,5.1,11.3c3.6,2.8,6.9,2.7,11.2,2.4
			c4.5-0.3,9.7-0.6,16.3,2.9c5.2,2.7,7.9,5.9,10.1,8.6c2.3,2.8,4,4.8,7.5,5.1c4.1,0.5,6.8-1.6,9.7-3.9
			C217.5,511.8,220.6,509.3,225.2,509.3z"/>
	</g>
	<g>
		<path class="st3" d="M198.2,383c-0.3,0-0.6-0.1-0.8-0.3l-19.8-19.8c-0.4-0.4-0.4-1.2,0-1.6s1.2-0.4,1.6,0L199,381
			c0.4,0.4,0.4,1.2,0,1.6C198.8,382.9,198.5,383,198.2,383z"/>
	</g>
	<g>
		<path class="st3" d="M222.9,379.4c-0.6,0-1.1-0.5-1.1-1.1V350c0-0.6,0.5-1.1,1.1-1.1s1.1,0.5,1.1,1.1v28.3
			C224,378.9,223.5,379.4,222.9,379.4z"/>
	</g>
	<g>
		<path class="st3" d="M254.1,393.2c-0.4,0-0.8-0.2-1-0.5c-0.3-0.5-0.2-1.2,0.4-1.6l26.5-16.2c0.5-0.3,1.2-0.2,1.6,0.4
			c0.3,0.5,0.2,1.2-0.4,1.6L254.7,393C254.5,393.2,254.3,393.2,254.1,393.2z"/>
	</g>
	<g>
		<path class="st3" d="M292,419.7h-30.7c-0.6,0-1.1-0.5-1.1-1.1s0.5-1.1,1.1-1.1H292c0.6,0,1.1,0.5,1.1,1.1S292.6,419.7,292,419.7z"
			/>
	</g>
	<g>
		<path class="st3" d="M277.6,467.8c-0.3,0-0.6-0.1-0.8-0.3c-8.6-8.1-22.7-21.2-24.4-22.1c-0.6-0.3-0.8-1-0.5-1.5s1-0.8,1.5-0.5
			c2.5,1.2,22.6,20.3,24.9,22.4c0.5,0.4,0.5,1.2,0,1.6C278.2,467.6,277.9,467.8,277.6,467.8z"/>
	</g>
	<g>
		<path class="st3" d="M218.7,490.6C218.7,490.6,218.6,490.6,218.7,490.6c-0.7,0-1.2-0.6-1.1-1.2l1.2-36.1c0-0.6,0.5-1.1,1.1-1.1
			c0,0,0,0,0,0c0.6,0,1.1,0.6,1.1,1.2l-1.2,36.1C219.8,490.1,219.3,490.6,218.7,490.6z"/>
	</g>
	<g>
		<path class="st3" d="M164.6,466.6c-0.3,0-0.6-0.1-0.8-0.4c-0.4-0.5-0.4-1.2,0-1.6l24-22.8c0.5-0.4,1.2-0.4,1.6,0
			c0.4,0.5,0.4,1.2,0,1.6l-24,22.8C165.1,466.5,164.8,466.6,164.6,466.6z"/>
	</g>
	<g>
		<path class="st3" d="M186.8,416.7h-34.3c-0.6,0-1.1-0.5-1.1-1.1s0.5-1.1,1.1-1.1h34.3c0.6,0,1.1,0.5,1.1,1.1
			S187.4,416.7,186.8,416.7z"/>
	</g>
	<g>
		<path class="st3" d="M257.8,557.7c-4.9,0-8.5-1.7-12.4-3.7c-4.8-2.4-10.3-5.1-20.2-5.7c-12-0.8-19.5,2.2-26.2,4.9
			c-6.8,2.7-12.7,5-21,2.3c-7.5-2.5-10.4-7-14.1-12.6c-3.4-5.2-7.6-11.8-17-19.4c-9.2-7.5-16.3-10.2-21.9-12.3
			c-6.3-2.4-11.3-4.3-16.2-11.3c-5.2-7.5-5.2-13.5-5.1-20.5c0.1-6.7,0.2-14.2-4.1-25.5c-3.9-10.3-8.7-16-12.4-20.6
			c-4.4-5.3-7.9-9.4-8.1-17.7c-0.2-8.1,3-12.8,7-18.8c3.1-4.6,7-10.4,10.5-19.5c4.6-11.9,3.9-19.7,3.2-26.6
			c-0.6-6.5-1.1-12.1,3.5-18.7c5-7.2,10.8-8.8,18.2-10.8c6.7-1.8,15-4.1,26-11.1c10.4-6.7,15.6-12.9,19.9-17.9
			c4.9-5.8,8.8-10.4,17.8-12.4c7.8-1.8,12.6,0.4,18.2,2.9c5.6,2.5,12,5.4,23.5,5.5c12.8,0.2,21.5-2.1,28.5-4
			c8.3-2.2,14.8-3.9,23.1-0.2c7.6,3.4,10.3,8.5,13.3,14.4c3,5.8,6.4,12.4,15.8,19.4c8,6,14.2,7.6,19.7,9.1c5.9,1.5,10.9,2.9,16,9.2
			c5,6.2,5.2,11.4,5.6,17.9c0.3,6,0.7,13.4,4.8,24.5c3.4,9.2,6.9,14.2,9.8,18.2c3.3,4.7,5.7,8.2,5.9,15.2c0.2,8.3-2.9,12.7-6.9,18.4
			c-3.2,4.5-7.1,10.1-10.6,19.3c-4.6,12.5-4.4,20.8-4.2,28.1c0.2,7.3,0.4,13.7-5,21.5c-5,7.2-10.2,9-16.8,11.2
			c-6,2-13.4,4.5-23.7,11.9c-11,7.9-16.8,15.3-21.4,21.2c-5.5,7.1-9.5,12.2-18.7,13.9C260.6,557.6,259.1,557.7,257.8,557.7z
			 M221.4,545.9c1.3,0,2.6,0,4,0.1c10.3,0.7,16.3,3.6,21,5.9c4.9,2.4,8.7,4.3,15.4,3.1c8.3-1.5,11.9-6.1,17.3-13
			c4.7-6,10.6-13.6,21.9-21.6c10.6-7.6,18.2-10.2,24.3-12.2c6.7-2.2,11.1-3.7,15.7-10.3c5-7.2,4.8-12.9,4.6-20.1
			c-0.2-7.1-0.5-16,4.3-29c3.5-9.5,7.6-15.3,10.9-19.8c3.9-5.5,6.7-9.5,6.5-17l0,0c-0.2-6.3-2.3-9.4-5.5-13.9
			c-2.9-4.1-6.5-9.3-10-18.8c-4.2-11.4-4.6-19-5-25.2c-0.3-6.4-0.6-11-5.1-16.6c-4.6-5.7-9.1-6.9-14.8-8.4
			c-5.4-1.4-12.1-3.2-20.5-9.5c-9.7-7.3-13.3-14.1-16.4-20.2c-3-5.7-5.3-10.2-12.2-13.4c-7.5-3.4-13.4-1.9-21.5,0.3
			c-7.1,1.9-16.1,4.2-29.1,4c-12-0.2-18.9-3.2-24.4-5.7c-5.4-2.4-9.7-4.3-16.8-2.7c-8.2,1.8-11.7,5.9-16.5,11.6
			c-4.3,5.1-9.8,11.4-20.4,18.3c-11.3,7.3-19.8,9.6-26.6,11.4c-7.5,2-12.4,3.4-17,9.9c-4.1,6-3.7,10.9-3.1,17.2
			c0.6,6.8,1.4,15.2-3.4,27.6c-3.6,9.4-7.5,15.3-10.7,20c-4,5.9-6.8,10.1-6.6,17.4c0.2,7.5,3.3,11.2,7.5,16.3
			c3.9,4.7,8.8,10.5,12.8,21.2c4.4,11.7,4.3,19.8,4.2,26.3c-0.1,6.8-0.2,12.2,4.7,19.1c4.5,6.5,9,8.2,15.1,10.5
			c5.8,2.2,13,4.9,22.5,12.7c9.7,7.9,14,14.6,17.5,20c3.7,5.7,6.1,9.5,12.8,11.7c7.6,2.5,12.8,0.4,19.5-2.3
			C204.3,548.6,211.1,545.9,221.4,545.9z"/>
	</g>
	<g>
		<path class="st4" d="M148.3,310.9"/>
	</g>
	<g>
		<path class="st3" d="M184,224.8c-16.7,0-34.2-4.9-50.2-14.2c-39.5-22.8-57.8-65.2-40.9-94.6c16.9-29.3,62.8-34.7,102.3-11.9
			c19.1,11,33.8,26.9,41.6,44.7c7.8,17.9,7.5,35.6-0.7,49.9l-1-0.6l1,0.6c-8.2,14.3-23.5,23.4-42.9,25.6
			C190.2,224.6,187.1,224.8,184,224.8z M144.9,92.2c-21.7,0-40.6,8.5-50,24.9c-16.3,28.3,1.6,69.3,40,91.4
			c18.6,10.8,39.3,15.5,58.1,13.4c18.7-2.1,33.3-10.8,41.1-24.4l0,0c7.9-13.6,8.1-30.6,0.6-47.8c-7.5-17.3-22-32.8-40.6-43.6
			C177.9,96.8,160.7,92.2,144.9,92.2z"/>
	</g>
	<g>
		<path class="st3" d="M236,290c-0.3,0-0.6-0.1-0.9-0.4c-21.1-23.5-26.8-52.3-14.6-73.4c16.9-29.3,62.8-34.7,102.3-11.9
			c0.5,0.3,0.7,1,0.4,1.6c-0.3,0.5-1,0.7-1.6,0.4c-38.4-22.2-82.9-17.2-99.2,11.1c-11.7,20.2-6.1,48,14.3,70.8
			c0.4,0.5,0.4,1.2-0.1,1.6C236.5,289.9,236.3,290,236,290z"/>
	</g>
	<g>
		<path class="st3" d="M291.8,256.4c-0.2,0-0.5-0.1-0.7-0.2L119.2,119.7c-0.5-0.4-0.6-1.1-0.2-1.6c0.4-0.5,1.1-0.6,1.6-0.2
			l171.9,136.4c0.5,0.4,0.6,1.1,0.2,1.6C292.5,256.2,292.1,256.4,291.8,256.4z"/>
	</g>
	<g>
		<path class="st3" d="M437.7,472c-4.7,0-9.3-0.8-13.8-2.4c-9.8-3.5-16.9-12.4-18-22.9l-0.3-2.5c-0.3-3-1.9-5.6-4.4-7.3
			c-2.6-1.7-5.8-2.2-8.8-1.3c-1.5,0.4-3,0.7-4.5,0.8c-8.6,0.7-17.1-3.5-22-11c-0.3-0.5-0.2-1.2,0.3-1.6c0.5-0.3,1.2-0.2,1.6,0.3
			c4.5,6.8,12.1,10.6,19.9,10c1.4-0.1,2.7-0.4,4-0.7c3.7-1.1,7.6-0.5,10.7,1.6c3,2,5,5.3,5.4,9l0.3,2.5c1,9.6,7.5,17.8,16.5,21
			c4.9,1.7,9.9,2.4,15,2.2c0.5,0,1-0.1,1.5-0.1c15.3-1.4,27.7-14.2,28.9-29.9l1.2-16.7c0-0.2,0.1-0.3,0.1-0.4
			c6.9-13.5,15.2-21.5,24.6-23.9c3.8-1,7-0.8,10-0.7c3.4,0.2,6.7,0.3,10.9-1c0.4-0.1,0.8-0.3,1.2-0.4c10.5-3.8,17.4-14.2,17.1-25.7
			c-0.2-9.5,1-18.7,3.7-27.3c3-9.9,6.6-14.8,9.7-19.1c2.9-4,5.4-7.4,6.6-14c2.1-11-1.6-19-5.8-28.2c-3.8-8.3-8.2-17.8-9.4-31.5
			c-0.5-5.1-0.4-10.4,0.1-15.6c1.1-10.7-4.6-20.8-14.2-25c-5.7-2.6-10.8-5.9-15.2-9.9c-5.5-5-7.8-9.1-9.9-12.8
			c-2.1-3.7-3.9-7-8.7-10.5c-6.7-4.9-12.3-5-22.3-5.3c-6.9-0.2-15.5-0.4-27.9-2.1c-12-1.7-18-3.5-22.3-4.8
			c-4.8-1.4-7.9-2.4-15.4-2.2c-6.7,0.1-27,0.5-45.9,14.9c-4.4,3.3-8.4,7.2-12,11.6c-5.2,6.4-11.9,10.9-19.6,13.3
			c-8.8,2.7-15.4,7-19.5,12.8c-4.5,6.2-5.1,12.3-5.8,20.1c-0.7,6.8-1.5,14.5-5.1,23.9c-3.8,9.8-9.6,18.8-17.4,26.7
			c-0.4,0.5-1.2,0.5-1.6,0c-0.5-0.4-0.5-1.2,0-1.6c7.5-7.8,13.2-16.5,16.9-26c3.5-9.1,4.3-16.7,5-23.3c0.8-7.8,1.5-14.5,6.3-21.2
			c4.4-6.2,11.4-10.8,20.7-13.6c7.2-2.2,13.6-6.5,18.5-12.5c3.6-4.5,7.8-8.5,12.3-12c19.5-14.9,40.4-15.3,47.3-15.4
			c7.8-0.1,11.1,0.8,16.1,2.3c4.5,1.4,10.2,3,22,4.7c12.3,1.7,20.8,1.9,27.6,2.1c10.2,0.2,16.3,0.4,23.6,5.7
			c5.2,3.8,7.2,7.4,9.3,11.2c2.1,3.7,4.2,7.5,9.4,12.2c4.2,3.8,9.2,7,14.6,9.5c10.4,4.7,16.7,15.7,15.5,27.4
			c-0.5,5.1-0.5,10.2-0.1,15.2c1.2,13.3,5.4,22.6,9.2,30.7c4.4,9.6,8.2,17.8,6,29.6c-1.3,7.1-4,10.7-7,14.9c-3,4.2-6.4,8.9-9.4,18.4
			c-2.6,8.4-3.8,17.4-3.6,26.6c0.3,12.5-7.2,23.7-18.6,27.9c-0.4,0.2-0.8,0.3-1.3,0.4c-4.6,1.5-8.2,1.3-11.7,1.1
			c-3-0.1-5.9-0.3-9.4,0.6c-8.8,2.2-16.5,9.8-23,22.5l-1.2,16.5c-1.2,16.8-14.5,30.5-30.9,32c-0.5,0-1,0.1-1.6,0.1
			C439.2,472,438.4,472,437.7,472z"/>
	</g>
	<g>
		<path class="st3" d="M420.5,372.7c0,0-0.1,0-0.1,0c-10.5-1.4-17.9-5.1-22.2-11.2c-4-5.7-4-12-4.1-17.5c0-5.4,0-10.1-3.6-13.2
			c-3-2.7-6.8-2.5-10.8-2.4c-4.3,0.1-9.1,0.3-13.3-3.2c-4.8-3.9-7-10.9-6.6-20.6c0-0.6,0.6-1.1,1.2-1.1c0.6,0,1.1,0.6,1.1,1.2
			c-0.4,9,1.6,15.3,5.8,18.8c3.6,2.9,7.6,2.8,11.8,2.7c4.3-0.1,8.7-0.3,12.4,3c4.3,3.8,4.4,9.2,4.4,14.9c0,5.5,0.1,11.1,3.7,16.2
			c3.9,5.5,10.8,8.9,20.6,10.2c0.6,0.1,1.1,0.7,1,1.3C421.5,372.3,421.1,372.7,420.5,372.7z"/>
	</g>
	<g>
		<path class="st3" d="M436.2,318.7c-0.6,0-1-0.4-1.1-1c-1.8-12.5-6.4-21.8-13.6-27.4c-5.8-4.5-11.6-5.5-17.3-6.5
			c-6.2-1.1-12.1-2.1-16.7-7.7c-4.3-5.2-4.3-10.8-4.4-15.7c0-5-0.1-9.2-4-12.9c-3.8-3.6-8.4-3.8-13.2-4c-5-0.2-10.2-0.4-14.9-4.4
			c-5.9-4.9-8.5-13.8-7.7-26.3c0-0.6,0.6-1.1,1.2-1.1c0.6,0,1.1,0.6,1.1,1.2c-0.7,11.7,1.6,19.9,6.9,24.4c4.1,3.4,8.7,3.6,13.5,3.8
			c5,0.2,10.3,0.5,14.7,4.6c4.6,4.4,4.6,9.5,4.7,14.6c0,4.7,0.1,9.6,3.9,14.2c4,5,9.3,5.9,15.3,6.9c5.6,1,12.1,2.1,18.3,7
			c7.7,6,12.6,15.7,14.5,28.9c0.1,0.6-0.3,1.2-1,1.3C436.3,318.7,436.3,318.7,436.2,318.7z"/>
	</g>
	<g>
		<path class="st3" d="M469.4,299.6c-0.2,0-0.3,0-0.5-0.1c-0.6-0.3-0.8-0.9-0.6-1.5c3.1-6.9,3.7-12.9,1.7-17.7
			c-2.3-5.4-7.1-7.9-11.8-10.3c-4.5-2.3-8.7-4.4-9.6-9c-1-5.3,3.3-9.6,7.4-13.8c3.9-3.9,7.5-7.5,6.6-11.5c-0.7-3.4-4.4-5.2-8.3-7.2
			c-4.5-2.3-9.1-4.6-10.3-9.7c-1.1-4.6,1.1-9.8,6.5-15.7c0.4-0.5,1.2-0.5,1.6-0.1c0.5,0.4,0.5,1.2,0.1,1.6
			c-4.8,5.2-6.8,9.8-5.9,13.6c1,4,4.9,6,9.1,8.2c4.2,2.1,8.5,4.3,9.5,8.7c1.2,5.2-3.1,9.5-7.3,13.6c-3.9,3.9-7.6,7.6-6.8,11.7
			c0.7,3.5,4.3,5.3,8.4,7.4c4.8,2.5,10.3,5.3,12.9,11.5c2.2,5.4,1.7,11.9-1.7,19.5C470.3,299.3,469.9,299.6,469.4,299.6z"/>
	</g>
	<g>
		<path class="st3" d="M437.4,418.8c-0.5,0-0.9-0.3-1.1-0.8c-0.2-0.6,0.1-1.2,0.7-1.4c11.1-3.7,18.8-9.4,23-16.9
			c4.1-7.5,3.4-14.2,2.7-21.3c-0.8-7.1-1.6-14.5,3-22.6c4.1-7.4,9.9-10.3,15-12.8c5.4-2.7,10-5,12.5-11.8c2.3-6.2,1-11.5-0.2-16.7
			c-1.3-5.4-2.6-10.4,0.3-16.1c3.9-7.8,13.9-12.6,29.6-14.1c0.6-0.1,1.2,0.4,1.3,1s-0.4,1.2-1,1.3c-14.9,1.5-24.2,5.8-27.8,12.9
			c-2.5,4.9-1.4,9.3-0.1,14.5c1.3,5.2,2.7,11.1,0.1,18c-2.8,7.6-8.3,10.3-13.6,13c-5,2.5-10.2,5.1-14,11.9
			c-4.2,7.5-3.5,14.2-2.7,21.3c0.8,7.1,1.6,14.5-2.9,22.6c-4.5,8.1-12.6,14.1-24.3,18C437.6,418.8,437.5,418.8,437.4,418.8z"/>
	</g>
</g>
</svg>
